  0
SECTION
  2
HEADER
  9
$ACADVER
  1
AC1014
  9
$ACADMAINTVER
 70
     9
  9
$DWGCODEPAGE
  3
ANSI_1252
  9
$INSBASE
 10
0.0
 20
0.0
 30
0.0
  9
$EXTMIN
 10
1.000000000000000E+20
 20
1.000000000000000E+20
 30
1.000000000000000E+20
  9
$EXTMAX
 10
-1.000000000000000E+20
 20
-1.000000000000000E+20
 30
-1.000000000000000E+20
  9
$LIMMIN
 10
0.0
 20
0.0
  9
$LIMMAX
 10
12.0
 20
9.0
  9
$ORTHOMODE
 70
     0
  9
$REGENMODE
 70
     1
  9
$FILLMODE
 70
     1
  9
$QTEXTMODE
 70
     0
  9
$MIRRTEXT
 70
     1
  9
$DRAGMODE
 70
     2
  9
$LTSCALE
 40
1.0
  9
$OSMODE
 70
    37
  9
$ATTMODE
 70
     1
  9
$TEXTSIZE
 40
0.2
  9
$TRACEWID
 40
0.05
  9
$TEXTSTYLE
  7
STANDARD
  9
$CLAYER
  8
0
  9
$CELTYPE
  6
BYLAYER
  9
$CECOLOR
 62
   256
  9
$CELTSCALE
 40
1.0
  9
$DELOBJ
 70
     1
  9
$DISPSILH
 70
     0
  9
$DIMSCALE
 40
1.0
  9
$DIMASZ
 40
0.18
  9
$DIMEXO
 40
0.0625
  9
$DIMDLI
 40
0.38
  9
$DIMRND
 40
0.0
  9
$DIMDLE
 40
0.0
  9
$DIMEXE
 40
0.18
  9
$DIMTP
 40
0.0
  9
$DIMTM
 40
0.0
  9
$DIMTXT
 40
0.18
  9
$DIMCEN
 40
0.09
  9
$DIMTSZ
 40
0.0
  9
$DIMTOL
 70
     0
  9
$DIMLIM
 70
     0
  9
$DIMTIH
 70
     1
  9
$DIMTOH
 70
     1
  9
$DIMSE1
 70
     0
  9
$DIMSE2
 70
     0
  9
$DIMTAD
 70
     0
  9
$DIMZIN
 70
     0
  9
$DIMBLK
  1

  9
$DIMASO
 70
     1
  9
$DIMSHO
 70
     1
  9
$DIMPOST
  1

  9
$DIMAPOST
  1

  9
$DIMALT
 70
     0
  9
$DIMALTD
 70
     2
  9
$DIMALTF
 40
25.4
  9
$DIMLFAC
 40
1.0
  9
$DIMTOFL
 70
     0
  9
$DIMTVP
 40
0.0
  9
$DIMTIX
 70
     0
  9
$DIMSOXD
 70
     0
  9
$DIMSAH
 70
     0
  9
$DIMBLK1
  1

  9
$DIMBLK2
  1

  9
$DIMSTYLE
  2
STANDARD
  9
$DIMCLRD
 70
     0
  9
$DIMCLRE
 70
     0
  9
$DIMCLRT
 70
     0
  9
$DIMTFAC
 40
1.0
  9
$DIMGAP
 40
0.09
  9
$DIMJUST
 70
     0
  9
$DIMSD1
 70
     0
  9
$DIMSD2
 70
     0
  9
$DIMTOLJ
 70
     1
  9
$DIMTZIN
 70
     0
  9
$DIMALTZ
 70
     0
  9
$DIMALTTZ
 70
     0
  9
$DIMFIT
 70
     3
  9
$DIMUPT
 70
     0
  9
$DIMUNIT
 70
     2
  9
$DIMDEC
 70
     4
  9
$DIMTDEC
 70
     4
  9
$DIMALTU
 70
     2
  9
$DIMALTTD
 70
     2
  9
$DIMTXSTY
  7
STANDARD
  9
$DIMAUNIT
 70
     0
  9
$LUNITS
 70
     2
  9
$LUPREC
 70
     4
  9
$SKETCHINC
 40
0.1
  9
$FILLETRAD
 40
0.5
  9
$AUNITS
 70
     0
  9
$AUPREC
 70
     0
  9
$MENU
  1
.
  9
$ELEVATION
 40
0.0
  9
$PELEVATION
 40
0.0
  9
$THICKNESS
 40
0.0
  9
$LIMCHECK
 70
     0
  9
$CHAMFERA
 40
0.5
  9
$CHAMFERB
 40
0.5
  9
$CHAMFERC
 40
1.0
  9
$CHAMFERD
 40
0.0
  9
$SKPOLY
 70
     0
  9
$TDCREATE
 40
2455847.459952037
  9
$TDUPDATE
 40
2455847.459952048
  9
$TDINDWG
 40
0.0000000116
  9
$TDUSRTIMER
 40
0.0000000116
  9
$USRTIMER
 70
     1
  9
$ANGBASE
 50
0.0
  9
$ANGDIR
 70
     0
  9
$PDMODE
 70
     0
  9
$PDSIZE
 40
0.0
  9
$PLINEWID
 40
0.0
  9
$COORDS
 70
     1
  9
$SPLFRAME
 70
     0
  9
$SPLINETYPE
 70
     6
  9
$SPLINESEGS
 70
     8
  9
$ATTDIA
 70
     0
  9
$ATTREQ
 70
     1
  9
$HANDLING
 70
     1
  9
$HANDSEED
  5
2E2
  9
$SURFTAB1
 70
     6
  9
$SURFTAB2
 70
     6
  9
$SURFTYPE
 70
     6
  9
$SURFU
 70
     6
  9
$SURFV
 70
     6
  9
$UCSNAME
  2

  9
$UCSORG
 10
0.0
 20
0.0
 30
0.0
  9
$UCSXDIR
 10
1.0
 20
0.0
 30
0.0
  9
$UCSYDIR
 10
0.0
 20
1.0
 30
0.0
  9
$PUCSNAME
  2

  9
$PUCSORG
 10
0.0
 20
0.0
 30
0.0
  9
$PUCSXDIR
 10
1.0
 20
0.0
 30
0.0
  9
$PUCSYDIR
 10
0.0
 20
1.0
 30
0.0
  9
$USERI1
 70
     0
  9
$USERI2
 70
     0
  9
$USERI3
 70
     0
  9
$USERI4
 70
     0
  9
$USERI5
 70
     0
  9
$USERR1
 40
0.0
  9
$USERR2
 40
0.0
  9
$USERR3
 40
0.0
  9
$USERR4
 40
0.0
  9
$USERR5
 40
0.0
  9
$WORLDVIEW
 70
     1
  9
$SHADEDGE
 70
     3
  9
$SHADEDIF
 70
    70
  9
$TILEMODE
 70
     1
  9
$MAXACTVP
 70
    64
  9
$PINSBASE
 10
0.0
 20
0.0
 30
0.0
  9
$PLIMCHECK
 70
     0
  9
$PEXTMIN
 10
1.000000000000000E+20
 20
1.000000000000000E+20
 30
1.000000000000000E+20
  9
$PEXTMAX
 10
-1.000000000000000E+20
 20
-1.000000000000000E+20
 30
-1.000000000000000E+20
  9
$PLIMMIN
 10
0.0
 20
0.0
  9
$PLIMMAX
 10
12.0
 20
9.0
  9
$UNITMODE
 70
     0
  9
$VISRETAIN
 70
     1
  9
$PLINEGEN
 70
     0
  9
$PSLTSCALE
 70
     1
  9
$TREEDEPTH
 70
  3020
  9
$PICKSTYLE
 70
     1
  9
$CMLSTYLE
  2
STANDARD
  9
$CMLJUST
 70
     0
  9
$CMLSCALE
 40
1.0
  9
$PROXYGRAPHICS
 70
     1
  9
$MEASUREMENT
 70
     0
  0
ENDSEC
  0
SECTION
  2
CLASSES
  0
CLASS
  1
ACDBDICTIONARYWDFLT
  2
AcDbDictionaryWithDefault
  3
ObjectDBX Classes
 90
        0
280
     0
281
     0
  0
CLASS
  1
VISUALSTYLE
  2
AcDbVisualStyle
  3
ObjectDBX Classes
 90
     4095
280
     0
281
     0
  0
CLASS
  1
MATERIAL
  2
AcDbMaterial
  3
ObjectDBX Classes
 90
     1153
280
     0
281
     0
  0
CLASS
  1
DICTIONARYVAR
  2
AcDbDictionaryVar
  3
ObjectDBX Classes
 90
        0
280
     0
281
     0
  0
CLASS
  1
XRECORD
  2
AcDbXrecord
  3
AutoCAD 2000
 90
        0
280
     0
281
     0
  0
CLASS
  1
LWPOLYLINE
  2
AcDbPolyline
  3
AutoCAD 2000
 90
        0
280
     0
281
     1
  0
CLASS
  1
HATCH
  2
AcDbHatch
  3
AutoCAD 2000
 90
        0
280
     0
281
     1
  0
CLASS
  1
ACDBPLACEHOLDER
  2
AcDbPlaceHolder
  3
ObjectDBX Classes
 90
        0
280
     0
281
     0
  0
CLASS
  1
LAYOUT
  2
AcDbLayout
  3
ObjectDBX Classes
 90
        0
280
     0
281
     0
  0
ENDSEC
  0
SECTION
  2
TABLES
  0
TABLE
  2
VPORT
  5
8
330
0
100
AcDbSymbolTable
 70
     1
  0
VPORT
  5
29
330
8
100
AcDbSymbolTableRecord
100
AcDbViewportTableRecord
  2
*ACTIVE
 70
     0
 10
0.0
 20
0.0
 11
1.0
 21
1.0
 12
0.0
 22
0.0
 13
0.0
 23
0.0
 14
0.5
 24
0.5
 15
0.5
 25
0.5
 16
0.0
 26
0.0
 36
1.0
 17
0.0
 27
0.0
 37
-1000.0
 40
264.1348013961685
 41
1.993756503642039
 42
50.0
 43
371.9478510153068
 44
518.6218702592197
 50
0.0
 51
0.0
 71
     0
 72
   100
 73
     1
 74
     3
 75
     0
 76
     0
 77
     0
 78
     0
  0
ENDTAB
  0
TABLE
  2
LTYPE
  5
5
330
0
100
AcDbSymbolTable
 70
     1
  0
LTYPE
  5
14
330
5
100
AcDbSymbolTableRecord
100
AcDbLinetypeTableRecord
  2
BYBLOCK
 70
     0
  3

 72
    65
 73
     0
 40
0.0
  0
LTYPE
  5
15
330
5
100
AcDbSymbolTableRecord
100
AcDbLinetypeTableRecord
  2
BYLAYER
 70
     0
  3

 72
    65
 73
     0
 40
0.0
  0
LTYPE
  5
16
330
5
100
AcDbSymbolTableRecord
100
AcDbLinetypeTableRecord
  2
CONTINUOUS
 70
     0
  3
Solid line
 72
    65
 73
     0
 40
0.0
  0
ENDTAB
  0
TABLE
  2
LAYER
  5
2
330
0
100
AcDbSymbolTable
 70
     3
  0
LAYER
  5
10
330
2
100
AcDbSymbolTableRecord
100
AcDbLayerTableRecord
  2
0
 70
     0
 62
     7
  6
CONTINUOUS
  0
LAYER
  5
3F
330
2
100
AcDbSymbolTableRecord
100
AcDbLayerTableRecord
  2
PROFILEEDGES
 70
     0
 62
     7
  6
CONTINUOUS
  0
LAYER
  5
40
330
2
100
AcDbSymbolTableRecord
100
AcDbLayerTableRecord
  2
SECTIONCUTEDGES
 70
     0
 62
     7
  6
CONTINUOUS
  0
ENDTAB
  0
TABLE
  2
STYLE
  5
3
330
0
100
AcDbSymbolTable
 70
     1
  0
STYLE
  5
11
330
3
100
AcDbSymbolTableRecord
100
AcDbTextStyleTableRecord
  2
STANDARD
 70
     0
 40
0.0
 41
1.0
 50
0.0
 71
     0
 42
0.2
  3
txt
  4

  0
ENDTAB
  0
TABLE
  2
VIEW
  5
6
330
0
100
AcDbSymbolTable
 70
     0
  0
ENDTAB
  0
TABLE
  2
UCS
  5
7
330
0
100
AcDbSymbolTable
 70
     0
  0
ENDTAB
  0
TABLE
  2
APPID
  5
9
330
0
100
AcDbSymbolTable
 70
     1
  0
APPID
  5
12
330
9
100
AcDbSymbolTableRecord
100
AcDbRegAppTableRecord
  2
ACAD
 70
     0
  0
ENDTAB
  0
TABLE
  2
DIMSTYLE
  5
A
330
0
100
AcDbSymbolTable
 70
     1
  0
DIMSTYLE
105
27
330
A
100
AcDbSymbolTableRecord
100
AcDbDimStyleTableRecord
  2
STANDARD
 70
     0
  3

  4

  5

  6

  7

 40
1.0
 41
0.18
 42
0.0625
 43
0.38
 44
0.18
 45
0.0
 46
0.0
 47
0.0
 48
0.0
140
0.18
141
0.09
142
0.0
143
25.4
144
1.0
145
0.0
146
1.0
147
0.09
 71
     0
 72
     0
 73
     1
 74
     1
 75
     0
 76
     0
 77
     0
 78
     0
170
     0
171
     2
172
     0
173
     0
174
     0
175
     0
176
     0
177
     0
178
     0
270
     2
271
     4
272
     4
273
     2
274
     2
340
11
275
     0
280
     0
281
     0
282
     0
283
     1
284
     0
285
     0
286
     0
287
     3
288
     0
  0
ENDTAB
  0
TABLE
  2
BLOCK_RECORD
  5
1
330
0
100
AcDbSymbolTable
 70
     1
  0
BLOCK_RECORD
  5
1F
330
1
100
AcDbSymbolTableRecord
100
AcDbBlockTableRecord
  2
*MODEL_SPACE
  0
BLOCK_RECORD
  5
1B
330
1
100
AcDbSymbolTableRecord
100
AcDbBlockTableRecord
  2
*PAPER_SPACE
  0
ENDTAB
  0
ENDSEC
  0
SECTION
  2
BLOCKS
  0
BLOCK
  5
20
330
1F
100
AcDbEntity
  8
0
100
AcDbBlockBegin
  2
*MODEL_SPACE
 70
     0
 10
0.0
 20
0.0
 30
0.0
  3
*MODEL_SPACE
  1

  0
ENDBLK
  5
21
330
1F
100
AcDbEntity
  8
0
100
AcDbBlockEnd
  0
BLOCK
  5
1C
330
1B
100
AcDbEntity
 67
     1
  8
0
100
AcDbBlockBegin
  2
*PAPER_SPACE
 70
     0
 10
0.0
 20
0.0
 30
0.0
  3
*PAPER_SPACE
  1

  0
ENDBLK
  5
1D
330
1B
100
AcDbEntity
 67
     1
  8
0
100
AcDbBlockEnd
  0
ENDSEC
  0
SECTION
  2
ENTITIES
  0
LINE
  5
41
330
1F
100
AcDbEntity
  8
0
100
AcDbLine
 10
-225.7088009300748
 20
105.0875174688514
 30
0.0
 11
-224.890790764789
 21
105.3370603944109
 31
0.0
  0
LINE
  5
42
330
1F
100
AcDbEntity
  8
0
100
AcDbLine
 10
-234.090958435633
 20
105.6398483523007
 30
0.0
 11
-233.291126106477
 21
105.3370603944109
 31
0.0
  0
LINE
  5
43
330
1F
100
AcDbEntity
  8
0
100
AcDbLine
 10
-232.4731159411913
 20
105.0875174688514
 30
0.0
 11
-231.6404681924293
 21
104.8922995683188
 31
0.0
  0
LINE
  5
44
330
1F
100
AcDbEntity
  8
0
100
AcDbLine
 10
-197.4731159411913
 20
105.0875174688514
 30
0.0
 11
-196.6404681924294
 21
104.8922995683188
 31
0.0
  0
LINE
  5
45
330
1F
100
AcDbEntity
  8
0
100
AcDbLine
 10
-223.0909584356333
 20
109.6398483523007
 30
0.0
 11
-224.0909584356331
 21
105.6398483523007
 31
0.0
  0
LINE
  5
46
330
1F
100
AcDbEntity
  8
0
100
AcDbLine
 10
-227.3851304086678
 20
104.7522515731328
 30
0.0
 11
-226.5414486788367
 21
104.8922995683188
 31
0.0
  0
LINE
  5
47
330
1F
100
AcDbEntity
  8
0
100
AcDbLine
 10
-231.6404681924293
 20
104.8922995683188
 30
0.0
 11
-230.7967864625982
 21
104.7522515731328
 31
0.0
  0
LINE
  5
48
330
1F
100
AcDbEntity
  8
0
100
AcDbLine
 10
-224.890790764789
 20
105.3370603944109
 30
0.0
 11
-224.0909584356331
 21
105.6398483523007
 31
0.0
  0
LINE
  5
49
330
1F
100
AcDbEntity
  8
0
100
AcDbLine
 10
-229.090958435633
 20
104.6398483523007
 30
0.0
 11
-228.2361947633769
 21
104.6679795946933
 31
0.0
  0
LINE
  5
4A
330
1F
100
AcDbEntity
  8
0
100
AcDbLine
 10
-246.590958435633
 20
109.6398483523007
 30
0.0
 11
-235.0909584356327
 21
109.6398483523007
 31
0.0
  0
LINE
  5
4B
330
1F
100
AcDbEntity
  8
0
100
AcDbLine
 10
-228.2361947633769
 20
104.6679795946933
 30
0.0
 11
-227.3851304086678
 21
104.7522515731328
 31
0.0
  0
LINE
  5
4C
330
1F
100
AcDbEntity
  8
0
100
AcDbLine
 10
-234.090958435633
 20
105.6398483523007
 30
0.0
 11
-235.0909584356327
 21
109.6398483523007
 31
0.0
  0
LINE
  5
4D
330
1F
100
AcDbEntity
  8
0
100
AcDbLine
 10
-229.9457221078891
 20
104.6679795946933
 30
0.0
 11
-229.090958435633
 21
104.6398483523007
 31
0.0
  0
LINE
  5
4E
330
1F
100
AcDbEntity
  8
0
100
AcDbLine
 10
-243.590958435633
 20
96.63984835230069
 30
0.0
 11
-246.590958435633
 21
96.63984835230069
 31
0.0
  0
LINE
  5
4F
330
1F
100
AcDbEntity
  8
0
100
AcDbLine
 10
-230.7967864625982
 20
104.7522515731328
 30
0.0
 11
-229.9457221078891
 21
104.6679795946933
 31
0.0
  0
LINE
  5
50
330
1F
100
AcDbEntity
  8
0
100
AcDbLine
 10
-246.590958435633
 20
101.6398483523007
 30
0.0
 11
-246.590958435633
 21
109.6398483523007
 31
0.0
  0
LINE
  5
51
330
1F
100
AcDbEntity
  8
0
100
AcDbLine
 10
-226.5414486788367
 20
104.8922995683188
 30
0.0
 11
-225.7088009300748
 21
105.0875174688514
 31
0.0
  0
LINE
  5
52
330
1F
100
AcDbEntity
  8
0
100
AcDbLine
 10
-233.291126106477
 20
105.3370603944109
 30
0.0
 11
-232.4731159411913
 21
105.0875174688514
 31
0.0
  0
LINE
  5
53
330
1F
100
AcDbEntity
  8
0
100
AcDbLine
 10
-243.590958435633
 20
101.6398483523007
 30
0.0
 11
-243.590958435633
 21
96.63984835230069
 31
0.0
  0
LINE
  5
54
330
1F
100
AcDbEntity
  8
0
100
AcDbLine
 10
-246.590958435633
 20
101.6398483523007
 30
0.0
 11
-243.590958435633
 21
101.6398483523007
 31
0.0
  0
LINE
  5
55
330
1F
100
AcDbEntity
  8
0
100
AcDbLine
 10
-200.0909584356328
 20
109.6398483523007
 30
0.0
 11
-199.090958435633
 21
105.6398483523007
 31
0.0
  0
LINE
  5
56
330
1F
100
AcDbEntity
  8
0
100
AcDbLine
 10
-198.2911261064766
 20
105.3370603944109
 30
0.0
 11
-197.4731159411913
 21
105.0875174688514
 31
0.0
  0
LINE
  5
57
330
1F
100
AcDbEntity
  8
0
100
AcDbLine
 10
-199.090958435633
 20
105.6398483523007
 30
0.0
 11
-198.2911261064766
 21
105.3370603944109
 31
0.0
  0
LINE
  5
58
330
1F
100
AcDbEntity
  8
0
100
AcDbLine
 10
-223.0909584356333
 20
109.6398483523007
 30
0.0
 11
-200.0909584356328
 21
109.6398483523007
 31
0.0
  0
LINE
  5
59
330
1F
100
AcDbEntity
  8
0
100
AcDbLine
 10
-118.090958435633
 20
109.6398483523007
 30
0.0
 11
-95.0909584356328
 21
109.6398483523007
 31
0.0
  0
LINE
  5
5A
330
1F
100
AcDbEntity
  8
0
100
AcDbLine
 10
-94.09095843563303
 20
105.6398483523007
 30
0.0
 11
-95.0909584356328
 21
109.6398483523007
 31
0.0
  0
LINE
  5
5B
330
1F
100
AcDbEntity
  8
0
100
AcDbLine
 10
-94.09095843563303
 20
105.6398483523007
 30
0.0
 11
-93.29112610647702
 21
105.3370603944108
 31
0.0
  0
LINE
  5
5C
330
1F
100
AcDbEntity
  8
0
100
AcDbLine
 10
-93.29112610647702
 20
105.3370603944108
 30
0.0
 11
-92.47311594119132
 21
105.0875174688514
 31
0.0
  0
LINE
  5
5D
330
1F
100
AcDbEntity
  8
0
100
AcDbLine
 10
-92.47311594119132
 20
105.0875174688514
 30
0.0
 11
-91.64046819242941
 21
104.8922995683188
 31
0.0
  0
LINE
  5
5E
330
1F
100
AcDbEntity
  8
0
100
AcDbLine
 10
-91.64046819242941
 20
104.8922995683188
 30
0.0
 11
-90.79678646259829
 21
104.7522515731328
 31
0.0
  0
LINE
  5
5F
330
1F
100
AcDbEntity
  8
0
100
AcDbLine
 10
-90.79678646259829
 20
104.7522515731328
 30
0.0
 11
-89.94572210788914
 21
104.6679795946933
 31
0.0
  0
LINE
  5
60
330
1F
100
AcDbEntity
  8
0
100
AcDbLine
 10
-89.94572210788914
 20
104.6679795946933
 30
0.0
 11
-89.09095843563308
 21
104.6398483523007
 31
0.0
  0
LINE
  5
61
330
1F
100
AcDbEntity
  8
0
100
AcDbLine
 10
-89.09095843563308
 20
104.6398483523007
 30
0.0
 11
-88.23619476337701
 21
104.6679795946933
 31
0.0
  0
LINE
  5
62
330
1F
100
AcDbEntity
  8
0
100
AcDbLine
 10
-88.23619476337701
 20
104.6679795946933
 30
0.0
 11
-87.38513040866786
 21
104.7522515731328
 31
0.0
  0
LINE
  5
63
330
1F
100
AcDbEntity
  8
0
100
AcDbLine
 10
-87.38513040866786
 20
104.7522515731328
 30
0.0
 11
-86.54144867883674
 21
104.8922995683188
 31
0.0
  0
LINE
  5
64
330
1F
100
AcDbEntity
  8
0
100
AcDbLine
 10
-86.54144867883674
 20
104.8922995683188
 30
0.0
 11
-85.70880093007484
 21
105.0875174688514
 31
0.0
  0
LINE
  5
65
330
1F
100
AcDbEntity
  8
0
100
AcDbLine
 10
-85.70880093007484
 20
105.0875174688514
 30
0.0
 11
-84.89079076478913
 21
105.3370603944108
 31
0.0
  0
LINE
  5
66
330
1F
100
AcDbEntity
  8
0
100
AcDbLine
 10
-84.89079076478913
 20
105.3370603944108
 30
0.0
 11
-84.09095843563314
 21
105.6398483523007
 31
0.0
  0
LINE
  5
67
330
1F
100
AcDbEntity
  8
0
100
AcDbLine
 10
-83.09095843563337
 20
109.6398483523007
 30
0.0
 11
-84.09095843563314
 21
105.6398483523007
 31
0.0
  0
LINE
  5
68
330
1F
100
AcDbEntity
  8
0
100
AcDbLine
 10
-83.09095843563337
 20
109.6398483523007
 30
0.0
 11
-60.09095843563282
 21
109.6398483523007
 31
0.0
  0
LINE
  5
69
330
1F
100
AcDbEntity
  8
0
100
AcDbLine
 10
-60.09095843563282
 20
109.6398483523007
 30
0.0
 11
-59.09095843563305
 21
105.6398483523007
 31
0.0
  0
LINE
  5
6A
330
1F
100
AcDbEntity
  8
0
100
AcDbLine
 10
-59.09095843563305
 20
105.6398483523007
 30
0.0
 11
-58.29112610647669
 21
105.3370603944108
 31
0.0
  0
LINE
  5
6B
330
1F
100
AcDbEntity
  8
0
100
AcDbLine
 10
-58.29112610647669
 20
105.3370603944108
 30
0.0
 11
-57.47311594119134
 21
105.0875174688514
 31
0.0
  0
LINE
  5
6C
330
1F
100
AcDbEntity
  8
0
100
AcDbLine
 10
-57.47311594119134
 20
105.0875174688514
 30
0.0
 11
-56.64046819242943
 21
104.8922995683188
 31
0.0
  0
LINE
  5
6D
330
1F
100
AcDbEntity
  8
0
100
AcDbLine
 10
-56.64046819242943
 20
104.8922995683188
 30
0.0
 11
-55.79678646259832
 21
104.7522515731328
 31
0.0
  0
LINE
  5
6E
330
1F
100
AcDbEntity
  8
0
100
AcDbLine
 10
-55.79678646259832
 20
104.7522515731328
 30
0.0
 11
-54.94572210788916
 21
104.6679795946933
 31
0.0
  0
LINE
  5
6F
330
1F
100
AcDbEntity
  8
0
100
AcDbLine
 10
-54.94572210788916
 20
104.6679795946933
 30
0.0
 11
-54.0909584356331
 21
104.6398483523007
 31
0.0
  0
LINE
  5
70
330
1F
100
AcDbEntity
  8
0
100
AcDbLine
 10
-54.0909584356331
 20
104.6398483523007
 30
0.0
 11
-53.23619476337704
 21
104.6679795946933
 31
0.0
  0
LINE
  5
71
330
1F
100
AcDbEntity
  8
0
100
AcDbLine
 10
-53.23619476337704
 20
104.6679795946933
 30
0.0
 11
-52.38513040866788
 21
104.7522515731328
 31
0.0
  0
LINE
  5
72
330
1F
100
AcDbEntity
  8
0
100
AcDbLine
 10
-52.38513040866788
 20
104.7522515731328
 30
0.0
 11
-51.54144867883677
 21
104.8922995683188
 31
0.0
  0
LINE
  5
73
330
1F
100
AcDbEntity
  8
0
100
AcDbLine
 10
-51.54144867883677
 20
104.8922995683188
 30
0.0
 11
-50.70880093007487
 21
105.0875174688514
 31
0.0
  0
LINE
  5
74
330
1F
100
AcDbEntity
  8
0
100
AcDbLine
 10
-50.70880093007487
 20
105.0875174688514
 30
0.0
 11
-49.89079076478915
 21
105.3370603944108
 31
0.0
  0
LINE
  5
75
330
1F
100
AcDbEntity
  8
0
100
AcDbLine
 10
-49.89079076478915
 20
105.3370603944108
 30
0.0
 11
-49.09095843563315
 21
105.6398483523007
 31
0.0
  0
LINE
  5
76
330
1F
100
AcDbEntity
  8
0
100
AcDbLine
 10
-49.09095843563315
 20
105.6398483523007
 30
0.0
 11
-48.09095843563302
 21
109.6398483523007
 31
0.0
  0
LINE
  5
77
330
1F
100
AcDbEntity
  8
0
100
AcDbLine
 10
-48.09095843563302
 20
109.6398483523007
 30
0.0
 11
-36.59095843563311
 21
109.6398483523007
 31
0.0
  0
LINE
  5
78
330
1F
100
AcDbEntity
  8
0
100
AcDbLine
 10
-36.59095843563311
 20
109.6398483523007
 30
0.0
 11
-36.59095843563311
 21
101.6398483523007
 31
0.0
  0
LINE
  5
79
330
1F
100
AcDbEntity
  8
0
100
AcDbLine
 10
-36.59095843563311
 20
101.6398483523007
 30
0.0
 11
-39.59095843563315
 21
101.6398483523007
 31
0.0
  0
LINE
  5
7A
330
1F
100
AcDbEntity
  8
0
100
AcDbLine
 10
-39.59095843563315
 20
101.6398483523007
 30
0.0
 11
-39.59095843563315
 21
96.63984835230069
 31
0.0
  0
LINE
  5
7B
330
1F
100
AcDbEntity
  8
0
100
AcDbLine
 10
-39.59095843563315
 20
96.63984835230069
 30
0.0
 11
-36.59095843563311
 21
96.63984835230069
 31
0.0
  0
LINE
  5
7C
330
1F
100
AcDbEntity
  8
0
100
AcDbLine
 10
-36.59095843563311
 20
96.63984835230069
 30
0.0
 11
-36.59095843563311
 21
89.63984835230075
 31
0.0
  0
LINE
  5
7D
330
1F
100
AcDbEntity
  8
0
100
AcDbLine
 10
-36.59095843563311
 20
89.63984835230075
 30
0.0
 11
-49.09095843563315
 21
89.63984835230056
 31
0.0
  0
LINE
  5
7E
330
1F
100
AcDbEntity
  8
0
100
AcDbLine
 10
-49.09095843563315
 20
86.63984835230062
 30
0.0
 11
-49.09095843563315
 21
89.63984835230056
 31
0.0
  0
LINE
  5
7F
330
1F
100
AcDbEntity
  8
0
100
AcDbLine
 10
-59.09095843563305
 20
86.6398483523007
 30
0.0
 11
-49.09095843563315
 21
86.63984835230062
 31
0.0
  0
LINE
  5
80
330
1F
100
AcDbEntity
  8
0
100
AcDbLine
 10
-59.09095843563305
 20
89.63984835230056
 30
0.0
 11
-59.09095843563305
 21
86.6398483523007
 31
0.0
  0
LINE
  5
81
330
1F
100
AcDbEntity
  8
0
100
AcDbLine
 10
-59.09095843563305
 20
89.63984835230056
 30
0.0
 11
-84.09095843563314
 21
89.63984835230048
 31
0.0
  0
LINE
  5
82
330
1F
100
AcDbEntity
  8
0
100
AcDbLine
 10
-84.09095843563314
 20
86.63984835230062
 30
0.0
 11
-84.09095843563314
 21
89.63984835230048
 31
0.0
  0
LINE
  5
83
330
1F
100
AcDbEntity
  8
0
100
AcDbLine
 10
-94.09095843563338
 20
86.6398483523007
 30
0.0
 11
-84.09095843563314
 21
86.63984835230062
 31
0.0
  0
LINE
  5
84
330
1F
100
AcDbEntity
  8
0
100
AcDbLine
 10
-94.09095843563338
 20
89.63984835230083
 30
0.0
 11
-94.09095843563338
 21
86.6398483523007
 31
0.0
  0
LINE
  5
85
330
1F
100
AcDbEntity
  8
0
100
AcDbLine
 10
-94.09095843563338
 20
89.63984835230083
 30
0.0
 11
-119.0909584356331
 21
89.63984835230083
 31
0.0
  0
LINE
  5
86
330
1F
100
AcDbEntity
  8
0
100
AcDbLine
 10
-119.0909584356331
 20
86.6398483523007
 30
0.0
 11
-119.0909584356331
 21
89.63984835230083
 31
0.0
  0
LINE
  5
87
330
1F
100
AcDbEntity
  8
0
100
AcDbLine
 10
-129.090958435633
 20
86.6398483523007
 30
0.0
 11
-119.0909584356331
 21
86.6398483523007
 31
0.0
  0
LINE
  5
88
330
1F
100
AcDbEntity
  8
0
100
AcDbLine
 10
-129.090958435633
 20
89.63984835230056
 30
0.0
 11
-129.090958435633
 21
86.6398483523007
 31
0.0
  0
LINE
  5
89
330
1F
100
AcDbEntity
  8
0
100
AcDbLine
 10
-129.090958435633
 20
89.63984835230056
 30
0.0
 11
-154.0909584356331
 21
89.63984835230056
 31
0.0
  0
LINE
  5
8A
330
1F
100
AcDbEntity
  8
0
100
AcDbLine
 10
-154.0909584356331
 20
86.6398483523007
 30
0.0
 11
-154.0909584356331
 21
89.63984835230056
 31
0.0
  0
LINE
  5
8B
330
1F
100
AcDbEntity
  8
0
100
AcDbLine
 10
-164.0909584356334
 20
86.6398483523007
 30
0.0
 11
-154.0909584356331
 21
86.6398483523007
 31
0.0
  0
LINE
  5
8C
330
1F
100
AcDbEntity
  8
0
100
AcDbLine
 10
-164.0909584356334
 20
89.63984835230056
 30
0.0
 11
-164.0909584356334
 21
86.6398483523007
 31
0.0
  0
LINE
  5
8D
330
1F
100
AcDbEntity
  8
0
100
AcDbLine
 10
-164.0909584356334
 20
89.63984835230056
 30
0.0
 11
-189.0909584356338
 21
89.63984835230066
 31
0.0
  0
LINE
  5
8E
330
1F
100
AcDbEntity
  8
0
100
AcDbLine
 10
-189.0909584356338
 20
86.6398483523008
 30
0.0
 11
-189.0909584356338
 21
89.63984835230066
 31
0.0
  0
LINE
  5
8F
330
1F
100
AcDbEntity
  8
0
100
AcDbLine
 10
-199.0909584356337
 20
86.6398483523007
 30
0.0
 11
-189.0909584356338
 21
86.6398483523008
 31
0.0
  0
LINE
  5
90
330
1F
100
AcDbEntity
  8
0
100
AcDbLine
 10
-199.0909584356337
 20
89.63984835230066
 30
0.0
 11
-199.0909584356337
 21
86.6398483523007
 31
0.0
  0
LINE
  5
91
330
1F
100
AcDbEntity
  8
0
100
AcDbLine
 10
-199.0909584356337
 20
89.63984835230066
 30
0.0
 11
-224.0909584356338
 21
89.63984835230066
 31
0.0
  0
LINE
  5
92
330
1F
100
AcDbEntity
  8
0
100
AcDbLine
 10
-224.0909584356338
 20
86.6398483523007
 30
0.0
 11
-224.0909584356338
 21
89.63984835230066
 31
0.0
  0
LINE
  5
93
330
1F
100
AcDbEntity
  8
0
100
AcDbLine
 10
-234.0909584356337
 20
86.6398483523007
 30
0.0
 11
-224.0909584356338
 21
86.6398483523007
 31
0.0
  0
LINE
  5
94
330
1F
100
AcDbEntity
  8
0
100
AcDbLine
 10
-234.0909584356337
 20
89.63984835230066
 30
0.0
 11
-234.0909584356337
 21
86.6398483523007
 31
0.0
  0
LINE
  5
95
330
1F
100
AcDbEntity
  8
0
100
AcDbLine
 10
-234.0909584356337
 20
89.63984835230066
 30
0.0
 11
-246.5909584356337
 21
89.63984835230066
 31
0.0
  0
LINE
  5
96
330
1F
100
AcDbEntity
  8
0
100
AcDbLine
 10
-246.5909584356337
 20
89.63984835230066
 30
0.0
 11
-246.590958435633
 21
96.63984835230069
 31
0.0
  0
LINE
  5
97
330
1F
100
AcDbEntity
  8
0
100
AcDbLine
 10
-196.6404681924294
 20
104.8922995683188
 30
0.0
 11
-195.7967864625982
 21
104.7522515731328
 31
0.0
  0
LINE
  5
98
330
1F
100
AcDbEntity
  8
0
100
AcDbLine
 10
-195.7967864625982
 20
104.7522515731328
 30
0.0
 11
-194.9457221078891
 21
104.6679795946933
 31
0.0
  0
LINE
  5
99
330
1F
100
AcDbEntity
  8
0
100
AcDbLine
 10
-194.9457221078891
 20
104.6679795946933
 30
0.0
 11
-194.090958435633
 21
104.6398483523007
 31
0.0
  0
LINE
  5
9A
330
1F
100
AcDbEntity
  8
0
100
AcDbLine
 10
-194.090958435633
 20
104.6398483523007
 30
0.0
 11
-193.236194763377
 21
104.6679795946933
 31
0.0
  0
LINE
  5
9B
330
1F
100
AcDbEntity
  8
0
100
AcDbLine
 10
-193.236194763377
 20
104.6679795946933
 30
0.0
 11
-192.3851304086678
 21
104.7522515731328
 31
0.0
  0
LINE
  5
9C
330
1F
100
AcDbEntity
  8
0
100
AcDbLine
 10
-192.3851304086678
 20
104.7522515731328
 30
0.0
 11
-191.5414486788367
 21
104.8922995683188
 31
0.0
  0
LINE
  5
9D
330
1F
100
AcDbEntity
  8
0
100
AcDbLine
 10
-191.5414486788367
 20
104.8922995683188
 30
0.0
 11
-190.7088009300748
 21
105.0875174688514
 31
0.0
  0
LINE
  5
9E
330
1F
100
AcDbEntity
  8
0
100
AcDbLine
 10
-190.7088009300748
 20
105.0875174688514
 30
0.0
 11
-189.8907907647891
 21
105.3370603944109
 31
0.0
  0
LINE
  5
9F
330
1F
100
AcDbEntity
  8
0
100
AcDbLine
 10
-189.8907907647891
 20
105.3370603944109
 30
0.0
 11
-189.0909584356331
 21
105.6398483523007
 31
0.0
  0
LINE
  5
A0
330
1F
100
AcDbEntity
  8
0
100
AcDbLine
 10
-189.0909584356331
 20
105.6398483523007
 30
0.0
 11
-188.090958435633
 21
109.6398483523007
 31
0.0
  0
LINE
  5
A1
330
1F
100
AcDbEntity
  8
0
100
AcDbLine
 10
-188.090958435633
 20
109.6398483523007
 30
0.0
 11
-165.0909584356328
 21
109.6398483523007
 31
0.0
  0
LINE
  5
A2
330
1F
100
AcDbEntity
  8
0
100
AcDbLine
 10
-164.090958435633
 20
105.6398483523007
 30
0.0
 11
-165.0909584356328
 21
109.6398483523007
 31
0.0
  0
LINE
  5
A3
330
1F
100
AcDbEntity
  8
0
100
AcDbLine
 10
-164.090958435633
 20
105.6398483523007
 30
0.0
 11
-163.291126106477
 21
105.3370603944109
 31
0.0
  0
LINE
  5
A4
330
1F
100
AcDbEntity
  8
0
100
AcDbLine
 10
-163.291126106477
 20
105.3370603944109
 30
0.0
 11
-162.4731159411913
 21
105.0875174688514
 31
0.0
  0
LINE
  5
A5
330
1F
100
AcDbEntity
  8
0
100
AcDbLine
 10
-162.4731159411913
 20
105.0875174688514
 30
0.0
 11
-161.6404681924294
 21
104.8922995683188
 31
0.0
  0
LINE
  5
A6
330
1F
100
AcDbEntity
  8
0
100
AcDbLine
 10
-161.6404681924294
 20
104.8922995683188
 30
0.0
 11
-160.7967864625982
 21
104.7522515731328
 31
0.0
  0
LINE
  5
A7
330
1F
100
AcDbEntity
  8
0
100
AcDbLine
 10
-160.7967864625982
 20
104.7522515731328
 30
0.0
 11
-159.9457221078891
 21
104.6679795946933
 31
0.0
  0
LINE
  5
A8
330
1F
100
AcDbEntity
  8
0
100
AcDbLine
 10
-159.9457221078891
 20
104.6679795946933
 30
0.0
 11
-159.090958435633
 21
104.6398483523007
 31
0.0
  0
LINE
  5
A9
330
1F
100
AcDbEntity
  8
0
100
AcDbLine
 10
-159.090958435633
 20
104.6398483523007
 30
0.0
 11
-158.236194763377
 21
104.6679795946933
 31
0.0
  0
LINE
  5
AA
330
1F
100
AcDbEntity
  8
0
100
AcDbLine
 10
-158.236194763377
 20
104.6679795946933
 30
0.0
 11
-157.3851304086678
 21
104.7522515731328
 31
0.0
  0
LINE
  5
AB
330
1F
100
AcDbEntity
  8
0
100
AcDbLine
 10
-157.3851304086678
 20
104.7522515731328
 30
0.0
 11
-156.5414486788367
 21
104.8922995683188
 31
0.0
  0
LINE
  5
AC
330
1F
100
AcDbEntity
  8
0
100
AcDbLine
 10
-156.5414486788367
 20
104.8922995683188
 30
0.0
 11
-155.7088009300748
 21
105.0875174688514
 31
0.0
  0
LINE
  5
AD
330
1F
100
AcDbEntity
  8
0
100
AcDbLine
 10
-155.7088009300748
 20
105.0875174688514
 30
0.0
 11
-154.8907907647891
 21
105.3370603944109
 31
0.0
  0
LINE
  5
AE
330
1F
100
AcDbEntity
  8
0
100
AcDbLine
 10
-154.8907907647891
 20
105.3370603944109
 30
0.0
 11
-154.0909584356331
 21
105.6398483523007
 31
0.0
  0
LINE
  5
AF
330
1F
100
AcDbEntity
  8
0
100
AcDbLine
 10
-153.0909584356333
 20
109.6398483523007
 30
0.0
 11
-154.0909584356331
 21
105.6398483523007
 31
0.0
  0
LINE
  5
B0
330
1F
100
AcDbEntity
  8
0
100
AcDbLine
 10
-153.0909584356333
 20
109.6398483523007
 30
0.0
 11
-130.0909584356328
 21
109.6398483523007
 31
0.0
  0
LINE
  5
B1
330
1F
100
AcDbEntity
  8
0
100
AcDbLine
 10
-130.0909584356328
 20
109.6398483523007
 30
0.0
 11
-129.090958435633
 21
105.6398483523007
 31
0.0
  0
LINE
  5
B2
330
1F
100
AcDbEntity
  8
0
100
AcDbLine
 10
-129.090958435633
 20
105.6398483523007
 30
0.0
 11
-128.2911261064766
 21
105.3370603944109
 31
0.0
  0
LINE
  5
B3
330
1F
100
AcDbEntity
  8
0
100
AcDbLine
 10
-128.2911261064766
 20
105.3370603944109
 30
0.0
 11
-127.4731159411913
 21
105.0875174688514
 31
0.0
  0
LINE
  5
B4
330
1F
100
AcDbEntity
  8
0
100
AcDbLine
 10
-127.4731159411913
 20
105.0875174688514
 30
0.0
 11
-126.6404681924294
 21
104.8922995683188
 31
0.0
  0
LINE
  5
B5
330
1F
100
AcDbEntity
  8
0
100
AcDbLine
 10
-126.6404681924294
 20
104.8922995683188
 30
0.0
 11
-125.7967864625983
 21
104.7522515731328
 31
0.0
  0
LINE
  5
B6
330
1F
100
AcDbEntity
  8
0
100
AcDbLine
 10
-125.7967864625983
 20
104.7522515731328
 30
0.0
 11
-124.9457221078891
 21
104.6679795946933
 31
0.0
  0
LINE
  5
B7
330
1F
100
AcDbEntity
  8
0
100
AcDbLine
 10
-124.9457221078891
 20
104.6679795946933
 30
0.0
 11
-124.0909584356331
 21
104.6398483523007
 31
0.0
  0
LINE
  5
B8
330
1F
100
AcDbEntity
  8
0
100
AcDbLine
 10
-124.0909584356331
 20
104.6398483523007
 30
0.0
 11
-123.236194763377
 21
104.6679795946933
 31
0.0
  0
LINE
  5
B9
330
1F
100
AcDbEntity
  8
0
100
AcDbLine
 10
-123.236194763377
 20
104.6679795946933
 30
0.0
 11
-122.3851304086678
 21
104.7522515731328
 31
0.0
  0
LINE
  5
BA
330
1F
100
AcDbEntity
  8
0
100
AcDbLine
 10
-122.3851304086678
 20
104.7522515731328
 30
0.0
 11
-121.5414486788367
 21
104.8922995683188
 31
0.0
  0
LINE
  5
BB
330
1F
100
AcDbEntity
  8
0
100
AcDbLine
 10
-121.5414486788367
 20
104.8922995683188
 30
0.0
 11
-120.7088009300748
 21
105.0875174688514
 31
0.0
  0
LINE
  5
BC
330
1F
100
AcDbEntity
  8
0
100
AcDbLine
 10
-120.7088009300748
 20
105.0875174688514
 30
0.0
 11
-119.8907907647891
 21
105.3370603944109
 31
0.0
  0
LINE
  5
BD
330
1F
100
AcDbEntity
  8
0
100
AcDbLine
 10
-119.8907907647891
 20
105.3370603944109
 30
0.0
 11
-119.0909584356331
 21
105.6398483523007
 31
0.0
  0
LINE
  5
BE
330
1F
100
AcDbEntity
  8
0
100
AcDbLine
 10
-119.0909584356331
 20
105.6398483523007
 30
0.0
 11
-118.090958435633
 21
109.6398483523007
 31
0.0
  0
LINE
  5
BF
330
1F
100
AcDbEntity
  8
0
100
AcDbLine
 10
-119.0909584356331
 20
83.63984835230076
 30
0.0
 11
-118.090958435633
 21
87.63984835230075
 31
0.0
  0
LINE
  5
C0
330
1F
100
AcDbEntity
  8
0
100
AcDbLine
 10
-119.8907907647891
 20
83.33706039441093
 30
0.0
 11
-119.0909584356331
 21
83.63984835230076
 31
0.0
  0
LINE
  5
C1
330
1F
100
AcDbEntity
  8
0
100
AcDbLine
 10
-120.7088009300748
 20
83.08751746885147
 30
0.0
 11
-119.8907907647891
 21
83.33706039441093
 31
0.0
  0
LINE
  5
C2
330
1F
100
AcDbEntity
  8
0
100
AcDbLine
 10
-121.5414486788367
 20
82.8922995683188
 30
0.0
 11
-120.7088009300748
 21
83.08751746885147
 31
0.0
  0
LINE
  5
C3
330
1F
100
AcDbEntity
  8
0
100
AcDbLine
 10
-122.3851304086678
 20
82.75225157313282
 30
0.0
 11
-121.5414486788367
 21
82.8922995683188
 31
0.0
  0
LINE
  5
C4
330
1F
100
AcDbEntity
  8
0
100
AcDbLine
 10
-123.236194763377
 20
82.66797959469329
 30
0.0
 11
-122.3851304086678
 21
82.75225157313282
 31
0.0
  0
LINE
  5
C5
330
1F
100
AcDbEntity
  8
0
100
AcDbLine
 10
-124.0909584356331
 20
82.63984835230072
 30
0.0
 11
-123.236194763377
 21
82.66797959469329
 31
0.0
  0
LINE
  5
C6
330
1F
100
AcDbEntity
  8
0
100
AcDbLine
 10
-124.9457221078891
 20
82.66797959469329
 30
0.0
 11
-124.0909584356331
 21
82.63984835230072
 31
0.0
  0
LINE
  5
C7
330
1F
100
AcDbEntity
  8
0
100
AcDbLine
 10
-125.7967864625983
 20
82.75225157313282
 30
0.0
 11
-124.9457221078891
 21
82.66797959469329
 31
0.0
  0
LINE
  5
C8
330
1F
100
AcDbEntity
  8
0
100
AcDbLine
 10
-126.6404681924294
 20
82.8922995683188
 30
0.0
 11
-125.7967864625983
 21
82.75225157313282
 31
0.0
  0
LINE
  5
C9
330
1F
100
AcDbEntity
  8
0
100
AcDbLine
 10
-127.4731159411913
 20
83.08751746885147
 30
0.0
 11
-126.6404681924294
 21
82.8922995683188
 31
0.0
  0
LINE
  5
CA
330
1F
100
AcDbEntity
  8
0
100
AcDbLine
 10
-128.2911261064766
 20
83.33706039441093
 30
0.0
 11
-127.4731159411913
 21
83.08751746885147
 31
0.0
  0
LINE
  5
CB
330
1F
100
AcDbEntity
  8
0
100
AcDbLine
 10
-129.090958435633
 20
83.63984835230076
 30
0.0
 11
-128.2911261064766
 21
83.33706039441093
 31
0.0
  0
LINE
  5
CC
330
1F
100
AcDbEntity
  8
0
100
AcDbLine
 10
-130.0909584356328
 20
87.63984835230075
 30
0.0
 11
-129.090958435633
 21
83.63984835230076
 31
0.0
  0
LINE
  5
CD
330
1F
100
AcDbEntity
  8
0
100
AcDbLine
 10
-153.0909584356333
 20
87.63984835230075
 30
0.0
 11
-130.0909584356328
 21
87.63984835230075
 31
0.0
  0
LINE
  5
CE
330
1F
100
AcDbEntity
  8
0
100
AcDbLine
 10
-153.0909584356333
 20
87.63984835230075
 30
0.0
 11
-154.0909584356331
 21
83.63984835230076
 31
0.0
  0
LINE
  5
CF
330
1F
100
AcDbEntity
  8
0
100
AcDbLine
 10
-154.8907907647891
 20
83.33706039441093
 30
0.0
 11
-154.0909584356331
 21
83.63984835230076
 31
0.0
  0
LINE
  5
D0
330
1F
100
AcDbEntity
  8
0
100
AcDbLine
 10
-155.7088009300748
 20
83.08751746885147
 30
0.0
 11
-154.8907907647891
 21
83.33706039441093
 31
0.0
  0
LINE
  5
D1
330
1F
100
AcDbEntity
  8
0
100
AcDbLine
 10
-156.5414486788367
 20
82.8922995683188
 30
0.0
 11
-155.7088009300748
 21
83.08751746885147
 31
0.0
  0
LINE
  5
D2
330
1F
100
AcDbEntity
  8
0
100
AcDbLine
 10
-157.3851304086678
 20
82.75225157313282
 30
0.0
 11
-156.5414486788367
 21
82.8922995683188
 31
0.0
  0
LINE
  5
D3
330
1F
100
AcDbEntity
  8
0
100
AcDbLine
 10
-158.236194763377
 20
82.66797959469329
 30
0.0
 11
-157.3851304086678
 21
82.75225157313282
 31
0.0
  0
LINE
  5
D4
330
1F
100
AcDbEntity
  8
0
100
AcDbLine
 10
-159.090958435633
 20
82.63984835230072
 30
0.0
 11
-158.236194763377
 21
82.66797959469329
 31
0.0
  0
LINE
  5
D5
330
1F
100
AcDbEntity
  8
0
100
AcDbLine
 10
-159.9457221078891
 20
82.66797959469329
 30
0.0
 11
-159.090958435633
 21
82.63984835230072
 31
0.0
  0
LINE
  5
D6
330
1F
100
AcDbEntity
  8
0
100
AcDbLine
 10
-160.7967864625982
 20
82.75225157313282
 30
0.0
 11
-159.9457221078891
 21
82.66797959469329
 31
0.0
  0
LINE
  5
D7
330
1F
100
AcDbEntity
  8
0
100
AcDbLine
 10
-161.6404681924294
 20
82.8922995683188
 30
0.0
 11
-160.7967864625982
 21
82.75225157313282
 31
0.0
  0
LINE
  5
D8
330
1F
100
AcDbEntity
  8
0
100
AcDbLine
 10
-162.4731159411913
 20
83.08751746885147
 30
0.0
 11
-161.6404681924294
 21
82.8922995683188
 31
0.0
  0
LINE
  5
D9
330
1F
100
AcDbEntity
  8
0
100
AcDbLine
 10
-163.291126106477
 20
83.33706039441093
 30
0.0
 11
-162.4731159411913
 21
83.08751746885147
 31
0.0
  0
LINE
  5
DA
330
1F
100
AcDbEntity
  8
0
100
AcDbLine
 10
-164.090958435633
 20
83.63984835230076
 30
0.0
 11
-163.291126106477
 21
83.33706039441093
 31
0.0
  0
LINE
  5
DB
330
1F
100
AcDbEntity
  8
0
100
AcDbLine
 10
-164.090958435633
 20
83.63984835230076
 30
0.0
 11
-165.0909584356328
 21
87.63984835230075
 31
0.0
  0
LINE
  5
DC
330
1F
100
AcDbEntity
  8
0
100
AcDbLine
 10
-188.090958435633
 20
87.63984835230075
 30
0.0
 11
-165.0909584356328
 21
87.63984835230075
 31
0.0
  0
LINE
  5
DD
330
1F
100
AcDbEntity
  8
0
100
AcDbLine
 10
-189.0909584356331
 20
83.63984835230076
 30
0.0
 11
-188.090958435633
 21
87.63984835230075
 31
0.0
  0
LINE
  5
DE
330
1F
100
AcDbEntity
  8
0
100
AcDbLine
 10
-189.8907907647891
 20
83.33706039441093
 30
0.0
 11
-189.0909584356331
 21
83.63984835230076
 31
0.0
  0
LINE
  5
DF
330
1F
100
AcDbEntity
  8
0
100
AcDbLine
 10
-190.7088009300748
 20
83.08751746885147
 30
0.0
 11
-189.8907907647891
 21
83.33706039441093
 31
0.0
  0
LINE
  5
E0
330
1F
100
AcDbEntity
  8
0
100
AcDbLine
 10
-191.5414486788367
 20
82.8922995683188
 30
0.0
 11
-190.7088009300748
 21
83.08751746885147
 31
0.0
  0
LINE
  5
E1
330
1F
100
AcDbEntity
  8
0
100
AcDbLine
 10
-192.3851304086678
 20
82.75225157313282
 30
0.0
 11
-191.5414486788367
 21
82.8922995683188
 31
0.0
  0
LINE
  5
E2
330
1F
100
AcDbEntity
  8
0
100
AcDbLine
 10
-193.236194763377
 20
82.66797959469329
 30
0.0
 11
-192.3851304086678
 21
82.75225157313282
 31
0.0
  0
LINE
  5
E3
330
1F
100
AcDbEntity
  8
0
100
AcDbLine
 10
-194.090958435633
 20
82.63984835230072
 30
0.0
 11
-193.236194763377
 21
82.66797959469329
 31
0.0
  0
LINE
  5
E4
330
1F
100
AcDbEntity
  8
0
100
AcDbLine
 10
-194.9457221078891
 20
82.66797959469329
 30
0.0
 11
-194.090958435633
 21
82.63984835230072
 31
0.0
  0
LINE
  5
E5
330
1F
100
AcDbEntity
  8
0
100
AcDbLine
 10
-195.7967864625982
 20
82.75225157313282
 30
0.0
 11
-194.9457221078891
 21
82.66797959469329
 31
0.0
  0
LINE
  5
E6
330
1F
100
AcDbEntity
  8
0
100
AcDbLine
 10
-196.6404681924294
 20
82.8922995683188
 30
0.0
 11
-195.7967864625982
 21
82.75225157313282
 31
0.0
  0
LINE
  5
E7
330
1F
100
AcDbEntity
  8
0
100
AcDbLine
 10
-246.5909584356337
 20
67.63984835230069
 30
0.0
 11
-246.590958435633
 21
74.63984835230073
 31
0.0
  0
LINE
  5
E8
330
1F
100
AcDbEntity
  8
0
100
AcDbLine
 10
-234.0909584356337
 20
67.63984835230069
 30
0.0
 11
-246.5909584356337
 21
67.63984835230069
 31
0.0
  0
LINE
  5
E9
330
1F
100
AcDbEntity
  8
0
100
AcDbLine
 10
-234.0909584356337
 20
67.63984835230069
 30
0.0
 11
-234.0909584356337
 21
64.63984835230075
 31
0.0
  0
LINE
  5
EA
330
1F
100
AcDbEntity
  8
0
100
AcDbLine
 10
-234.0909584356337
 20
64.63984835230075
 30
0.0
 11
-224.0909584356338
 21
64.63984835230075
 31
0.0
  0
LINE
  5
EB
330
1F
100
AcDbEntity
  8
0
100
AcDbLine
 10
-224.0909584356338
 20
64.63984835230075
 30
0.0
 11
-224.0909584356338
 21
67.63984835230069
 31
0.0
  0
LINE
  5
EC
330
1F
100
AcDbEntity
  8
0
100
AcDbLine
 10
-199.0909584356337
 20
67.63984835230069
 30
0.0
 11
-224.0909584356338
 21
67.63984835230069
 31
0.0
  0
LINE
  5
ED
330
1F
100
AcDbEntity
  8
0
100
AcDbLine
 10
-199.0909584356337
 20
67.63984835230069
 30
0.0
 11
-199.0909584356337
 21
64.63984835230075
 31
0.0
  0
LINE
  5
EE
330
1F
100
AcDbEntity
  8
0
100
AcDbLine
 10
-199.0909584356337
 20
64.63984835230075
 30
0.0
 11
-189.0909584356338
 21
64.63984835230083
 31
0.0
  0
LINE
  5
EF
330
1F
100
AcDbEntity
  8
0
100
AcDbLine
 10
-189.0909584356338
 20
64.63984835230083
 30
0.0
 11
-189.0909584356338
 21
67.63984835230069
 31
0.0
  0
LINE
  5
F0
330
1F
100
AcDbEntity
  8
0
100
AcDbLine
 10
-164.0909584356334
 20
67.6398483523006
 30
0.0
 11
-189.0909584356338
 21
67.63984835230069
 31
0.0
  0
LINE
  5
F1
330
1F
100
AcDbEntity
  8
0
100
AcDbLine
 10
-59.09095843563305
 20
64.63984835230075
 30
0.0
 11
-49.09095843563315
 21
64.63984835230066
 31
0.0
  0
LINE
  5
F2
330
1F
100
AcDbEntity
  8
0
100
AcDbLine
 10
-36.59095843563311
 20
79.63984835230076
 30
0.0
 11
-39.59095843563315
 21
79.63984835230076
 31
0.0
  0
LINE
  5
F3
330
1F
100
AcDbEntity
  8
0
100
AcDbLine
 10
-231.6404681924293
 20
82.8922995683188
 30
0.0
 11
-230.7967864625982
 21
82.75225157313282
 31
0.0
  0
LINE
  5
F4
330
1F
100
AcDbEntity
  8
0
100
AcDbLine
 10
-94.09095843563338
 20
64.63984835230075
 30
0.0
 11
-84.09095843563314
 21
64.63984835230066
 31
0.0
  0
LINE
  5
F5
330
1F
100
AcDbEntity
  8
0
100
AcDbLine
 10
-92.47311594119132
 20
83.08751746885147
 30
0.0
 11
-91.64046819242941
 21
82.8922995683188
 31
0.0
  0
LINE
  5
F6
330
1F
100
AcDbEntity
  8
0
100
AcDbLine
 10
-223.0909584356333
 20
87.63984835230075
 30
0.0
 11
-224.0909584356331
 21
83.63984835230076
 31
0.0
  0
LINE
  5
F7
330
1F
100
AcDbEntity
  8
0
100
AcDbLine
 10
-36.59095843563311
 20
74.63984835230073
 30
0.0
 11
-36.59095843563311
 21
67.63984835230079
 31
0.0
  0
LINE
  5
F8
330
1F
100
AcDbEntity
  8
0
100
AcDbLine
 10
-233.291126106477
 20
83.33706039441093
 30
0.0
 11
-232.4731159411913
 21
83.08751746885147
 31
0.0
  0
LINE
  5
F9
330
1F
100
AcDbEntity
  8
0
100
AcDbLine
 10
-226.5414486788367
 20
82.8922995683188
 30
0.0
 11
-225.7088009300748
 21
83.08751746885147
 31
0.0
  0
LINE
  5
FA
330
1F
100
AcDbEntity
  8
0
100
AcDbLine
 10
-164.0909584356334
 20
67.6398483523006
 30
0.0
 11
-164.0909584356334
 21
64.63984835230075
 31
0.0
  0
LINE
  5
FB
330
1F
100
AcDbEntity
  8
0
100
AcDbLine
 10
-83.09095843563337
 20
87.63984835230075
 30
0.0
 11
-84.09095843563314
 21
83.63984835230076
 31
0.0
  0
LINE
  5
FC
330
1F
100
AcDbEntity
  8
0
100
AcDbLine
 10
-39.59095843563315
 20
74.63984835230073
 30
0.0
 11
-36.59095843563311
 21
74.63984835230073
 31
0.0
  0
LINE
  5
FD
330
1F
100
AcDbEntity
  8
0
100
AcDbLine
 10
-87.38513040866786
 20
82.75225157313282
 30
0.0
 11
-86.54144867883674
 21
82.8922995683188
 31
0.0
  0
LINE
  5
FE
330
1F
100
AcDbEntity
  8
0
100
AcDbLine
 10
-52.38513040866788
 20
82.75225157313282
 30
0.0
 11
-51.54144867883677
 21
82.8922995683188
 31
0.0
  0
LINE
  5
FF
330
1F
100
AcDbEntity
  8
0
100
AcDbLine
 10
-94.09095843563303
 20
83.63984835230076
 30
0.0
 11
-95.0909584356328
 21
87.63984835230075
 31
0.0
  0
LINE
  5
100
330
1F
100
AcDbEntity
  8
0
100
AcDbLine
 10
-197.4731159411913
 20
83.08751746885147
 30
0.0
 11
-196.6404681924294
 21
82.8922995683188
 31
0.0
  0
LINE
  5
101
330
1F
100
AcDbEntity
  8
0
100
AcDbLine
 10
-84.89079076478913
 20
83.33706039441084
 30
0.0
 11
-84.09095843563314
 21
83.63984835230076
 31
0.0
  0
LINE
  5
102
330
1F
100
AcDbEntity
  8
0
100
AcDbLine
 10
-86.54144867883674
 20
82.8922995683188
 30
0.0
 11
-85.70880093007484
 21
83.08751746885147
 31
0.0
  0
LINE
  5
103
330
1F
100
AcDbEntity
  8
0
100
AcDbLine
 10
-51.54144867883677
 20
82.8922995683188
 30
0.0
 11
-50.70880093007487
 21
83.08751746885147
 31
0.0
  0
LINE
  5
104
330
1F
100
AcDbEntity
  8
0
100
AcDbLine
 10
-89.09095843563308
 20
82.63984835230072
 30
0.0
 11
-88.23619476337701
 21
82.66797959469329
 31
0.0
  0
LINE
  5
105
330
1F
100
AcDbEntity
  8
0
100
AcDbLine
 10
-93.29112610647702
 20
83.33706039441084
 30
0.0
 11
-92.47311594119132
 21
83.08751746885147
 31
0.0
  0
LINE
  5
106
330
1F
100
AcDbEntity
  8
0
100
AcDbLine
 10
-91.64046819242941
 20
82.8922995683188
 30
0.0
 11
-90.79678646259829
 21
82.75225157313282
 31
0.0
  0
LINE
  5
107
330
1F
100
AcDbEntity
  8
0
100
AcDbLine
 10
-88.23619476337701
 20
82.66797959469329
 30
0.0
 11
-87.38513040866786
 21
82.75225157313282
 31
0.0
  0
LINE
  5
108
330
1F
100
AcDbEntity
  8
0
100
AcDbLine
 10
-228.2361947633769
 20
82.66797959469329
 30
0.0
 11
-227.3851304086678
 21
82.75225157313282
 31
0.0
  0
LINE
  5
109
330
1F
100
AcDbEntity
  8
0
100
AcDbLine
 10
-246.590958435633
 20
87.63984835230075
 30
0.0
 11
-235.0909584356327
 21
87.63984835230075
 31
0.0
  0
LINE
  5
10A
330
1F
100
AcDbEntity
  8
0
100
AcDbLine
 10
-94.09095843563303
 20
83.63984835230076
 30
0.0
 11
-93.29112610647702
 21
83.33706039441084
 31
0.0
  0
LINE
  5
10B
330
1F
100
AcDbEntity
  8
0
100
AcDbLine
 10
-229.090958435633
 20
82.63984835230072
 30
0.0
 11
-228.2361947633769
 21
82.66797959469329
 31
0.0
  0
LINE
  5
10C
330
1F
100
AcDbEntity
  8
0
100
AcDbLine
 10
-243.590958435633
 20
79.63984835230076
 30
0.0
 11
-243.590958435633
 21
74.63984835230073
 31
0.0
  0
LINE
  5
10D
330
1F
100
AcDbEntity
  8
0
100
AcDbLine
 10
-198.2911261064766
 20
83.33706039441093
 30
0.0
 11
-197.4731159411913
 21
83.08751746885147
 31
0.0
  0
LINE
  5
10E
330
1F
100
AcDbEntity
  8
0
100
AcDbLine
 10
-199.090958435633
 20
83.63984835230076
 30
0.0
 11
-198.2911261064766
 21
83.33706039441093
 31
0.0
  0
LINE
  5
10F
330
1F
100
AcDbEntity
  8
0
100
AcDbLine
 10
-50.70880093007487
 20
83.08751746885147
 30
0.0
 11
-49.89079076478915
 21
83.33706039441084
 31
0.0
  0
LINE
  5
110
330
1F
100
AcDbEntity
  8
0
100
AcDbLine
 10
-223.0909584356333
 20
87.63984835230075
 30
0.0
 11
-200.0909584356328
 21
87.63984835230075
 31
0.0
  0
LINE
  5
111
330
1F
100
AcDbEntity
  8
0
100
AcDbLine
 10
-227.3851304086678
 20
82.75225157313282
 30
0.0
 11
-226.5414486788367
 21
82.8922995683188
 31
0.0
  0
LINE
  5
112
330
1F
100
AcDbEntity
  8
0
100
AcDbLine
 10
-36.59095843563311
 20
67.63984835230079
 30
0.0
 11
-49.09095843563315
 21
67.6398483523006
 31
0.0
  0
LINE
  5
113
330
1F
100
AcDbEntity
  8
0
100
AcDbLine
 10
-246.590958435633
 20
79.63984835230076
 30
0.0
 11
-246.590958435633
 21
87.63984835230075
 31
0.0
  0
LINE
  5
114
330
1F
100
AcDbEntity
  8
0
100
AcDbLine
 10
-89.94572210788914
 20
82.66797959469329
 30
0.0
 11
-89.09095843563308
 21
82.63984835230072
 31
0.0
  0
LINE
  5
115
330
1F
100
AcDbEntity
  8
0
100
AcDbLine
 10
-118.090958435633
 20
87.63984835230075
 30
0.0
 11
-95.0909584356328
 21
87.63984835230075
 31
0.0
  0
LINE
  5
116
330
1F
100
AcDbEntity
  8
0
100
AcDbLine
 10
-129.090958435633
 20
64.63984835230075
 30
0.0
 11
-119.0909584356331
 21
64.63984835230075
 31
0.0
  0
LINE
  5
117
330
1F
100
AcDbEntity
  8
0
100
AcDbLine
 10
-224.890790764789
 20
83.33706039441093
 30
0.0
 11
-224.0909584356331
 21
83.63984835230076
 31
0.0
  0
LINE
  5
118
330
1F
100
AcDbEntity
  8
0
100
AcDbLine
 10
-94.09095843563338
 20
67.63984835230087
 30
0.0
 11
-119.0909584356331
 21
67.63984835230087
 31
0.0
  0
LINE
  5
119
330
1F
100
AcDbEntity
  8
0
100
AcDbLine
 10
-55.79678646259832
 20
82.75225157313282
 30
0.0
 11
-54.94572210788916
 21
82.66797959469329
 31
0.0
  0
LINE
  5
11A
330
1F
100
AcDbEntity
  8
0
100
AcDbLine
 10
-84.09095843563314
 20
64.63984835230066
 30
0.0
 11
-84.09095843563314
 21
67.63984835230052
 31
0.0
  0
LINE
  5
11B
330
1F
100
AcDbEntity
  8
0
100
AcDbLine
 10
-59.09095843563305
 20
67.6398483523006
 30
0.0
 11
-84.09095843563314
 21
67.63984835230052
 31
0.0
  0
LINE
  5
11C
330
1F
100
AcDbEntity
  8
0
100
AcDbLine
 10
-54.0909584356331
 20
82.63984835230072
 30
0.0
 11
-53.23619476337704
 21
82.66797959469329
 31
0.0
  0
LINE
  5
11D
330
1F
100
AcDbEntity
  8
0
100
AcDbLine
 10
-94.09095843563338
 20
67.63984835230087
 30
0.0
 11
-94.09095843563338
 21
64.63984835230075
 31
0.0
  0
LINE
  5
11E
330
1F
100
AcDbEntity
  8
0
100
AcDbLine
 10
-119.0909584356331
 20
64.63984835230075
 30
0.0
 11
-119.0909584356331
 21
67.63984835230087
 31
0.0
  0
LINE
  5
11F
330
1F
100
AcDbEntity
  8
0
100
AcDbLine
 10
-49.09095843563315
 20
64.63984835230066
 30
0.0
 11
-49.09095843563315
 21
67.6398483523006
 31
0.0
  0
LINE
  5
120
330
1F
100
AcDbEntity
  8
0
100
AcDbLine
 10
-39.59095843563315
 20
79.63984835230076
 30
0.0
 11
-39.59095843563315
 21
74.63984835230073
 31
0.0
  0
LINE
  5
121
330
1F
100
AcDbEntity
  8
0
100
AcDbLine
 10
-129.090958435633
 20
67.6398483523006
 30
0.0
 11
-154.0909584356331
 21
67.6398483523006
 31
0.0
  0
LINE
  5
122
330
1F
100
AcDbEntity
  8
0
100
AcDbLine
 10
-129.090958435633
 20
67.6398483523006
 30
0.0
 11
-129.090958435633
 21
64.63984835230075
 31
0.0
  0
LINE
  5
123
330
1F
100
AcDbEntity
  8
0
100
AcDbLine
 10
-53.23619476337704
 20
82.66797959469329
 30
0.0
 11
-52.38513040866788
 21
82.75225157313282
 31
0.0
  0
LINE
  5
124
330
1F
100
AcDbEntity
  8
0
100
AcDbLine
 10
-49.89079076478915
 20
83.33706039441084
 30
0.0
 11
-49.09095843563315
 21
83.63984835230076
 31
0.0
  0
LINE
  5
125
330
1F
100
AcDbEntity
  8
0
100
AcDbLine
 10
-200.0909584356328
 20
87.63984835230075
 30
0.0
 11
-199.090958435633
 21
83.63984835230076
 31
0.0
  0
LINE
  5
126
330
1F
100
AcDbEntity
  8
0
100
AcDbLine
 10
-83.09095843563337
 20
87.63984835230075
 30
0.0
 11
-60.09095843563282
 21
87.63984835230075
 31
0.0
  0
LINE
  5
127
330
1F
100
AcDbEntity
  8
0
100
AcDbLine
 10
-49.09095843563315
 20
83.63984835230076
 30
0.0
 11
-48.09095843563302
 21
87.63984835230075
 31
0.0
  0
LINE
  5
128
330
1F
100
AcDbEntity
  8
0
100
AcDbLine
 10
-164.0909584356334
 20
64.63984835230075
 30
0.0
 11
-154.0909584356331
 21
64.63984835230075
 31
0.0
  0
LINE
  5
129
330
1F
100
AcDbEntity
  8
0
100
AcDbLine
 10
-230.7967864625982
 20
82.75225157313282
 30
0.0
 11
-229.9457221078891
 21
82.66797959469329
 31
0.0
  0
LINE
  5
12A
330
1F
100
AcDbEntity
  8
0
100
AcDbLine
 10
-85.70880093007484
 20
83.08751746885147
 30
0.0
 11
-84.89079076478913
 21
83.33706039441084
 31
0.0
  0
LINE
  5
12B
330
1F
100
AcDbEntity
  8
0
100
AcDbLine
 10
-60.09095843563282
 20
87.63984835230075
 30
0.0
 11
-59.09095843563305
 21
83.63984835230076
 31
0.0
  0
LINE
  5
12C
330
1F
100
AcDbEntity
  8
0
100
AcDbLine
 10
-243.590958435633
 20
74.63984835230073
 30
0.0
 11
-246.590958435633
 21
74.63984835230073
 31
0.0
  0
LINE
  5
12D
330
1F
100
AcDbEntity
  8
0
100
AcDbLine
 10
-36.59095843563311
 20
87.63984835230075
 30
0.0
 11
-36.59095843563311
 21
79.63984835230076
 31
0.0
  0
LINE
  5
12E
330
1F
100
AcDbEntity
  8
0
100
AcDbLine
 10
-229.9457221078891
 20
82.66797959469329
 30
0.0
 11
-229.090958435633
 21
82.63984835230072
 31
0.0
  0
LINE
  5
12F
330
1F
100
AcDbEntity
  8
0
100
AcDbLine
 10
-234.090958435633
 20
83.63984835230076
 30
0.0
 11
-235.0909584356327
 21
87.63984835230075
 31
0.0
  0
LINE
  5
130
330
1F
100
AcDbEntity
  8
0
100
AcDbLine
 10
-58.29112610647669
 20
83.33706039441084
 30
0.0
 11
-57.47311594119134
 21
83.08751746885147
 31
0.0
  0
LINE
  5
131
330
1F
100
AcDbEntity
  8
0
100
AcDbLine
 10
-54.94572210788916
 20
82.66797959469329
 30
0.0
 11
-54.0909584356331
 21
82.63984835230072
 31
0.0
  0
LINE
  5
132
330
1F
100
AcDbEntity
  8
0
100
AcDbLine
 10
-246.590958435633
 20
79.63984835230076
 30
0.0
 11
-243.590958435633
 21
79.63984835230076
 31
0.0
  0
LINE
  5
133
330
1F
100
AcDbEntity
  8
0
100
AcDbLine
 10
-59.09095843563305
 20
67.6398483523006
 30
0.0
 11
-59.09095843563305
 21
64.63984835230075
 31
0.0
  0
LINE
  5
134
330
1F
100
AcDbEntity
  8
0
100
AcDbLine
 10
-59.09095843563305
 20
83.63984835230076
 30
0.0
 11
-58.29112610647669
 21
83.33706039441084
 31
0.0
  0
LINE
  5
135
330
1F
100
AcDbEntity
  8
0
100
AcDbLine
 10
-48.09095843563302
 20
87.63984835230075
 30
0.0
 11
-36.59095843563311
 21
87.63984835230075
 31
0.0
  0
LINE
  5
136
330
1F
100
AcDbEntity
  8
0
100
AcDbLine
 10
-90.79678646259829
 20
82.75225157313282
 30
0.0
 11
-89.94572210788914
 21
82.66797959469329
 31
0.0
  0
LINE
  5
137
330
1F
100
AcDbEntity
  8
0
100
AcDbLine
 10
-56.64046819242943
 20
82.8922995683188
 30
0.0
 11
-55.79678646259832
 21
82.75225157313282
 31
0.0
  0
LINE
  5
138
330
1F
100
AcDbEntity
  8
0
100
AcDbLine
 10
-57.47311594119134
 20
83.08751746885147
 30
0.0
 11
-56.64046819242943
 21
82.8922995683188
 31
0.0
  0
LINE
  5
139
330
1F
100
AcDbEntity
  8
0
100
AcDbLine
 10
-154.0909584356331
 20
64.63984835230075
 30
0.0
 11
-154.0909584356331
 21
67.6398483523006
 31
0.0
  0
LINE
  5
13A
330
1F
100
AcDbEntity
  8
0
100
AcDbLine
 10
-234.090958435633
 20
83.63984835230076
 30
0.0
 11
-233.291126106477
 21
83.33706039441093
 31
0.0
  0
LINE
  5
13B
330
1F
100
AcDbEntity
  8
0
100
AcDbLine
 10
-232.4731159411913
 20
83.08751746885147
 30
0.0
 11
-231.6404681924293
 21
82.8922995683188
 31
0.0
  0
LINE
  5
13C
330
1F
100
AcDbEntity
  8
0
100
AcDbLine
 10
-225.7088009300748
 20
83.08751746885147
 30
0.0
 11
-224.890790764789
 21
83.33706039441093
 31
0.0
  0
LINE
  5
13D
330
1F
100
AcDbEntity
  8
0
100
AcDbLine
 10
-127.4731159411913
 20
61.08751746885152
 30
0.0
 11
-126.6404681924294
 21
60.89229956831885
 31
0.0
  0
LINE
  5
13E
330
1F
100
AcDbEntity
  8
0
100
AcDbLine
 10
-126.6404681924294
 20
60.89229956831885
 30
0.0
 11
-125.7967864625983
 21
60.75225157313286
 31
0.0
  0
LINE
  5
13F
330
1F
100
AcDbEntity
  8
0
100
AcDbLine
 10
-125.7967864625983
 20
60.75225157313286
 30
0.0
 11
-124.9457221078891
 21
60.66797959469334
 31
0.0
  0
LINE
  5
140
330
1F
100
AcDbEntity
  8
0
100
AcDbLine
 10
-124.9457221078891
 20
60.66797959469334
 30
0.0
 11
-124.0909584356331
 21
60.63984835230075
 31
0.0
  0
LINE
  5
141
330
1F
100
AcDbEntity
  8
0
100
AcDbLine
 10
-124.0909584356331
 20
60.63984835230075
 30
0.0
 11
-123.236194763377
 21
60.66797959469334
 31
0.0
  0
LINE
  5
142
330
1F
100
AcDbEntity
  8
0
100
AcDbLine
 10
-123.236194763377
 20
60.66797959469334
 30
0.0
 11
-122.3851304086678
 21
60.75225157313286
 31
0.0
  0
LINE
  5
143
330
1F
100
AcDbEntity
  8
0
100
AcDbLine
 10
-119.0909584356331
 20
61.6398483523008
 30
0.0
 11
-118.090958435633
 21
65.63984835230079
 31
0.0
  0
LINE
  5
144
330
1F
100
AcDbEntity
  8
0
100
AcDbLine
 10
-119.8907907647891
 20
61.33706039441097
 30
0.0
 11
-119.0909584356331
 21
61.6398483523008
 31
0.0
  0
LINE
  5
145
330
1F
100
AcDbEntity
  8
0
100
AcDbLine
 10
-120.7088009300748
 20
61.08751746885152
 30
0.0
 11
-119.8907907647891
 21
61.33706039441097
 31
0.0
  0
LINE
  5
146
330
1F
100
AcDbEntity
  8
0
100
AcDbLine
 10
-121.5414486788367
 20
60.89229956831885
 30
0.0
 11
-120.7088009300748
 21
61.08751746885152
 31
0.0
  0
LINE
  5
147
330
1F
100
AcDbEntity
  8
0
100
AcDbLine
 10
-122.3851304086678
 20
60.75225157313286
 30
0.0
 11
-121.5414486788367
 21
60.89229956831885
 31
0.0
  0
LINE
  5
148
330
1F
100
AcDbEntity
  8
0
100
AcDbLine
 10
-234.090958435633
 20
61.6398483523008
 30
0.0
 11
-233.291126106477
 21
61.33706039441097
 31
0.0
  0
LINE
  5
149
330
1F
100
AcDbEntity
  8
0
100
AcDbLine
 10
-232.4731159411913
 20
61.08751746885152
 30
0.0
 11
-231.6404681924293
 21
60.89229956831885
 31
0.0
  0
LINE
  5
14A
330
1F
100
AcDbEntity
  8
0
100
AcDbLine
 10
-225.7088009300748
 20
61.08751746885152
 30
0.0
 11
-224.890790764789
 21
61.33706039441097
 31
0.0
  0
LINE
  5
14B
330
1F
100
AcDbEntity
  8
0
100
AcDbLine
 10
-90.79678646259829
 20
60.75225157313286
 30
0.0
 11
-89.94572210788914
 21
60.66797959469334
 31
0.0
  0
LINE
  5
14C
330
1F
100
AcDbEntity
  8
0
100
AcDbLine
 10
-48.09095843563302
 20
65.63984835230079
 30
0.0
 11
-36.59095843563311
 21
65.63984835230079
 31
0.0
  0
LINE
  5
14D
330
1F
100
AcDbEntity
  8
0
100
AcDbLine
 10
-57.47311594119134
 20
61.08751746885152
 30
0.0
 11
-56.64046819242943
 21
60.89229956831885
 31
0.0
  0
LINE
  5
14E
330
1F
100
AcDbEntity
  8
0
100
AcDbLine
 10
-56.64046819242943
 20
60.89229956831885
 30
0.0
 11
-55.79678646259832
 21
60.75225157313286
 31
0.0
  0
LINE
  5
14F
330
1F
100
AcDbEntity
  8
0
100
AcDbLine
 10
-154.0909584356331
 20
42.63984835230079
 30
0.0
 11
-154.0909584356331
 21
45.63984835230065
 31
0.0
  0
LINE
  5
150
330
1F
100
AcDbEntity
  8
0
100
AcDbLine
 10
-58.29112610647669
 20
61.33706039441088
 30
0.0
 11
-57.47311594119134
 21
61.08751746885152
 31
0.0
  0
LINE
  5
151
330
1F
100
AcDbEntity
  8
0
100
AcDbLine
 10
-234.090958435633
 20
61.6398483523008
 30
0.0
 11
-235.0909584356327
 21
65.63984835230079
 31
0.0
  0
LINE
  5
152
330
1F
100
AcDbEntity
  8
0
100
AcDbLine
 10
-246.590958435633
 20
57.6398483523008
 30
0.0
 11
-243.590958435633
 21
57.6398483523008
 31
0.0
  0
LINE
  5
153
330
1F
100
AcDbEntity
  8
0
100
AcDbLine
 10
-59.09095843563305
 20
45.63984835230065
 30
0.0
 11
-59.09095843563305
 21
42.63984835230079
 31
0.0
  0
LINE
  5
154
330
1F
100
AcDbEntity
  8
0
100
AcDbLine
 10
-59.09095843563305
 20
61.6398483523008
 30
0.0
 11
-58.29112610647669
 21
61.33706039441088
 31
0.0
  0
LINE
  5
155
330
1F
100
AcDbEntity
  8
0
100
AcDbLine
 10
-54.94572210788916
 20
60.66797959469334
 30
0.0
 11
-54.0909584356331
 21
60.63984835230075
 31
0.0
  0
LINE
  5
156
330
1F
100
AcDbEntity
  8
0
100
AcDbLine
 10
-128.2911261064766
 20
61.33706039441097
 30
0.0
 11
-127.4731159411913
 21
61.08751746885152
 31
0.0
  0
LINE
  5
157
330
1F
100
AcDbEntity
  8
0
100
AcDbLine
 10
-129.090958435633
 20
61.6398483523008
 30
0.0
 11
-128.2911261064766
 21
61.33706039441097
 31
0.0
  0
LINE
  5
158
330
1F
100
AcDbEntity
  8
0
100
AcDbLine
 10
-129.090958435633
 20
45.63984835230065
 30
0.0
 11
-129.090958435633
 21
42.63984835230079
 31
0.0
  0
LINE
  5
159
330
1F
100
AcDbEntity
  8
0
100
AcDbLine
 10
-49.89079076478915
 20
61.33706039441088
 30
0.0
 11
-49.09095843563315
 21
61.6398483523008
 31
0.0
  0
LINE
  5
15A
330
1F
100
AcDbEntity
  8
0
100
AcDbLine
 10
-49.09095843563315
 20
61.6398483523008
 30
0.0
 11
-48.09095843563302
 21
65.63984835230079
 31
0.0
  0
LINE
  5
15B
330
1F
100
AcDbEntity
  8
0
100
AcDbLine
 10
-243.590958435633
 20
52.63984835230077
 30
0.0
 11
-246.590958435633
 21
52.63984835230077
 31
0.0
  0
LINE
  5
15C
330
1F
100
AcDbEntity
  8
0
100
AcDbLine
 10
-129.090958435633
 20
45.63984835230065
 30
0.0
 11
-154.0909584356331
 21
45.63984835230065
 31
0.0
  0
LINE
  5
15D
330
1F
100
AcDbEntity
  8
0
100
AcDbLine
 10
-53.23619476337704
 20
60.66797959469334
 30
0.0
 11
-52.38513040866788
 21
60.75225157313286
 31
0.0
  0
LINE
  5
15E
330
1F
100
AcDbEntity
  8
0
100
AcDbLine
 10
-200.0909584356328
 20
65.63984835230079
 30
0.0
 11
-199.090958435633
 21
61.6398483523008
 31
0.0
  0
LINE
  5
15F
330
1F
100
AcDbEntity
  8
0
100
AcDbLine
 10
-153.0909584356333
 20
65.63984835230079
 30
0.0
 11
-154.0909584356331
 21
61.6398483523008
 31
0.0
  0
LINE
  5
160
330
1F
100
AcDbEntity
  8
0
100
AcDbLine
 10
-85.70880093007484
 20
61.08751746885152
 30
0.0
 11
-84.89079076478913
 21
61.33706039441088
 31
0.0
  0
LINE
  5
161
330
1F
100
AcDbEntity
  8
0
100
AcDbLine
 10
-130.0909584356328
 20
65.63984835230079
 30
0.0
 11
-129.090958435633
 21
61.6398483523008
 31
0.0
  0
LINE
  5
162
330
1F
100
AcDbEntity
  8
0
100
AcDbLine
 10
-153.0909584356333
 20
65.63984835230079
 30
0.0
 11
-130.0909584356328
 21
65.63984835230079
 31
0.0
  0
LINE
  5
163
330
1F
100
AcDbEntity
  8
0
100
AcDbLine
 10
-154.8907907647891
 20
61.33706039441097
 30
0.0
 11
-154.0909584356331
 21
61.6398483523008
 31
0.0
  0
LINE
  5
164
330
1F
100
AcDbEntity
  8
0
100
AcDbLine
 10
-155.7088009300748
 20
61.08751746885152
 30
0.0
 11
-154.8907907647891
 21
61.33706039441097
 31
0.0
  0
LINE
  5
165
330
1F
100
AcDbEntity
  8
0
100
AcDbLine
 10
-156.5414486788367
 20
60.89229956831885
 30
0.0
 11
-155.7088009300748
 21
61.08751746885152
 31
0.0
  0
LINE
  5
166
330
1F
100
AcDbEntity
  8
0
100
AcDbLine
 10
-157.3851304086678
 20
60.75225157313286
 30
0.0
 11
-156.5414486788367
 21
60.89229956831885
 31
0.0
  0
LINE
  5
167
330
1F
100
AcDbEntity
  8
0
100
AcDbLine
 10
-158.236194763377
 20
60.66797959469334
 30
0.0
 11
-157.3851304086678
 21
60.75225157313286
 31
0.0
  0
LINE
  5
168
330
1F
100
AcDbEntity
  8
0
100
AcDbLine
 10
-159.090958435633
 20
60.63984835230075
 30
0.0
 11
-158.236194763377
 21
60.66797959469334
 31
0.0
  0
LINE
  5
169
330
1F
100
AcDbEntity
  8
0
100
AcDbLine
 10
-159.9457221078891
 20
60.66797959469334
 30
0.0
 11
-159.090958435633
 21
60.63984835230075
 31
0.0
  0
LINE
  5
16A
330
1F
100
AcDbEntity
  8
0
100
AcDbLine
 10
-160.7967864625982
 20
60.75225157313286
 30
0.0
 11
-159.9457221078891
 21
60.66797959469334
 31
0.0
  0
LINE
  5
16B
330
1F
100
AcDbEntity
  8
0
100
AcDbLine
 10
-161.6404681924294
 20
60.89229956831885
 30
0.0
 11
-160.7967864625982
 21
60.75225157313286
 31
0.0
  0
LINE
  5
16C
330
1F
100
AcDbEntity
  8
0
100
AcDbLine
 10
-162.4731159411913
 20
61.08751746885152
 30
0.0
 11
-161.6404681924294
 21
60.89229956831885
 31
0.0
  0
LINE
  5
16D
330
1F
100
AcDbEntity
  8
0
100
AcDbLine
 10
-163.291126106477
 20
61.33706039441097
 30
0.0
 11
-162.4731159411913
 21
61.08751746885152
 31
0.0
  0
LINE
  5
16E
330
1F
100
AcDbEntity
  8
0
100
AcDbLine
 10
-164.090958435633
 20
61.6398483523008
 30
0.0
 11
-163.291126106477
 21
61.33706039441097
 31
0.0
  0
LINE
  5
16F
330
1F
100
AcDbEntity
  8
0
100
AcDbLine
 10
-164.090958435633
 20
61.6398483523008
 30
0.0
 11
-165.0909584356328
 21
65.63984835230079
 31
0.0
  0
LINE
  5
170
330
1F
100
AcDbEntity
  8
0
100
AcDbLine
 10
-188.090958435633
 20
65.63984835230079
 30
0.0
 11
-165.0909584356328
 21
65.63984835230079
 31
0.0
  0
LINE
  5
171
330
1F
100
AcDbEntity
  8
0
100
AcDbLine
 10
-189.0909584356331
 20
61.6398483523008
 30
0.0
 11
-188.090958435633
 21
65.63984835230079
 31
0.0
  0
LINE
  5
172
330
1F
100
AcDbEntity
  8
0
100
AcDbLine
 10
-189.8907907647891
 20
61.33706039441097
 30
0.0
 11
-189.0909584356331
 21
61.6398483523008
 31
0.0
  0
LINE
  5
173
330
1F
100
AcDbEntity
  8
0
100
AcDbLine
 10
-190.7088009300748
 20
61.08751746885152
 30
0.0
 11
-189.8907907647891
 21
61.33706039441097
 31
0.0
  0
LINE
  5
174
330
1F
100
AcDbEntity
  8
0
100
AcDbLine
 10
-191.5414486788367
 20
60.89229956831885
 30
0.0
 11
-190.7088009300748
 21
61.08751746885152
 31
0.0
  0
LINE
  5
175
330
1F
100
AcDbEntity
  8
0
100
AcDbLine
 10
-192.3851304086678
 20
60.75225157313286
 30
0.0
 11
-191.5414486788367
 21
60.89229956831885
 31
0.0
  0
LINE
  5
176
330
1F
100
AcDbEntity
  8
0
100
AcDbLine
 10
-193.236194763377
 20
60.66797959469334
 30
0.0
 11
-192.3851304086678
 21
60.75225157313286
 31
0.0
  0
LINE
  5
177
330
1F
100
AcDbEntity
  8
0
100
AcDbLine
 10
-194.090958435633
 20
60.63984835230075
 30
0.0
 11
-193.236194763377
 21
60.66797959469334
 31
0.0
  0
LINE
  5
178
330
1F
100
AcDbEntity
  8
0
100
AcDbLine
 10
-194.9457221078891
 20
60.66797959469334
 30
0.0
 11
-194.090958435633
 21
60.63984835230075
 31
0.0
  0
LINE
  5
179
330
1F
100
AcDbEntity
  8
0
100
AcDbLine
 10
-195.7967864625982
 20
60.75225157313286
 30
0.0
 11
-194.9457221078891
 21
60.66797959469334
 31
0.0
  0
LINE
  5
17A
330
1F
100
AcDbEntity
  8
0
100
AcDbLine
 10
-196.6404681924294
 20
60.89229956831885
 30
0.0
 11
-195.7967864625982
 21
60.75225157313286
 31
0.0
  0
LINE
  5
17B
330
1F
100
AcDbEntity
  8
0
100
AcDbLine
 10
-246.5909584356337
 20
45.63984835230074
 30
0.0
 11
-246.590958435633
 21
52.63984835230077
 31
0.0
  0
LINE
  5
17C
330
1F
100
AcDbEntity
  8
0
100
AcDbLine
 10
-234.0909584356337
 20
45.63984835230074
 30
0.0
 11
-246.5909584356337
 21
45.63984835230074
 31
0.0
  0
LINE
  5
17D
330
1F
100
AcDbEntity
  8
0
100
AcDbLine
 10
-234.0909584356337
 20
45.63984835230074
 30
0.0
 11
-234.0909584356337
 21
42.63984835230079
 31
0.0
  0
LINE
  5
17E
330
1F
100
AcDbEntity
  8
0
100
AcDbLine
 10
-234.0909584356337
 20
42.63984835230079
 30
0.0
 11
-224.0909584356338
 21
42.63984835230079
 31
0.0
  0
LINE
  5
17F
330
1F
100
AcDbEntity
  8
0
100
AcDbLine
 10
-224.0909584356338
 20
42.63984835230079
 30
0.0
 11
-224.0909584356338
 21
45.63984835230074
 31
0.0
  0
LINE
  5
180
330
1F
100
AcDbEntity
  8
0
100
AcDbLine
 10
-199.0909584356337
 20
45.63984835230074
 30
0.0
 11
-224.0909584356338
 21
45.63984835230074
 31
0.0
  0
LINE
  5
181
330
1F
100
AcDbEntity
  8
0
100
AcDbLine
 10
-199.0909584356337
 20
45.63984835230074
 30
0.0
 11
-199.0909584356337
 21
42.63984835230079
 31
0.0
  0
LINE
  5
182
330
1F
100
AcDbEntity
  8
0
100
AcDbLine
 10
-199.0909584356337
 20
42.63984835230079
 30
0.0
 11
-189.0909584356338
 21
42.63984835230087
 31
0.0
  0
LINE
  5
183
330
1F
100
AcDbEntity
  8
0
100
AcDbLine
 10
-189.0909584356338
 20
42.63984835230087
 30
0.0
 11
-189.0909584356338
 21
45.63984835230074
 31
0.0
  0
LINE
  5
184
330
1F
100
AcDbEntity
  8
0
100
AcDbLine
 10
-164.0909584356334
 20
45.63984835230065
 30
0.0
 11
-189.0909584356338
 21
45.63984835230074
 31
0.0
  0
LINE
  5
185
330
1F
100
AcDbEntity
  8
0
100
AcDbLine
 10
-59.09095843563305
 20
42.63984835230079
 30
0.0
 11
-49.09095843563315
 21
42.6398483523007
 31
0.0
  0
LINE
  5
186
330
1F
100
AcDbEntity
  8
0
100
AcDbLine
 10
-36.59095843563311
 20
57.6398483523008
 30
0.0
 11
-39.59095843563315
 21
57.6398483523008
 31
0.0
  0
LINE
  5
187
330
1F
100
AcDbEntity
  8
0
100
AcDbLine
 10
-231.6404681924293
 20
60.89229956831885
 30
0.0
 11
-230.7967864625982
 21
60.75225157313286
 31
0.0
  0
LINE
  5
188
330
1F
100
AcDbEntity
  8
0
100
AcDbLine
 10
-94.09095843563338
 20
42.63984835230079
 30
0.0
 11
-84.09095843563314
 21
42.6398483523007
 31
0.0
  0
LINE
  5
189
330
1F
100
AcDbEntity
  8
0
100
AcDbLine
 10
-92.47311594119132
 20
61.08751746885152
 30
0.0
 11
-91.64046819242941
 21
60.89229956831885
 31
0.0
  0
LINE
  5
18A
330
1F
100
AcDbEntity
  8
0
100
AcDbLine
 10
-223.0909584356333
 20
65.63984835230079
 30
0.0
 11
-224.0909584356331
 21
61.6398483523008
 31
0.0
  0
LINE
  5
18B
330
1F
100
AcDbEntity
  8
0
100
AcDbLine
 10
-36.59095843563311
 20
52.63984835230077
 30
0.0
 11
-36.59095843563311
 21
45.63984835230082
 31
0.0
  0
LINE
  5
18C
330
1F
100
AcDbEntity
  8
0
100
AcDbLine
 10
-233.291126106477
 20
61.33706039441097
 30
0.0
 11
-232.4731159411913
 21
61.08751746885152
 31
0.0
  0
LINE
  5
18D
330
1F
100
AcDbEntity
  8
0
100
AcDbLine
 10
-226.5414486788367
 20
60.89229956831885
 30
0.0
 11
-225.7088009300748
 21
61.08751746885152
 31
0.0
  0
LINE
  5
18E
330
1F
100
AcDbEntity
  8
0
100
AcDbLine
 10
-164.0909584356334
 20
45.63984835230065
 30
0.0
 11
-164.0909584356334
 21
42.63984835230079
 31
0.0
  0
LINE
  5
18F
330
1F
100
AcDbEntity
  8
0
100
AcDbLine
 10
-83.09095843563337
 20
65.63984835230079
 30
0.0
 11
-84.09095843563314
 21
61.6398483523008
 31
0.0
  0
LINE
  5
190
330
1F
100
AcDbEntity
  8
0
100
AcDbLine
 10
-87.38513040866786
 20
60.75225157313286
 30
0.0
 11
-86.54144867883674
 21
60.89229956831885
 31
0.0
  0
LINE
  5
191
330
1F
100
AcDbEntity
  8
0
100
AcDbLine
 10
-94.09095843563303
 20
61.6398483523008
 30
0.0
 11
-95.0909584356328
 21
65.63984835230079
 31
0.0
  0
LINE
  5
192
330
1F
100
AcDbEntity
  8
0
100
AcDbLine
 10
-84.89079076478913
 20
61.33706039441088
 30
0.0
 11
-84.09095843563314
 21
61.6398483523008
 31
0.0
  0
LINE
  5
193
330
1F
100
AcDbEntity
  8
0
100
AcDbLine
 10
-89.09095843563308
 20
60.63984835230075
 30
0.0
 11
-88.23619476337701
 21
60.66797959469334
 31
0.0
  0
LINE
  5
194
330
1F
100
AcDbEntity
  8
0
100
AcDbLine
 10
-88.23619476337701
 20
60.66797959469334
 30
0.0
 11
-87.38513040866786
 21
60.75225157313286
 31
0.0
  0
LINE
  5
195
330
1F
100
AcDbEntity
  8
0
100
AcDbLine
 10
-94.09095843563303
 20
61.6398483523008
 30
0.0
 11
-93.29112610647702
 21
61.33706039441088
 31
0.0
  0
LINE
  5
196
330
1F
100
AcDbEntity
  8
0
100
AcDbLine
 10
-198.2911261064766
 20
61.33706039441097
 30
0.0
 11
-197.4731159411913
 21
61.08751746885152
 31
0.0
  0
LINE
  5
197
330
1F
100
AcDbEntity
  8
0
100
AcDbLine
 10
-223.0909584356333
 20
65.63984835230079
 30
0.0
 11
-200.0909584356328
 21
65.63984835230079
 31
0.0
  0
LINE
  5
198
330
1F
100
AcDbEntity
  8
0
100
AcDbLine
 10
-246.590958435633
 20
57.6398483523008
 30
0.0
 11
-246.590958435633
 21
65.63984835230079
 31
0.0
  0
LINE
  5
199
330
1F
100
AcDbEntity
  8
0
100
AcDbLine
 10
-129.090958435633
 20
42.63984835230079
 30
0.0
 11
-119.0909584356331
 21
42.63984835230079
 31
0.0
  0
LINE
  5
19A
330
1F
100
AcDbEntity
  8
0
100
AcDbLine
 10
-55.79678646259832
 20
60.75225157313286
 30
0.0
 11
-54.94572210788916
 21
60.66797959469334
 31
0.0
  0
LINE
  5
19B
330
1F
100
AcDbEntity
  8
0
100
AcDbLine
 10
-39.59095843563315
 20
52.63984835230077
 30
0.0
 11
-36.59095843563311
 21
52.63984835230077
 31
0.0
  0
LINE
  5
19C
330
1F
100
AcDbEntity
  8
0
100
AcDbLine
 10
-52.38513040866788
 20
60.75225157313286
 30
0.0
 11
-51.54144867883677
 21
60.89229956831885
 31
0.0
  0
LINE
  5
19D
330
1F
100
AcDbEntity
  8
0
100
AcDbLine
 10
-197.4731159411913
 20
61.08751746885152
 30
0.0
 11
-196.6404681924294
 21
60.89229956831885
 31
0.0
  0
LINE
  5
19E
330
1F
100
AcDbEntity
  8
0
100
AcDbLine
 10
-51.54144867883677
 20
60.89229956831885
 30
0.0
 11
-50.70880093007487
 21
61.08751746885152
 31
0.0
  0
LINE
  5
19F
330
1F
100
AcDbEntity
  8
0
100
AcDbLine
 10
-91.64046819242941
 20
60.89229956831885
 30
0.0
 11
-90.79678646259829
 21
60.75225157313286
 31
0.0
  0
LINE
  5
1A0
330
1F
100
AcDbEntity
  8
0
100
AcDbLine
 10
-246.590958435633
 20
65.63984835230079
 30
0.0
 11
-235.0909584356327
 21
65.63984835230079
 31
0.0
  0
LINE
  5
1A1
330
1F
100
AcDbEntity
  8
0
100
AcDbLine
 10
-243.590958435633
 20
57.6398483523008
 30
0.0
 11
-243.590958435633
 21
52.63984835230077
 31
0.0
  0
LINE
  5
1A2
330
1F
100
AcDbEntity
  8
0
100
AcDbLine
 10
-50.70880093007487
 20
61.08751746885152
 30
0.0
 11
-49.89079076478915
 21
61.33706039441088
 31
0.0
  0
LINE
  5
1A3
330
1F
100
AcDbEntity
  8
0
100
AcDbLine
 10
-36.59095843563311
 20
45.63984835230082
 30
0.0
 11
-49.09095843563315
 21
45.63984835230065
 31
0.0
  0
LINE
  5
1A4
330
1F
100
AcDbEntity
  8
0
100
AcDbLine
 10
-118.090958435633
 20
65.63984835230079
 30
0.0
 11
-95.0909584356328
 21
65.63984835230079
 31
0.0
  0
LINE
  5
1A5
330
1F
100
AcDbEntity
  8
0
100
AcDbLine
 10
-94.09095843563338
 20
45.63984835230092
 30
0.0
 11
-119.0909584356331
 21
45.63984835230092
 31
0.0
  0
LINE
  5
1A6
330
1F
100
AcDbEntity
  8
0
100
AcDbLine
 10
-59.09095843563305
 20
45.63984835230065
 30
0.0
 11
-84.09095843563314
 21
45.63984835230055
 31
0.0
  0
LINE
  5
1A7
330
1F
100
AcDbEntity
  8
0
100
AcDbLine
 10
-86.54144867883674
 20
60.89229956831885
 30
0.0
 11
-85.70880093007484
 21
61.08751746885152
 31
0.0
  0
LINE
  5
1A8
330
1F
100
AcDbEntity
  8
0
100
AcDbLine
 10
-93.29112610647702
 20
61.33706039441088
 30
0.0
 11
-92.47311594119132
 21
61.08751746885152
 31
0.0
  0
LINE
  5
1A9
330
1F
100
AcDbEntity
  8
0
100
AcDbLine
 10
-228.2361947633769
 20
60.66797959469334
 30
0.0
 11
-227.3851304086678
 21
60.75225157313286
 31
0.0
  0
LINE
  5
1AA
330
1F
100
AcDbEntity
  8
0
100
AcDbLine
 10
-229.090958435633
 20
60.63984835230075
 30
0.0
 11
-228.2361947633769
 21
60.66797959469334
 31
0.0
  0
LINE
  5
1AB
330
1F
100
AcDbEntity
  8
0
100
AcDbLine
 10
-199.090958435633
 20
61.6398483523008
 30
0.0
 11
-198.2911261064766
 21
61.33706039441097
 31
0.0
  0
LINE
  5
1AC
330
1F
100
AcDbEntity
  8
0
100
AcDbLine
 10
-227.3851304086678
 20
60.75225157313286
 30
0.0
 11
-226.5414486788367
 21
60.89229956831885
 31
0.0
  0
LINE
  5
1AD
330
1F
100
AcDbEntity
  8
0
100
AcDbLine
 10
-89.94572210788914
 20
60.66797959469334
 30
0.0
 11
-89.09095843563308
 21
60.63984835230075
 31
0.0
  0
LINE
  5
1AE
330
1F
100
AcDbEntity
  8
0
100
AcDbLine
 10
-224.890790764789
 20
61.33706039441097
 30
0.0
 11
-224.0909584356331
 21
61.6398483523008
 31
0.0
  0
LINE
  5
1AF
330
1F
100
AcDbEntity
  8
0
100
AcDbLine
 10
-84.09095843563314
 20
42.6398483523007
 30
0.0
 11
-84.09095843563314
 21
45.63984835230055
 31
0.0
  0
LINE
  5
1B0
330
1F
100
AcDbEntity
  8
0
100
AcDbLine
 10
-54.0909584356331
 20
60.63984835230075
 30
0.0
 11
-53.23619476337704
 21
60.66797959469334
 31
0.0
  0
LINE
  5
1B1
330
1F
100
AcDbEntity
  8
0
100
AcDbLine
 10
-94.09095843563338
 20
45.63984835230092
 30
0.0
 11
-94.09095843563338
 21
42.63984835230079
 31
0.0
  0
LINE
  5
1B2
330
1F
100
AcDbEntity
  8
0
100
AcDbLine
 10
-119.0909584356331
 20
42.63984835230079
 30
0.0
 11
-119.0909584356331
 21
45.63984835230092
 31
0.0
  0
LINE
  5
1B3
330
1F
100
AcDbEntity
  8
0
100
AcDbLine
 10
-49.09095843563315
 20
42.6398483523007
 30
0.0
 11
-49.09095843563315
 21
45.63984835230065
 31
0.0
  0
LINE
  5
1B4
330
1F
100
AcDbEntity
  8
0
100
AcDbLine
 10
-39.59095843563315
 20
57.6398483523008
 30
0.0
 11
-39.59095843563315
 21
52.63984835230077
 31
0.0
  0
LINE
  5
1B5
330
1F
100
AcDbEntity
  8
0
100
AcDbLine
 10
-164.0909584356334
 20
42.63984835230079
 30
0.0
 11
-154.0909584356331
 21
42.63984835230079
 31
0.0
  0
LINE
  5
1B6
330
1F
100
AcDbEntity
  8
0
100
AcDbLine
 10
-83.09095843563337
 20
65.63984835230079
 30
0.0
 11
-60.09095843563282
 21
65.63984835230079
 31
0.0
  0
LINE
  5
1B7
330
1F
100
AcDbEntity
  8
0
100
AcDbLine
 10
-36.59095843563311
 20
65.63984835230079
 30
0.0
 11
-36.59095843563311
 21
57.6398483523008
 31
0.0
  0
LINE
  5
1B8
330
1F
100
AcDbEntity
  8
0
100
AcDbLine
 10
-229.9457221078891
 20
60.66797959469334
 30
0.0
 11
-229.090958435633
 21
60.63984835230075
 31
0.0
  0
LINE
  5
1B9
330
1F
100
AcDbEntity
  8
0
100
AcDbLine
 10
-60.09095843563282
 20
65.63984835230079
 30
0.0
 11
-59.09095843563305
 21
61.6398483523008
 31
0.0
  0
LINE
  5
1BA
330
1F
100
AcDbEntity
  8
0
100
AcDbLine
 10
-230.7967864625982
 20
60.75225157313286
 30
0.0
 11
-229.9457221078891
 21
60.66797959469334
 31
0.0
  0
LINE
  5
1BB
330
1F
100
AcDbEntity
  8
0
100
AcDbLine
 10
-122.3851304086678
 20
38.7522515731329
 30
0.0
 11
-121.5414486788367
 21
38.89229956831889
 31
0.0
  0
LINE
  5
1BC
330
1F
100
AcDbEntity
  8
0
100
AcDbLine
 10
-121.5414486788367
 20
38.89229956831889
 30
0.0
 11
-120.7088009300748
 21
39.08751746885156
 31
0.0
  0
LINE
  5
1BD
330
1F
100
AcDbEntity
  8
0
100
AcDbLine
 10
-120.7088009300748
 20
39.08751746885156
 30
0.0
 11
-119.8907907647891
 21
39.337060394411
 31
0.0
  0
LINE
  5
1BE
330
1F
100
AcDbEntity
  8
0
100
AcDbLine
 10
-119.8907907647891
 20
39.337060394411
 30
0.0
 11
-119.0909584356331
 21
39.63984835230084
 31
0.0
  0
LINE
  5
1BF
330
1F
100
AcDbEntity
  8
0
100
AcDbLine
 10
-119.0909584356331
 20
39.63984835230084
 30
0.0
 11
-118.090958435633
 21
43.63984835230083
 31
0.0
  0
LINE
  5
1C0
330
1F
100
AcDbEntity
  8
0
100
AcDbLine
 10
-123.236194763377
 20
38.66797959469338
 30
0.0
 11
-122.3851304086678
 21
38.7522515731329
 31
0.0
  0
LINE
  5
1C1
330
1F
100
AcDbEntity
  8
0
100
AcDbLine
 10
-127.4731159411913
 20
39.08751746885156
 30
0.0
 11
-126.6404681924294
 21
38.89229956831889
 31
0.0
  0
LINE
  5
1C2
330
1F
100
AcDbEntity
  8
0
100
AcDbLine
 10
-124.0909584356331
 20
38.6398483523008
 30
0.0
 11
-123.236194763377
 21
38.66797959469338
 31
0.0
  0
LINE
  5
1C3
330
1F
100
AcDbEntity
  8
0
100
AcDbLine
 10
-124.9457221078891
 20
38.66797959469338
 30
0.0
 11
-124.0909584356331
 21
38.6398483523008
 31
0.0
  0
LINE
  5
1C4
330
1F
100
AcDbEntity
  8
0
100
AcDbLine
 10
-125.7967864625983
 20
38.7522515731329
 30
0.0
 11
-124.9457221078891
 21
38.66797959469338
 31
0.0
  0
LINE
  5
1C5
330
1F
100
AcDbEntity
  8
0
100
AcDbLine
 10
-126.6404681924294
 20
38.89229956831889
 30
0.0
 11
-125.7967864625983
 21
38.7522515731329
 31
0.0
  0
LINE
  5
1C6
330
1F
100
AcDbEntity
  8
0
100
AcDbLine
 10
-48.09095843563302
 20
43.63984835230083
 30
0.0
 11
-36.59095843563311
 21
43.63984835230083
 31
0.0
  0
LINE
  5
1C7
330
1F
100
AcDbEntity
  8
0
100
AcDbLine
 10
-57.47311594119134
 20
39.08751746885156
 30
0.0
 11
-56.64046819242943
 21
38.89229956831889
 31
0.0
  0
LINE
  5
1C8
330
1F
100
AcDbEntity
  8
0
100
AcDbLine
 10
-118.090958435633
 20
43.63984835230083
 30
0.0
 11
-95.0909584356328
 21
43.63984835230083
 31
0.0
  0
LINE
  5
1C9
330
1F
100
AcDbEntity
  8
0
100
AcDbLine
 10
-94.09095843563303
 20
39.63984835230084
 30
0.0
 11
-95.0909584356328
 21
43.63984835230083
 31
0.0
  0
LINE
  5
1CA
330
1F
100
AcDbEntity
  8
0
100
AcDbLine
 10
-94.09095843563303
 20
39.63984835230084
 30
0.0
 11
-93.29112610647702
 21
39.33706039441092
 31
0.0
  0
LINE
  5
1CB
330
1F
100
AcDbEntity
  8
0
100
AcDbLine
 10
-93.29112610647702
 20
39.33706039441092
 30
0.0
 11
-92.47311594119132
 21
39.08751746885156
 31
0.0
  0
LINE
  5
1CC
330
1F
100
AcDbEntity
  8
0
100
AcDbLine
 10
-92.47311594119132
 20
39.08751746885156
 30
0.0
 11
-91.64046819242941
 21
38.89229956831889
 31
0.0
  0
LINE
  5
1CD
330
1F
100
AcDbEntity
  8
0
100
AcDbLine
 10
-91.64046819242941
 20
38.89229956831889
 30
0.0
 11
-90.79678646259829
 21
38.7522515731329
 31
0.0
  0
LINE
  5
1CE
330
1F
100
AcDbEntity
  8
0
100
AcDbLine
 10
-90.79678646259829
 20
38.7522515731329
 30
0.0
 11
-89.94572210788914
 21
38.66797959469338
 31
0.0
  0
LINE
  5
1CF
330
1F
100
AcDbEntity
  8
0
100
AcDbLine
 10
-89.94572210788914
 20
38.66797959469338
 30
0.0
 11
-89.09095843563308
 21
38.6398483523008
 31
0.0
  0
LINE
  5
1D0
330
1F
100
AcDbEntity
  8
0
100
AcDbLine
 10
-89.09095843563308
 20
38.6398483523008
 30
0.0
 11
-88.23619476337701
 21
38.66797959469338
 31
0.0
  0
LINE
  5
1D1
330
1F
100
AcDbEntity
  8
0
100
AcDbLine
 10
-88.23619476337701
 20
38.66797959469338
 30
0.0
 11
-87.38513040866786
 21
38.7522515731329
 31
0.0
  0
LINE
  5
1D2
330
1F
100
AcDbEntity
  8
0
100
AcDbLine
 10
-87.38513040866786
 20
38.7522515731329
 30
0.0
 11
-86.54144867883674
 21
38.89229956831889
 31
0.0
  0
LINE
  5
1D3
330
1F
100
AcDbEntity
  8
0
100
AcDbLine
 10
-86.54144867883674
 20
38.89229956831889
 30
0.0
 11
-85.70880093007484
 21
39.08751746885156
 31
0.0
  0
LINE
  5
1D4
330
1F
100
AcDbEntity
  8
0
100
AcDbLine
 10
-85.70880093007484
 20
39.08751746885156
 30
0.0
 11
-84.89079076478913
 21
39.33706039441092
 31
0.0
  0
LINE
  5
1D5
330
1F
100
AcDbEntity
  8
0
100
AcDbLine
 10
-84.89079076478913
 20
39.33706039441092
 30
0.0
 11
-84.09095843563314
 21
39.63984835230084
 31
0.0
  0
LINE
  5
1D6
330
1F
100
AcDbEntity
  8
0
100
AcDbLine
 10
-83.09095843563337
 20
43.63984835230083
 30
0.0
 11
-84.09095843563314
 21
39.63984835230084
 31
0.0
  0
LINE
  5
1D7
330
1F
100
AcDbEntity
  8
0
100
AcDbLine
 10
-83.09095843563337
 20
43.63984835230083
 30
0.0
 11
-60.09095843563282
 21
43.63984835230083
 31
0.0
  0
LINE
  5
1D8
330
1F
100
AcDbEntity
  8
0
100
AcDbLine
 10
-60.09095843563282
 20
43.63984835230083
 30
0.0
 11
-59.09095843563305
 21
39.63984835230084
 31
0.0
  0
LINE
  5
1D9
330
1F
100
AcDbEntity
  8
0
100
AcDbLine
 10
-59.09095843563305
 20
39.63984835230084
 30
0.0
 11
-58.29112610647669
 21
39.33706039441092
 31
0.0
  0
LINE
  5
1DA
330
1F
100
AcDbEntity
  8
0
100
AcDbLine
 10
-58.29112610647669
 20
39.33706039441092
 30
0.0
 11
-57.47311594119134
 21
39.08751746885156
 31
0.0
  0
LINE
  5
1DB
330
1F
100
AcDbEntity
  8
0
100
AcDbLine
 10
-56.64046819242943
 20
38.89229956831889
 30
0.0
 11
-55.79678646259832
 21
38.7522515731329
 31
0.0
  0
LINE
  5
1DC
330
1F
100
AcDbEntity
  8
0
100
AcDbLine
 10
-55.79678646259832
 20
38.7522515731329
 30
0.0
 11
-54.94572210788916
 21
38.66797959469338
 31
0.0
  0
LINE
  5
1DD
330
1F
100
AcDbEntity
  8
0
100
AcDbLine
 10
-54.94572210788916
 20
38.66797959469338
 30
0.0
 11
-54.0909584356331
 21
38.6398483523008
 31
0.0
  0
LINE
  5
1DE
330
1F
100
AcDbEntity
  8
0
100
AcDbLine
 10
-54.0909584356331
 20
38.6398483523008
 30
0.0
 11
-53.23619476337704
 21
38.66797959469338
 31
0.0
  0
LINE
  5
1DF
330
1F
100
AcDbEntity
  8
0
100
AcDbLine
 10
-53.23619476337704
 20
38.66797959469338
 30
0.0
 11
-52.38513040866788
 21
38.7522515731329
 31
0.0
  0
LINE
  5
1E0
330
1F
100
AcDbEntity
  8
0
100
AcDbLine
 10
-52.38513040866788
 20
38.7522515731329
 30
0.0
 11
-51.54144867883677
 21
38.89229956831889
 31
0.0
  0
LINE
  5
1E1
330
1F
100
AcDbEntity
  8
0
100
AcDbLine
 10
-51.54144867883677
 20
38.89229956831889
 30
0.0
 11
-50.70880093007487
 21
39.08751746885156
 31
0.0
  0
LINE
  5
1E2
330
1F
100
AcDbEntity
  8
0
100
AcDbLine
 10
-50.70880093007487
 20
39.08751746885156
 30
0.0
 11
-49.89079076478915
 21
39.33706039441092
 31
0.0
  0
LINE
  5
1E3
330
1F
100
AcDbEntity
  8
0
100
AcDbLine
 10
-49.89079076478915
 20
39.33706039441092
 30
0.0
 11
-49.09095843563315
 21
39.63984835230084
 31
0.0
  0
LINE
  5
1E4
330
1F
100
AcDbEntity
  8
0
100
AcDbLine
 10
-49.09095843563315
 20
39.63984835230084
 30
0.0
 11
-48.09095843563302
 21
43.63984835230083
 31
0.0
  0
LINE
  5
1E5
330
1F
100
AcDbEntity
  8
0
100
AcDbLine
 10
-36.59095843563311
 20
43.63984835230083
 30
0.0
 11
-36.59095843563311
 21
35.63984835230085
 31
0.0
  0
LINE
  5
1E6
330
1F
100
AcDbEntity
  8
0
100
AcDbLine
 10
-36.59095843563311
 20
35.63984835230085
 30
0.0
 11
-39.59095843563315
 21
35.63984835230085
 31
0.0
  0
LINE
  5
1E7
330
1F
100
AcDbEntity
  8
0
100
AcDbLine
 10
-39.59095843563315
 20
35.63984835230085
 30
0.0
 11
-39.59095843563315
 21
30.63984835230081
 31
0.0
  0
LINE
  5
1E8
330
1F
100
AcDbEntity
  8
0
100
AcDbLine
 10
-39.59095843563315
 20
30.63984835230081
 30
0.0
 11
-36.59095843563311
 21
30.63984835230081
 31
0.0
  0
LINE
  5
1E9
330
1F
100
AcDbEntity
  8
0
100
AcDbLine
 10
-36.59095843563311
 20
30.63984835230081
 30
0.0
 11
-36.59095843563311
 21
23.63984835230087
 31
0.0
  0
LINE
  5
1EA
330
1F
100
AcDbEntity
  8
0
100
AcDbLine
 10
-36.59095843563311
 20
23.63984835230087
 30
0.0
 11
-49.09095843563315
 21
23.63984835230069
 31
0.0
  0
LINE
  5
1EB
330
1F
100
AcDbEntity
  8
0
100
AcDbLine
 10
-49.09095843563315
 20
20.63984835230074
 30
0.0
 11
-49.09095843563315
 21
23.63984835230069
 31
0.0
  0
LINE
  5
1EC
330
1F
100
AcDbEntity
  8
0
100
AcDbLine
 10
-59.09095843563305
 20
20.63984835230083
 30
0.0
 11
-49.09095843563315
 21
20.63984835230074
 31
0.0
  0
LINE
  5
1ED
330
1F
100
AcDbEntity
  8
0
100
AcDbLine
 10
-59.09095843563305
 20
23.63984835230069
 30
0.0
 11
-59.09095843563305
 21
20.63984835230083
 31
0.0
  0
LINE
  5
1EE
330
1F
100
AcDbEntity
  8
0
100
AcDbLine
 10
-59.09095843563305
 20
23.63984835230069
 30
0.0
 11
-84.09095843563314
 21
23.6398483523006
 31
0.0
  0
LINE
  5
1EF
330
1F
100
AcDbEntity
  8
0
100
AcDbLine
 10
-84.09095843563314
 20
20.63984835230074
 30
0.0
 11
-84.09095843563314
 21
23.6398483523006
 31
0.0
  0
LINE
  5
1F0
330
1F
100
AcDbEntity
  8
0
100
AcDbLine
 10
-94.09095843563338
 20
20.63984835230083
 30
0.0
 11
-84.09095843563314
 21
20.63984835230074
 31
0.0
  0
LINE
  5
1F1
330
1F
100
AcDbEntity
  8
0
100
AcDbLine
 10
-94.09095843563338
 20
23.63984835230096
 30
0.0
 11
-94.09095843563338
 21
20.63984835230083
 31
0.0
  0
LINE
  5
1F2
330
1F
100
AcDbEntity
  8
0
100
AcDbLine
 10
-94.09095843563338
 20
23.63984835230096
 30
0.0
 11
-119.0909584356331
 21
23.63984835230096
 31
0.0
  0
LINE
  5
1F3
330
1F
100
AcDbEntity
  8
0
100
AcDbLine
 10
-119.0909584356331
 20
20.63984835230083
 30
0.0
 11
-119.0909584356331
 21
23.63984835230096
 31
0.0
  0
LINE
  5
1F4
330
1F
100
AcDbEntity
  8
0
100
AcDbLine
 10
-129.090958435633
 20
20.63984835230083
 30
0.0
 11
-119.0909584356331
 21
20.63984835230083
 31
0.0
  0
LINE
  5
1F5
330
1F
100
AcDbEntity
  8
0
100
AcDbLine
 10
-129.090958435633
 20
23.63984835230069
 30
0.0
 11
-129.090958435633
 21
20.63984835230083
 31
0.0
  0
LINE
  5
1F6
330
1F
100
AcDbEntity
  8
0
100
AcDbLine
 10
-129.090958435633
 20
23.63984835230069
 30
0.0
 11
-154.0909584356331
 21
23.63984835230069
 31
0.0
  0
LINE
  5
1F7
330
1F
100
AcDbEntity
  8
0
100
AcDbLine
 10
-154.0909584356331
 20
20.63984835230083
 30
0.0
 11
-154.0909584356331
 21
23.63984835230069
 31
0.0
  0
LINE
  5
1F8
330
1F
100
AcDbEntity
  8
0
100
AcDbLine
 10
-164.0909584356334
 20
20.63984835230083
 30
0.0
 11
-154.0909584356331
 21
20.63984835230083
 31
0.0
  0
LINE
  5
1F9
330
1F
100
AcDbEntity
  8
0
100
AcDbLine
 10
-164.0909584356334
 20
23.63984835230069
 30
0.0
 11
-164.0909584356334
 21
20.63984835230083
 31
0.0
  0
LINE
  5
1FA
330
1F
100
AcDbEntity
  8
0
100
AcDbLine
 10
-164.0909584356334
 20
23.63984835230069
 30
0.0
 11
-189.0909584356338
 21
23.63984835230077
 31
0.0
  0
LINE
  5
1FB
330
1F
100
AcDbEntity
  8
0
100
AcDbLine
 10
-189.0909584356338
 20
20.63984835230092
 30
0.0
 11
-189.0909584356338
 21
23.63984835230077
 31
0.0
  0
LINE
  5
1FC
330
1F
100
AcDbEntity
  8
0
100
AcDbLine
 10
-199.0909584356337
 20
20.63984835230083
 30
0.0
 11
-189.0909584356338
 21
20.63984835230092
 31
0.0
  0
LINE
  5
1FD
330
1F
100
AcDbEntity
  8
0
100
AcDbLine
 10
-199.0909584356337
 20
23.63984835230077
 30
0.0
 11
-199.0909584356337
 21
20.63984835230083
 31
0.0
  0
LINE
  5
1FE
330
1F
100
AcDbEntity
  8
0
100
AcDbLine
 10
-199.0909584356337
 20
23.63984835230077
 30
0.0
 11
-224.0909584356338
 21
23.63984835230077
 31
0.0
  0
LINE
  5
1FF
330
1F
100
AcDbEntity
  8
0
100
AcDbLine
 10
-224.0909584356338
 20
20.63984835230083
 30
0.0
 11
-224.0909584356338
 21
23.63984835230077
 31
0.0
  0
LINE
  5
200
330
1F
100
AcDbEntity
  8
0
100
AcDbLine
 10
-234.0909584356337
 20
20.63984835230083
 30
0.0
 11
-224.0909584356338
 21
20.63984835230083
 31
0.0
  0
LINE
  5
201
330
1F
100
AcDbEntity
  8
0
100
AcDbLine
 10
-234.0909584356337
 20
23.63984835230077
 30
0.0
 11
-234.0909584356337
 21
20.63984835230083
 31
0.0
  0
LINE
  5
202
330
1F
100
AcDbEntity
  8
0
100
AcDbLine
 10
-234.0909584356337
 20
23.63984835230077
 30
0.0
 11
-246.5909584356337
 21
23.63984835230077
 31
0.0
  0
LINE
  5
203
330
1F
100
AcDbEntity
  8
0
100
AcDbLine
 10
-246.5909584356337
 20
23.63984835230077
 30
0.0
 11
-246.590958435633
 21
30.63984835230081
 31
0.0
  0
LINE
  5
204
330
1F
100
AcDbEntity
  8
0
100
AcDbLine
 10
-243.590958435633
 20
30.63984835230081
 30
0.0
 11
-246.590958435633
 21
30.63984835230081
 31
0.0
  0
LINE
  5
205
330
1F
100
AcDbEntity
  8
0
100
AcDbLine
 10
-243.590958435633
 20
35.63984835230085
 30
0.0
 11
-243.590958435633
 21
30.63984835230081
 31
0.0
  0
LINE
  5
206
330
1F
100
AcDbEntity
  8
0
100
AcDbLine
 10
-246.590958435633
 20
35.63984835230085
 30
0.0
 11
-243.590958435633
 21
35.63984835230085
 31
0.0
  0
LINE
  5
207
330
1F
100
AcDbEntity
  8
0
100
AcDbLine
 10
-246.590958435633
 20
35.63984835230085
 30
0.0
 11
-246.590958435633
 21
43.63984835230083
 31
0.0
  0
LINE
  5
208
330
1F
100
AcDbEntity
  8
0
100
AcDbLine
 10
-246.590958435633
 20
43.63984835230083
 30
0.0
 11
-235.0909584356327
 21
43.63984835230083
 31
0.0
  0
LINE
  5
209
330
1F
100
AcDbEntity
  8
0
100
AcDbLine
 10
-234.090958435633
 20
39.63984835230084
 30
0.0
 11
-235.0909584356327
 21
43.63984835230083
 31
0.0
  0
LINE
  5
20A
330
1F
100
AcDbEntity
  8
0
100
AcDbLine
 10
-234.090958435633
 20
39.63984835230084
 30
0.0
 11
-233.291126106477
 21
39.337060394411
 31
0.0
  0
LINE
  5
20B
330
1F
100
AcDbEntity
  8
0
100
AcDbLine
 10
-233.291126106477
 20
39.337060394411
 30
0.0
 11
-232.4731159411913
 21
39.08751746885156
 31
0.0
  0
LINE
  5
20C
330
1F
100
AcDbEntity
  8
0
100
AcDbLine
 10
-232.4731159411913
 20
39.08751746885156
 30
0.0
 11
-231.6404681924293
 21
38.89229956831889
 31
0.0
  0
LINE
  5
20D
330
1F
100
AcDbEntity
  8
0
100
AcDbLine
 10
-231.6404681924293
 20
38.89229956831889
 30
0.0
 11
-230.7967864625982
 21
38.7522515731329
 31
0.0
  0
LINE
  5
20E
330
1F
100
AcDbEntity
  8
0
100
AcDbLine
 10
-230.7967864625982
 20
38.7522515731329
 30
0.0
 11
-229.9457221078891
 21
38.66797959469338
 31
0.0
  0
LINE
  5
20F
330
1F
100
AcDbEntity
  8
0
100
AcDbLine
 10
-229.9457221078891
 20
38.66797959469338
 30
0.0
 11
-229.090958435633
 21
38.6398483523008
 31
0.0
  0
LINE
  5
210
330
1F
100
AcDbEntity
  8
0
100
AcDbLine
 10
-229.090958435633
 20
38.6398483523008
 30
0.0
 11
-228.2361947633769
 21
38.66797959469338
 31
0.0
  0
LINE
  5
211
330
1F
100
AcDbEntity
  8
0
100
AcDbLine
 10
-228.2361947633769
 20
38.66797959469338
 30
0.0
 11
-227.3851304086678
 21
38.7522515731329
 31
0.0
  0
LINE
  5
212
330
1F
100
AcDbEntity
  8
0
100
AcDbLine
 10
-227.3851304086678
 20
38.7522515731329
 30
0.0
 11
-226.5414486788367
 21
38.89229956831889
 31
0.0
  0
LINE
  5
213
330
1F
100
AcDbEntity
  8
0
100
AcDbLine
 10
-226.5414486788367
 20
38.89229956831889
 30
0.0
 11
-225.7088009300748
 21
39.08751746885156
 31
0.0
  0
LINE
  5
214
330
1F
100
AcDbEntity
  8
0
100
AcDbLine
 10
-225.7088009300748
 20
39.08751746885156
 30
0.0
 11
-224.890790764789
 21
39.337060394411
 31
0.0
  0
LINE
  5
215
330
1F
100
AcDbEntity
  8
0
100
AcDbLine
 10
-224.890790764789
 20
39.337060394411
 30
0.0
 11
-224.0909584356331
 21
39.63984835230084
 31
0.0
  0
LINE
  5
216
330
1F
100
AcDbEntity
  8
0
100
AcDbLine
 10
-223.0909584356333
 20
43.63984835230083
 30
0.0
 11
-224.0909584356331
 21
39.63984835230084
 31
0.0
  0
LINE
  5
217
330
1F
100
AcDbEntity
  8
0
100
AcDbLine
 10
-223.0909584356333
 20
43.63984835230083
 30
0.0
 11
-200.0909584356328
 21
43.63984835230083
 31
0.0
  0
LINE
  5
218
330
1F
100
AcDbEntity
  8
0
100
AcDbLine
 10
-200.0909584356328
 20
43.63984835230083
 30
0.0
 11
-199.090958435633
 21
39.63984835230084
 31
0.0
  0
LINE
  5
219
330
1F
100
AcDbEntity
  8
0
100
AcDbLine
 10
-199.090958435633
 20
39.63984835230084
 30
0.0
 11
-198.2911261064766
 21
39.337060394411
 31
0.0
  0
LINE
  5
21A
330
1F
100
AcDbEntity
  8
0
100
AcDbLine
 10
-198.2911261064766
 20
39.337060394411
 30
0.0
 11
-197.4731159411913
 21
39.08751746885156
 31
0.0
  0
LINE
  5
21B
330
1F
100
AcDbEntity
  8
0
100
AcDbLine
 10
-197.4731159411913
 20
39.08751746885156
 30
0.0
 11
-196.6404681924294
 21
38.89229956831889
 31
0.0
  0
LINE
  5
21C
330
1F
100
AcDbEntity
  8
0
100
AcDbLine
 10
-196.6404681924294
 20
38.89229956831889
 30
0.0
 11
-195.7967864625982
 21
38.7522515731329
 31
0.0
  0
LINE
  5
21D
330
1F
100
AcDbEntity
  8
0
100
AcDbLine
 10
-195.7967864625982
 20
38.7522515731329
 30
0.0
 11
-194.9457221078891
 21
38.66797959469338
 31
0.0
  0
LINE
  5
21E
330
1F
100
AcDbEntity
  8
0
100
AcDbLine
 10
-194.9457221078891
 20
38.66797959469338
 30
0.0
 11
-194.090958435633
 21
38.6398483523008
 31
0.0
  0
LINE
  5
21F
330
1F
100
AcDbEntity
  8
0
100
AcDbLine
 10
-194.090958435633
 20
38.6398483523008
 30
0.0
 11
-193.236194763377
 21
38.66797959469338
 31
0.0
  0
LINE
  5
220
330
1F
100
AcDbEntity
  8
0
100
AcDbLine
 10
-193.236194763377
 20
38.66797959469338
 30
0.0
 11
-192.3851304086678
 21
38.7522515731329
 31
0.0
  0
LINE
  5
221
330
1F
100
AcDbEntity
  8
0
100
AcDbLine
 10
-192.3851304086678
 20
38.7522515731329
 30
0.0
 11
-191.5414486788367
 21
38.89229956831889
 31
0.0
  0
LINE
  5
222
330
1F
100
AcDbEntity
  8
0
100
AcDbLine
 10
-191.5414486788367
 20
38.89229956831889
 30
0.0
 11
-190.7088009300748
 21
39.08751746885156
 31
0.0
  0
LINE
  5
223
330
1F
100
AcDbEntity
  8
0
100
AcDbLine
 10
-190.7088009300748
 20
39.08751746885156
 30
0.0
 11
-189.8907907647891
 21
39.337060394411
 31
0.0
  0
LINE
  5
224
330
1F
100
AcDbEntity
  8
0
100
AcDbLine
 10
-189.8907907647891
 20
39.337060394411
 30
0.0
 11
-189.0909584356331
 21
39.63984835230084
 31
0.0
  0
LINE
  5
225
330
1F
100
AcDbEntity
  8
0
100
AcDbLine
 10
-189.0909584356331
 20
39.63984835230084
 30
0.0
 11
-188.090958435633
 21
43.63984835230083
 31
0.0
  0
LINE
  5
226
330
1F
100
AcDbEntity
  8
0
100
AcDbLine
 10
-188.090958435633
 20
43.63984835230083
 30
0.0
 11
-165.0909584356328
 21
43.63984835230083
 31
0.0
  0
LINE
  5
227
330
1F
100
AcDbEntity
  8
0
100
AcDbLine
 10
-164.090958435633
 20
39.63984835230084
 30
0.0
 11
-165.0909584356328
 21
43.63984835230083
 31
0.0
  0
LINE
  5
228
330
1F
100
AcDbEntity
  8
0
100
AcDbLine
 10
-164.090958435633
 20
39.63984835230084
 30
0.0
 11
-163.291126106477
 21
39.337060394411
 31
0.0
  0
LINE
  5
229
330
1F
100
AcDbEntity
  8
0
100
AcDbLine
 10
-163.291126106477
 20
39.337060394411
 30
0.0
 11
-162.4731159411913
 21
39.08751746885156
 31
0.0
  0
LINE
  5
22A
330
1F
100
AcDbEntity
  8
0
100
AcDbLine
 10
-162.4731159411913
 20
39.08751746885156
 30
0.0
 11
-161.6404681924294
 21
38.89229956831889
 31
0.0
  0
LINE
  5
22B
330
1F
100
AcDbEntity
  8
0
100
AcDbLine
 10
-161.6404681924294
 20
38.89229956831889
 30
0.0
 11
-160.7967864625982
 21
38.7522515731329
 31
0.0
  0
LINE
  5
22C
330
1F
100
AcDbEntity
  8
0
100
AcDbLine
 10
-160.7967864625982
 20
38.7522515731329
 30
0.0
 11
-159.9457221078891
 21
38.66797959469338
 31
0.0
  0
LINE
  5
22D
330
1F
100
AcDbEntity
  8
0
100
AcDbLine
 10
-159.9457221078891
 20
38.66797959469338
 30
0.0
 11
-159.090958435633
 21
38.6398483523008
 31
0.0
  0
LINE
  5
22E
330
1F
100
AcDbEntity
  8
0
100
AcDbLine
 10
-159.090958435633
 20
38.6398483523008
 30
0.0
 11
-158.236194763377
 21
38.66797959469338
 31
0.0
  0
LINE
  5
22F
330
1F
100
AcDbEntity
  8
0
100
AcDbLine
 10
-158.236194763377
 20
38.66797959469338
 30
0.0
 11
-157.3851304086678
 21
38.7522515731329
 31
0.0
  0
LINE
  5
230
330
1F
100
AcDbEntity
  8
0
100
AcDbLine
 10
-157.3851304086678
 20
38.7522515731329
 30
0.0
 11
-156.5414486788367
 21
38.89229956831889
 31
0.0
  0
LINE
  5
231
330
1F
100
AcDbEntity
  8
0
100
AcDbLine
 10
-156.5414486788367
 20
38.89229956831889
 30
0.0
 11
-155.7088009300748
 21
39.08751746885156
 31
0.0
  0
LINE
  5
232
330
1F
100
AcDbEntity
  8
0
100
AcDbLine
 10
-155.7088009300748
 20
39.08751746885156
 30
0.0
 11
-154.8907907647891
 21
39.337060394411
 31
0.0
  0
LINE
  5
233
330
1F
100
AcDbEntity
  8
0
100
AcDbLine
 10
-154.8907907647891
 20
39.337060394411
 30
0.0
 11
-154.0909584356331
 21
39.63984835230084
 31
0.0
  0
LINE
  5
234
330
1F
100
AcDbEntity
  8
0
100
AcDbLine
 10
-153.0909584356333
 20
43.63984835230083
 30
0.0
 11
-154.0909584356331
 21
39.63984835230084
 31
0.0
  0
LINE
  5
235
330
1F
100
AcDbEntity
  8
0
100
AcDbLine
 10
-153.0909584356333
 20
43.63984835230083
 30
0.0
 11
-130.0909584356328
 21
43.63984835230083
 31
0.0
  0
LINE
  5
236
330
1F
100
AcDbEntity
  8
0
100
AcDbLine
 10
-130.0909584356328
 20
43.63984835230083
 30
0.0
 11
-129.090958435633
 21
39.63984835230084
 31
0.0
  0
LINE
  5
237
330
1F
100
AcDbEntity
  8
0
100
AcDbLine
 10
-129.090958435633
 20
39.63984835230084
 30
0.0
 11
-128.2911261064766
 21
39.337060394411
 31
0.0
  0
LINE
  5
238
330
1F
100
AcDbEntity
  8
0
100
AcDbLine
 10
-128.2911261064766
 20
39.337060394411
 30
0.0
 11
-127.4731159411913
 21
39.08751746885156
 31
0.0
  0
LINE
  5
239
330
1F
100
AcDbEntity
  8
0
100
AcDbLine
 10
-118.090958435633
 20
21.63984835230087
 30
0.0
 11
-95.0909584356328
 21
21.63984835230087
 31
0.0
  0
LINE
  5
23A
330
1F
100
AcDbEntity
  8
0
100
AcDbLine
 10
-94.09095843563303
 20
17.63984835230088
 30
0.0
 11
-95.0909584356328
 21
21.63984835230087
 31
0.0
  0
LINE
  5
23B
330
1F
100
AcDbEntity
  8
0
100
AcDbLine
 10
-94.09095843563303
 20
17.63984835230088
 30
0.0
 11
-93.29112610647702
 21
17.33706039441096
 31
0.0
  0
LINE
  5
23C
330
1F
100
AcDbEntity
  8
0
100
AcDbLine
 10
-93.29112610647702
 20
17.33706039441096
 30
0.0
 11
-92.47311594119132
 21
17.0875174688516
 31
0.0
  0
LINE
  5
23D
330
1F
100
AcDbEntity
  8
0
100
AcDbLine
 10
-92.47311594119132
 20
17.0875174688516
 30
0.0
 11
-91.64046819242941
 21
16.89229956831893
 31
0.0
  0
LINE
  5
23E
330
1F
100
AcDbEntity
  8
0
100
AcDbLine
 10
-91.64046819242941
 20
16.89229956831893
 30
0.0
 11
-90.79678646259829
 21
16.75225157313294
 31
0.0
  0
LINE
  5
23F
330
1F
100
AcDbEntity
  8
0
100
AcDbLine
 10
-90.79678646259829
 20
16.75225157313294
 30
0.0
 11
-89.94572210788914
 21
16.66797959469342
 31
0.0
  0
LINE
  5
240
330
1F
100
AcDbEntity
  8
0
100
AcDbLine
 10
-89.94572210788914
 20
16.66797959469342
 30
0.0
 11
-89.09095843563308
 21
16.63984835230083
 31
0.0
  0
LINE
  5
241
330
1F
100
AcDbEntity
  8
0
100
AcDbLine
 10
-89.09095843563308
 20
16.63984835230083
 30
0.0
 11
-88.23619476337701
 21
16.66797959469342
 31
0.0
  0
LINE
  5
242
330
1F
100
AcDbEntity
  8
0
100
AcDbLine
 10
-88.23619476337701
 20
16.66797959469342
 30
0.0
 11
-87.38513040866786
 21
16.75225157313294
 31
0.0
  0
LINE
  5
243
330
1F
100
AcDbEntity
  8
0
100
AcDbLine
 10
-87.38513040866786
 20
16.75225157313294
 30
0.0
 11
-86.54144867883674
 21
16.89229956831893
 31
0.0
  0
LINE
  5
244
330
1F
100
AcDbEntity
  8
0
100
AcDbLine
 10
-86.54144867883674
 20
16.89229956831893
 30
0.0
 11
-85.70880093007484
 21
17.0875174688516
 31
0.0
  0
LINE
  5
245
330
1F
100
AcDbEntity
  8
0
100
AcDbLine
 10
-85.70880093007484
 20
17.0875174688516
 30
0.0
 11
-84.89079076478913
 21
17.33706039441096
 31
0.0
  0
LINE
  5
246
330
1F
100
AcDbEntity
  8
0
100
AcDbLine
 10
-84.89079076478913
 20
17.33706039441096
 30
0.0
 11
-84.09095843563314
 21
17.63984835230088
 31
0.0
  0
LINE
  5
247
330
1F
100
AcDbEntity
  8
0
100
AcDbLine
 10
-83.09095843563337
 20
21.63984835230087
 30
0.0
 11
-84.09095843563314
 21
17.63984835230088
 31
0.0
  0
LINE
  5
248
330
1F
100
AcDbEntity
  8
0
100
AcDbLine
 10
-83.09095843563337
 20
21.63984835230087
 30
0.0
 11
-60.09095843563282
 21
21.63984835230087
 31
0.0
  0
LINE
  5
249
330
1F
100
AcDbEntity
  8
0
100
AcDbLine
 10
-60.09095843563282
 20
21.63984835230087
 30
0.0
 11
-59.09095843563305
 21
17.63984835230088
 31
0.0
  0
LINE
  5
24A
330
1F
100
AcDbEntity
  8
0
100
AcDbLine
 10
-59.09095843563305
 20
17.63984835230088
 30
0.0
 11
-58.29112610647669
 21
17.33706039441096
 31
0.0
  0
LINE
  5
24B
330
1F
100
AcDbEntity
  8
0
100
AcDbLine
 10
-58.29112610647669
 20
17.33706039441096
 30
0.0
 11
-57.47311594119134
 21
17.0875174688516
 31
0.0
  0
LINE
  5
24C
330
1F
100
AcDbEntity
  8
0
100
AcDbLine
 10
-57.47311594119134
 20
17.0875174688516
 30
0.0
 11
-56.64046819242943
 21
16.89229956831893
 31
0.0
  0
LINE
  5
24D
330
1F
100
AcDbEntity
  8
0
100
AcDbLine
 10
-56.64046819242943
 20
16.89229956831893
 30
0.0
 11
-55.79678646259832
 21
16.75225157313294
 31
0.0
  0
LINE
  5
24E
330
1F
100
AcDbEntity
  8
0
100
AcDbLine
 10
-55.79678646259832
 20
16.75225157313294
 30
0.0
 11
-54.94572210788916
 21
16.66797959469342
 31
0.0
  0
LINE
  5
24F
330
1F
100
AcDbEntity
  8
0
100
AcDbLine
 10
-54.94572210788916
 20
16.66797959469342
 30
0.0
 11
-54.0909584356331
 21
16.63984835230083
 31
0.0
  0
LINE
  5
250
330
1F
100
AcDbEntity
  8
0
100
AcDbLine
 10
-54.0909584356331
 20
16.63984835230083
 30
0.0
 11
-53.23619476337704
 21
16.66797959469342
 31
0.0
  0
LINE
  5
251
330
1F
100
AcDbEntity
  8
0
100
AcDbLine
 10
-53.23619476337704
 20
16.66797959469342
 30
0.0
 11
-52.38513040866788
 21
16.75225157313294
 31
0.0
  0
LINE
  5
252
330
1F
100
AcDbEntity
  8
0
100
AcDbLine
 10
-52.38513040866788
 20
16.75225157313294
 30
0.0
 11
-51.54144867883677
 21
16.89229956831893
 31
0.0
  0
LINE
  5
253
330
1F
100
AcDbEntity
  8
0
100
AcDbLine
 10
-51.54144867883677
 20
16.89229956831893
 30
0.0
 11
-50.70880093007487
 21
17.0875174688516
 31
0.0
  0
LINE
  5
254
330
1F
100
AcDbEntity
  8
0
100
AcDbLine
 10
-50.70880093007487
 20
17.0875174688516
 30
0.0
 11
-49.89079076478915
 21
17.33706039441096
 31
0.0
  0
LINE
  5
255
330
1F
100
AcDbEntity
  8
0
100
AcDbLine
 10
-49.89079076478915
 20
17.33706039441096
 30
0.0
 11
-49.09095843563315
 21
17.63984835230088
 31
0.0
  0
LINE
  5
256
330
1F
100
AcDbEntity
  8
0
100
AcDbLine
 10
-49.09095843563315
 20
17.63984835230088
 30
0.0
 11
-48.09095843563302
 21
21.63984835230087
 31
0.0
  0
LINE
  5
257
330
1F
100
AcDbEntity
  8
0
100
AcDbLine
 10
-48.09095843563302
 20
21.63984835230087
 30
0.0
 11
-36.59095843563311
 21
21.63984835230087
 31
0.0
  0
LINE
  5
258
330
1F
100
AcDbEntity
  8
0
100
AcDbLine
 10
-36.59095843563311
 20
21.63984835230087
 30
0.0
 11
-36.59095843563311
 21
13.63984835230088
 31
0.0
  0
LINE
  5
259
330
1F
100
AcDbEntity
  8
0
100
AcDbLine
 10
-36.59095843563311
 20
13.63984835230088
 30
0.0
 11
-39.59095843563315
 21
13.63984835230088
 31
0.0
  0
LINE
  5
25A
330
1F
100
AcDbEntity
  8
0
100
AcDbLine
 10
-39.59095843563315
 20
13.63984835230088
 30
0.0
 11
-39.59095843563315
 21
8.639848352300849
 31
0.0
  0
LINE
  5
25B
330
1F
100
AcDbEntity
  8
0
100
AcDbLine
 10
-39.59095843563315
 20
8.639848352300849
 30
0.0
 11
-36.59095843563311
 21
8.639848352300849
 31
0.0
  0
LINE
  5
25C
330
1F
100
AcDbEntity
  8
0
100
AcDbLine
 10
-36.59095843563311
 20
8.639848352300849
 30
0.0
 11
-36.59095843563311
 21
1.639848352300906
 31
0.0
  0
LINE
  5
25D
330
1F
100
AcDbEntity
  8
0
100
AcDbLine
 10
-36.59095843563311
 20
1.639848352300906
 30
0.0
 11
-49.09095843563315
 21
1.639848352300726
 31
0.0
  0
LINE
  5
25E
330
1F
100
AcDbEntity
  8
0
100
AcDbLine
 10
-49.09095843563315
 20
-1.360151647699224
 30
0.0
 11
-49.09095843563315
 21
1.639848352300726
 31
0.0
  0
LINE
  5
25F
330
1F
100
AcDbEntity
  8
0
100
AcDbLine
 10
-59.09095843563305
 20
-1.360151647699134
 30
0.0
 11
-49.09095843563315
 21
-1.360151647699224
 31
0.0
  0
LINE
  5
260
330
1F
100
AcDbEntity
  8
0
100
AcDbLine
 10
-59.09095843563305
 20
1.639848352300726
 30
0.0
 11
-59.09095843563305
 21
-1.360151647699134
 31
0.0
  0
LINE
  5
261
330
1F
100
AcDbEntity
  8
0
100
AcDbLine
 10
-59.09095843563305
 20
1.639848352300726
 30
0.0
 11
-84.09095843563314
 21
1.639848352300636
 31
0.0
  0
LINE
  5
262
330
1F
100
AcDbEntity
  8
0
100
AcDbLine
 10
-84.09095843563314
 20
-1.360151647699224
 30
0.0
 11
-84.09095843563314
 21
1.639848352300636
 31
0.0
  0
LINE
  5
263
330
1F
100
AcDbEntity
  8
0
100
AcDbLine
 10
-94.09095843563338
 20
-1.360151647699134
 30
0.0
 11
-84.09095843563314
 21
-1.360151647699224
 31
0.0
  0
LINE
  5
264
330
1F
100
AcDbEntity
  8
0
100
AcDbLine
 10
-94.09095843563338
 20
1.639848352300996
 30
0.0
 11
-94.09095843563338
 21
-1.360151647699134
 31
0.0
  0
LINE
  5
265
330
1F
100
AcDbEntity
  8
0
100
AcDbLine
 10
-94.09095843563338
 20
1.639848352300996
 30
0.0
 11
-119.0909584356331
 21
1.639848352300996
 31
0.0
  0
LINE
  5
266
330
1F
100
AcDbEntity
  8
0
100
AcDbLine
 10
-119.0909584356331
 20
-1.360151647699134
 30
0.0
 11
-119.0909584356331
 21
1.639848352300996
 31
0.0
  0
LINE
  5
267
330
1F
100
AcDbEntity
  8
0
100
AcDbLine
 10
-129.090958435633
 20
-1.360151647699134
 30
0.0
 11
-119.0909584356331
 21
-1.360151647699134
 31
0.0
  0
LINE
  5
268
330
1F
100
AcDbEntity
  8
0
100
AcDbLine
 10
-129.090958435633
 20
1.639848352300726
 30
0.0
 11
-129.090958435633
 21
-1.360151647699134
 31
0.0
  0
LINE
  5
269
330
1F
100
AcDbEntity
  8
0
100
AcDbLine
 10
-129.090958435633
 20
1.639848352300726
 30
0.0
 11
-154.0909584356331
 21
1.639848352300726
 31
0.0
  0
LINE
  5
26A
330
1F
100
AcDbEntity
  8
0
100
AcDbLine
 10
-154.0909584356331
 20
-1.360151647699134
 30
0.0
 11
-154.0909584356331
 21
1.639848352300726
 31
0.0
  0
LINE
  5
26B
330
1F
100
AcDbEntity
  8
0
100
AcDbLine
 10
-164.0909584356334
 20
-1.360151647699134
 30
0.0
 11
-154.0909584356331
 21
-1.360151647699134
 31
0.0
  0
LINE
  5
26C
330
1F
100
AcDbEntity
  8
0
100
AcDbLine
 10
-164.0909584356334
 20
1.639848352300726
 30
0.0
 11
-164.0909584356334
 21
-1.360151647699134
 31
0.0
  0
LINE
  5
26D
330
1F
100
AcDbEntity
  8
0
100
AcDbLine
 10
-164.0909584356334
 20
1.639848352300726
 30
0.0
 11
-189.0909584356338
 21
1.639848352300816
 31
0.0
  0
LINE
  5
26E
330
1F
100
AcDbEntity
  8
0
100
AcDbLine
 10
-189.0909584356338
 20
-1.360151647699043
 30
0.0
 11
-189.0909584356338
 21
1.639848352300816
 31
0.0
  0
LINE
  5
26F
330
1F
100
AcDbEntity
  8
0
100
AcDbLine
 10
-199.0909584356337
 20
-1.360151647699134
 30
0.0
 11
-189.0909584356338
 21
-1.360151647699043
 31
0.0
  0
LINE
  5
270
330
1F
100
AcDbEntity
  8
0
100
AcDbLine
 10
-199.0909584356337
 20
1.639848352300816
 30
0.0
 11
-199.0909584356337
 21
-1.360151647699134
 31
0.0
  0
LINE
  5
271
330
1F
100
AcDbEntity
  8
0
100
AcDbLine
 10
-199.0909584356337
 20
1.639848352300816
 30
0.0
 11
-224.0909584356338
 21
1.639848352300816
 31
0.0
  0
LINE
  5
272
330
1F
100
AcDbEntity
  8
0
100
AcDbLine
 10
-224.0909584356338
 20
-1.360151647699134
 30
0.0
 11
-224.0909584356338
 21
1.639848352300816
 31
0.0
  0
LINE
  5
273
330
1F
100
AcDbEntity
  8
0
100
AcDbLine
 10
-234.0909584356337
 20
-1.360151647699134
 30
0.0
 11
-224.0909584356338
 21
-1.360151647699134
 31
0.0
  0
LINE
  5
274
330
1F
100
AcDbEntity
  8
0
100
AcDbLine
 10
-234.0909584356337
 20
1.639848352300816
 30
0.0
 11
-234.0909584356337
 21
-1.360151647699134
 31
0.0
  0
LINE
  5
275
330
1F
100
AcDbEntity
  8
0
100
AcDbLine
 10
-234.0909584356337
 20
1.639848352300816
 30
0.0
 11
-246.5909584356337
 21
1.639848352300816
 31
0.0
  0
LINE
  5
276
330
1F
100
AcDbEntity
  8
0
100
AcDbLine
 10
-246.5909584356337
 20
1.639848352300816
 30
0.0
 11
-246.590958435633
 21
8.639848352300849
 31
0.0
  0
LINE
  5
277
330
1F
100
AcDbEntity
  8
0
100
AcDbLine
 10
-243.590958435633
 20
8.639848352300849
 30
0.0
 11
-246.590958435633
 21
8.639848352300849
 31
0.0
  0
LINE
  5
278
330
1F
100
AcDbEntity
  8
0
100
AcDbLine
 10
-243.590958435633
 20
13.63984835230088
 30
0.0
 11
-243.590958435633
 21
8.639848352300849
 31
0.0
  0
LINE
  5
279
330
1F
100
AcDbEntity
  8
0
100
AcDbLine
 10
-246.590958435633
 20
13.63984835230088
 30
0.0
 11
-243.590958435633
 21
13.63984835230088
 31
0.0
  0
LINE
  5
27A
330
1F
100
AcDbEntity
  8
0
100
AcDbLine
 10
-246.590958435633
 20
13.63984835230088
 30
0.0
 11
-246.590958435633
 21
21.63984835230087
 31
0.0
  0
LINE
  5
27B
330
1F
100
AcDbEntity
  8
0
100
AcDbLine
 10
-246.590958435633
 20
21.63984835230087
 30
0.0
 11
-235.0909584356327
 21
21.63984835230087
 31
0.0
  0
LINE
  5
27C
330
1F
100
AcDbEntity
  8
0
100
AcDbLine
 10
-234.090958435633
 20
17.63984835230088
 30
0.0
 11
-235.0909584356327
 21
21.63984835230087
 31
0.0
  0
LINE
  5
27D
330
1F
100
AcDbEntity
  8
0
100
AcDbLine
 10
-234.090958435633
 20
17.63984835230088
 30
0.0
 11
-233.291126106477
 21
17.33706039441105
 31
0.0
  0
LINE
  5
27E
330
1F
100
AcDbEntity
  8
0
100
AcDbLine
 10
-233.291126106477
 20
17.33706039441105
 30
0.0
 11
-232.4731159411913
 21
17.0875174688516
 31
0.0
  0
LINE
  5
27F
330
1F
100
AcDbEntity
  8
0
100
AcDbLine
 10
-232.4731159411913
 20
17.0875174688516
 30
0.0
 11
-231.6404681924293
 21
16.89229956831893
 31
0.0
  0
LINE
  5
280
330
1F
100
AcDbEntity
  8
0
100
AcDbLine
 10
-231.6404681924293
 20
16.89229956831893
 30
0.0
 11
-230.7967864625982
 21
16.75225157313294
 31
0.0
  0
LINE
  5
281
330
1F
100
AcDbEntity
  8
0
100
AcDbLine
 10
-230.7967864625982
 20
16.75225157313294
 30
0.0
 11
-229.9457221078891
 21
16.66797959469342
 31
0.0
  0
LINE
  5
282
330
1F
100
AcDbEntity
  8
0
100
AcDbLine
 10
-229.9457221078891
 20
16.66797959469342
 30
0.0
 11
-229.090958435633
 21
16.63984835230083
 31
0.0
  0
LINE
  5
283
330
1F
100
AcDbEntity
  8
0
100
AcDbLine
 10
-229.090958435633
 20
16.63984835230083
 30
0.0
 11
-228.2361947633769
 21
16.66797959469342
 31
0.0
  0
LINE
  5
284
330
1F
100
AcDbEntity
  8
0
100
AcDbLine
 10
-228.2361947633769
 20
16.66797959469342
 30
0.0
 11
-227.3851304086678
 21
16.75225157313294
 31
0.0
  0
LINE
  5
285
330
1F
100
AcDbEntity
  8
0
100
AcDbLine
 10
-227.3851304086678
 20
16.75225157313294
 30
0.0
 11
-226.5414486788367
 21
16.89229956831893
 31
0.0
  0
LINE
  5
286
330
1F
100
AcDbEntity
  8
0
100
AcDbLine
 10
-226.5414486788367
 20
16.89229956831893
 30
0.0
 11
-225.7088009300748
 21
17.0875174688516
 31
0.0
  0
LINE
  5
287
330
1F
100
AcDbEntity
  8
0
100
AcDbLine
 10
-225.7088009300748
 20
17.0875174688516
 30
0.0
 11
-224.890790764789
 21
17.33706039441105
 31
0.0
  0
LINE
  5
288
330
1F
100
AcDbEntity
  8
0
100
AcDbLine
 10
-224.890790764789
 20
17.33706039441105
 30
0.0
 11
-224.0909584356331
 21
17.63984835230088
 31
0.0
  0
LINE
  5
289
330
1F
100
AcDbEntity
  8
0
100
AcDbLine
 10
-223.0909584356333
 20
21.63984835230087
 30
0.0
 11
-224.0909584356331
 21
17.63984835230088
 31
0.0
  0
LINE
  5
28A
330
1F
100
AcDbEntity
  8
0
100
AcDbLine
 10
-223.0909584356333
 20
21.63984835230087
 30
0.0
 11
-200.0909584356328
 21
21.63984835230087
 31
0.0
  0
LINE
  5
28B
330
1F
100
AcDbEntity
  8
0
100
AcDbLine
 10
-200.0909584356328
 20
21.63984835230087
 30
0.0
 11
-199.090958435633
 21
17.63984835230088
 31
0.0
  0
LINE
  5
28C
330
1F
100
AcDbEntity
  8
0
100
AcDbLine
 10
-199.090958435633
 20
17.63984835230088
 30
0.0
 11
-198.2911261064766
 21
17.33706039441105
 31
0.0
  0
LINE
  5
28D
330
1F
100
AcDbEntity
  8
0
100
AcDbLine
 10
-198.2911261064766
 20
17.33706039441105
 30
0.0
 11
-197.4731159411913
 21
17.0875174688516
 31
0.0
  0
LINE
  5
28E
330
1F
100
AcDbEntity
  8
0
100
AcDbLine
 10
-197.4731159411913
 20
17.0875174688516
 30
0.0
 11
-196.6404681924294
 21
16.89229956831893
 31
0.0
  0
LINE
  5
28F
330
1F
100
AcDbEntity
  8
0
100
AcDbLine
 10
-196.6404681924294
 20
16.89229956831893
 30
0.0
 11
-195.7967864625982
 21
16.75225157313294
 31
0.0
  0
LINE
  5
290
330
1F
100
AcDbEntity
  8
0
100
AcDbLine
 10
-195.7967864625982
 20
16.75225157313294
 30
0.0
 11
-194.9457221078891
 21
16.66797959469342
 31
0.0
  0
LINE
  5
291
330
1F
100
AcDbEntity
  8
0
100
AcDbLine
 10
-194.9457221078891
 20
16.66797959469342
 30
0.0
 11
-194.090958435633
 21
16.63984835230083
 31
0.0
  0
LINE
  5
292
330
1F
100
AcDbEntity
  8
0
100
AcDbLine
 10
-194.090958435633
 20
16.63984835230083
 30
0.0
 11
-193.236194763377
 21
16.66797959469342
 31
0.0
  0
LINE
  5
293
330
1F
100
AcDbEntity
  8
0
100
AcDbLine
 10
-193.236194763377
 20
16.66797959469342
 30
0.0
 11
-192.3851304086678
 21
16.75225157313294
 31
0.0
  0
LINE
  5
294
330
1F
100
AcDbEntity
  8
0
100
AcDbLine
 10
-192.3851304086678
 20
16.75225157313294
 30
0.0
 11
-191.5414486788367
 21
16.89229956831893
 31
0.0
  0
LINE
  5
295
330
1F
100
AcDbEntity
  8
0
100
AcDbLine
 10
-191.5414486788367
 20
16.89229956831893
 30
0.0
 11
-190.7088009300748
 21
17.0875174688516
 31
0.0
  0
LINE
  5
296
330
1F
100
AcDbEntity
  8
0
100
AcDbLine
 10
-190.7088009300748
 20
17.0875174688516
 30
0.0
 11
-189.8907907647891
 21
17.33706039441105
 31
0.0
  0
LINE
  5
297
330
1F
100
AcDbEntity
  8
0
100
AcDbLine
 10
-189.8907907647891
 20
17.33706039441105
 30
0.0
 11
-189.0909584356331
 21
17.63984835230088
 31
0.0
  0
LINE
  5
298
330
1F
100
AcDbEntity
  8
0
100
AcDbLine
 10
-189.0909584356331
 20
17.63984835230088
 30
0.0
 11
-188.090958435633
 21
21.63984835230087
 31
0.0
  0
LINE
  5
299
330
1F
100
AcDbEntity
  8
0
100
AcDbLine
 10
-188.090958435633
 20
21.63984835230087
 30
0.0
 11
-165.0909584356328
 21
21.63984835230087
 31
0.0
  0
LINE
  5
29A
330
1F
100
AcDbEntity
  8
0
100
AcDbLine
 10
-164.090958435633
 20
17.63984835230088
 30
0.0
 11
-165.0909584356328
 21
21.63984835230087
 31
0.0
  0
LINE
  5
29B
330
1F
100
AcDbEntity
  8
0
100
AcDbLine
 10
-164.090958435633
 20
17.63984835230088
 30
0.0
 11
-163.291126106477
 21
17.33706039441105
 31
0.0
  0
LINE
  5
29C
330
1F
100
AcDbEntity
  8
0
100
AcDbLine
 10
-163.291126106477
 20
17.33706039441105
 30
0.0
 11
-162.4731159411913
 21
17.0875174688516
 31
0.0
  0
LINE
  5
29D
330
1F
100
AcDbEntity
  8
0
100
AcDbLine
 10
-162.4731159411913
 20
17.0875174688516
 30
0.0
 11
-161.6404681924294
 21
16.89229956831893
 31
0.0
  0
LINE
  5
29E
330
1F
100
AcDbEntity
  8
0
100
AcDbLine
 10
-161.6404681924294
 20
16.89229956831893
 30
0.0
 11
-160.7967864625982
 21
16.75225157313294
 31
0.0
  0
LINE
  5
29F
330
1F
100
AcDbEntity
  8
0
100
AcDbLine
 10
-160.7967864625982
 20
16.75225157313294
 30
0.0
 11
-159.9457221078891
 21
16.66797959469342
 31
0.0
  0
LINE
  5
2A0
330
1F
100
AcDbEntity
  8
0
100
AcDbLine
 10
-159.9457221078891
 20
16.66797959469342
 30
0.0
 11
-159.090958435633
 21
16.63984835230083
 31
0.0
  0
LINE
  5
2A1
330
1F
100
AcDbEntity
  8
0
100
AcDbLine
 10
-159.090958435633
 20
16.63984835230083
 30
0.0
 11
-158.236194763377
 21
16.66797959469342
 31
0.0
  0
LINE
  5
2A2
330
1F
100
AcDbEntity
  8
0
100
AcDbLine
 10
-158.236194763377
 20
16.66797959469342
 30
0.0
 11
-157.3851304086678
 21
16.75225157313294
 31
0.0
  0
LINE
  5
2A3
330
1F
100
AcDbEntity
  8
0
100
AcDbLine
 10
-157.3851304086678
 20
16.75225157313294
 30
0.0
 11
-156.5414486788367
 21
16.89229956831893
 31
0.0
  0
LINE
  5
2A4
330
1F
100
AcDbEntity
  8
0
100
AcDbLine
 10
-156.5414486788367
 20
16.89229956831893
 30
0.0
 11
-155.7088009300748
 21
17.0875174688516
 31
0.0
  0
LINE
  5
2A5
330
1F
100
AcDbEntity
  8
0
100
AcDbLine
 10
-155.7088009300748
 20
17.0875174688516
 30
0.0
 11
-154.8907907647891
 21
17.33706039441105
 31
0.0
  0
LINE
  5
2A6
330
1F
100
AcDbEntity
  8
0
100
AcDbLine
 10
-154.8907907647891
 20
17.33706039441105
 30
0.0
 11
-154.0909584356331
 21
17.63984835230088
 31
0.0
  0
LINE
  5
2A7
330
1F
100
AcDbEntity
  8
0
100
AcDbLine
 10
-153.0909584356333
 20
21.63984835230087
 30
0.0
 11
-154.0909584356331
 21
17.63984835230088
 31
0.0
  0
LINE
  5
2A8
330
1F
100
AcDbEntity
  8
0
100
AcDbLine
 10
-153.0909584356333
 20
21.63984835230087
 30
0.0
 11
-130.0909584356328
 21
21.63984835230087
 31
0.0
  0
LINE
  5
2A9
330
1F
100
AcDbEntity
  8
0
100
AcDbLine
 10
-130.0909584356328
 20
21.63984835230087
 30
0.0
 11
-129.090958435633
 21
17.63984835230088
 31
0.0
  0
LINE
  5
2AA
330
1F
100
AcDbEntity
  8
0
100
AcDbLine
 10
-129.090958435633
 20
17.63984835230088
 30
0.0
 11
-128.2911261064766
 21
17.33706039441105
 31
0.0
  0
LINE
  5
2AB
330
1F
100
AcDbEntity
  8
0
100
AcDbLine
 10
-128.2911261064766
 20
17.33706039441105
 30
0.0
 11
-127.4731159411913
 21
17.0875174688516
 31
0.0
  0
LINE
  5
2AC
330
1F
100
AcDbEntity
  8
0
100
AcDbLine
 10
-127.4731159411913
 20
17.0875174688516
 30
0.0
 11
-126.6404681924294
 21
16.89229956831893
 31
0.0
  0
LINE
  5
2AD
330
1F
100
AcDbEntity
  8
0
100
AcDbLine
 10
-126.6404681924294
 20
16.89229956831893
 30
0.0
 11
-125.7967864625983
 21
16.75225157313294
 31
0.0
  0
LINE
  5
2AE
330
1F
100
AcDbEntity
  8
0
100
AcDbLine
 10
-125.7967864625983
 20
16.75225157313294
 30
0.0
 11
-124.9457221078891
 21
16.66797959469342
 31
0.0
  0
LINE
  5
2AF
330
1F
100
AcDbEntity
  8
0
100
AcDbLine
 10
-124.9457221078891
 20
16.66797959469342
 30
0.0
 11
-124.0909584356331
 21
16.63984835230083
 31
0.0
  0
LINE
  5
2B0
330
1F
100
AcDbEntity
  8
0
100
AcDbLine
 10
-124.0909584356331
 20
16.63984835230083
 30
0.0
 11
-123.236194763377
 21
16.66797959469342
 31
0.0
  0
LINE
  5
2B1
330
1F
100
AcDbEntity
  8
0
100
AcDbLine
 10
-123.236194763377
 20
16.66797959469342
 30
0.0
 11
-122.3851304086678
 21
16.75225157313294
 31
0.0
  0
LINE
  5
2B2
330
1F
100
AcDbEntity
  8
0
100
AcDbLine
 10
-122.3851304086678
 20
16.75225157313294
 30
0.0
 11
-121.5414486788367
 21
16.89229956831893
 31
0.0
  0
LINE
  5
2B3
330
1F
100
AcDbEntity
  8
0
100
AcDbLine
 10
-121.5414486788367
 20
16.89229956831893
 30
0.0
 11
-120.7088009300748
 21
17.0875174688516
 31
0.0
  0
LINE
  5
2B4
330
1F
100
AcDbEntity
  8
0
100
AcDbLine
 10
-120.7088009300748
 20
17.0875174688516
 30
0.0
 11
-119.8907907647891
 21
17.33706039441105
 31
0.0
  0
LINE
  5
2B5
330
1F
100
AcDbEntity
  8
0
100
AcDbLine
 10
-119.8907907647891
 20
17.33706039441105
 30
0.0
 11
-119.0909584356331
 21
17.63984835230088
 31
0.0
  0
LINE
  5
2B6
330
1F
100
AcDbEntity
  8
0
100
AcDbLine
 10
-119.0909584356331
 20
17.63984835230088
 30
0.0
 11
-118.090958435633
 21
21.63984835230087
 31
0.0
  0
ENDSEC
  0
SECTION
  2
OBJECTS
  0
DICTIONARY
  5
C
330
0
100
AcDbDictionary
  3
ACAD_GROUP
350
D
  3
ACAD_LAYOUT
350
1A
  3
ACAD_MATERIAL
350
3B
  3
ACAD_MLEADERSTYLE
350
2D9
  3
ACAD_MLINESTYLE
350
17
  3
ACAD_PLOTSETTINGS
350
19
  3
ACAD_VISUALSTYLE
350
2A
  3
ACDBHEADERROUNDTRIPXREC
350
2B7
  3
ACDBVARIABLEDICTIONARY
350
2D7
  0
DICTIONARY
  5
D
102
{ACAD_REACTORS
330
C
102
}
330
C
100
AcDbDictionary
  0
DICTIONARY
  5
1A
102
{ACAD_REACTORS
330
C
102
}
330
C
100
AcDbDictionary
  0
DICTIONARY
  5
3B
102
{ACAD_REACTORS
330
C
102
}
330
C
100
AcDbDictionary
  3
BYBLOCK
350
3D
  3
BYLAYER
350
3C
  3
GLOBAL
350
3E
  0
DICTIONARY
  5
2D9
102
{ACAD_REACTORS
330
C
102
}
330
C
100
AcDbDictionary
  0
DICTIONARY
  5
17
102
{ACAD_REACTORS
330
C
102
}
330
C
100
AcDbDictionary
  3
STANDARD
350
18
  0
DICTIONARY
  5
19
102
{ACAD_REACTORS
330
C
102
}
330
C
100
AcDbDictionary
  0
DICTIONARY
  5
2A
102
{ACAD_REACTORS
330
C
102
}
330
C
100
AcDbDictionary
  3
2DWIREFRAME
350
2F
  3
3D_HIDDEN
350
31
  3
3DWIREFRAME
350
30
  3
BASIC
350
32
  3
BRIGHTEN
350
36
  3
COLORCHANGE
350
3A
  3
CONCEPTUAL
350
34
  3
DIM
350
35
  3
FACEPATTERN
350
39
  3
FLAT
350
2B
  3
FLATWITHEDGES
350
2C
  3
GOURAUD
350
2D
  3
GOURAUDWITHEDGES
350
2E
  3
LINEPATTERN
350
38
  3
REALISTIC
350
33
  3
THICKEN
350
37
  0
DICTIONARY
  5
2B7
102
{ACAD_REACTORS
330
C
102
}
330
C
100
AcDbDictionary
  3
CEPSNTYPE
350
2C0
  3
DIMSTYLEDATA
350
2D6
  3
FINGERPRINTGUID
350
2C1
  3
HYPERLINKBASE
350
2BA
  3
INSUNITS
350
2BF
  3
LAYOUTDICT
350
2BC
  3
LWETCUNION
350
2BE
  3
PLOTSETDICT
350
2BD
  3
PSVPSCALE
350
2C3
  3
PUCSBASE
350
2C6
  3
PUCSORGBACK
350
2CC
  3
PUCSORGBOTTOM
350
2C8
  3
PUCSORGFRONT
350
2CB
  3
PUCSORGLEFT
350
2C9
  3
PUCSORGRIGHT
350
2CA
  3
PUCSORGTOP
350
2C7
  3
PUCSORTHOREF
350
2C4
  3
PUCSORTHOVIEW
350
2C5
  3
STYLESHEET
350
2BB
  3
TSTACKALIGN
350
2B8
  3
TSTACKSIZE
350
2B9
  3
UCSBASE
350
2CF
  3
UCSORGBACK
350
2D5
  3
UCSORGBOTTOM
350
2D1
  3
UCSORGFRONT
350
2D4
  3
UCSORGLEFT
350
2D2
  3
UCSORGRIGHT
350
2D3
  3
UCSORGTOP
350
2D0
  3
UCSORTHOREF
350
2CD
  3
UCSORTHOVIEW
350
2CE
  3
VERSIONGUID
350
2C2
  0
DICTIONARY
  5
2D7
102
{ACAD_REACTORS
330
C
102
}
330
C
100
AcDbDictionary
  3
DIMASSOC
350
2DA
  3
HIDETEXT
350
2DB
  0
MATERIAL
  5
3D
102
{ACAD_REACTORS
330
3B
102
}
102
{ACAD_XDICTIONARY
360
2DE
102
}
330
3B
100
AcDbMaterial
  1
ByBlock
  0
MATERIAL
  5
3C
102
{ACAD_REACTORS
330
3B
102
}
102
{ACAD_XDICTIONARY
360
2DC
102
}
330
3B
100
AcDbMaterial
  1
ByLayer
  0
MATERIAL
  5
3E
102
{ACAD_REACTORS
330
3B
102
}
102
{ACAD_XDICTIONARY
360
2E0
102
}
330
3B
100
AcDbMaterial
  1
Global
  0
MLINESTYLE
  5
18
102
{ACAD_REACTORS
330
17
102
}
330
17
100
AcDbMlineStyle
  2
Standard
 70
     0
  3

 62
   256
 51
90.0
 52
90.0
 71
     2
 49
0.5
 62
   256
  6
BYLAYER
 49
-0.5
 62
   256
  6
BYLAYER
  0
ACAD_PROXY_OBJECT
  5
2F
102
{ACAD_REACTORS
330
2A
102
}
330
2A
100
AcDbProxyObject
 90
      499
 91
      501
 93
      436
310
42CC9915DA5C99599C985B595049028333333333333E3BF0000000000000FB0107901411070040501600405405064090741402480A0340
1001
ACAD
1000
AcDbSavedByObjectVersion
1070
     0
  0
ACAD_PROXY_OBJECT
  5
31
102
{ACAD_REACTORS
330
2A
102
}
330
2A
100
AcDbProxyObject
 90
      499
 91
      501
 93
      500
310
424CD108121A5919195B90640502408333333333333E3BF0000000000000FB01079024090700405020000000000001110200405405064090740C02480A0340
1001
ACAD
1000
AcDbSavedByObjectVersion
1070
     0
  0
ACAD_PROXY_OBJECT
  5
30
102
{ACAD_REACTORS
330
2A
102
}
330
2A
100
AcDbProxyObject
 90
      499
 91
      501
 93
      436
310
42CCD915DA5C99599C985B595059028333333333333E3BF0000000000000FB0107901411070040501600405405064090741402480A0340
1001
ACAD
1000
AcDbSavedByObjectVersion
1070
     0
  0
ACAD_PROXY_OBJECT
  5
32
102
{ACAD_REACTORS
330
2A
102
}
330
2A
100
AcDbProxyObject
 90
      499
 91
      501
 93
      388
310
4150985CDA58D07406404333333333333E3BF0000000000000FB0107A41107004050150841D405064090741402480A0350
1001
ACAD
1000
AcDbSavedByObjectVersion
1070
     0
  0
ACAD_PROXY_OBJECT
  5
36
102
{ACAD_REACTORS
330
2A
102
}
330
2A
100
AcDbProxyObject
 90
      499
 91
      501
 93
      428
310
42109C9A59DA1D195B90C409028333333333333E3BF0000000000000FB010790141107004050150841D405064090741402480A029950
1001
ACAD
1000
AcDbSavedByObjectVersion
1070
     0
  0
ACAD_PROXY_OBJECT
  5
3A
102
{ACAD_REACTORS
330
2A
102
}
330
2A
100
AcDbProxyObject
 90
      499
 91
      501
 93
      452
310
42D0DBDB1BDC90DA185B99D95104090240C333333333333E3BF0000000000000FB0108901411070040501508421405064090741402480A0350
1001
ACAD
1000
AcDbSavedByObjectVersion
1070
     0
  0
ACAD_PROXY_OBJECT
  5
34
102
{ACAD_REACTORS
330
2A
102
}
330
2A
100
AcDbProxyObject
 90
      499
 91
      501
 93
      500
310
4290DBDB98D95C1D1D585B10940D028333333333333E3BF0000000000000FB0107902409070040501000000000000111010841D405064090740C02480A0340
1001
ACAD
1000
AcDbSavedByObjectVersion
1070
     0
  0
ACAD_PROXY_OBJECT
  5
35
102
{ACAD_REACTORS
330
2A
102
}
330
2A
100
AcDbProxyObject
 90
      499
 91
      501
 93
      412
310
40D11A5B50B409028333333333333E3BF0000000000000FB010790141107004050150841D405064090741402480A02677FFFFFD0
1001
ACAD
1000
AcDbSavedByObjectVersion
1070
     0
  0
ACAD_PROXY_OBJECT
  5
39
102
{ACAD_REACTORS
330
2A
102
}
330
2A
100
AcDbProxyObject
 90
      499
 91
      501
 93
      444
310
42D19858D95C185D1D195C9B90F409028333333333333E3BF0000000000000FB010790141107004050150841D405064090741402480A0350
1001
ACAD
1000
AcDbSavedByObjectVersion
1070
     0
  0
ACAD_PROXY_OBJECT
  5
2B
102
{ACAD_REACTORS
330
2A
102
}
330
2A
100
AcDbProxyObject
 90
      499
 91
      501
 93
      388
310
41119B185D240901404333333333333E3BF0000000000000F9010740A41107004050150841D405064090741402480A1B50
1001
ACAD
1000
AcDbSavedByObjectVersion
1070
     0
  0
ACAD_PROXY_OBJECT
  5
2C
102
{ACAD_REACTORS
330
2A
102
}
330
2A
100
AcDbProxyObject
 90
      499
 91
      501
 93
      476
310
43519B185D15DA5D1A115919D95CD0140901404333333333333E3BF0000000000000F9010740901411070040501600405405064090741402480A1B50
1001
ACAD
1000
AcDbSavedByObjectVersion
1070
     0
  0
ACAD_PROXY_OBJECT
  5
2D
102
{ACAD_REACTORS
330
2A
102
}
330
2A
100
AcDbProxyObject
 90
      499
 91
      501
 93
      412
310
41D1DBDD5C985D5910240902404333333333333E3BF0000000000000F9010740A411070040501641D405064090741402480A1B50
1001
ACAD
1000
AcDbSavedByObjectVersion
1070
     0
  0
ACAD_PROXY_OBJECT
  5
2E
102
{ACAD_REACTORS
330
2A
102
}
330
2A
100
AcDbProxyObject
 90
      499
 91
      501
 93
      500
310
4411DBDD5C985D5915DA5D1A115919D95CD0340902404333333333333E3BF0000000000000F9010740901411070040501600405405064090741402480A1B50
1001
ACAD
1000
AcDbSavedByObjectVersion
1070
     0
  0
ACAD_PROXY_OBJECT
  5
38
102
{ACAD_REACTORS
330
2A
102
}
330
2A
100
AcDbProxyObject
 90
      499
 91
      501
 93
      444
310
42D31A5B995C185D1D195C9B90E409028333333333333E3BF0000000000000FB010790141107004050750841D405064090741402483A0350
1001
ACAD
1000
AcDbSavedByObjectVersion
1070
     0
  0
ACAD_PROXY_OBJECT
  5
33
102
{ACAD_REACTORS
330
2A
102
}
330
2A
100
AcDbProxyObject
 90
      499
 91
      501
 93
      420
310
425499585B1A5CDD1A58D08409028333333333333E3BF0000000000000FB01079019070040501508421405064090741402480A1B40
1001
ACAD
1000
AcDbSavedByObjectVersion
1070
     0
  0
ACAD_PROXY_OBJECT
  5
37
102
{ACAD_REACTORS
330
2A
102
}
330
2A
100
AcDbProxyObject
 90
      499
 91
      501
 93
      412
310
41D51A1A58DAD95B90D409028333333333333E3BF0000000000000FB010790141107004050150C41D405064090741402480A0350
1001
ACAD
1000
AcDbSavedByObjectVersion
1070
     0
  0
XRECORD
  5
2C0
102
{ACAD_REACTORS
330
2B7
102
}
330
2B7
100
AcDbXrecord
 90
        0
  0
XRECORD
  5
2D6
102
{ACAD_REACTORS
330
2B7
102
}
330
2B7
100
AcDbXrecord
1000
DSTYLE
1002
{
1070
   340
340
11
1002
}
  0
XRECORD
  5
2C1
102
{ACAD_REACTORS
330
2B7
102
}
330
2B7
100
AcDbXrecord
  1
{61557497-A68C-4002-AED8-B08AB203F814}
  0
XRECORD
  5
2BA
102
{ACAD_REACTORS
330
2B7
102
}
330
2B7
100
AcDbXrecord
  1

  0
XRECORD
  5
2BF
102
{ACAD_REACTORS
330
2B7
102
}
330
2B7
100
AcDbXrecord
 90
        1
  0
XRECORD
  5
2BC
102
{ACAD_REACTORS
330
2B7
102
}
330
2B7
100
AcDbXrecord
340
1A
  0
XRECORD
  5
2BE
102
{ACAD_REACTORS
330
2B7
102
}
330
2B7
100
AcDbXrecord
 90
    10781
  0
XRECORD
  5
2BD
102
{ACAD_REACTORS
330
2B7
102
}
330
2B7
100
AcDbXrecord
340
19
  0
XRECORD
  5
2C3
102
{ACAD_REACTORS
330
2B7
102
}
330
2B7
100
AcDbXrecord
 40
0.0
  0
XRECORD
  5
2C6
102
{ACAD_REACTORS
330
2B7
102
}
330
2B7
100
AcDbXrecord
340
0
  0
XRECORD
  5
2CC
102
{ACAD_REACTORS
330
2B7
102
}
330
2B7
100
AcDbXrecord
 10
0.0
 20
0.0
 30
0.0
  0
XRECORD
  5
2C8
102
{ACAD_REACTORS
330
2B7
102
}
330
2B7
100
AcDbXrecord
 10
0.0
 20
0.0
 30
0.0
  0
XRECORD
  5
2CB
102
{ACAD_REACTORS
330
2B7
102
}
330
2B7
100
AcDbXrecord
 10
0.0
 20
0.0
 30
0.0
  0
XRECORD
  5
2C9
102
{ACAD_REACTORS
330
2B7
102
}
330
2B7
100
AcDbXrecord
 10
0.0
 20
0.0
 30
0.0
  0
XRECORD
  5
2CA
102
{ACAD_REACTORS
330
2B7
102
}
330
2B7
100
AcDbXrecord
 10
0.0
 20
0.0
 30
0.0
  0
XRECORD
  5
2C7
102
{ACAD_REACTORS
330
2B7
102
}
330
2B7
100
AcDbXrecord
 10
0.0
 20
0.0
 30
0.0
  0
XRECORD
  5
2C4
102
{ACAD_REACTORS
330
2B7
102
}
330
2B7
100
AcDbXrecord
340
0
  0
XRECORD
  5
2C5
102
{ACAD_REACTORS
330
2B7
102
}
330
2B7
100
AcDbXrecord
 70
     0
  0
XRECORD
  5
2BB
102
{ACAD_REACTORS
330
2B7
102
}
330
2B7
100
AcDbXrecord
  1

  0
XRECORD
  5
2B8
102
{ACAD_REACTORS
330
2B7
102
}
330
2B7
100
AcDbXrecord
 90
        1
  0
XRECORD
  5
2B9
102
{ACAD_REACTORS
330
2B7
102
}
330
2B7
100
AcDbXrecord
 90
       70
  0
XRECORD
  5
2CF
102
{ACAD_REACTORS
330
2B7
102
}
330
2B7
100
AcDbXrecord
340
0
  0
XRECORD
  5
2D5
102
{ACAD_REACTORS
330
2B7
102
}
330
2B7
100
AcDbXrecord
 10
0.0
 20
0.0
 30
0.0
  0
XRECORD
  5
2D1
102
{ACAD_REACTORS
330
2B7
102
}
330
2B7
100
AcDbXrecord
 10
0.0
 20
0.0
 30
0.0
  0
XRECORD
  5
2D4
102
{ACAD_REACTORS
330
2B7
102
}
330
2B7
100
AcDbXrecord
 10
0.0
 20
0.0
 30
0.0
  0
XRECORD
  5
2D2
102
{ACAD_REACTORS
330
2B7
102
}
330
2B7
100
AcDbXrecord
 10
0.0
 20
0.0
 30
0.0
  0
XRECORD
  5
2D3
102
{ACAD_REACTORS
330
2B7
102
}
330
2B7
100
AcDbXrecord
 10
0.0
 20
0.0
 30
0.0
  0
XRECORD
  5
2D0
102
{ACAD_REACTORS
330
2B7
102
}
330
2B7
100
AcDbXrecord
 10
0.0
 20
0.0
 30
0.0
  0
XRECORD
  5
2CD
102
{ACAD_REACTORS
330
2B7
102
}
330
2B7
100
AcDbXrecord
340
0
  0
XRECORD
  5
2CE
102
{ACAD_REACTORS
330
2B7
102
}
330
2B7
100
AcDbXrecord
 70
     0
  0
XRECORD
  5
2C2
102
{ACAD_REACTORS
330
2B7
102
}
330
2B7
100
AcDbXrecord
  1
{FAEB1C32-E019-11D5-929B-00C0DF256EC4}
  0
DICTIONARYVAR
  5
2DA
102
{ACAD_REACTORS
330
2D7
102
}
330
2D7
100
DictionaryVariables
280
     0
  1
2
  0
DICTIONARYVAR
  5
2DB
102
{ACAD_REACTORS
330
2D7
102
}
330
2D7
100
DictionaryVariables
280
     0
  1
1
  0
DICTIONARY
  5
2DE
330
3D
100
AcDbDictionary
280
     1
  3
ACAD_XREC_ROUNDTRIP
360
2DF
  0
DICTIONARY
  5
2DC
330
3C
100
AcDbDictionary
280
     1
  3
ACAD_XREC_ROUNDTRIP
360
2DD
  0
DICTIONARY
  5
2E0
330
3E
100
AcDbDictionary
280
     1
  3
ACAD_XREC_ROUNDTRIP
360
2E1
  0
XRECORD
  5
2DF
102
{ACAD_REACTORS
330
2DE
102
}
330
2DE
100
AcDbXrecord
102
MATERIAL
148
0.0
149
0.0
149
0.0
 93
        0
 94
      127
282
     0
 72
     1
 77
     1
171
     1
175
     1
179
     1
273
     0
  0
XRECORD
  5
2DD
102
{ACAD_REACTORS
330
2DC
102
}
330
2DC
100
AcDbXrecord
102
MATERIAL
148
0.0
149
0.0
149
0.0
 93
        0
 94
      127
282
     0
 72
     1
 77
     1
171
     1
175
     1
179
     1
273
     0
  0
XRECORD
  5
2E1
102
{ACAD_REACTORS
330
2E0
102
}
330
2E0
100
AcDbXrecord
102
MATERIAL
148
0.0
149
0.0
149
0.0
 93
        0
 94
      127
282
     0
 72
     1
 77
     1
171
     1
175
     1
179
     1
273
     0
  0
ENDSEC
  0
EOF
