  0
SECTION
  2
HEADER
  9
$ACADVER
  1
AC1014
  9
$ACADMAINTVER
 70
     9
  9
$DWGCODEPAGE
  3
ANSI_1252
  9
$INSBASE
 10
0.0
 20
0.0
 30
0.0
  9
$EXTMIN
 10
1.000000000000000E+20
 20
1.000000000000000E+20
 30
1.000000000000000E+20
  9
$EXTMAX
 10
-1.000000000000000E+20
 20
-1.000000000000000E+20
 30
-1.000000000000000E+20
  9
$LIMMIN
 10
0.0
 20
0.0
  9
$LIMMAX
 10
12.0
 20
9.0
  9
$ORTHOMODE
 70
     0
  9
$REGENMODE
 70
     1
  9
$FILLMODE
 70
     1
  9
$QTEXTMODE
 70
     0
  9
$MIRRTEXT
 70
     1
  9
$DRAGMODE
 70
     2
  9
$LTSCALE
 40
1.0
  9
$OSMODE
 70
    37
  9
$ATTMODE
 70
     1
  9
$TEXTSIZE
 40
0.2
  9
$TRACEWID
 40
0.05
  9
$TEXTSTYLE
  7
STANDARD
  9
$CLAYER
  8
0
  9
$CELTYPE
  6
BYLAYER
  9
$CECOLOR
 62
   256
  9
$CELTSCALE
 40
1.0
  9
$DELOBJ
 70
     1
  9
$DISPSILH
 70
     0
  9
$DIMSCALE
 40
1.0
  9
$DIMASZ
 40
0.18
  9
$DIMEXO
 40
0.0625
  9
$DIMDLI
 40
0.38
  9
$DIMRND
 40
0.0
  9
$DIMDLE
 40
0.0
  9
$DIMEXE
 40
0.18
  9
$DIMTP
 40
0.0
  9
$DIMTM
 40
0.0
  9
$DIMTXT
 40
0.18
  9
$DIMCEN
 40
0.09
  9
$DIMTSZ
 40
0.0
  9
$DIMTOL
 70
     0
  9
$DIMLIM
 70
     0
  9
$DIMTIH
 70
     1
  9
$DIMTOH
 70
     1
  9
$DIMSE1
 70
     0
  9
$DIMSE2
 70
     0
  9
$DIMTAD
 70
     0
  9
$DIMZIN
 70
     0
  9
$DIMBLK
  1

  9
$DIMASO
 70
     1
  9
$DIMSHO
 70
     1
  9
$DIMPOST
  1

  9
$DIMAPOST
  1

  9
$DIMALT
 70
     0
  9
$DIMALTD
 70
     2
  9
$DIMALTF
 40
25.4
  9
$DIMLFAC
 40
1.0
  9
$DIMTOFL
 70
     0
  9
$DIMTVP
 40
0.0
  9
$DIMTIX
 70
     0
  9
$DIMSOXD
 70
     0
  9
$DIMSAH
 70
     0
  9
$DIMBLK1
  1

  9
$DIMBLK2
  1

  9
$DIMSTYLE
  2
STANDARD
  9
$DIMCLRD
 70
     0
  9
$DIMCLRE
 70
     0
  9
$DIMCLRT
 70
     0
  9
$DIMTFAC
 40
1.0
  9
$DIMGAP
 40
0.09
  9
$DIMJUST
 70
     0
  9
$DIMSD1
 70
     0
  9
$DIMSD2
 70
     0
  9
$DIMTOLJ
 70
     1
  9
$DIMTZIN
 70
     0
  9
$DIMALTZ
 70
     0
  9
$DIMALTTZ
 70
     0
  9
$DIMFIT
 70
     3
  9
$DIMUPT
 70
     0
  9
$DIMUNIT
 70
     2
  9
$DIMDEC
 70
     4
  9
$DIMTDEC
 70
     4
  9
$DIMALTU
 70
     2
  9
$DIMALTTD
 70
     2
  9
$DIMTXSTY
  7
STANDARD
  9
$DIMAUNIT
 70
     0
  9
$LUNITS
 70
     2
  9
$LUPREC
 70
     4
  9
$SKETCHINC
 40
0.1
  9
$FILLETRAD
 40
0.5
  9
$AUNITS
 70
     0
  9
$AUPREC
 70
     0
  9
$MENU
  1
.
  9
$ELEVATION
 40
0.0
  9
$PELEVATION
 40
0.0
  9
$THICKNESS
 40
0.0
  9
$LIMCHECK
 70
     0
  9
$CHAMFERA
 40
0.5
  9
$CHAMFERB
 40
0.5
  9
$CHAMFERC
 40
1.0
  9
$CHAMFERD
 40
0.0
  9
$SKPOLY
 70
     0
  9
$TDCREATE
 40
2455847.561495034
  9
$TDUPDATE
 40
2455847.561495046
  9
$TDINDWG
 40
0.0000000116
  9
$TDUSRTIMER
 40
0.0000000116
  9
$USRTIMER
 70
     1
  9
$ANGBASE
 50
0.0
  9
$ANGDIR
 70
     0
  9
$PDMODE
 70
     0
  9
$PDSIZE
 40
0.0
  9
$PLINEWID
 40
0.0
  9
$COORDS
 70
     1
  9
$SPLFRAME
 70
     0
  9
$SPLINETYPE
 70
     6
  9
$SPLINESEGS
 70
     8
  9
$ATTDIA
 70
     0
  9
$ATTREQ
 70
     1
  9
$HANDLING
 70
     1
  9
$HANDSEED
  5
1E0
  9
$SURFTAB1
 70
     6
  9
$SURFTAB2
 70
     6
  9
$SURFTYPE
 70
     6
  9
$SURFU
 70
     6
  9
$SURFV
 70
     6
  9
$UCSNAME
  2

  9
$UCSORG
 10
0.0
 20
0.0
 30
0.0
  9
$UCSXDIR
 10
1.0
 20
0.0
 30
0.0
  9
$UCSYDIR
 10
0.0
 20
1.0
 30
0.0
  9
$PUCSNAME
  2

  9
$PUCSORG
 10
0.0
 20
0.0
 30
0.0
  9
$PUCSXDIR
 10
1.0
 20
0.0
 30
0.0
  9
$PUCSYDIR
 10
0.0
 20
1.0
 30
0.0
  9
$USERI1
 70
     0
  9
$USERI2
 70
     0
  9
$USERI3
 70
     0
  9
$USERI4
 70
     0
  9
$USERI5
 70
     0
  9
$USERR1
 40
0.0
  9
$USERR2
 40
0.0
  9
$USERR3
 40
0.0
  9
$USERR4
 40
0.0
  9
$USERR5
 40
0.0
  9
$WORLDVIEW
 70
     1
  9
$SHADEDGE
 70
     3
  9
$SHADEDIF
 70
    70
  9
$TILEMODE
 70
     1
  9
$MAXACTVP
 70
    64
  9
$PINSBASE
 10
0.0
 20
0.0
 30
0.0
  9
$PLIMCHECK
 70
     0
  9
$PEXTMIN
 10
1.000000000000000E+20
 20
1.000000000000000E+20
 30
1.000000000000000E+20
  9
$PEXTMAX
 10
-1.000000000000000E+20
 20
-1.000000000000000E+20
 30
-1.000000000000000E+20
  9
$PLIMMIN
 10
0.0
 20
0.0
  9
$PLIMMAX
 10
12.0
 20
9.0
  9
$UNITMODE
 70
     0
  9
$VISRETAIN
 70
     1
  9
$PLINEGEN
 70
     0
  9
$PSLTSCALE
 70
     1
  9
$TREEDEPTH
 70
  3020
  9
$PICKSTYLE
 70
     1
  9
$CMLSTYLE
  2
STANDARD
  9
$CMLJUST
 70
     0
  9
$CMLSCALE
 40
1.0
  9
$PROXYGRAPHICS
 70
     1
  9
$MEASUREMENT
 70
     0
  0
ENDSEC
  0
SECTION
  2
CLASSES
  0
CLASS
  1
ACDBDICTIONARYWDFLT
  2
AcDbDictionaryWithDefault
  3
ObjectDBX Classes
 90
        0
280
     0
281
     0
  0
CLASS
  1
VISUALSTYLE
  2
AcDbVisualStyle
  3
ObjectDBX Classes
 90
     4095
280
     0
281
     0
  0
CLASS
  1
MATERIAL
  2
AcDbMaterial
  3
ObjectDBX Classes
 90
     1153
280
     0
281
     0
  0
CLASS
  1
DICTIONARYVAR
  2
AcDbDictionaryVar
  3
ObjectDBX Classes
 90
        0
280
     0
281
     0
  0
CLASS
  1
XRECORD
  2
AcDbXrecord
  3
AutoCAD 2000
 90
        0
280
     0
281
     0
  0
CLASS
  1
LWPOLYLINE
  2
AcDbPolyline
  3
AutoCAD 2000
 90
        0
280
     0
281
     1
  0
CLASS
  1
HATCH
  2
AcDbHatch
  3
AutoCAD 2000
 90
        0
280
     0
281
     1
  0
CLASS
  1
ACDBPLACEHOLDER
  2
AcDbPlaceHolder
  3
ObjectDBX Classes
 90
        0
280
     0
281
     0
  0
CLASS
  1
LAYOUT
  2
AcDbLayout
  3
ObjectDBX Classes
 90
        0
280
     0
281
     0
  0
ENDSEC
  0
SECTION
  2
TABLES
  0
TABLE
  2
VPORT
  5
8
330
0
100
AcDbSymbolTable
 70
     1
  0
VPORT
  5
29
330
8
100
AcDbSymbolTableRecord
100
AcDbViewportTableRecord
  2
*ACTIVE
 70
     0
 10
0.0
 20
0.0
 11
1.0
 21
1.0
 12
0.0
 22
0.0
 13
0.0
 23
0.0
 14
0.5
 24
0.5
 15
0.5
 25
0.5
 16
0.0
 26
0.0
 36
1.0
 17
0.0
 27
0.0
 37
-1000.0
 40
206.4500191236717
 41
1.99375650364204
 42
50.0
 43
353.8738082130591
 44
519.6708006626308
 50
0.0
 51
0.0
 71
     0
 72
   100
 73
     1
 74
     3
 75
     0
 76
     0
 77
     0
 78
     0
  0
ENDTAB
  0
TABLE
  2
LTYPE
  5
5
330
0
100
AcDbSymbolTable
 70
     1
  0
LTYPE
  5
14
330
5
100
AcDbSymbolTableRecord
100
AcDbLinetypeTableRecord
  2
BYBLOCK
 70
     0
  3

 72
    65
 73
     0
 40
0.0
  0
LTYPE
  5
15
330
5
100
AcDbSymbolTableRecord
100
AcDbLinetypeTableRecord
  2
BYLAYER
 70
     0
  3

 72
    65
 73
     0
 40
0.0
  0
LTYPE
  5
16
330
5
100
AcDbSymbolTableRecord
100
AcDbLinetypeTableRecord
  2
CONTINUOUS
 70
     0
  3
Solid line
 72
    65
 73
     0
 40
0.0
  0
ENDTAB
  0
TABLE
  2
LAYER
  5
2
330
0
100
AcDbSymbolTable
 70
     3
  0
LAYER
  5
10
330
2
100
AcDbSymbolTableRecord
100
AcDbLayerTableRecord
  2
0
 70
     0
 62
     7
  6
CONTINUOUS
  0
LAYER
  5
3F
330
2
100
AcDbSymbolTableRecord
100
AcDbLayerTableRecord
  2
PROFILEEDGES
 70
     0
 62
     7
  6
CONTINUOUS
  0
LAYER
  5
40
330
2
100
AcDbSymbolTableRecord
100
AcDbLayerTableRecord
  2
SECTIONCUTEDGES
 70
     0
 62
     7
  6
CONTINUOUS
  0
ENDTAB
  0
TABLE
  2
STYLE
  5
3
330
0
100
AcDbSymbolTable
 70
     1
  0
STYLE
  5
11
330
3
100
AcDbSymbolTableRecord
100
AcDbTextStyleTableRecord
  2
STANDARD
 70
     0
 40
0.0
 41
1.0
 50
0.0
 71
     0
 42
0.2
  3
txt
  4

  0
ENDTAB
  0
TABLE
  2
VIEW
  5
6
330
0
100
AcDbSymbolTable
 70
     0
  0
ENDTAB
  0
TABLE
  2
UCS
  5
7
330
0
100
AcDbSymbolTable
 70
     0
  0
ENDTAB
  0
TABLE
  2
APPID
  5
9
330
0
100
AcDbSymbolTable
 70
     1
  0
APPID
  5
12
330
9
100
AcDbSymbolTableRecord
100
AcDbRegAppTableRecord
  2
ACAD
 70
     0
  0
ENDTAB
  0
TABLE
  2
DIMSTYLE
  5
A
330
0
100
AcDbSymbolTable
 70
     1
  0
DIMSTYLE
105
27
330
A
100
AcDbSymbolTableRecord
100
AcDbDimStyleTableRecord
  2
STANDARD
 70
     0
  3

  4

  5

  6

  7

 40
1.0
 41
0.18
 42
0.0625
 43
0.38
 44
0.18
 45
0.0
 46
0.0
 47
0.0
 48
0.0
140
0.18
141
0.09
142
0.0
143
25.4
144
1.0
145
0.0
146
1.0
147
0.09
 71
     0
 72
     0
 73
     1
 74
     1
 75
     0
 76
     0
 77
     0
 78
     0
170
     0
171
     2
172
     0
173
     0
174
     0
175
     0
176
     0
177
     0
178
     0
270
     2
271
     4
272
     4
273
     2
274
     2
340
11
275
     0
280
     0
281
     0
282
     0
283
     1
284
     0
285
     0
286
     0
287
     3
288
     0
  0
ENDTAB
  0
TABLE
  2
BLOCK_RECORD
  5
1
330
0
100
AcDbSymbolTable
 70
     1
  0
BLOCK_RECORD
  5
1F
330
1
100
AcDbSymbolTableRecord
100
AcDbBlockTableRecord
  2
*MODEL_SPACE
  0
BLOCK_RECORD
  5
1B
330
1
100
AcDbSymbolTableRecord
100
AcDbBlockTableRecord
  2
*PAPER_SPACE
  0
ENDTAB
  0
ENDSEC
  0
SECTION
  2
BLOCKS
  0
BLOCK
  5
20
330
1F
100
AcDbEntity
  8
0
100
AcDbBlockBegin
  2
*MODEL_SPACE
 70
     0
 10
0.0
 20
0.0
 30
0.0
  3
*MODEL_SPACE
  1

  0
ENDBLK
  5
21
330
1F
100
AcDbEntity
  8
0
100
AcDbBlockEnd
  0
BLOCK
  5
1C
330
1B
100
AcDbEntity
 67
     1
  8
0
100
AcDbBlockBegin
  2
*PAPER_SPACE
 70
     0
 10
0.0
 20
0.0
 30
0.0
  3
*PAPER_SPACE
  1

  0
ENDBLK
  5
1D
330
1B
100
AcDbEntity
 67
     1
  8
0
100
AcDbBlockEnd
  0
ENDSEC
  0
SECTION
  2
ENTITIES
  0
LINE
  5
41
330
1F
100
AcDbEntity
  8
0
100
AcDbLine
 10
-47.76733976742582
 20
24.0056732679233
 30
0.0
 11
-47.76733976742582
 21
34.00459123576124
 31
0.0
  0
LINE
  5
42
330
1F
100
AcDbEntity
  8
0
100
AcDbLine
 10
-50.26733976742598
 20
24.0056732679233
 30
0.0
 11
-47.76733976742582
 21
24.0056732679233
 31
0.0
  0
LINE
  5
43
330
1F
100
AcDbEntity
  8
0
100
AcDbLine
 10
-50.26733976742598
 20
24.0056732679233
 30
0.0
 11
-50.26733976742598
 21
14.0067553000849
 31
0.0
  0
LINE
  5
44
330
1F
100
AcDbEntity
  8
0
100
AcDbLine
 10
-50.26733976742598
 20
14.0067553000849
 30
0.0
 11
-47.76733976742511
 21
14.00675530008563
 31
0.0
  0
LINE
  5
45
330
1F
100
AcDbEntity
  8
0
100
AcDbLine
 10
-17.76733976742615
 20
14.00675530008454
 30
0.0
 11
-15.267339767426
 21
14.00675530008454
 31
0.0
  0
LINE
  5
46
330
1F
100
AcDbEntity
  8
0
100
AcDbLine
 10
-15.26733976742528
 20
24.00567326792402
 30
0.0
 11
-17.76733976742615
 21
24.00567326792276
 31
0.0
  0
LINE
  5
47
330
1F
100
AcDbEntity
  8
0
100
AcDbLine
 10
-17.76733976742615
 20
34.00459123576052
 30
0.0
 11
-17.76733976742615
 21
24.00567326792276
 31
0.0
  0
LINE
  5
48
330
1F
100
AcDbEntity
  8
0
100
AcDbLine
 10
-17.76733976742615
 20
93.99809904278791
 30
0.0
 11
-47.76733976742511
 21
93.99809904278827
 31
0.0
  0
LINE
  5
49
330
1F
100
AcDbEntity
  8
0
100
AcDbLine
 10
-47.76733976742511
 20
83.99918107495176
 30
0.0
 11
-47.76733976742511
 21
93.99809904278827
 31
0.0
  0
LINE
  5
4A
330
1F
100
AcDbEntity
  8
0
100
AcDbLine
 10
-50.26733976742598
 20
83.99918107495105
 30
0.0
 11
-47.76733976742511
 21
83.99918107495176
 31
0.0
  0
LINE
  5
4B
330
1F
100
AcDbEntity
  8
0
100
AcDbLine
 10
-50.26733976742598
 20
83.99918107495105
 30
0.0
 11
-50.26733976742598
 21
74.00026310711293
 31
0.0
  0
LINE
  5
4C
330
1F
100
AcDbEntity
  8
0
100
AcDbLine
 10
-50.26733976742598
 20
74.00026310711293
 30
0.0
 11
-47.76733976742582
 21
74.00026310711274
 31
0.0
  0
LINE
  5
4D
330
1F
100
AcDbEntity
  8
0
100
AcDbLine
 10
-47.76733976742511
 20
64.00134513927551
 30
0.0
 11
-47.76733976742582
 21
74.00026310711274
 31
0.0
  0
LINE
  5
4E
330
1F
100
AcDbEntity
  8
0
100
AcDbLine
 10
-17.76733976742543
 20
74.00026310711239
 30
0.0
 11
-17.76733976742543
 21
64.0013451392748
 31
0.0
  0
LINE
  5
4F
330
1F
100
AcDbEntity
  8
0
100
AcDbLine
 10
-17.76733976742543
 20
74.00026310711239
 30
0.0
 11
-15.26733976742528
 21
74.00026310711293
 31
0.0
  0
LINE
  5
50
330
1F
100
AcDbEntity
  8
0
100
AcDbLine
 10
-15.267339767426
 20
83.99918107495105
 30
0.0
 11
-17.76733976742615
 21
83.99918107495033
 31
0.0
  0
LINE
  5
51
330
1F
100
AcDbEntity
  8
0
100
AcDbLine
 10
-17.76733976742615
 20
93.99809904278791
 30
0.0
 11
-17.76733976742615
 21
83.99918107495033
 31
0.0
  0
LINE
  5
52
330
1F
100
AcDbEntity
  8
0
100
AcDbLine
 10
-47.76733976742582
 20
-5.991080635591163
 30
0.0
 11
-47.76733976742582
 21
4.007837332246601
 31
0.0
  0
LINE
  5
53
330
1F
100
AcDbEntity
  8
0
100
AcDbLine
 10
-50.26733976742598
 20
-5.991080635590441
 30
0.0
 11
-47.76733976742582
 21
-5.991080635591163
 31
0.0
  0
LINE
  5
54
330
1F
100
AcDbEntity
  8
0
100
AcDbLine
 10
-50.26733976742598
 20
-5.991080635590441
 30
0.0
 11
-50.26733976742598
 21
-15.98999860342929
 31
0.0
  0
LINE
  5
55
330
1F
100
AcDbEntity
  8
0
100
AcDbLine
 10
-50.26733976742598
 20
-15.98999860342929
 30
0.0
 11
-47.76733976742582
 21
-15.98999860342965
 31
0.0
  0
LINE
  5
56
330
1F
100
AcDbEntity
  8
0
100
AcDbLine
 10
-47.76733976742582
 20
-25.98891657126732
 30
0.0
 11
-47.76733976742582
 21
-15.98999860342965
 31
0.0
  0
LINE
  5
57
330
1F
100
AcDbEntity
  8
0
100
AcDbLine
 10
-17.76733976742543
 20
-15.98999860342892
 30
0.0
 11
-17.76733976742615
 21
-25.98891657126696
 31
0.0
  0
LINE
  5
58
330
1F
100
AcDbEntity
  8
0
100
AcDbLine
 10
-17.76733976742543
 20
-15.98999860342892
 30
0.0
 11
-15.26733976742528
 21
-15.9899986034282
 31
0.0
  0
LINE
  5
59
330
1F
100
AcDbEntity
  8
0
100
AcDbLine
 10
-15.267339767426
 20
-5.991080635590621
 30
0.0
 11
-17.76733976742615
 21
-5.991080635590983
 31
0.0
  0
LINE
  5
5A
330
1F
100
AcDbEntity
  8
0
100
AcDbLine
 10
-17.76733976742543
 20
4.007837332246961
 30
0.0
 11
-17.76733976742615
 21
-5.991080635590983
 31
0.0
  0
LINE
  5
5B
330
1F
100
AcDbEntity
  8
0
100
AcDbLine
 10
17.23266023257527
 20
93.99809904278845
 30
0.0
 11
-12.76733976742512
 21
93.99809904278845
 31
0.0
  0
LINE
  5
5C
330
1F
100
AcDbEntity
  8
0
100
AcDbLine
 10
-12.76733976742585
 20
83.99918107495122
 30
0.0
 11
-12.76733976742512
 21
93.99809904278845
 31
0.0
  0
LINE
  5
5D
330
1F
100
AcDbEntity
  8
0
100
AcDbLine
 10
-15.267339767426
 20
83.99918107495105
 30
0.0
 11
-12.76733976742585
 21
83.99918107495122
 31
0.0
  0
LINE
  5
5E
330
1F
100
AcDbEntity
  8
0
100
AcDbLine
 10
-15.267339767426
 20
83.99918107495105
 30
0.0
 11
-15.26733976742528
 21
74.00026310711293
 31
0.0
  0
LINE
  5
5F
330
1F
100
AcDbEntity
  8
0
100
AcDbLine
 10
-15.26733976742528
 20
74.00026310711293
 30
0.0
 11
-12.76733976742585
 21
74.00026310711274
 31
0.0
  0
LINE
  5
60
330
1F
100
AcDbEntity
  8
0
100
AcDbLine
 10
17.23266023257527
 20
74.00026310711274
 30
0.0
 11
19.7326602325747
 21
74.00026310711274
 31
0.0
  0
LINE
  5
61
330
1F
100
AcDbEntity
  8
0
100
AcDbLine
 10
19.7326602325747
 20
74.00026310711274
 30
0.0
 11
19.7326602325747
 21
83.99918107495176
 31
0.0
  0
LINE
  5
62
330
1F
100
AcDbEntity
  8
0
100
AcDbLine
 10
19.7326602325747
 20
54.00242717143713
 30
0.0
 11
17.23266023257455
 21
54.00242717143713
 31
0.0
  0
LINE
  5
63
330
1F
100
AcDbEntity
  8
0
100
AcDbLine
 10
17.23266023257455
 20
64.00134513927497
 30
0.0
 11
17.23266023257455
 21
54.00242717143713
 31
0.0
  0
LINE
  5
64
330
1F
100
AcDbEntity
  8
0
100
AcDbLine
 10
-12.76733976742585
 20
24.0056732679233
 30
0.0
 11
-12.76733976742585
 21
34.0045912357616
 31
0.0
  0
LINE
  5
65
330
1F
100
AcDbEntity
  8
0
100
AcDbLine
 10
-15.26733976742528
 20
24.00567326792402
 30
0.0
 11
-12.76733976742585
 21
24.0056732679233
 31
0.0
  0
LINE
  5
66
330
1F
100
AcDbEntity
  8
0
100
AcDbLine
 10
-15.26733976742528
 20
24.00567326792402
 30
0.0
 11
-15.267339767426
 21
14.00675530008454
 31
0.0
  0
LINE
  5
67
330
1F
100
AcDbEntity
  8
0
100
AcDbLine
 10
-15.267339767426
 20
14.00675530008454
 30
0.0
 11
-12.76733976742585
 21
14.0067553000849
 31
0.0
  0
LINE
  5
68
330
1F
100
AcDbEntity
  8
0
100
AcDbLine
 10
19.7326602325747
 20
83.99918107495176
 30
0.0
 11
17.23266023257455
 21
83.99918107495141
 31
0.0
  0
LINE
  5
69
330
1F
100
AcDbEntity
  8
0
100
AcDbLine
 10
17.23266023257527
 20
93.99809904278845
 30
0.0
 11
17.23266023257455
 21
83.99918107495141
 31
0.0
  0
LINE
  5
6A
330
1F
100
AcDbEntity
  8
0
100
AcDbLine
 10
17.23266023257455
 20
14.00675530008454
 30
0.0
 11
19.73266023257398
 21
14.00675530008454
 31
0.0
  0
LINE
  5
6B
330
1F
100
AcDbEntity
  8
0
100
AcDbLine
 10
19.73266023257398
 20
14.00675530008454
 30
0.0
 11
19.7326602325747
 21
24.00567326792348
 31
0.0
  0
LINE
  5
6C
330
1F
100
AcDbEntity
  8
0
100
AcDbLine
 10
19.7326602325747
 20
24.00567326792348
 30
0.0
 11
17.23266023257455
 21
24.0056732679233
 31
0.0
  0
LINE
  5
6D
330
1F
100
AcDbEntity
  8
0
100
AcDbLine
 10
17.23266023257527
 20
-75.98350641045577
 30
0.0
 11
17.23266023257455
 21
-85.9824243782948
 31
0.0
  0
LINE
  5
6E
330
1F
100
AcDbEntity
  8
0
100
AcDbLine
 10
17.23266023257527
 20
-75.98350641045577
 30
0.0
 11
19.7326602325747
 21
-75.98350641045685
 31
0.0
  0
LINE
  5
6F
330
1F
100
AcDbEntity
  8
0
100
AcDbLine
 10
19.7326602325747
 20
-75.98350641045685
 30
0.0
 11
19.73266023257543
 21
-65.98458844261765
 31
0.0
  0
LINE
  5
70
330
1F
100
AcDbEntity
  8
0
100
AcDbLine
 10
19.73266023257543
 20
-65.98458844261765
 30
0.0
 11
17.23266023257527
 21
-65.984588442618
 31
0.0
  0
LINE
  5
71
330
1F
100
AcDbEntity
  8
0
100
AcDbLine
 10
17.23266023257527
 20
-55.98567047477997
 30
0.0
 11
17.23266023257527
 21
-65.984588442618
 31
0.0
  0
LINE
  5
72
330
1F
100
AcDbEntity
  8
0
100
AcDbLine
 10
-12.76733976742585
 20
54.00242717143749
 30
0.0
 11
-12.76733976742585
 21
64.00134513927516
 31
0.0
  0
LINE
  5
73
330
1F
100
AcDbEntity
  8
0
100
AcDbLine
 10
-15.267339767426
 20
54.0024271714373
 30
0.0
 11
-12.76733976742585
 21
54.00242717143749
 31
0.0
  0
LINE
  5
74
330
1F
100
AcDbEntity
  8
0
100
AcDbLine
 10
-15.267339767426
 20
54.0024271714373
 30
0.0
 11
-15.26733976742528
 21
44.00350920359919
 31
0.0
  0
LINE
  5
75
330
1F
100
AcDbEntity
  8
0
100
AcDbLine
 10
-15.26733976742528
 20
44.00350920359919
 30
0.0
 11
-12.76733976742512
 21
44.00350920359882
 31
0.0
  0
LINE
  5
76
330
1F
100
AcDbEntity
  8
0
100
AcDbLine
 10
17.23266023257527
 20
44.00350920359919
 30
0.0
 11
19.73266023257398
 21
44.00350920359919
 31
0.0
  0
LINE
  5
77
330
1F
100
AcDbEntity
  8
0
100
AcDbLine
 10
19.73266023257398
 20
44.00350920359919
 30
0.0
 11
19.7326602325747
 21
54.00242717143713
 31
0.0
  0
LINE
  5
78
330
1F
100
AcDbEntity
  8
0
100
AcDbLine
 10
17.23266023257455
 20
34.00459123576124
 30
0.0
 11
17.23266023257455
 21
24.0056732679233
 31
0.0
  0
LINE
  5
79
330
1F
100
AcDbEntity
  8
0
100
AcDbLine
 10
-12.76733976742512
 20
-5.991080635589899
 30
0.0
 11
-12.76733976742512
 21
4.007837332246781
 31
0.0
  0
LINE
  5
7A
330
1F
100
AcDbEntity
  8
0
100
AcDbLine
 10
-15.267339767426
 20
-5.991080635590621
 30
0.0
 11
-12.76733976742512
 21
-5.991080635589899
 31
0.0
  0
LINE
  5
7B
330
1F
100
AcDbEntity
  8
0
100
AcDbLine
 10
-15.267339767426
 20
-5.991080635590621
 30
0.0
 11
-15.26733976742528
 21
-15.9899986034282
 31
0.0
  0
LINE
  5
7C
330
1F
100
AcDbEntity
  8
0
100
AcDbLine
 10
17.23266023257455
 20
-25.98891657126678
 30
0.0
 11
17.23266023257527
 21
-35.98783453910382
 31
0.0
  0
LINE
  5
7D
330
1F
100
AcDbEntity
  8
0
100
AcDbLine
 10
-15.26733976742528
 20
-15.9899986034282
 30
0.0
 11
-12.76733976742585
 21
-15.98999860342875
 31
0.0
  0
LINE
  5
7E
330
1F
100
AcDbEntity
  8
0
100
AcDbLine
 10
-12.76733976742512
 20
-85.98242437829444
 30
0.0
 11
-12.76733976742585
 21
-75.9835064104565
 31
0.0
  0
LINE
  5
7F
330
1F
100
AcDbEntity
  8
0
100
AcDbLine
 10
-15.267339767426
 20
-75.9835064104565
 30
0.0
 11
-12.76733976742585
 21
-75.9835064104565
 31
0.0
  0
LINE
  5
80
330
1F
100
AcDbEntity
  8
0
100
AcDbLine
 10
-15.267339767426
 20
-75.9835064104565
 30
0.0
 11
-15.267339767426
 21
-65.98458844261819
 31
0.0
  0
LINE
  5
81
330
1F
100
AcDbEntity
  8
0
100
AcDbLine
 10
17.23266023257455
 20
-15.98999860342892
 30
0.0
 11
19.7326602325747
 21
-15.98999860342856
 31
0.0
  0
LINE
  5
82
330
1F
100
AcDbEntity
  8
0
100
AcDbLine
 10
19.73266023257398
 20
-35.98783453910454
 30
0.0
 11
17.23266023257527
 21
-35.98783453910382
 31
0.0
  0
LINE
  5
83
330
1F
100
AcDbEntity
  8
0
100
AcDbLine
 10
17.23266023257455
 20
4.007837332246961
 30
0.0
 11
17.23266023257455
 21
-5.991080635590621
 31
0.0
  0
LINE
  5
84
330
1F
100
AcDbEntity
  8
0
100
AcDbLine
 10
-12.76733976742512
 20
-35.98783453910454
 30
0.0
 11
-12.76733976742585
 21
-25.98891657126696
 31
0.0
  0
LINE
  5
85
330
1F
100
AcDbEntity
  8
0
100
AcDbLine
 10
-15.267339767426
 20
-35.98783453910418
 30
0.0
 11
-12.76733976742512
 21
-35.98783453910454
 31
0.0
  0
LINE
  5
86
330
1F
100
AcDbEntity
  8
0
100
AcDbLine
 10
-15.267339767426
 20
-35.98783453910418
 30
0.0
 11
-15.26733976742528
 21
-45.98675250694257
 31
0.0
  0
LINE
  5
87
330
1F
100
AcDbEntity
  8
0
100
AcDbLine
 10
19.7326602325747
 20
-45.98675250694239
 30
0.0
 11
19.73266023257398
 21
-35.98783453910454
 31
0.0
  0
LINE
  5
88
330
1F
100
AcDbEntity
  8
0
100
AcDbLine
 10
17.23266023257455
 20
-45.98675250694276
 30
0.0
 11
19.7326602325747
 21
-45.98675250694239
 31
0.0
  0
LINE
  5
89
330
1F
100
AcDbEntity
  8
0
100
AcDbLine
 10
-15.26733976742528
 20
-45.98675250694257
 30
0.0
 11
-12.76733976742585
 21
-45.98675250694311
 31
0.0
  0
LINE
  5
8A
330
1F
100
AcDbEntity
  8
0
100
AcDbLine
 10
-12.76733976742585
 20
-65.98458844261837
 30
0.0
 11
-12.76733976742585
 21
-55.98567047478033
 31
0.0
  0
LINE
  5
8B
330
1F
100
AcDbEntity
  8
0
100
AcDbLine
 10
-15.267339767426
 20
-65.98458844261819
 30
0.0
 11
-12.76733976742585
 21
-65.98458844261837
 31
0.0
  0
LINE
  5
8C
330
1F
100
AcDbEntity
  8
0
100
AcDbLine
 10
19.73266023257398
 20
-5.991080635590621
 30
0.0
 11
17.23266023257455
 21
-5.991080635590621
 31
0.0
  0
LINE
  5
8D
330
1F
100
AcDbEntity
  8
0
100
AcDbLine
 10
19.7326602325747
 20
-15.98999860342856
 30
0.0
 11
19.73266023257398
 21
-5.991080635590621
 31
0.0
  0
LINE
  5
8E
330
1F
100
AcDbEntity
  8
0
100
AcDbLine
 10
-155.2673397674259
 20
-5.991080635590802
 30
0.0
 11
-157.7673397674239
 21
-5.991080635589899
 31
0.0
  0
LINE
  5
8F
330
1F
100
AcDbEntity
  8
0
100
AcDbLine
 10
-155.2673397674259
 20
-15.98999860342892
 30
0.0
 11
-155.2673397674259
 21
-5.991080635590802
 31
0.0
  0
LINE
  5
90
330
1F
100
AcDbEntity
  8
0
100
AcDbLine
 10
-157.7673397674253
 20
-15.98999860342911
 30
0.0
 11
-155.2673397674259
 21
-15.98999860342892
 31
0.0
  0
LINE
  5
91
330
1F
100
AcDbEntity
  8
0
100
AcDbLine
 10
-190.2673397674255
 20
-15.98999860342929
 30
0.0
 11
-187.7673397674257
 21
-15.98999860342929
 31
0.0
  0
LINE
  5
92
330
1F
100
AcDbEntity
  8
0
100
AcDbLine
 10
-190.2673397674259
 20
-5.991080635591163
 30
0.0
 11
-190.2673397674255
 21
-15.98999860342929
 31
0.0
  0
LINE
  5
93
330
1F
100
AcDbEntity
  8
0
100
AcDbLine
 10
-190.2673397674259
 20
-5.991080635591163
 30
0.0
 11
-187.7673397674257
 21
-5.991080635590441
 31
0.0
  0
LINE
  5
94
330
1F
100
AcDbEntity
  8
0
100
AcDbLine
 10
-155.2673397674259
 20
24.0056732679233
 30
0.0
 11
-157.7673397674253
 21
24.00567326792276
 31
0.0
  0
LINE
  5
95
330
1F
100
AcDbEntity
  8
0
100
AcDbLine
 10
-155.2673397674266
 20
14.00675530008436
 30
0.0
 11
-155.2673397674259
 21
24.0056732679233
 31
0.0
  0
LINE
  5
96
330
1F
100
AcDbEntity
  8
0
100
AcDbLine
 10
-157.7673397674253
 20
14.0067553000849
 30
0.0
 11
-155.2673397674266
 21
14.00675530008436
 31
0.0
  0
LINE
  5
97
330
1F
100
AcDbEntity
  8
0
100
AcDbLine
 10
-157.7673397674253
 20
14.0067553000849
 30
0.0
 11
-157.7673397674253
 21
4.007837332246959
 31
0.0
  0
LINE
  5
98
330
1F
100
AcDbEntity
  8
0
100
AcDbLine
 10
-187.7673397674254
 20
4.007837332246961
 30
0.0
 11
-187.7673397674261
 21
14.00675530008436
 31
0.0
  0
LINE
  5
99
330
1F
100
AcDbEntity
  8
0
100
AcDbLine
 10
-190.2673397674259
 20
14.00675530008436
 30
0.0
 11
-187.7673397674261
 21
14.00675530008436
 31
0.0
  0
LINE
  5
9A
330
1F
100
AcDbEntity
  8
0
100
AcDbLine
 10
-190.2673397674263
 20
24.00567326792276
 30
0.0
 11
-190.2673397674259
 21
14.00675530008436
 31
0.0
  0
LINE
  5
9B
330
1F
100
AcDbEntity
  8
0
100
AcDbLine
 10
-190.2673397674263
 20
24.00567326792276
 30
0.0
 11
-187.7673397674257
 21
24.0056732679233
 31
0.0
  0
LINE
  5
9C
330
1F
100
AcDbEntity
  8
0
100
AcDbLine
 10
-187.7673397674257
 20
24.0056732679233
 30
0.0
 11
-187.7673397674261
 21
34.00459123576088
 31
0.0
  0
LINE
  5
9D
330
1F
100
AcDbEntity
  8
0
100
AcDbLine
 10
-157.7673397674253
 20
93.99809904278862
 30
0.0
 11
-157.7673397674261
 21
83.99918107495068
 31
0.0
  0
LINE
  5
9E
330
1F
100
AcDbEntity
  8
0
100
AcDbLine
 10
-155.2673397674259
 20
83.99918107495176
 30
0.0
 11
-157.7673397674261
 21
83.99918107495068
 31
0.0
  0
LINE
  5
9F
330
1F
100
AcDbEntity
  8
0
100
AcDbLine
 10
-155.2673397674252
 20
74.00026310711328
 30
0.0
 11
-155.2673397674259
 21
83.99918107495176
 31
0.0
  0
LINE
  5
A0
330
1F
100
AcDbEntity
  8
0
100
AcDbLine
 10
-157.7673397674246
 20
74.0002631071131
 30
0.0
 11
-155.2673397674252
 21
74.00026310711328
 31
0.0
  0
LINE
  5
A1
330
1F
100
AcDbEntity
  8
0
100
AcDbLine
 10
-187.7673397674261
 20
64.0013451392748
 30
0.0
 11
-187.7673397674261
 21
74.00026310711274
 31
0.0
  0
LINE
  5
A2
330
1F
100
AcDbEntity
  8
0
100
AcDbLine
 10
-190.2673397674255
 20
74.00026310711274
 30
0.0
 11
-187.7673397674261
 21
74.00026310711274
 31
0.0
  0
LINE
  5
A3
330
1F
100
AcDbEntity
  8
0
100
AcDbLine
 10
-190.2673397674255
 20
83.99918107495122
 30
0.0
 11
-190.2673397674255
 21
74.00026310711274
 31
0.0
  0
LINE
  5
A4
330
1F
100
AcDbEntity
  8
0
100
AcDbLine
 10
-190.2673397674255
 20
83.99918107495122
 30
0.0
 11
-187.7673397674265
 21
83.99918107495068
 31
0.0
  0
LINE
  5
A5
330
1F
100
AcDbEntity
  8
0
100
AcDbLine
 10
-187.7673397674265
 20
83.99918107495068
 30
0.0
 11
-187.7673397674254
 21
93.99809904278881
 31
0.0
  0
LINE
  5
A6
330
1F
100
AcDbEntity
  8
0
100
AcDbLine
 10
-157.7673397674253
 20
93.99809904278862
 30
0.0
 11
-187.7673397674254
 21
93.99809904278881
 31
0.0
  0
LINE
  5
A7
330
1F
100
AcDbEntity
  8
0
100
AcDbLine
 10
-120.2673397674252
 20
24.00567326792348
 30
0.0
 11
-122.7673397674254
 21
24.00567326792348
 31
0.0
  0
LINE
  5
A8
330
1F
100
AcDbEntity
  8
0
100
AcDbLine
 10
-120.2673397674252
 20
14.00675530008472
 30
0.0
 11
-120.2673397674252
 21
24.00567326792348
 31
0.0
  0
LINE
  5
A9
330
1F
100
AcDbEntity
  8
0
100
AcDbLine
 10
-122.7673397674261
 20
14.0067553000849
 30
0.0
 11
-120.2673397674252
 21
14.00675530008472
 31
0.0
  0
LINE
  5
AA
330
1F
100
AcDbEntity
  8
0
100
AcDbLine
 10
-155.2673397674266
 20
14.00675530008436
 30
0.0
 11
-152.7673397674258
 21
14.00675530008472
 31
0.0
  0
LINE
  5
AB
330
1F
100
AcDbEntity
  8
0
100
AcDbLine
 10
-155.2673397674259
 20
24.0056732679233
 30
0.0
 11
-152.7673397674265
 21
24.00567326792312
 31
0.0
  0
LINE
  5
AC
330
1F
100
AcDbEntity
  8
0
100
AcDbLine
 10
-157.7673397674253
 20
64.00134513927426
 30
0.0
 11
-157.7673397674253
 21
54.00242717143767
 31
0.0
  0
LINE
  5
AD
330
1F
100
AcDbEntity
  8
0
100
AcDbLine
 10
-155.2673397674259
 20
54.00242717143749
 30
0.0
 11
-157.7673397674253
 21
54.00242717143767
 31
0.0
  0
LINE
  5
AE
330
1F
100
AcDbEntity
  8
0
100
AcDbLine
 10
-155.2673397674259
 20
44.00350920359919
 30
0.0
 11
-155.2673397674259
 21
54.00242717143749
 31
0.0
  0
LINE
  5
AF
330
1F
100
AcDbEntity
  8
0
100
AcDbLine
 10
-157.7673397674253
 20
44.003509203599
 30
0.0
 11
-155.2673397674259
 21
44.00350920359919
 31
0.0
  0
LINE
  5
B0
330
1F
100
AcDbEntity
  8
0
100
AcDbLine
 10
-157.7673397674253
 20
44.003509203599
 30
0.0
 11
-157.7673397674246
 21
34.00459123576124
 31
0.0
  0
LINE
  5
B1
330
1F
100
AcDbEntity
  8
0
100
AcDbLine
 10
-187.7673397674261
 20
34.00459123576088
 30
0.0
 11
-187.7673397674254
 21
44.00350920359919
 31
0.0
  0
LINE
  5
B2
330
1F
100
AcDbEntity
  8
0
100
AcDbLine
 10
-190.2673397674255
 20
44.00350920359846
 30
0.0
 11
-187.7673397674254
 21
44.00350920359919
 31
0.0
  0
LINE
  5
B3
330
1F
100
AcDbEntity
  8
0
100
AcDbLine
 10
-190.2673397674248
 20
54.00242717143785
 30
0.0
 11
-190.2673397674255
 21
44.00350920359846
 31
0.0
  0
LINE
  5
B4
330
1F
100
AcDbEntity
  8
0
100
AcDbLine
 10
-190.2673397674248
 20
54.00242717143785
 30
0.0
 11
-187.767339767425
 21
54.00242717143713
 31
0.0
  0
LINE
  5
B5
330
1F
100
AcDbEntity
  8
0
100
AcDbLine
 10
-187.767339767425
 20
54.00242717143713
 30
0.0
 11
-187.7673397674261
 21
64.0013451392748
 31
0.0
  0
LINE
  5
B6
330
1F
100
AcDbEntity
  8
0
100
AcDbLine
 10
-155.2673397674252
 20
-65.984588442618
 30
0.0
 11
-157.7673397674253
 21
-65.98458844261837
 31
0.0
  0
LINE
  5
B7
330
1F
100
AcDbEntity
  8
0
100
AcDbLine
 10
-155.2673397674252
 20
-75.98350641045631
 30
0.0
 11
-155.2673397674252
 21
-65.984588442618
 31
0.0
  0
LINE
  5
B8
330
1F
100
AcDbEntity
  8
0
100
AcDbLine
 10
-157.7673397674253
 20
-75.98350641045704
 30
0.0
 11
-155.2673397674252
 21
-75.98350641045631
 31
0.0
  0
LINE
  5
B9
330
1F
100
AcDbEntity
  8
0
100
AcDbLine
 10
-157.7673397674253
 20
-75.98350641045704
 30
0.0
 11
-157.7673397674261
 21
-85.9824243782948
 31
0.0
  0
LINE
  5
BA
330
1F
100
AcDbEntity
  8
0
100
AcDbLine
 10
-187.7673397674254
 20
-85.9824243782948
 30
0.0
 11
-187.7673397674254
 21
-75.9835064104565
 31
0.0
  0
LINE
  5
BB
330
1F
100
AcDbEntity
  8
0
100
AcDbLine
 10
-190.2673397674263
 20
-75.9835064104574
 30
0.0
 11
-187.7673397674254
 21
-75.9835064104565
 31
0.0
  0
LINE
  5
BC
330
1F
100
AcDbEntity
  8
0
100
AcDbLine
 10
-190.2673397674263
 20
-65.98458844261854
 30
0.0
 11
-190.2673397674263
 21
-75.9835064104574
 31
0.0
  0
LINE
  5
BD
330
1F
100
AcDbEntity
  8
0
100
AcDbLine
 10
-190.2673397674263
 20
-65.98458844261854
 30
0.0
 11
-187.7673397674257
 21
-65.98458844261837
 31
0.0
  0
LINE
  5
BE
330
1F
100
AcDbEntity
  8
0
100
AcDbLine
 10
-122.7673397674254
 20
64.00134513927588
 30
0.0
 11
-122.7673397674254
 21
54.00242717143785
 31
0.0
  0
LINE
  5
BF
330
1F
100
AcDbEntity
  8
0
100
AcDbLine
 10
-120.2673397674252
 20
54.00242717143785
 30
0.0
 11
-122.7673397674254
 21
54.00242717143785
 31
0.0
  0
LINE
  5
C0
330
1F
100
AcDbEntity
  8
0
100
AcDbLine
 10
-120.2673397674252
 20
44.00350920359864
 30
0.0
 11
-120.2673397674252
 21
54.00242717143785
 31
0.0
  0
LINE
  5
C1
330
1F
100
AcDbEntity
  8
0
100
AcDbLine
 10
-122.7673397674254
 20
44.00350920359954
 30
0.0
 11
-120.2673397674252
 21
44.00350920359864
 31
0.0
  0
LINE
  5
C2
330
1F
100
AcDbEntity
  8
0
100
AcDbLine
 10
-122.7673397674254
 20
44.00350920359954
 30
0.0
 11
-122.7673397674261
 21
34.00459123576088
 31
0.0
  0
LINE
  5
C3
330
1F
100
AcDbEntity
  8
0
100
AcDbLine
 10
-152.7673397674258
 20
34.00459123576106
 30
0.0
 11
-152.7673397674258
 21
44.00350920359936
 31
0.0
  0
LINE
  5
C4
330
1F
100
AcDbEntity
  8
0
100
AcDbLine
 10
-155.2673397674259
 20
44.00350920359919
 30
0.0
 11
-152.7673397674258
 21
44.00350920359936
 31
0.0
  0
LINE
  5
C5
330
1F
100
AcDbEntity
  8
0
100
AcDbLine
 10
-155.2673397674259
 20
54.00242717143749
 30
0.0
 11
-152.7673397674265
 21
54.00242717143695
 31
0.0
  0
LINE
  5
C6
330
1F
100
AcDbEntity
  8
0
100
AcDbLine
 10
-152.7673397674265
 20
54.00242717143695
 30
0.0
 11
-152.7673397674258
 21
64.00134513927516
 31
0.0
  0
LINE
  5
C7
330
1F
100
AcDbEntity
  8
0
100
AcDbLine
 10
-122.7673397674254
 20
-55.98567047478033
 30
0.0
 11
-122.7673397674261
 21
-65.98458844261873
 31
0.0
  0
LINE
  5
C8
330
1F
100
AcDbEntity
  8
0
100
AcDbLine
 10
-120.2673397674259
 20
-65.98458844261854
 30
0.0
 11
-122.7673397674261
 21
-65.98458844261873
 31
0.0
  0
LINE
  5
C9
330
1F
100
AcDbEntity
  8
0
100
AcDbLine
 10
-120.2673397674252
 20
-75.98350641045667
 30
0.0
 11
-120.2673397674259
 21
-65.98458844261854
 31
0.0
  0
LINE
  5
CA
330
1F
100
AcDbEntity
  8
0
100
AcDbLine
 10
-122.7673397674261
 20
-75.9835064104565
 30
0.0
 11
-120.2673397674252
 21
-75.98350641045667
 31
0.0
  0
LINE
  5
CB
330
1F
100
AcDbEntity
  8
0
100
AcDbLine
 10
-122.7673397674261
 20
-75.9835064104565
 30
0.0
 11
-122.7673397674261
 21
-85.98242437829462
 31
0.0
  0
LINE
  5
CC
330
1F
100
AcDbEntity
  8
0
100
AcDbLine
 10
-152.7673397674258
 20
-85.98242437829498
 30
0.0
 11
-152.7673397674251
 21
-75.98350641045631
 31
0.0
  0
LINE
  5
CD
330
1F
100
AcDbEntity
  8
0
100
AcDbLine
 10
-155.2673397674252
 20
-75.98350641045631
 30
0.0
 11
-152.7673397674251
 21
-75.98350641045631
 31
0.0
  0
LINE
  5
CE
330
1F
100
AcDbEntity
  8
0
100
AcDbLine
 10
-155.2673397674252
 20
-65.984588442618
 30
0.0
 11
-152.7673397674258
 21
-65.984588442618
 31
0.0
  0
LINE
  5
CF
330
1F
100
AcDbEntity
  8
0
100
AcDbLine
 10
-152.7673397674258
 20
-65.984588442618
 30
0.0
 11
-152.7673397674251
 21
-55.98567047477997
 31
0.0
  0
LINE
  5
D0
330
1F
100
AcDbEntity
  8
0
100
AcDbLine
 10
-122.7673397674254
 20
-25.98891657126642
 30
0.0
 11
-122.7673397674261
 21
-35.98783453910472
 31
0.0
  0
LINE
  5
D1
330
1F
100
AcDbEntity
  8
0
100
AcDbLine
 10
-120.2673397674252
 20
-35.98783453910418
 30
0.0
 11
-122.7673397674261
 21
-35.98783453910472
 31
0.0
  0
LINE
  5
D2
330
1F
100
AcDbEntity
  8
0
100
AcDbLine
 10
-120.2673397674259
 20
-45.9867525069433
 30
0.0
 11
-120.2673397674252
 21
-35.98783453910418
 31
0.0
  0
LINE
  5
D3
330
1F
100
AcDbEntity
  8
0
100
AcDbLine
 10
-122.7673397674254
 20
-45.98675250694203
 30
0.0
 11
-120.2673397674259
 21
-45.9867525069433
 31
0.0
  0
LINE
  5
D4
330
1F
100
AcDbEntity
  8
0
100
AcDbLine
 10
-155.2673397674266
 20
-45.98675250694311
 30
0.0
 11
-152.7673397674265
 21
-45.98675250694293
 31
0.0
  0
LINE
  5
D5
330
1F
100
AcDbEntity
  8
0
100
AcDbLine
 10
-155.2673397674266
 20
-45.98675250694311
 30
0.0
 11
-155.2673397674252
 21
-35.98783453910382
 31
0.0
  0
LINE
  5
D6
330
1F
100
AcDbEntity
  8
0
100
AcDbLine
 10
-155.2673397674252
 20
-35.98783453910382
 30
0.0
 11
-152.7673397674251
 21
-35.987834539104
 31
0.0
  0
LINE
  5
D7
330
1F
100
AcDbEntity
  8
0
100
AcDbLine
 10
-152.7673397674251
 20
-35.987834539104
 30
0.0
 11
-152.7673397674265
 21
-25.98891657126696
 31
0.0
  0
LINE
  5
D8
330
1F
100
AcDbEntity
  8
0
100
AcDbLine
 10
-157.7673397674246
 20
-25.9889165712666
 30
0.0
 11
-157.7673397674253
 21
-35.98783453910472
 31
0.0
  0
LINE
  5
D9
330
1F
100
AcDbEntity
  8
0
100
AcDbLine
 10
-155.2673397674252
 20
-35.98783453910382
 30
0.0
 11
-157.7673397674253
 21
-35.98783453910472
 31
0.0
  0
LINE
  5
DA
330
1F
100
AcDbEntity
  8
0
100
AcDbLine
 10
-157.7673397674253
 20
-45.98675250694293
 30
0.0
 11
-155.2673397674266
 21
-45.98675250694311
 31
0.0
  0
LINE
  5
DB
330
1F
100
AcDbEntity
  8
0
100
AcDbLine
 10
-157.7673397674253
 20
-45.98675250694293
 30
0.0
 11
-157.7673397674253
 21
-55.98567047478087
 31
0.0
  0
LINE
  5
DC
330
1F
100
AcDbEntity
  8
0
100
AcDbLine
 10
-187.7673397674261
 20
-55.98567047478033
 30
0.0
 11
-187.7673397674247
 21
-45.98675250694239
 31
0.0
  0
LINE
  5
DD
330
1F
100
AcDbEntity
  8
0
100
AcDbLine
 10
-190.2673397674255
 20
-45.98675250694276
 30
0.0
 11
-187.7673397674247
 21
-45.98675250694239
 31
0.0
  0
LINE
  5
DE
330
1F
100
AcDbEntity
  8
0
100
AcDbLine
 10
-190.2673397674263
 20
-35.98783453910526
 30
0.0
 11
-190.2673397674255
 21
-45.98675250694276
 31
0.0
  0
LINE
  5
DF
330
1F
100
AcDbEntity
  8
0
100
AcDbLine
 10
-190.2673397674263
 20
-35.98783453910526
 30
0.0
 11
-187.7673397674254
 21
-35.98783453910454
 31
0.0
  0
LINE
  5
E0
330
1F
100
AcDbEntity
  8
0
100
AcDbLine
 10
-187.7673397674254
 20
-35.98783453910454
 30
0.0
 11
-187.7673397674257
 21
-25.98891657126732
 31
0.0
  0
LINE
  5
E1
330
1F
100
AcDbEntity
  8
0
100
AcDbLine
 10
-122.7673397674254
 20
4.007837332247141
 30
0.0
 11
-122.7673397674254
 21
-5.991080635590623
 31
0.0
  0
LINE
  5
E2
330
1F
100
AcDbEntity
  8
0
100
AcDbLine
 10
-120.2673397674259
 20
-5.991080635591343
 30
0.0
 11
-122.7673397674254
 21
-5.991080635590623
 31
0.0
  0
LINE
  5
E3
330
1F
100
AcDbEntity
  8
0
100
AcDbLine
 10
-120.2673397674252
 20
-15.98999860342911
 30
0.0
 11
-120.2673397674259
 21
-5.991080635591343
 31
0.0
  0
LINE
  5
E4
330
1F
100
AcDbEntity
  8
0
100
AcDbLine
 10
-122.7673397674261
 20
-15.98999860342892
 30
0.0
 11
-120.2673397674252
 21
-15.98999860342911
 31
0.0
  0
LINE
  5
E5
330
1F
100
AcDbEntity
  8
0
100
AcDbLine
 10
-155.2673397674259
 20
-15.98999860342892
 30
0.0
 11
-152.7673397674258
 21
-15.98999860342856
 31
0.0
  0
LINE
  5
E6
330
1F
100
AcDbEntity
  8
0
100
AcDbLine
 10
-155.2673397674259
 20
-5.991080635590802
 30
0.0
 11
-152.7673397674265
 21
-5.991080635590802
 31
0.0
  0
LINE
  5
E7
330
1F
100
AcDbEntity
  8
0
100
AcDbLine
 10
-152.7673397674265
 20
-5.991080635590802
 30
0.0
 11
-152.7673397674265
 21
4.007837332246781
 31
0.0
  0
LINE
  5
E8
330
1F
100
AcDbEntity
  8
0
100
AcDbLine
 10
-122.7673397674254
 20
93.99809904278881
 30
0.0
 11
-122.7673397674261
 21
83.99918107495105
 31
0.0
  0
LINE
  5
E9
330
1F
100
AcDbEntity
  8
0
100
AcDbLine
 10
-120.2673397674245
 20
83.99918107495195
 30
0.0
 11
-122.7673397674261
 21
83.99918107495105
 31
0.0
  0
LINE
  5
EA
330
1F
100
AcDbEntity
  8
0
100
AcDbLine
 10
-120.2673397674252
 20
74.00026310711328
 30
0.0
 11
-120.2673397674245
 21
83.99918107495195
 31
0.0
  0
LINE
  5
EB
330
1F
100
AcDbEntity
  8
0
100
AcDbLine
 10
-122.7673397674254
 20
74.00026310711347
 30
0.0
 11
-120.2673397674252
 21
74.00026310711328
 31
0.0
  0
LINE
  5
EC
330
1F
100
AcDbEntity
  8
0
100
AcDbLine
 10
-155.2673397674252
 20
74.00026310711328
 30
0.0
 11
-152.7673397674258
 21
74.00026310711274
 31
0.0
  0
LINE
  5
ED
330
1F
100
AcDbEntity
  8
0
100
AcDbLine
 10
-155.2673397674259
 20
83.99918107495176
 30
0.0
 11
-152.7673397674258
 21
83.99918107495122
 31
0.0
  0
LINE
  5
EE
330
1F
100
AcDbEntity
  8
0
100
AcDbLine
 10
-152.7673397674258
 20
83.99918107495122
 30
0.0
 11
-152.7673397674258
 21
93.99809904278827
 31
0.0
  0
LINE
  5
EF
330
1F
100
AcDbEntity
  8
0
100
AcDbLine
 10
-122.7673397674254
 20
93.99809904278881
 30
0.0
 11
-152.7673397674258
 21
93.99809904278827
 31
0.0
  0
LINE
  5
F0
330
1F
100
AcDbEntity
  8
0
100
AcDbLine
 10
-85.26733976742668
 20
54.00242717143713
 30
0.0
 11
-87.76733976742611
 21
54.00242717143676
 31
0.0
  0
LINE
  5
F1
330
1F
100
AcDbEntity
  8
0
100
AcDbLine
 10
-85.26733976742597
 20
44.00350920359954
 30
0.0
 11
-85.26733976742668
 21
54.00242717143713
 31
0.0
  0
LINE
  5
F2
330
1F
100
AcDbEntity
  8
0
100
AcDbLine
 10
-87.76733976742611
 20
44.00350920359919
 30
0.0
 11
-85.26733976742597
 21
44.00350920359954
 31
0.0
  0
LINE
  5
F3
330
1F
100
AcDbEntity
  8
0
100
AcDbLine
 10
-120.2673397674252
 20
44.00350920359864
 30
0.0
 11
-117.7673397674258
 21
44.00350920359864
 31
0.0
  0
LINE
  5
F4
330
1F
100
AcDbEntity
  8
0
100
AcDbLine
 10
-120.2673397674252
 20
54.00242717143785
 30
0.0
 11
-117.7673397674251
 21
54.00242717143713
 31
0.0
  0
LINE
  5
F5
330
1F
100
AcDbEntity
  8
0
100
AcDbLine
 10
-87.7673397674254
 20
34.00459123576124
 30
0.0
 11
-87.76733976742467
 21
24.00567326792402
 31
0.0
  0
LINE
  5
F6
330
1F
100
AcDbEntity
  8
0
100
AcDbLine
 10
-85.26733976742597
 20
24.0056732679233
 30
0.0
 11
-87.76733976742467
 21
24.00567326792402
 31
0.0
  0
LINE
  5
F7
330
1F
100
AcDbEntity
  8
0
100
AcDbLine
 10
-85.26733976742597
 20
14.00675530008454
 30
0.0
 11
-85.26733976742597
 21
24.0056732679233
 31
0.0
  0
LINE
  5
F8
330
1F
100
AcDbEntity
  8
0
100
AcDbLine
 10
-87.76733976742611
 20
14.00675530008454
 30
0.0
 11
-85.26733976742597
 21
14.00675530008454
 31
0.0
  0
LINE
  5
F9
330
1F
100
AcDbEntity
  8
0
100
AcDbLine
 10
-120.2673397674252
 20
14.00675530008472
 30
0.0
 11
-117.7673397674258
 21
14.0067553000849
 31
0.0
  0
LINE
  5
FA
330
1F
100
AcDbEntity
  8
0
100
AcDbLine
 10
-120.2673397674252
 20
24.00567326792348
 30
0.0
 11
-117.7673397674258
 21
24.00567326792276
 31
0.0
  0
LINE
  5
FB
330
1F
100
AcDbEntity
  8
0
100
AcDbLine
 10
-117.7673397674258
 20
24.00567326792276
 30
0.0
 11
-117.7673397674251
 21
34.00459123576088
 31
0.0
  0
LINE
  5
FC
330
1F
100
AcDbEntity
  8
0
100
AcDbLine
 10
-87.76733976742683
 20
93.99809904278845
 30
0.0
 11
-87.7673397674254
 21
83.99918107495141
 31
0.0
  0
LINE
  5
FD
330
1F
100
AcDbEntity
  8
0
100
AcDbLine
 10
-85.26733976742597
 20
83.99918107495141
 30
0.0
 11
-87.7673397674254
 21
83.99918107495141
 31
0.0
  0
LINE
  5
FE
330
1F
100
AcDbEntity
  8
0
100
AcDbLine
 10
-85.26733976742597
 20
74.00026310711274
 30
0.0
 11
-85.26733976742597
 21
83.99918107495141
 31
0.0
  0
LINE
  5
FF
330
1F
100
AcDbEntity
  8
0
100
AcDbLine
 10
-87.76733976742611
 20
74.00026310711239
 30
0.0
 11
-85.26733976742597
 21
74.00026310711274
 31
0.0
  0
LINE
  5
100
330
1F
100
AcDbEntity
  8
0
100
AcDbLine
 10
-87.76733976742611
 20
74.00026310711239
 30
0.0
 11
-87.76733976742611
 21
64.0013451392748
 31
0.0
  0
LINE
  5
101
330
1F
100
AcDbEntity
  8
0
100
AcDbLine
 10
-117.7673397674251
 20
64.00134513927534
 30
0.0
 11
-117.7673397674251
 21
74.00026310711347
 31
0.0
  0
LINE
  5
102
330
1F
100
AcDbEntity
  8
0
100
AcDbLine
 10
-120.2673397674252
 20
74.00026310711328
 30
0.0
 11
-117.7673397674251
 21
74.00026310711347
 31
0.0
  0
LINE
  5
103
330
1F
100
AcDbEntity
  8
0
100
AcDbLine
 10
-120.2673397674245
 20
83.99918107495195
 30
0.0
 11
-117.7673397674251
 21
83.99918107495176
 31
0.0
  0
LINE
  5
104
330
1F
100
AcDbEntity
  8
0
100
AcDbLine
 10
-117.7673397674251
 20
83.99918107495176
 30
0.0
 11
-117.7673397674258
 21
93.99809904278827
 31
0.0
  0
LINE
  5
105
330
1F
100
AcDbEntity
  8
0
100
AcDbLine
 10
-87.76733976742683
 20
93.99809904278845
 30
0.0
 11
-117.7673397674258
 21
93.99809904278827
 31
0.0
  0
LINE
  5
106
330
1F
100
AcDbEntity
  8
0
100
AcDbLine
 10
-85.26733976742597
 20
-65.984588442618
 30
0.0
 11
-87.76733976742611
 21
-65.98458844261819
 31
0.0
  0
LINE
  5
107
330
1F
100
AcDbEntity
  8
0
100
AcDbLine
 10
-85.26733976742597
 20
-65.984588442618
 30
0.0
 11
-85.26733976742524
 21
-75.98350641045667
 31
0.0
  0
LINE
  5
108
330
1F
100
AcDbEntity
  8
0
100
AcDbLine
 10
-87.7673397674254
 20
-75.98350641045596
 30
0.0
 11
-85.26733976742524
 21
-75.98350641045667
 31
0.0
  0
LINE
  5
109
330
1F
100
AcDbEntity
  8
0
100
AcDbLine
 10
-87.7673397674254
 20
-75.98350641045596
 30
0.0
 11
-87.7673397674254
 21
-85.98242437829462
 31
0.0
  0
LINE
  5
10A
330
1F
100
AcDbEntity
  8
0
100
AcDbLine
 10
-117.7673397674251
 20
-85.98242437829462
 30
0.0
 11
-117.7673397674251
 21
-75.98350641045631
 31
0.0
  0
LINE
  5
10B
330
1F
100
AcDbEntity
  8
0
100
AcDbLine
 10
-120.2673397674252
 20
-75.98350641045667
 30
0.0
 11
-117.7673397674251
 21
-75.98350641045631
 31
0.0
  0
LINE
  5
10C
330
1F
100
AcDbEntity
  8
0
100
AcDbLine
 10
-120.2673397674259
 20
-65.98458844261854
 30
0.0
 11
-117.7673397674258
 21
-65.98458844261854
 31
0.0
  0
LINE
  5
10D
330
1F
100
AcDbEntity
  8
0
100
AcDbLine
 10
-87.76733976742611
 20
4.007837332246781
 30
0.0
 11
-87.76733976742611
 21
-5.991080635590624
 31
0.0
  0
LINE
  5
10E
330
1F
100
AcDbEntity
  8
0
100
AcDbLine
 10
-85.26733976742524
 20
-5.991080635590261
 30
0.0
 11
-87.76733976742611
 21
-5.991080635590624
 31
0.0
  0
LINE
  5
10F
330
1F
100
AcDbEntity
  8
0
100
AcDbLine
 10
-85.26733976742597
 20
-15.98999860342875
 30
0.0
 11
-85.26733976742524
 21
-5.991080635590261
 31
0.0
  0
LINE
  5
110
330
1F
100
AcDbEntity
  8
0
100
AcDbLine
 10
-87.7673397674254
 20
-15.98999860342856
 30
0.0
 11
-85.26733976742597
 21
-15.98999860342875
 31
0.0
  0
LINE
  5
111
330
1F
100
AcDbEntity
  8
0
100
AcDbLine
 10
-120.2673397674252
 20
-15.98999860342911
 30
0.0
 11
-117.7673397674251
 21
-15.98999860342892
 31
0.0
  0
LINE
  5
112
330
1F
100
AcDbEntity
  8
0
100
AcDbLine
 10
-120.2673397674259
 20
-5.991080635591343
 30
0.0
 11
-117.7673397674258
 21
-5.991080635590621
 31
0.0
  0
LINE
  5
113
330
1F
100
AcDbEntity
  8
0
100
AcDbLine
 10
-117.7673397674258
 20
-5.991080635590621
 30
0.0
 11
-117.7673397674258
 21
4.007837332246421
 31
0.0
  0
LINE
  5
114
330
1F
100
AcDbEntity
  8
0
100
AcDbLine
 10
-87.7673397674254
 20
-25.98891657126678
 30
0.0
 11
-87.7673397674254
 21
-35.98783453910436
 31
0.0
  0
LINE
  5
115
330
1F
100
AcDbEntity
  8
0
100
AcDbLine
 10
-85.26733976742524
 20
-35.98783453910418
 30
0.0
 11
-87.7673397674254
 21
-35.98783453910436
 31
0.0
  0
LINE
  5
116
330
1F
100
AcDbEntity
  8
0
100
AcDbLine
 10
-85.26733976742597
 20
-45.98675250694276
 30
0.0
 11
-85.26733976742524
 21
-35.98783453910418
 31
0.0
  0
LINE
  5
117
330
1F
100
AcDbEntity
  8
0
100
AcDbLine
 10
-87.7673397674254
 20
-45.98675250694257
 30
0.0
 11
-85.26733976742597
 21
-45.98675250694276
 31
0.0
  0
LINE
  5
118
330
1F
100
AcDbEntity
  8
0
100
AcDbLine
 10
-87.7673397674254
 20
-45.98675250694257
 30
0.0
 11
-87.76733976742611
 21
-55.98567047478033
 31
0.0
  0
LINE
  5
119
330
1F
100
AcDbEntity
  8
0
100
AcDbLine
 10
-117.7673397674251
 20
-55.9856704747807
 30
0.0
 11
-117.7673397674258
 21
-45.98675250694293
 31
0.0
  0
LINE
  5
11A
330
1F
100
AcDbEntity
  8
0
100
AcDbLine
 10
-120.2673397674259
 20
-45.9867525069433
 30
0.0
 11
-117.7673397674258
 21
-45.98675250694293
 31
0.0
  0
LINE
  5
11B
330
1F
100
AcDbEntity
  8
0
100
AcDbLine
 10
-120.2673397674252
 20
-35.98783453910418
 30
0.0
 11
-117.7673397674251
 21
-35.98783453910454
 31
0.0
  0
LINE
  5
11C
330
1F
100
AcDbEntity
  8
0
100
AcDbLine
 10
-117.7673397674251
 20
-35.98783453910454
 30
0.0
 11
-117.7673397674251
 21
-25.98891657126678
 31
0.0
  0
LINE
  5
11D
330
1F
100
AcDbEntity
  8
0
100
AcDbLine
 10
-50.26733976742598
 20
54.00242717143749
 30
0.0
 11
-52.76733976742614
 21
54.00242717143767
 31
0.0
  0
LINE
  5
11E
330
1F
100
AcDbEntity
  8
0
100
AcDbLine
 10
-50.26733976742598
 20
54.00242717143749
 30
0.0
 11
-50.26733976742598
 21
44.003509203599
 31
0.0
  0
LINE
  5
11F
330
1F
100
AcDbEntity
  8
0
100
AcDbLine
 10
-52.76733976742541
 20
44.00350920359919
 30
0.0
 11
-50.26733976742598
 21
44.003509203599
 31
0.0
  0
LINE
  5
120
330
1F
100
AcDbEntity
  8
0
100
AcDbLine
 10
-85.26733976742597
 20
44.00350920359954
 30
0.0
 11
-82.76733976742509
 21
44.00350920359954
 31
0.0
  0
LINE
  5
121
330
1F
100
AcDbEntity
  8
0
100
AcDbLine
 10
-85.26733976742668
 20
54.00242717143713
 30
0.0
 11
-82.76733976742581
 21
54.00242717143749
 31
0.0
  0
LINE
  5
122
330
1F
100
AcDbEntity
  8
0
100
AcDbLine
 10
-50.26733976742598
 20
-35.98783453910454
 30
0.0
 11
-52.76733976742614
 21
-35.98783453910472
 31
0.0
  0
LINE
  5
123
330
1F
100
AcDbEntity
  8
0
100
AcDbLine
 10
-50.26733976742598
 20
-35.98783453910454
 30
0.0
 11
-50.26733976742598
 21
-45.98675250694311
 31
0.0
  0
LINE
  5
124
330
1F
100
AcDbEntity
  8
0
100
AcDbLine
 10
-52.76733976742614
 20
-45.98675250694293
 30
0.0
 11
-50.26733976742598
 21
-45.98675250694311
 31
0.0
  0
LINE
  5
125
330
1F
100
AcDbEntity
  8
0
100
AcDbLine
 10
-85.26733976742597
 20
-45.98675250694276
 30
0.0
 11
-82.76733976742581
 21
-45.98675250694276
 31
0.0
  0
LINE
  5
126
330
1F
100
AcDbEntity
  8
0
100
AcDbLine
 10
-85.26733976742524
 20
-35.98783453910418
 30
0.0
 11
-82.76733976742581
 21
-35.9878345391049
 31
0.0
  0
LINE
  5
127
330
1F
100
AcDbEntity
  8
0
100
AcDbLine
 10
-50.26733976742598
 20
-5.991080635590441
 30
0.0
 11
-52.76733976742614
 21
-5.991080635590621
 31
0.0
  0
LINE
  5
128
330
1F
100
AcDbEntity
  8
0
100
AcDbLine
 10
-52.76733976742614
 20
-15.98999860342892
 30
0.0
 11
-50.26733976742598
 21
-15.98999860342929
 31
0.0
  0
LINE
  5
129
330
1F
100
AcDbEntity
  8
0
100
AcDbLine
 10
-52.76733976742614
 20
-15.98999860342892
 30
0.0
 11
-52.76733976742541
 21
-25.98891657126732
 31
0.0
  0
LINE
  5
12A
330
1F
100
AcDbEntity
  8
0
100
AcDbLine
 10
-82.76733976742581
 20
-25.98891657126678
 30
0.0
 11
-82.76733976742653
 21
-15.98999860342929
 31
0.0
  0
LINE
  5
12B
330
1F
100
AcDbEntity
  8
0
100
AcDbLine
 10
-85.26733976742597
 20
-15.98999860342875
 30
0.0
 11
-82.76733976742653
 21
-15.98999860342929
 31
0.0
  0
LINE
  5
12C
330
1F
100
AcDbEntity
  8
0
100
AcDbLine
 10
-85.26733976742524
 20
-5.991080635590261
 30
0.0
 11
-82.76733976742581
 21
-5.991080635590441
 31
0.0
  0
LINE
  5
12D
330
1F
100
AcDbEntity
  8
0
100
AcDbLine
 10
-52.76733976742541
 20
-55.9856704747807
 30
0.0
 11
-52.76733976742541
 21
-65.98458844261837
 31
0.0
  0
LINE
  5
12E
330
1F
100
AcDbEntity
  8
0
100
AcDbLine
 10
-50.26733976742598
 20
-65.98458844261873
 30
0.0
 11
-52.76733976742541
 21
-65.98458844261837
 31
0.0
  0
LINE
  5
12F
330
1F
100
AcDbEntity
  8
0
100
AcDbLine
 10
-50.26733976742598
 20
-65.98458844261873
 30
0.0
 11
-50.26733976742598
 21
-75.98350641045685
 31
0.0
  0
LINE
  5
130
330
1F
100
AcDbEntity
  8
0
100
AcDbLine
 10
-52.76733976742614
 20
-75.98350641045685
 30
0.0
 11
-50.26733976742598
 21
-75.98350641045685
 31
0.0
  0
LINE
  5
131
330
1F
100
AcDbEntity
  8
0
100
AcDbLine
 10
-52.76733976742614
 20
-75.98350641045685
 30
0.0
 11
-52.76733976742541
 21
-85.98242437829444
 31
0.0
  0
LINE
  5
132
330
1F
100
AcDbEntity
  8
0
100
AcDbLine
 10
-82.76733976742581
 20
-85.98242437829444
 30
0.0
 11
-82.76733976742581
 21
-75.98350641045704
 31
0.0
  0
LINE
  5
133
330
1F
100
AcDbEntity
  8
0
100
AcDbLine
 10
-85.26733976742524
 20
-75.98350641045667
 30
0.0
 11
-82.76733976742581
 21
-75.98350641045704
 31
0.0
  0
LINE
  5
134
330
1F
100
AcDbEntity
  8
0
100
AcDbLine
 10
-85.26733976742597
 20
-65.984588442618
 30
0.0
 11
-82.76733976742581
 21
-65.98458844261837
 31
0.0
  0
LINE
  5
135
330
1F
100
AcDbEntity
  8
0
100
AcDbLine
 10
-82.76733976742581
 20
-65.98458844261837
 30
0.0
 11
-82.76733976742581
 21
-55.98567047478124
 31
0.0
  0
LINE
  5
136
330
1F
100
AcDbEntity
  8
0
100
AcDbLine
 10
-52.76733976742614
 20
93.99809904278827
 30
0.0
 11
-52.76733976742614
 21
83.99918107495105
 31
0.0
  0
LINE
  5
137
330
1F
100
AcDbEntity
  8
0
100
AcDbLine
 10
-50.26733976742598
 20
83.99918107495105
 30
0.0
 11
-52.76733976742614
 21
83.99918107495105
 31
0.0
  0
LINE
  5
138
330
1F
100
AcDbEntity
  8
0
100
AcDbLine
 10
-52.76733976742541
 20
74.00026310711293
 30
0.0
 11
-50.26733976742598
 21
74.00026310711293
 31
0.0
  0
LINE
  5
139
330
1F
100
AcDbEntity
  8
0
100
AcDbLine
 10
-52.76733976742541
 20
74.00026310711293
 30
0.0
 11
-52.76733976742614
 21
64.0013451392748
 31
0.0
  0
LINE
  5
13A
330
1F
100
AcDbEntity
  8
0
100
AcDbLine
 10
-82.76733976742581
 20
64.00134513927497
 30
0.0
 11
-82.76733976742581
 21
74.00026310711274
 31
0.0
  0
LINE
  5
13B
330
1F
100
AcDbEntity
  8
0
100
AcDbLine
 10
-85.26733976742597
 20
74.00026310711274
 30
0.0
 11
-82.76733976742581
 21
74.00026310711274
 31
0.0
  0
LINE
  5
13C
330
1F
100
AcDbEntity
  8
0
100
AcDbLine
 10
-85.26733976742597
 20
83.99918107495141
 30
0.0
 11
-82.76733976742581
 21
83.99918107495105
 31
0.0
  0
LINE
  5
13D
330
1F
100
AcDbEntity
  8
0
100
AcDbLine
 10
-82.76733976742581
 20
83.99918107495105
 30
0.0
 11
-82.76733976742581
 21
93.99809904278808
 31
0.0
  0
LINE
  5
13E
330
1F
100
AcDbEntity
  8
0
100
AcDbLine
 10
-52.76733976742614
 20
93.99809904278827
 30
0.0
 11
-82.76733976742581
 21
93.99809904278808
 31
0.0
  0
LINE
  5
13F
330
1F
100
AcDbEntity
  8
0
100
AcDbLine
 10
-52.76733976742614
 20
34.00459123576124
 30
0.0
 11
-52.76733976742614
 21
24.00567326792293
 31
0.0
  0
LINE
  5
140
330
1F
100
AcDbEntity
  8
0
100
AcDbLine
 10
-50.26733976742598
 20
24.0056732679233
 30
0.0
 11
-52.76733976742614
 21
24.00567326792293
 31
0.0
  0
LINE
  5
141
330
1F
100
AcDbEntity
  8
0
100
AcDbLine
 10
-52.76733976742614
 20
14.0067553000849
 30
0.0
 11
-50.26733976742598
 21
14.0067553000849
 31
0.0
  0
LINE
  5
142
330
1F
100
AcDbEntity
  8
0
100
AcDbLine
 10
-52.76733976742614
 20
14.0067553000849
 30
0.0
 11
-52.76733976742541
 21
4.007837332246959
 31
0.0
  0
LINE
  5
143
330
1F
100
AcDbEntity
  8
0
100
AcDbLine
 10
-82.76733976742581
 20
4.007837332246599
 30
0.0
 11
-82.76733976742581
 21
14.00675530008454
 31
0.0
  0
LINE
  5
144
330
1F
100
AcDbEntity
  8
0
100
AcDbLine
 10
-85.26733976742597
 20
14.00675530008454
 30
0.0
 11
-82.76733976742581
 21
14.00675530008454
 31
0.0
  0
LINE
  5
145
330
1F
100
AcDbEntity
  8
0
100
AcDbLine
 10
-85.26733976742597
 20
24.0056732679233
 30
0.0
 11
-82.76733976742653
 21
24.00567326792276
 31
0.0
  0
LINE
  5
146
330
1F
100
AcDbEntity
  8
0
100
AcDbLine
 10
-82.76733976742653
 20
24.00567326792276
 30
0.0
 11
-82.76733976742581
 21
34.00459123576124
 31
0.0
  0
LINE
  5
147
330
1F
100
AcDbEntity
  8
0
100
AcDbLine
 10
-15.267339767426
 20
54.0024271714373
 30
0.0
 11
-17.76733976742543
 21
54.00242717143713
 31
0.0
  0
LINE
  5
148
330
1F
100
AcDbEntity
  8
0
100
AcDbLine
 10
-17.76733976742615
 20
44.00350920359882
 30
0.0
 11
-15.26733976742528
 21
44.00350920359919
 31
0.0
  0
LINE
  5
149
330
1F
100
AcDbEntity
  8
0
100
AcDbLine
 10
-50.26733976742598
 20
44.003509203599
 30
0.0
 11
-47.76733976742582
 21
44.00350920359882
 31
0.0
  0
LINE
  5
14A
330
1F
100
AcDbEntity
  8
0
100
AcDbLine
 10
-50.26733976742598
 20
54.00242717143749
 30
0.0
 11
-47.76733976742582
 21
54.00242717143713
 31
0.0
  0
LINE
  5
14B
330
1F
100
AcDbEntity
  8
0
100
AcDbLine
 10
-15.267339767426
 20
-35.98783453910418
 30
0.0
 11
-17.76733976742615
 21
-35.9878345391049
 31
0.0
  0
LINE
  5
14C
330
1F
100
AcDbEntity
  8
0
100
AcDbLine
 10
-17.76733976742543
 20
-45.98675250694239
 30
0.0
 11
-15.26733976742528
 21
-45.98675250694257
 31
0.0
  0
LINE
  5
14D
330
1F
100
AcDbEntity
  8
0
100
AcDbLine
 10
-50.26733976742598
 20
-45.98675250694311
 30
0.0
 11
-47.76733976742582
 21
-45.98675250694276
 31
0.0
  0
LINE
  5
14E
330
1F
100
AcDbEntity
  8
0
100
AcDbLine
 10
-50.26733976742598
 20
-35.98783453910454
 30
0.0
 11
-47.76733976742582
 21
-35.98783453910508
 31
0.0
  0
LINE
  5
14F
330
1F
100
AcDbEntity
  8
0
100
AcDbLine
 10
-17.76733976742543
 20
-55.98567047478087
 30
0.0
 11
-17.76733976742615
 21
-65.98458844261837
 31
0.0
  0
LINE
  5
150
330
1F
100
AcDbEntity
  8
0
100
AcDbLine
 10
-15.267339767426
 20
-65.98458844261819
 30
0.0
 11
-17.76733976742615
 21
-65.98458844261837
 31
0.0
  0
LINE
  5
151
330
1F
100
AcDbEntity
  8
0
100
AcDbLine
 10
-17.76733976742615
 20
-75.98350641045667
 30
0.0
 11
-15.267339767426
 21
-75.9835064104565
 31
0.0
  0
LINE
  5
152
330
1F
100
AcDbEntity
  8
0
100
AcDbLine
 10
-17.76733976742615
 20
-75.98350641045667
 30
0.0
 11
-17.76733976742615
 21
-85.9824243782948
 31
0.0
  0
LINE
  5
153
330
1F
100
AcDbEntity
  8
0
100
AcDbLine
 10
-47.76733976742582
 20
-85.98242437829533
 30
0.0
 11
-47.76733976742582
 21
-75.98350641045704
 31
0.0
  0
LINE
  5
154
330
1F
100
AcDbEntity
  8
0
100
AcDbLine
 10
-50.26733976742598
 20
-75.98350641045685
 30
0.0
 11
-47.76733976742582
 21
-75.98350641045704
 31
0.0
  0
LINE
  5
155
330
1F
100
AcDbEntity
  8
0
100
AcDbLine
 10
-50.26733976742598
 20
-65.98458844261873
 30
0.0
 11
-47.76733976742582
 21
-65.98458844261891
 31
0.0
  0
LINE
  5
156
330
1F
100
AcDbEntity
  8
0
100
AcDbLine
 10
-47.76733976742582
 20
-65.98458844261891
 30
0.0
 11
-47.76733976742655
 21
-55.98567047478106
 31
0.0
  0
LINE
  5
157
330
1F
100
AcDbEntity
  8
0
100
AcDbLine
 10
17.23266023257455
 20
-45.98675250694276
 30
0.0
 11
17.23266023257527
 21
-55.98567047477997
 31
0.0
  0
LINE
  5
158
330
1F
100
AcDbEntity
  8
0
100
AcDbLine
 10
-12.76733976742585
 20
-55.98567047478033
 30
0.0
 11
-12.76733976742585
 21
-45.98675250694311
 31
0.0
  0
LINE
  5
159
330
1F
100
AcDbEntity
  8
0
100
AcDbLine
 10
17.23266023257527
 20
-55.98567047477997
 30
0.0
 11
-12.76733976742585
 21
-55.98567047478033
 31
0.0
  0
LINE
  5
15A
330
1F
100
AcDbEntity
  8
0
100
AcDbLine
 10
-17.76733976742543
 20
-45.98675250694239
 30
0.0
 11
-17.76733976742543
 21
-55.98567047478087
 31
0.0
  0
LINE
  5
15B
330
1F
100
AcDbEntity
  8
0
100
AcDbLine
 10
-47.76733976742655
 20
-55.98567047478106
 30
0.0
 11
-47.76733976742582
 21
-45.98675250694276
 31
0.0
  0
LINE
  5
15C
330
1F
100
AcDbEntity
  8
0
100
AcDbLine
 10
-17.76733976742543
 20
-55.98567047478087
 30
0.0
 11
-47.76733976742655
 21
-55.98567047478106
 31
0.0
  0
LINE
  5
15D
330
1F
100
AcDbEntity
  8
0
100
AcDbLine
 10
-52.76733976742614
 20
-45.98675250694293
 30
0.0
 11
-52.76733976742541
 21
-55.9856704747807
 31
0.0
  0
LINE
  5
15E
330
1F
100
AcDbEntity
  8
0
100
AcDbLine
 10
-82.76733976742581
 20
-55.98567047478124
 30
0.0
 11
-82.76733976742581
 21
-45.98675250694276
 31
0.0
  0
LINE
  5
15F
330
1F
100
AcDbEntity
  8
0
100
AcDbLine
 10
-52.76733976742541
 20
-55.9856704747807
 30
0.0
 11
-82.76733976742581
 21
-55.98567047478124
 31
0.0
  0
LINE
  5
160
330
1F
100
AcDbEntity
  8
0
100
AcDbLine
 10
-87.76733976742611
 20
-55.98567047478033
 30
0.0
 11
-87.76733976742611
 21
-65.98458844261819
 31
0.0
  0
LINE
  5
161
330
1F
100
AcDbEntity
  8
0
100
AcDbLine
 10
-117.7673397674258
 20
-65.98458844261854
 30
0.0
 11
-117.7673397674251
 21
-55.9856704747807
 31
0.0
  0
LINE
  5
162
330
1F
100
AcDbEntity
  8
0
100
AcDbLine
 10
-87.76733976742611
 20
-55.98567047478033
 30
0.0
 11
-117.7673397674251
 21
-55.9856704747807
 31
0.0
  0
LINE
  5
163
330
1F
100
AcDbEntity
  8
0
100
AcDbLine
 10
-122.7673397674254
 20
-45.98675250694203
 30
0.0
 11
-122.7673397674254
 21
-55.98567047478033
 31
0.0
  0
LINE
  5
164
330
1F
100
AcDbEntity
  8
0
100
AcDbLine
 10
-152.7673397674251
 20
-55.98567047477997
 30
0.0
 11
-152.7673397674265
 21
-45.98675250694293
 31
0.0
  0
LINE
  5
165
330
1F
100
AcDbEntity
  8
0
100
AcDbLine
 10
-122.7673397674254
 20
-55.98567047478033
 30
0.0
 11
-152.7673397674251
 21
-55.98567047477997
 31
0.0
  0
LINE
  5
166
330
1F
100
AcDbEntity
  8
0
100
AcDbLine
 10
-157.7673397674253
 20
-55.98567047478087
 30
0.0
 11
-157.7673397674253
 21
-65.98458844261837
 31
0.0
  0
LINE
  5
167
330
1F
100
AcDbEntity
  8
0
100
AcDbLine
 10
-187.7673397674257
 20
-65.98458844261837
 30
0.0
 11
-187.7673397674261
 21
-55.98567047478033
 31
0.0
  0
LINE
  5
168
330
1F
100
AcDbEntity
  8
0
100
AcDbLine
 10
-157.7673397674253
 20
-55.98567047478087
 30
0.0
 11
-187.7673397674261
 21
-55.98567047478033
 31
0.0
  0
LINE
  5
169
330
1F
100
AcDbEntity
  8
0
100
AcDbLine
 10
-157.7673397674253
 20
-15.98999860342911
 30
0.0
 11
-157.7673397674246
 21
-25.9889165712666
 31
0.0
  0
LINE
  5
16A
330
1F
100
AcDbEntity
  8
0
100
AcDbLine
 10
-187.7673397674257
 20
-25.98891657126732
 30
0.0
 11
-187.7673397674257
 21
-15.98999860342929
 31
0.0
  0
LINE
  5
16B
330
1F
100
AcDbEntity
  8
0
100
AcDbLine
 10
-157.7673397674246
 20
-25.9889165712666
 30
0.0
 11
-187.7673397674257
 21
-25.98891657126732
 31
0.0
  0
LINE
  5
16C
330
1F
100
AcDbEntity
  8
0
100
AcDbLine
 10
-122.7673397674261
 20
-15.98999860342892
 30
0.0
 11
-122.7673397674254
 21
-25.98891657126642
 31
0.0
  0
LINE
  5
16D
330
1F
100
AcDbEntity
  8
0
100
AcDbLine
 10
-152.7673397674265
 20
-25.98891657126696
 30
0.0
 11
-152.7673397674258
 21
-15.98999860342856
 31
0.0
  0
LINE
  5
16E
330
1F
100
AcDbEntity
  8
0
100
AcDbLine
 10
-122.7673397674254
 20
-25.98891657126642
 30
0.0
 11
-152.7673397674265
 21
-25.98891657126696
 31
0.0
  0
LINE
  5
16F
330
1F
100
AcDbEntity
  8
0
100
AcDbLine
 10
-87.7673397674254
 20
-15.98999860342856
 30
0.0
 11
-87.7673397674254
 21
-25.98891657126678
 31
0.0
  0
LINE
  5
170
330
1F
100
AcDbEntity
  8
0
100
AcDbLine
 10
-117.7673397674251
 20
-25.98891657126678
 30
0.0
 11
-117.7673397674251
 21
-15.98999860342892
 31
0.0
  0
LINE
  5
171
330
1F
100
AcDbEntity
  8
0
100
AcDbLine
 10
-87.7673397674254
 20
-25.98891657126678
 30
0.0
 11
-117.7673397674251
 21
-25.98891657126678
 31
0.0
  0
LINE
  5
172
330
1F
100
AcDbEntity
  8
0
100
AcDbLine
 10
-52.76733976742541
 20
-25.98891657126732
 30
0.0
 11
-52.76733976742614
 21
-35.98783453910472
 31
0.0
  0
LINE
  5
173
330
1F
100
AcDbEntity
  8
0
100
AcDbLine
 10
-82.76733976742581
 20
-35.9878345391049
 30
0.0
 11
-82.76733976742581
 21
-25.98891657126678
 31
0.0
  0
LINE
  5
174
330
1F
100
AcDbEntity
  8
0
100
AcDbLine
 10
-52.76733976742541
 20
-25.98891657126732
 30
0.0
 11
-82.76733976742581
 21
-25.98891657126678
 31
0.0
  0
LINE
  5
175
330
1F
100
AcDbEntity
  8
0
100
AcDbLine
 10
-17.76733976742615
 20
-25.98891657126696
 30
0.0
 11
-17.76733976742615
 21
-35.9878345391049
 31
0.0
  0
LINE
  5
176
330
1F
100
AcDbEntity
  8
0
100
AcDbLine
 10
-47.76733976742582
 20
-35.98783453910508
 30
0.0
 11
-47.76733976742582
 21
-25.98891657126732
 31
0.0
  0
LINE
  5
177
330
1F
100
AcDbEntity
  8
0
100
AcDbLine
 10
-17.76733976742615
 20
-25.98891657126696
 30
0.0
 11
-47.76733976742582
 21
-25.98891657126732
 31
0.0
  0
LINE
  5
178
330
1F
100
AcDbEntity
  8
0
100
AcDbLine
 10
17.23266023257455
 20
-15.98999860342892
 30
0.0
 11
17.23266023257455
 21
-25.98891657126678
 31
0.0
  0
LINE
  5
179
330
1F
100
AcDbEntity
  8
0
100
AcDbLine
 10
-12.76733976742585
 20
-25.98891657126696
 30
0.0
 11
-12.76733976742585
 21
-15.98999860342875
 31
0.0
  0
LINE
  5
17A
330
1F
100
AcDbEntity
  8
0
100
AcDbLine
 10
17.23266023257455
 20
-25.98891657126678
 30
0.0
 11
-12.76733976742585
 21
-25.98891657126696
 31
0.0
  0
LINE
  5
17B
330
1F
100
AcDbEntity
  8
0
100
AcDbLine
 10
17.23266023257455
 20
14.00675530008454
 30
0.0
 11
17.23266023257455
 21
4.007837332246961
 31
0.0
  0
LINE
  5
17C
330
1F
100
AcDbEntity
  8
0
100
AcDbLine
 10
-12.76733976742512
 20
4.007837332246781
 30
0.0
 11
-12.76733976742585
 21
14.0067553000849
 31
0.0
  0
LINE
  5
17D
330
1F
100
AcDbEntity
  8
0
100
AcDbLine
 10
17.23266023257455
 20
4.007837332246961
 30
0.0
 11
-12.76733976742512
 21
4.007837332246781
 31
0.0
  0
LINE
  5
17E
330
1F
100
AcDbEntity
  8
0
100
AcDbLine
 10
-17.76733976742615
 20
14.00675530008454
 30
0.0
 11
-17.76733976742543
 21
4.007837332246961
 31
0.0
  0
LINE
  5
17F
330
1F
100
AcDbEntity
  8
0
100
AcDbLine
 10
-47.76733976742582
 20
4.007837332246601
 30
0.0
 11
-47.76733976742511
 21
14.00675530008563
 31
0.0
  0
LINE
  5
180
330
1F
100
AcDbEntity
  8
0
100
AcDbLine
 10
-17.76733976742543
 20
4.007837332246961
 30
0.0
 11
-47.76733976742582
 21
4.007837332246601
 31
0.0
  0
LINE
  5
181
330
1F
100
AcDbEntity
  8
0
100
AcDbLine
 10
-52.76733976742541
 20
4.007837332246959
 30
0.0
 11
-52.76733976742614
 21
-5.991080635590621
 31
0.0
  0
LINE
  5
182
330
1F
100
AcDbEntity
  8
0
100
AcDbLine
 10
-82.76733976742581
 20
-5.991080635590441
 30
0.0
 11
-82.76733976742581
 21
4.007837332246599
 31
0.0
  0
LINE
  5
183
330
1F
100
AcDbEntity
  8
0
100
AcDbLine
 10
-52.76733976742541
 20
4.007837332246959
 30
0.0
 11
-82.76733976742581
 21
4.007837332246599
 31
0.0
  0
LINE
  5
184
330
1F
100
AcDbEntity
  8
0
100
AcDbLine
 10
-87.76733976742611
 20
14.00675530008454
 30
0.0
 11
-87.76733976742611
 21
4.007837332246781
 31
0.0
  0
LINE
  5
185
330
1F
100
AcDbEntity
  8
0
100
AcDbLine
 10
-117.7673397674258
 20
4.007837332246421
 30
0.0
 11
-117.7673397674258
 21
14.0067553000849
 31
0.0
  0
LINE
  5
186
330
1F
100
AcDbEntity
  8
0
100
AcDbLine
 10
-87.76733976742611
 20
4.007837332246781
 30
0.0
 11
-117.7673397674258
 21
4.007837332246421
 31
0.0
  0
LINE
  5
187
330
1F
100
AcDbEntity
  8
0
100
AcDbLine
 10
-122.7673397674261
 20
14.0067553000849
 30
0.0
 11
-122.7673397674254
 21
4.007837332247141
 31
0.0
  0
LINE
  5
188
330
1F
100
AcDbEntity
  8
0
100
AcDbLine
 10
-152.7673397674265
 20
4.007837332246781
 30
0.0
 11
-152.7673397674258
 21
14.00675530008472
 31
0.0
  0
LINE
  5
189
330
1F
100
AcDbEntity
  8
0
100
AcDbLine
 10
-122.7673397674254
 20
4.007837332247141
 30
0.0
 11
-152.7673397674265
 21
4.007837332246781
 31
0.0
  0
LINE
  5
18A
330
1F
100
AcDbEntity
  8
0
100
AcDbLine
 10
-157.7673397674253
 20
4.007837332246959
 30
0.0
 11
-157.7673397674239
 21
-5.991080635589899
 31
0.0
  0
LINE
  5
18B
330
1F
100
AcDbEntity
  8
0
100
AcDbLine
 10
-187.7673397674257
 20
-5.991080635590441
 30
0.0
 11
-187.7673397674254
 21
4.007837332246961
 31
0.0
  0
LINE
  5
18C
330
1F
100
AcDbEntity
  8
0
100
AcDbLine
 10
-157.7673397674253
 20
4.007837332246959
 30
0.0
 11
-187.7673397674254
 21
4.007837332246961
 31
0.0
  0
LINE
  5
18D
330
1F
100
AcDbEntity
  8
0
100
AcDbLine
 10
-157.7673397674246
 20
34.00459123576124
 30
0.0
 11
-157.7673397674253
 21
24.00567326792276
 31
0.0
  0
LINE
  5
18E
330
1F
100
AcDbEntity
  8
0
100
AcDbLine
 10
-157.7673397674246
 20
34.00459123576124
 30
0.0
 11
-187.7673397674261
 21
34.00459123576088
 31
0.0
  0
LINE
  5
18F
330
1F
100
AcDbEntity
  8
0
100
AcDbLine
 10
-122.7673397674261
 20
34.00459123576088
 30
0.0
 11
-122.7673397674254
 21
24.00567326792348
 31
0.0
  0
LINE
  5
190
330
1F
100
AcDbEntity
  8
0
100
AcDbLine
 10
-152.7673397674265
 20
24.00567326792312
 30
0.0
 11
-152.7673397674258
 21
34.00459123576106
 31
0.0
  0
LINE
  5
191
330
1F
100
AcDbEntity
  8
0
100
AcDbLine
 10
-122.7673397674261
 20
34.00459123576088
 30
0.0
 11
-152.7673397674258
 21
34.00459123576106
 31
0.0
  0
LINE
  5
192
330
1F
100
AcDbEntity
  8
0
100
AcDbLine
 10
-87.76733976742611
 20
44.00350920359919
 30
0.0
 11
-87.7673397674254
 21
34.00459123576124
 31
0.0
  0
LINE
  5
193
330
1F
100
AcDbEntity
  8
0
100
AcDbLine
 10
-117.7673397674251
 20
34.00459123576088
 30
0.0
 11
-117.7673397674258
 21
44.00350920359864
 31
0.0
  0
LINE
  5
194
330
1F
100
AcDbEntity
  8
0
100
AcDbLine
 10
-87.7673397674254
 20
34.00459123576124
 30
0.0
 11
-117.7673397674251
 21
34.00459123576088
 31
0.0
  0
LINE
  5
195
330
1F
100
AcDbEntity
  8
0
100
AcDbLine
 10
-52.76733976742541
 20
44.00350920359919
 30
0.0
 11
-52.76733976742614
 21
34.00459123576124
 31
0.0
  0
LINE
  5
196
330
1F
100
AcDbEntity
  8
0
100
AcDbLine
 10
-82.76733976742581
 20
34.00459123576124
 30
0.0
 11
-82.76733976742509
 21
44.00350920359954
 31
0.0
  0
LINE
  5
197
330
1F
100
AcDbEntity
  8
0
100
AcDbLine
 10
-52.76733976742614
 20
34.00459123576124
 30
0.0
 11
-82.76733976742581
 21
34.00459123576124
 31
0.0
  0
LINE
  5
198
330
1F
100
AcDbEntity
  8
0
100
AcDbLine
 10
-17.76733976742615
 20
44.00350920359882
 30
0.0
 11
-17.76733976742615
 21
34.00459123576052
 31
0.0
  0
LINE
  5
199
330
1F
100
AcDbEntity
  8
0
100
AcDbLine
 10
-47.76733976742582
 20
34.00459123576124
 30
0.0
 11
-47.76733976742582
 21
44.00350920359882
 31
0.0
  0
LINE
  5
19A
330
1F
100
AcDbEntity
  8
0
100
AcDbLine
 10
-17.76733976742615
 20
34.00459123576052
 30
0.0
 11
-47.76733976742582
 21
34.00459123576124
 31
0.0
  0
LINE
  5
19B
330
1F
100
AcDbEntity
  8
0
100
AcDbLine
 10
17.23266023257527
 20
44.00350920359919
 30
0.0
 11
17.23266023257455
 21
34.00459123576124
 31
0.0
  0
LINE
  5
19C
330
1F
100
AcDbEntity
  8
0
100
AcDbLine
 10
-12.76733976742585
 20
34.0045912357616
 30
0.0
 11
-12.76733976742512
 21
44.00350920359882
 31
0.0
  0
LINE
  5
19D
330
1F
100
AcDbEntity
  8
0
100
AcDbLine
 10
17.23266023257455
 20
34.00459123576124
 30
0.0
 11
-12.76733976742585
 21
34.0045912357616
 31
0.0
  0
LINE
  5
19E
330
1F
100
AcDbEntity
  8
0
100
AcDbLine
 10
17.23266023257527
 20
74.00026310711274
 30
0.0
 11
17.23266023257455
 21
64.00134513927497
 31
0.0
  0
LINE
  5
19F
330
1F
100
AcDbEntity
  8
0
100
AcDbLine
 10
-12.76733976742585
 20
64.00134513927516
 30
0.0
 11
-12.76733976742585
 21
74.00026310711274
 31
0.0
  0
LINE
  5
1A0
330
1F
100
AcDbEntity
  8
0
100
AcDbLine
 10
17.23266023257455
 20
64.00134513927497
 30
0.0
 11
-12.76733976742585
 21
64.00134513927516
 31
0.0
  0
LINE
  5
1A1
330
1F
100
AcDbEntity
  8
0
100
AcDbLine
 10
-17.76733976742543
 20
64.0013451392748
 30
0.0
 11
-17.76733976742543
 21
54.00242717143713
 31
0.0
  0
LINE
  5
1A2
330
1F
100
AcDbEntity
  8
0
100
AcDbLine
 10
-47.76733976742582
 20
54.00242717143713
 30
0.0
 11
-47.76733976742511
 21
64.00134513927551
 31
0.0
  0
LINE
  5
1A3
330
1F
100
AcDbEntity
  8
0
100
AcDbLine
 10
-17.76733976742543
 20
64.0013451392748
 30
0.0
 11
-47.76733976742511
 21
64.00134513927551
 31
0.0
  0
LINE
  5
1A4
330
1F
100
AcDbEntity
  8
0
100
AcDbLine
 10
-52.76733976742614
 20
64.0013451392748
 30
0.0
 11
-52.76733976742614
 21
54.00242717143767
 31
0.0
  0
LINE
  5
1A5
330
1F
100
AcDbEntity
  8
0
100
AcDbLine
 10
-82.76733976742581
 20
54.00242717143749
 30
0.0
 11
-82.76733976742581
 21
64.00134513927497
 31
0.0
  0
LINE
  5
1A6
330
1F
100
AcDbEntity
  8
0
100
AcDbLine
 10
-52.76733976742614
 20
64.0013451392748
 30
0.0
 11
-82.76733976742581
 21
64.00134513927497
 31
0.0
  0
LINE
  5
1A7
330
1F
100
AcDbEntity
  8
0
100
AcDbLine
 10
-87.76733976742611
 20
64.0013451392748
 30
0.0
 11
-87.76733976742611
 21
54.00242717143676
 31
0.0
  0
LINE
  5
1A8
330
1F
100
AcDbEntity
  8
0
100
AcDbLine
 10
-117.7673397674251
 20
54.00242717143713
 30
0.0
 11
-117.7673397674251
 21
64.00134513927534
 31
0.0
  0
LINE
  5
1A9
330
1F
100
AcDbEntity
  8
0
100
AcDbLine
 10
-87.76733976742611
 20
64.0013451392748
 30
0.0
 11
-117.7673397674251
 21
64.00134513927534
 31
0.0
  0
LINE
  5
1AA
330
1F
100
AcDbEntity
  8
0
100
AcDbLine
 10
-122.7673397674254
 20
74.00026310711347
 30
0.0
 11
-122.7673397674254
 21
64.00134513927588
 31
0.0
  0
LINE
  5
1AB
330
1F
100
AcDbEntity
  8
0
100
AcDbLine
 10
-152.7673397674258
 20
64.00134513927516
 30
0.0
 11
-152.7673397674258
 21
74.00026310711274
 31
0.0
  0
LINE
  5
1AC
330
1F
100
AcDbEntity
  8
0
100
AcDbLine
 10
-122.7673397674254
 20
64.00134513927588
 30
0.0
 11
-152.7673397674258
 21
64.00134513927516
 31
0.0
  0
LINE
  5
1AD
330
1F
100
AcDbEntity
  8
0
100
AcDbLine
 10
-157.7673397674246
 20
74.0002631071131
 30
0.0
 11
-157.7673397674253
 21
64.00134513927426
 31
0.0
  0
LINE
  5
1AE
330
1F
100
AcDbEntity
  8
0
100
AcDbLine
 10
-157.7673397674253
 20
64.00134513927426
 30
0.0
 11
-187.7673397674261
 21
64.0013451392748
 31
0.0
  0
LINE
  5
1AF
330
1F
100
AcDbEntity
  8
0
100
AcDbLine
 10
-12.76733976742512
 20
-85.98242437829444
 30
0.0
 11
17.23266023257455
 21
-85.9824243782948
 31
0.0
  0
LINE
  5
1B0
330
1F
100
AcDbEntity
  8
0
100
AcDbLine
 10
-187.7673397674254
 20
-85.9824243782948
 30
0.0
 11
-157.7673397674261
 21
-85.9824243782948
 31
0.0
  0
LINE
  5
1B1
330
1F
100
AcDbEntity
  8
0
100
AcDbLine
 10
-152.7673397674258
 20
-85.98242437829498
 30
0.0
 11
-122.7673397674261
 21
-85.98242437829462
 31
0.0
  0
LINE
  5
1B2
330
1F
100
AcDbEntity
  8
0
100
AcDbLine
 10
-117.7673397674251
 20
-85.98242437829462
 30
0.0
 11
-87.7673397674254
 21
-85.98242437829462
 31
0.0
  0
LINE
  5
1B3
330
1F
100
AcDbEntity
  8
0
100
AcDbLine
 10
-82.76733976742581
 20
-85.98242437829444
 30
0.0
 11
-52.76733976742541
 21
-85.98242437829444
 31
0.0
  0
LINE
  5
1B4
330
1F
100
AcDbEntity
  8
0
100
AcDbLine
 10
-47.76733976742582
 20
-85.98242437829533
 30
0.0
 11
-17.76733976742615
 21
-85.9824243782948
 31
0.0
  0
ENDSEC
  0
SECTION
  2
OBJECTS
  0
DICTIONARY
  5
C
330
0
100
AcDbDictionary
  3
ACAD_GROUP
350
D
  3
ACAD_LAYOUT
350
1A
  3
ACAD_MATERIAL
350
3B
  3
ACAD_MLEADERSTYLE
350
1D7
  3
ACAD_MLINESTYLE
350
17
  3
ACAD_PLOTSETTINGS
350
19
  3
ACAD_VISUALSTYLE
350
2A
  3
ACDBHEADERROUNDTRIPXREC
350
1B5
  3
ACDBVARIABLEDICTIONARY
350
1D5
  0
DICTIONARY
  5
D
102
{ACAD_REACTORS
330
C
102
}
330
C
100
AcDbDictionary
  0
DICTIONARY
  5
1A
102
{ACAD_REACTORS
330
C
102
}
330
C
100
AcDbDictionary
  0
DICTIONARY
  5
3B
102
{ACAD_REACTORS
330
C
102
}
330
C
100
AcDbDictionary
  3
BYBLOCK
350
3D
  3
BYLAYER
350
3C
  3
GLOBAL
350
3E
  0
DICTIONARY
  5
1D7
102
{ACAD_REACTORS
330
C
102
}
330
C
100
AcDbDictionary
  0
DICTIONARY
  5
17
102
{ACAD_REACTORS
330
C
102
}
330
C
100
AcDbDictionary
  3
STANDARD
350
18
  0
DICTIONARY
  5
19
102
{ACAD_REACTORS
330
C
102
}
330
C
100
AcDbDictionary
  0
DICTIONARY
  5
2A
102
{ACAD_REACTORS
330
C
102
}
330
C
100
AcDbDictionary
  3
2DWIREFRAME
350
2F
  3
3D_HIDDEN
350
31
  3
3DWIREFRAME
350
30
  3
BASIC
350
32
  3
BRIGHTEN
350
36
  3
COLORCHANGE
350
3A
  3
CONCEPTUAL
350
34
  3
DIM
350
35
  3
FACEPATTERN
350
39
  3
FLAT
350
2B
  3
FLATWITHEDGES
350
2C
  3
GOURAUD
350
2D
  3
GOURAUDWITHEDGES
350
2E
  3
LINEPATTERN
350
38
  3
REALISTIC
350
33
  3
THICKEN
350
37
  0
DICTIONARY
  5
1B5
102
{ACAD_REACTORS
330
C
102
}
330
C
100
AcDbDictionary
  3
CEPSNTYPE
350
1BE
  3
DIMSTYLEDATA
350
1D4
  3
FINGERPRINTGUID
350
1BF
  3
HYPERLINKBASE
350
1B8
  3
INSUNITS
350
1BD
  3
LAYOUTDICT
350
1BA
  3
LWETCUNION
350
1BC
  3
PLOTSETDICT
350
1BB
  3
PSVPSCALE
350
1C1
  3
PUCSBASE
350
1C4
  3
PUCSORGBACK
350
1CA
  3
PUCSORGBOTTOM
350
1C6
  3
PUCSORGFRONT
350
1C9
  3
PUCSORGLEFT
350
1C7
  3
PUCSORGRIGHT
350
1C8
  3
PUCSORGTOP
350
1C5
  3
PUCSORTHOREF
350
1C2
  3
PUCSORTHOVIEW
350
1C3
  3
STYLESHEET
350
1B9
  3
TSTACKALIGN
350
1B6
  3
TSTACKSIZE
350
1B7
  3
UCSBASE
350
1CD
  3
UCSORGBACK
350
1D3
  3
UCSORGBOTTOM
350
1CF
  3
UCSORGFRONT
350
1D2
  3
UCSORGLEFT
350
1D0
  3
UCSORGRIGHT
350
1D1
  3
UCSORGTOP
350
1CE
  3
UCSORTHOREF
350
1CB
  3
UCSORTHOVIEW
350
1CC
  3
VERSIONGUID
350
1C0
  0
DICTIONARY
  5
1D5
102
{ACAD_REACTORS
330
C
102
}
330
C
100
AcDbDictionary
  3
DIMASSOC
350
1D8
  3
HIDETEXT
350
1D9
  0
MATERIAL
  5
3D
102
{ACAD_REACTORS
330
3B
102
}
102
{ACAD_XDICTIONARY
360
1DC
102
}
330
3B
100
AcDbMaterial
  1
ByBlock
  0
MATERIAL
  5
3C
102
{ACAD_REACTORS
330
3B
102
}
102
{ACAD_XDICTIONARY
360
1DA
102
}
330
3B
100
AcDbMaterial
  1
ByLayer
  0
MATERIAL
  5
3E
102
{ACAD_REACTORS
330
3B
102
}
102
{ACAD_XDICTIONARY
360
1DE
102
}
330
3B
100
AcDbMaterial
  1
Global
  0
MLINESTYLE
  5
18
102
{ACAD_REACTORS
330
17
102
}
330
17
100
AcDbMlineStyle
  2
Standard
 70
     0
  3

 62
   256
 51
90.0
 52
90.0
 71
     2
 49
0.5
 62
   256
  6
BYLAYER
 49
-0.5
 62
   256
  6
BYLAYER
  0
ACAD_PROXY_OBJECT
  5
2F
102
{ACAD_REACTORS
330
2A
102
}
330
2A
100
AcDbProxyObject
 90
      499
 91
      501
 93
      436
310
42CC9915DA5C99599C985B595049028333333333333E3BF0000000000000FB0107901411070040501600405405064090741402480A0340
1001
ACAD
1000
AcDbSavedByObjectVersion
1070
     0
  0
ACAD_PROXY_OBJECT
  5
31
102
{ACAD_REACTORS
330
2A
102
}
330
2A
100
AcDbProxyObject
 90
      499
 91
      501
 93
      500
310
424CD108121A5919195B90640502408333333333333E3BF0000000000000FB01079024090700405020000000000001110200405405064090740C02480A0340
1001
ACAD
1000
AcDbSavedByObjectVersion
1070
     0
  0
ACAD_PROXY_OBJECT
  5
30
102
{ACAD_REACTORS
330
2A
102
}
330
2A
100
AcDbProxyObject
 90
      499
 91
      501
 93
      436
310
42CCD915DA5C99599C985B595059028333333333333E3BF0000000000000FB0107901411070040501600405405064090741402480A0340
1001
ACAD
1000
AcDbSavedByObjectVersion
1070
     0
  0
ACAD_PROXY_OBJECT
  5
32
102
{ACAD_REACTORS
330
2A
102
}
330
2A
100
AcDbProxyObject
 90
      499
 91
      501
 93
      388
310
4150985CDA58D07406404333333333333E3BF0000000000000FB0107A41107004050150841D405064090741402480A0350
1001
ACAD
1000
AcDbSavedByObjectVersion
1070
     0
  0
ACAD_PROXY_OBJECT
  5
36
102
{ACAD_REACTORS
330
2A
102
}
330
2A
100
AcDbProxyObject
 90
      499
 91
      501
 93
      428
310
42109C9A59DA1D195B90C409028333333333333E3BF0000000000000FB010790141107004050150841D405064090741402480A029950
1001
ACAD
1000
AcDbSavedByObjectVersion
1070
     0
  0
ACAD_PROXY_OBJECT
  5
3A
102
{ACAD_REACTORS
330
2A
102
}
330
2A
100
AcDbProxyObject
 90
      499
 91
      501
 93
      452
310
42D0DBDB1BDC90DA185B99D95104090240C333333333333E3BF0000000000000FB0108901411070040501508421405064090741402480A0350
1001
ACAD
1000
AcDbSavedByObjectVersion
1070
     0
  0
ACAD_PROXY_OBJECT
  5
34
102
{ACAD_REACTORS
330
2A
102
}
330
2A
100
AcDbProxyObject
 90
      499
 91
      501
 93
      500
310
4290DBDB98D95C1D1D585B10940D028333333333333E3BF0000000000000FB0107902409070040501000000000000111010841D405064090740C02480A0340
1001
ACAD
1000
AcDbSavedByObjectVersion
1070
     0
  0
ACAD_PROXY_OBJECT
  5
35
102
{ACAD_REACTORS
330
2A
102
}
330
2A
100
AcDbProxyObject
 90
      499
 91
      501
 93
      412
310
40D11A5B50B409028333333333333E3BF0000000000000FB010790141107004050150841D405064090741402480A02677FFFFFD0
1001
ACAD
1000
AcDbSavedByObjectVersion
1070
     0
  0
ACAD_PROXY_OBJECT
  5
39
102
{ACAD_REACTORS
330
2A
102
}
330
2A
100
AcDbProxyObject
 90
      499
 91
      501
 93
      444
310
42D19858D95C185D1D195C9B90F409028333333333333E3BF0000000000000FB010790141107004050150841D405064090741402480A0350
1001
ACAD
1000
AcDbSavedByObjectVersion
1070
     0
  0
ACAD_PROXY_OBJECT
  5
2B
102
{ACAD_REACTORS
330
2A
102
}
330
2A
100
AcDbProxyObject
 90
      499
 91
      501
 93
      388
310
41119B185D240901404333333333333E3BF0000000000000F9010740A41107004050150841D405064090741402480A1B50
1001
ACAD
1000
AcDbSavedByObjectVersion
1070
     0
  0
ACAD_PROXY_OBJECT
  5
2C
102
{ACAD_REACTORS
330
2A
102
}
330
2A
100
AcDbProxyObject
 90
      499
 91
      501
 93
      476
310
43519B185D15DA5D1A115919D95CD0140901404333333333333E3BF0000000000000F9010740901411070040501600405405064090741402480A1B50
1001
ACAD
1000
AcDbSavedByObjectVersion
1070
     0
  0
ACAD_PROXY_OBJECT
  5
2D
102
{ACAD_REACTORS
330
2A
102
}
330
2A
100
AcDbProxyObject
 90
      499
 91
      501
 93
      412
310
41D1DBDD5C985D5910240902404333333333333E3BF0000000000000F9010740A411070040501641D405064090741402480A1B50
1001
ACAD
1000
AcDbSavedByObjectVersion
1070
     0
  0
ACAD_PROXY_OBJECT
  5
2E
102
{ACAD_REACTORS
330
2A
102
}
330
2A
100
AcDbProxyObject
 90
      499
 91
      501
 93
      500
310
4411DBDD5C985D5915DA5D1A115919D95CD0340902404333333333333E3BF0000000000000F9010740901411070040501600405405064090741402480A1B50
1001
ACAD
1000
AcDbSavedByObjectVersion
1070
     0
  0
ACAD_PROXY_OBJECT
  5
38
102
{ACAD_REACTORS
330
2A
102
}
330
2A
100
AcDbProxyObject
 90
      499
 91
      501
 93
      444
310
42D31A5B995C185D1D195C9B90E409028333333333333E3BF0000000000000FB010790141107004050750841D405064090741402483A0350
1001
ACAD
1000
AcDbSavedByObjectVersion
1070
     0
  0
ACAD_PROXY_OBJECT
  5
33
102
{ACAD_REACTORS
330
2A
102
}
330
2A
100
AcDbProxyObject
 90
      499
 91
      501
 93
      420
310
425499585B1A5CDD1A58D08409028333333333333E3BF0000000000000FB01079019070040501508421405064090741402480A1B40
1001
ACAD
1000
AcDbSavedByObjectVersion
1070
     0
  0
ACAD_PROXY_OBJECT
  5
37
102
{ACAD_REACTORS
330
2A
102
}
330
2A
100
AcDbProxyObject
 90
      499
 91
      501
 93
      412
310
41D51A1A58DAD95B90D409028333333333333E3BF0000000000000FB010790141107004050150C41D405064090741402480A0350
1001
ACAD
1000
AcDbSavedByObjectVersion
1070
     0
  0
XRECORD
  5
1BE
102
{ACAD_REACTORS
330
1B5
102
}
330
1B5
100
AcDbXrecord
 90
        0
  0
XRECORD
  5
1D4
102
{ACAD_REACTORS
330
1B5
102
}
330
1B5
100
AcDbXrecord
1000
DSTYLE
1002
{
1070
   340
340
11
1002
}
  0
XRECORD
  5
1BF
102
{ACAD_REACTORS
330
1B5
102
}
330
1B5
100
AcDbXrecord
  1
{470E4950-6826-439D-A48A-878781AB8EEF}
  0
XRECORD
  5
1B8
102
{ACAD_REACTORS
330
1B5
102
}
330
1B5
100
AcDbXrecord
  1

  0
XRECORD
  5
1BD
102
{ACAD_REACTORS
330
1B5
102
}
330
1B5
100
AcDbXrecord
 90
        1
  0
XRECORD
  5
1BA
102
{ACAD_REACTORS
330
1B5
102
}
330
1B5
100
AcDbXrecord
340
1A
  0
XRECORD
  5
1BC
102
{ACAD_REACTORS
330
1B5
102
}
330
1B5
100
AcDbXrecord
 90
    10781
  0
XRECORD
  5
1BB
102
{ACAD_REACTORS
330
1B5
102
}
330
1B5
100
AcDbXrecord
340
19
  0
XRECORD
  5
1C1
102
{ACAD_REACTORS
330
1B5
102
}
330
1B5
100
AcDbXrecord
 40
0.0
  0
XRECORD
  5
1C4
102
{ACAD_REACTORS
330
1B5
102
}
330
1B5
100
AcDbXrecord
340
0
  0
XRECORD
  5
1CA
102
{ACAD_REACTORS
330
1B5
102
}
330
1B5
100
AcDbXrecord
 10
0.0
 20
0.0
 30
0.0
  0
XRECORD
  5
1C6
102
{ACAD_REACTORS
330
1B5
102
}
330
1B5
100
AcDbXrecord
 10
0.0
 20
0.0
 30
0.0
  0
XRECORD
  5
1C9
102
{ACAD_REACTORS
330
1B5
102
}
330
1B5
100
AcDbXrecord
 10
0.0
 20
0.0
 30
0.0
  0
XRECORD
  5
1C7
102
{ACAD_REACTORS
330
1B5
102
}
330
1B5
100
AcDbXrecord
 10
0.0
 20
0.0
 30
0.0
  0
XRECORD
  5
1C8
102
{ACAD_REACTORS
330
1B5
102
}
330
1B5
100
AcDbXrecord
 10
0.0
 20
0.0
 30
0.0
  0
XRECORD
  5
1C5
102
{ACAD_REACTORS
330
1B5
102
}
330
1B5
100
AcDbXrecord
 10
0.0
 20
0.0
 30
0.0
  0
XRECORD
  5
1C2
102
{ACAD_REACTORS
330
1B5
102
}
330
1B5
100
AcDbXrecord
340
0
  0
XRECORD
  5
1C3
102
{ACAD_REACTORS
330
1B5
102
}
330
1B5
100
AcDbXrecord
 70
     0
  0
XRECORD
  5
1B9
102
{ACAD_REACTORS
330
1B5
102
}
330
1B5
100
AcDbXrecord
  1

  0
XRECORD
  5
1B6
102
{ACAD_REACTORS
330
1B5
102
}
330
1B5
100
AcDbXrecord
 90
        1
  0
XRECORD
  5
1B7
102
{ACAD_REACTORS
330
1B5
102
}
330
1B5
100
AcDbXrecord
 90
       70
  0
XRECORD
  5
1CD
102
{ACAD_REACTORS
330
1B5
102
}
330
1B5
100
AcDbXrecord
340
0
  0
XRECORD
  5
1D3
102
{ACAD_REACTORS
330
1B5
102
}
330
1B5
100
AcDbXrecord
 10
0.0
 20
0.0
 30
0.0
  0
XRECORD
  5
1CF
102
{ACAD_REACTORS
330
1B5
102
}
330
1B5
100
AcDbXrecord
 10
0.0
 20
0.0
 30
0.0
  0
XRECORD
  5
1D2
102
{ACAD_REACTORS
330
1B5
102
}
330
1B5
100
AcDbXrecord
 10
0.0
 20
0.0
 30
0.0
  0
XRECORD
  5
1D0
102
{ACAD_REACTORS
330
1B5
102
}
330
1B5
100
AcDbXrecord
 10
0.0
 20
0.0
 30
0.0
  0
XRECORD
  5
1D1
102
{ACAD_REACTORS
330
1B5
102
}
330
1B5
100
AcDbXrecord
 10
0.0
 20
0.0
 30
0.0
  0
XRECORD
  5
1CE
102
{ACAD_REACTORS
330
1B5
102
}
330
1B5
100
AcDbXrecord
 10
0.0
 20
0.0
 30
0.0
  0
XRECORD
  5
1CB
102
{ACAD_REACTORS
330
1B5
102
}
330
1B5
100
AcDbXrecord
340
0
  0
XRECORD
  5
1CC
102
{ACAD_REACTORS
330
1B5
102
}
330
1B5
100
AcDbXrecord
 70
     0
  0
XRECORD
  5
1C0
102
{ACAD_REACTORS
330
1B5
102
}
330
1B5
100
AcDbXrecord
  1
{FAEB1C32-E019-11D5-929B-00C0DF256EC4}
  0
DICTIONARYVAR
  5
1D8
102
{ACAD_REACTORS
330
1D5
102
}
330
1D5
100
DictionaryVariables
280
     0
  1
2
  0
DICTIONARYVAR
  5
1D9
102
{ACAD_REACTORS
330
1D5
102
}
330
1D5
100
DictionaryVariables
280
     0
  1
1
  0
DICTIONARY
  5
1DC
330
3D
100
AcDbDictionary
280
     1
  3
ACAD_XREC_ROUNDTRIP
360
1DD
  0
DICTIONARY
  5
1DA
330
3C
100
AcDbDictionary
280
     1
  3
ACAD_XREC_ROUNDTRIP
360
1DB
  0
DICTIONARY
  5
1DE
330
3E
100
AcDbDictionary
280
     1
  3
ACAD_XREC_ROUNDTRIP
360
1DF
  0
XRECORD
  5
1DD
102
{ACAD_REACTORS
330
1DC
102
}
330
1DC
100
AcDbXrecord
102
MATERIAL
148
0.0
149
0.0
149
0.0
 93
        0
 94
      127
282
     0
 72
     1
 77
     1
171
     1
175
     1
179
     1
273
     0
  0
XRECORD
  5
1DB
102
{ACAD_REACTORS
330
1DA
102
}
330
1DA
100
AcDbXrecord
102
MATERIAL
148
0.0
149
0.0
149
0.0
 93
        0
 94
      127
282
     0
 72
     1
 77
     1
171
     1
175
     1
179
     1
273
     0
  0
XRECORD
  5
1DF
102
{ACAD_REACTORS
330
1DE
102
}
330
1DE
100
AcDbXrecord
102
MATERIAL
148
0.0
149
0.0
149
0.0
 93
        0
 94
      127
282
     0
 72
     1
 77
     1
171
     1
175
     1
179
     1
273
     0
  0
ENDSEC
  0
EOF
