<?xml version="1.0" encoding="UTF-8" standalone="no"?>
<!-- Created with Inkscape (http://www.inkscape.org/) -->

<svg
   xmlns:dc="http://purl.org/dc/elements/1.1/"
   xmlns:cc="http://creativecommons.org/ns#"
   xmlns:rdf="http://www.w3.org/1999/02/22-rdf-syntax-ns#"
   xmlns:svg="http://www.w3.org/2000/svg"
   xmlns="http://www.w3.org/2000/svg"
   xmlns:sodipodi="http://sodipodi.sourceforge.net/DTD/sodipodi-0.dtd"
   xmlns:inkscape="http://www.inkscape.org/namespaces/inkscape"
   width="210mm"
   height="297mm"
   id="svg3125"
   version="1.1"
   inkscape:version="0.48.3.1 r9886"
   sodipodi:docname="baseball_ex1.svg">
  <defs
     id="defs3127">
    <marker
       inkscape:stockid="Arrow1Mend"
       orient="auto"
       refY="0.0"
       refX="0.0"
       id="Arrow1Mend"
       style="overflow:visible;">
      <path
         id="path4142"
         d="M 0.0,0.0 L 5.0,-5.0 L -12.5,0.0 L 5.0,5.0 L 0.0,0.0 z "
         style="fill-rule:evenodd;stroke:#000000;stroke-width:1.0pt;"
         transform="scale(0.4) rotate(180) translate(10,0)" />
    </marker>
    <marker
       inkscape:stockid="Arrow1Mend"
       orient="auto"
       refY="0"
       refX="0"
       id="Arrow1Mend-4"
       style="overflow:visible">
      <path
         inkscape:connector-curvature="0"
         id="path4142-3"
         d="M 0,0 5,-5 -12.5,0 5,5 0,0 z"
         style="fill-rule:evenodd;stroke:#000000;stroke-width:1pt"
         transform="matrix(-0.4,0,0,-0.4,-4,0)" />
    </marker>
    <marker
       inkscape:stockid="Arrow1Mend"
       orient="auto"
       refY="0"
       refX="0"
       id="Arrow1Mend-9"
       style="overflow:visible">
      <path
         inkscape:connector-curvature="0"
         id="path4142-4"
         d="M 0,0 5,-5 -12.5,0 5,5 0,0 z"
         style="fill-rule:evenodd;stroke:#000000;stroke-width:1pt"
         transform="matrix(-0.4,0,0,-0.4,-4,0)" />
    </marker>
    <marker
       inkscape:stockid="Arrow1Mend"
       orient="auto"
       refY="0"
       refX="0"
       id="marker4630"
       style="overflow:visible">
      <path
         inkscape:connector-curvature="0"
         id="path4632"
         d="M 0,0 5,-5 -12.5,0 5,5 0,0 z"
         style="fill-rule:evenodd;stroke:#000000;stroke-width:1pt"
         transform="matrix(-0.4,0,0,-0.4,-4,0)" />
    </marker>
    <marker
       inkscape:stockid="Arrow1Mend"
       orient="auto"
       refY="0"
       refX="0"
       id="marker4630-4"
       style="overflow:visible">
      <path
         inkscape:connector-curvature="0"
         id="path4632-0"
         d="M 0,0 5,-5 -12.5,0 5,5 0,0 z"
         style="fill-rule:evenodd;stroke:#000000;stroke-width:1pt"
         transform="matrix(-0.4,0,0,-0.4,-4,0)" />
    </marker>
    <marker
       inkscape:stockid="Arrow1Mend"
       orient="auto"
       refY="0"
       refX="0"
       id="marker4630-6"
       style="overflow:visible">
      <path
         inkscape:connector-curvature="0"
         id="path4632-5"
         d="M 0,0 5,-5 -12.5,0 5,5 0,0 z"
         style="fill-rule:evenodd;stroke:#000000;stroke-width:1pt"
         transform="matrix(-0.4,0,0,-0.4,-4,0)" />
    </marker>
    <marker
       inkscape:stockid="Arrow1Mend"
       orient="auto"
       refY="0"
       refX="0"
       id="marker4630-64"
       style="overflow:visible">
      <path
         inkscape:connector-curvature="0"
         id="path4632-3"
         d="M 0,0 5,-5 -12.5,0 5,5 0,0 z"
         style="fill-rule:evenodd;stroke:#000000;stroke-width:1pt"
         transform="matrix(-0.4,0,0,-0.4,-4,0)" />
    </marker>
    <marker
       inkscape:stockid="Arrow1Mend"
       orient="auto"
       refY="0"
       refX="0"
       id="marker8020"
       style="overflow:visible">
      <path
         inkscape:connector-curvature="0"
         id="path8022"
         d="M 0,0 5,-5 -12.5,0 5,5 0,0 z"
         style="fill-rule:evenodd;stroke:#000000;stroke-width:1pt"
         transform="matrix(-0.4,0,0,-0.4,-4,0)" />
    </marker>
    <marker
       inkscape:stockid="Arrow1Mend"
       orient="auto"
       refY="0"
       refX="0"
       id="marker4630-8"
       style="overflow:visible">
      <path
         inkscape:connector-curvature="0"
         id="path4632-6"
         d="M 0,0 5,-5 -12.5,0 5,5 0,0 z"
         style="fill-rule:evenodd;stroke:#000000;stroke-width:1pt"
         transform="matrix(-0.4,0,0,-0.4,-4,0)" />
    </marker>
    <marker
       inkscape:stockid="Arrow1Mend"
       orient="auto"
       refY="0"
       refX="0"
       id="marker8020-2"
       style="overflow:visible">
      <path
         inkscape:connector-curvature="0"
         id="path8022-8"
         d="M 0,0 5,-5 -12.5,0 5,5 0,0 z"
         style="fill-rule:evenodd;stroke:#000000;stroke-width:1pt"
         transform="matrix(-0.4,0,0,-0.4,-4,0)" />
    </marker>
    <marker
       inkscape:stockid="Arrow1Mend"
       orient="auto"
       refY="0"
       refX="0"
       id="marker4630-0"
       style="overflow:visible">
      <path
         inkscape:connector-curvature="0"
         id="path4632-69"
         d="M 0,0 5,-5 -12.5,0 5,5 0,0 z"
         style="fill-rule:evenodd;stroke:#000000;stroke-width:1pt"
         transform="matrix(-0.4,0,0,-0.4,-4,0)" />
    </marker>
    <marker
       inkscape:stockid="Arrow1Mend"
       orient="auto"
       refY="0"
       refX="0"
       id="marker4630-40"
       style="overflow:visible">
      <path
         inkscape:connector-curvature="0"
         id="path4632-68"
         d="M 0,0 5,-5 -12.5,0 5,5 0,0 z"
         style="fill-rule:evenodd;stroke:#000000;stroke-width:1pt"
         transform="matrix(-0.4,0,0,-0.4,-4,0)" />
    </marker>
    <marker
       inkscape:stockid="Arrow1Mend"
       orient="auto"
       refY="0"
       refX="0"
       id="marker8220"
       style="overflow:visible">
      <path
         inkscape:connector-curvature="0"
         id="path8222"
         d="M 0,0 5,-5 -12.5,0 5,5 0,0 z"
         style="fill-rule:evenodd;stroke:#000000;stroke-width:1pt"
         transform="matrix(-0.4,0,0,-0.4,-4,0)" />
    </marker>
    <marker
       inkscape:stockid="Arrow1Mend"
       orient="auto"
       refY="0"
       refX="0"
       id="marker4630-2"
       style="overflow:visible">
      <path
         inkscape:connector-curvature="0"
         id="path4632-9"
         d="M 0,0 5,-5 -12.5,0 5,5 0,0 z"
         style="fill-rule:evenodd;stroke:#000000;stroke-width:1pt"
         transform="matrix(-0.4,0,0,-0.4,-4,0)" />
    </marker>
    <marker
       inkscape:stockid="Arrow1Mend"
       orient="auto"
       refY="0"
       refX="0"
       id="marker4630-84"
       style="overflow:visible">
      <path
         inkscape:connector-curvature="0"
         id="path4632-97"
         d="M 0,0 5,-5 -12.5,0 5,5 0,0 z"
         style="fill-rule:evenodd;stroke:#000000;stroke-width:1pt"
         transform="matrix(-0.4,0,0,-0.4,-4,0)" />
    </marker>
    <marker
       inkscape:stockid="Arrow1Mend"
       orient="auto"
       refY="0"
       refX="0"
       id="marker8330"
       style="overflow:visible">
      <path
         inkscape:connector-curvature="0"
         id="path8332"
         d="M 0,0 5,-5 -12.5,0 5,5 0,0 z"
         style="fill-rule:evenodd;stroke:#000000;stroke-width:1pt"
         transform="matrix(-0.4,0,0,-0.4,-4,0)" />
    </marker>
  </defs>
  <sodipodi:namedview
     id="base"
     pagecolor="#ffffff"
     bordercolor="#666666"
     borderopacity="1.0"
     inkscape:pageopacity="0.0"
     inkscape:pageshadow="2"
     inkscape:zoom="0.49497475"
     inkscape:cx="489.84955"
     inkscape:cy="880.10262"
     inkscape:document-units="px"
     inkscape:current-layer="layer1"
     showgrid="false"
     inkscape:window-width="1280"
     inkscape:window-height="785"
     inkscape:window-x="0"
     inkscape:window-y="15"
     inkscape:window-maximized="0"
     showguides="true"
     inkscape:guide-bbox="true">
    <inkscape:grid
       type="xygrid"
       id="grid3133" />
    <sodipodi:guide
       orientation="1,0"
       position="610,870"
       id="guide5826" />
    <sodipodi:guide
       orientation="0,1"
       position="670,860"
       id="guide5828" />
  </sodipodi:namedview>
  <metadata
     id="metadata3130">
    <rdf:RDF>
      <cc:Work
         rdf:about="">
        <dc:format>image/svg+xml</dc:format>
        <dc:type
           rdf:resource="http://purl.org/dc/dcmitype/StillImage" />
        <dc:title></dc:title>
      </cc:Work>
    </rdf:RDF>
  </metadata>
  <g
     inkscape:label="Calque 1"
     inkscape:groupmode="layer"
     id="layer1">
    <g
       id="g8454">
      <path
         transform="translate(-489,-71.362176)"
         d="m 720,192.36218 a 110,110 0 1 1 -220,0 110,110 0 1 1 220,0 z"
         sodipodi:ry="110"
         sodipodi:rx="110"
         sodipodi:cy="192.36218"
         sodipodi:cx="610"
         id="path5830"
         style="fill:#ffffff;fill-opacity:1;stroke:#000000;stroke-width:2;stroke-linecap:round;stroke-linejoin:round;stroke-miterlimit:4;stroke-opacity:1;stroke-dasharray:2, 4;stroke-dashoffset:0"
         sodipodi:type="arc" />
      <path
         transform="matrix(0.70710678,-0.70710678,0.70710678,0.70710678,-413.21865,336.31454)"
         d="m 570,112.36218 a 40,40 0 1 1 -80,0 40,40 0 1 1 80,0 z"
         sodipodi:ry="40"
         sodipodi:rx="40"
         sodipodi:cy="112.36218"
         sodipodi:cx="530"
         id="path5747"
         style="fill:#ffff00;fill-opacity:1;stroke:#000000;stroke-width:2;stroke-linecap:round;stroke-linejoin:round;stroke-miterlimit:4;stroke-opacity:1;stroke-dasharray:none;stroke-dashoffset:0"
         sodipodi:type="arc" />
      <rect
         transform="matrix(0.70710678,0.70710678,-0.70710678,0.70710678,0,0)"
         y="-10.000007"
         x="37.982761"
         height="20"
         width="20"
         id="rect3953-3-3"
         style="fill:#ff0000;fill-opacity:1;stroke:#000000;stroke-width:2;stroke-linecap:round;stroke-linejoin:round;stroke-miterlimit:4;stroke-opacity:1;stroke-dasharray:none;stroke-dashoffset:0" />
      <rect
         transform="matrix(0.70710678,0.70710678,-0.70710678,0.70710678,0,0)"
         y="-10.000007"
         x="57.982761"
         height="20"
         width="20"
         id="rect3955-1-5"
         style="fill:#0000ff;fill-opacity:1;stroke:#000000;stroke-width:2;stroke-linecap:round;stroke-linejoin:round;stroke-miterlimit:4;stroke-opacity:1;stroke-dasharray:none;stroke-dashoffset:0" />
      <path
         d="m 570,112.36218 a 40,40 0 1 1 -80,0 40,40 0 1 1 80,0 z"
         sodipodi:ry="40"
         sodipodi:rx="40"
         sodipodi:cy="112.36218"
         sodipodi:cx="530"
         id="path5747-1"
         style="fill:#00ff00;fill-opacity:1;stroke:#000000;stroke-width:2;stroke-linecap:round;stroke-linejoin:round;stroke-miterlimit:4;stroke-opacity:1;stroke-dasharray:none;stroke-dashoffset:0"
         sodipodi:type="arc"
         transform="matrix(-0.70710678,-0.70710678,0.70710678,-0.70710678,496.31455,495.21865)" />
      <rect
         transform="matrix(0.70710678,-0.70710678,0.70710678,0.70710678,0,0)"
         y="161.11981"
         x="93.137093"
         height="20"
         width="20"
         id="rect3953-3-3-2"
         style="fill:#ffff00;fill-opacity:1;stroke:#000000;stroke-width:2;stroke-linecap:round;stroke-linejoin:round;stroke-miterlimit:4;stroke-opacity:1;stroke-dasharray:none;stroke-dashoffset:0" />
      <rect
         transform="matrix(0.70710678,-0.70710678,0.70710678,0.70710678,0,0)"
         y="161.11981"
         x="113.13709"
         height="20"
         width="20"
         id="rect3955-1-5-8"
         style="fill:#0000ff;fill-opacity:1;stroke:#000000;stroke-width:2;stroke-linecap:round;stroke-linejoin:round;stroke-miterlimit:4;stroke-opacity:1;stroke-dasharray:none;stroke-dashoffset:0" />
      <path
         d="m 570,112.36218 a 40,40 0 1 1 -80,0 40,40 0 1 1 80,0 z"
         sodipodi:ry="40"
         sodipodi:rx="40"
         sodipodi:cy="112.36218"
         sodipodi:cx="530"
         id="path5747-8"
         style="fill:#ff0000;fill-opacity:1;stroke:#000000;stroke-width:2;stroke-linecap:round;stroke-linejoin:round;stroke-miterlimit:4;stroke-opacity:1;stroke-dasharray:none;stroke-dashoffset:0"
         sodipodi:type="arc"
         transform="matrix(-0.70710678,-0.70710678,0.70710678,-0.70710678,336.31454,655.21864)" />
      <rect
         transform="matrix(0.70710678,-0.70710678,0.70710678,0.70710678,0,0)"
         y="161.11981"
         x="-133.13708"
         height="20"
         width="20"
         id="rect3953-3-3-7"
         style="fill:#ffff00;fill-opacity:1;stroke:#000000;stroke-width:2;stroke-linecap:round;stroke-linejoin:round;stroke-miterlimit:4;stroke-opacity:1;stroke-dasharray:none;stroke-dashoffset:0" />
      <rect
         transform="matrix(0.70710678,-0.70710678,0.70710678,0.70710678,0,0)"
         y="161.11981"
         x="-113.13708"
         height="20"
         width="20"
         id="rect3955-1-5-5"
         style="fill:#00ff00;fill-opacity:1;stroke:#000000;stroke-width:2;stroke-linecap:round;stroke-linejoin:round;stroke-miterlimit:4;stroke-opacity:1;stroke-dasharray:none;stroke-dashoffset:0" />
      <path
         d="m 570,112.36218 a 40,40 0 1 1 -80,0 40,40 0 1 1 80,0 z"
         sodipodi:ry="40"
         sodipodi:rx="40"
         sodipodi:cy="112.36218"
         sodipodi:cx="530"
         id="path5747-2"
         style="fill:#0000ff;fill-opacity:1;stroke:#000000;stroke-width:2;stroke-linecap:round;stroke-linejoin:round;stroke-miterlimit:4;stroke-opacity:1;stroke-dasharray:none;stroke-dashoffset:0"
         sodipodi:type="arc"
         transform="matrix(0.70710678,-0.70710678,0.70710678,0.70710678,-253.21866,496.31453)" />
      <rect
         transform="matrix(0.70710678,0.70710678,-0.70710678,0.70710678,0,0)"
         y="-10.000007"
         x="264.2569"
         height="20"
         width="20"
         id="rect3953-3-3-8"
         style="fill:#00ff00;fill-opacity:1;stroke:#000000;stroke-width:2;stroke-linecap:round;stroke-linejoin:round;stroke-miterlimit:4;stroke-opacity:1;stroke-dasharray:none;stroke-dashoffset:0" />
      <rect
         transform="matrix(0.70710678,0.70710678,-0.70710678,0.70710678,0,0)"
         y="-10.000007"
         x="284.2569"
         height="20"
         width="20"
         id="rect3955-1-5-0"
         style="fill:#ffffff;fill-opacity:1;stroke:#000000;stroke-width:2;stroke-linecap:round;stroke-linejoin:round;stroke-miterlimit:4;stroke-opacity:1;stroke-dasharray:none;stroke-dashoffset:0" />
      <path
         transform="translate(8.3729975,1.2638144)"
         d="m 110,122.36218 c 2.14879,0.71627 0.0946,3.24991 -1.19048,3.57143 -3.48255,0.87131 -5.99395,-2.89173 -5.95238,-5.95238 0.0744,-5.47479 5.66077,-8.90501 10.71429,-8.33333 7.41623,0.83896 11.87519,8.45756 10.71428,15.47619 -1.5473,9.35472 -11.26292,14.86893 -20.23809,13.09524 -11.294341,-2.23202 -17.874527,-14.07205 -15.476192,-25.00001 2.904706,-13.23521 16.883232,-20.886921 29.761902,-17.857138 15.17707,3.570498 23.90359,19.695698 20.2381,34.523808 -1.56167,6.31747 -5.19159,12.03011 -10.17876,16.19991"
         sodipodi:t0="0"
         sodipodi:argument="-18.527805"
         sodipodi:radius="31.622776"
         sodipodi:revolution="2.0999999"
         sodipodi:expansion="1"
         sodipodi:cy="122.36218"
         sodipodi:cx="110"
         id="path7291"
         style="fill:none;stroke:#000000;stroke-width:3;stroke-linecap:butt;stroke-linejoin:miter;stroke-miterlimit:4;stroke-opacity:1;stroke-dasharray:none;marker-end:url(#marker4630)"
         sodipodi:type="spiral" />
      <g
         id="g8172">
        <path
           style="fill:none;stroke:#000000;stroke-width:3;stroke-linecap:butt;stroke-linejoin:miter;stroke-miterlimit:4;stroke-opacity:1;stroke-dasharray:none;marker-end:url(#marker4630)"
           d="m 241.59602,67.683446 c 10.30554,23.213827 14.53705,49.762374 8.40398,74.678734 -1.97987,8.68549 -4.89527,17.13973 -8.40398,25.32125"
           id="path6095-3"
           inkscape:connector-curvature="0" />
        <rect
           style="fill:#ffff00;fill-opacity:1;stroke:#000000;stroke-width:2;stroke-linecap:round;stroke-linejoin:round;stroke-miterlimit:4;stroke-opacity:1;stroke-dasharray:none;stroke-dashoffset:0"
           id="rect3953-3-3-2-0"
           width="20"
           height="20"
           x="-132.36218"
           y="260"
           transform="matrix(0,-1,1,0,0,0)" />
      </g>
    </g>
    <g
       id="g8436"
       transform="translate(-61.71572,1.715712)">
      <path
         transform="translate(-118.28428,-71.715712)"
         d="m 720,192.36218 c 0,60.75133 -49.24868,110 -110,110 -60.75132,0 -110,-49.24867 -110,-110 0,-60.75132 49.24868,-109.999997 110,-109.999997 60.75132,0 110,49.248677 110,109.999997 z"
         sodipodi:ry="110"
         sodipodi:rx="110"
         sodipodi:cy="192.36218"
         sodipodi:cx="610"
         id="path5830-8"
         style="fill:#ffffff;fill-opacity:1;stroke:#000000;stroke-width:2;stroke-linecap:round;stroke-linejoin:round;stroke-miterlimit:4;stroke-opacity:1;stroke-dasharray:2, 4;stroke-dashoffset:0"
         sodipodi:type="arc" />
      <path
         transform="matrix(0.70710678,-0.70710678,0.70710678,0.70710678,-42.502935,335.96101)"
         d="m 570,112.36218 c 0,22.09139 -17.90861,40 -40,40 -22.09139,0 -40,-17.90861 -40,-40 0,-22.091387 17.90861,-39.999997 40,-39.999997 22.09139,0 40,17.90861 40,39.999997 z"
         sodipodi:ry="40"
         sodipodi:rx="40"
         sodipodi:cy="112.36218"
         sodipodi:cx="530"
         id="path5747-16"
         style="fill:#ffff00;fill-opacity:1;stroke:#000000;stroke-width:2;stroke-linecap:round;stroke-linejoin:round;stroke-miterlimit:4;stroke-opacity:1;stroke-dasharray:none;stroke-dashoffset:0"
         sodipodi:type="arc" />
      <rect
         transform="matrix(0.70710678,0.70710678,-0.70710678,0.70710678,0,0)"
         y="-272.38559"
         x="299.86838"
         height="20"
         width="20"
         id="rect3953-3-3-4"
         style="fill:#ff0000;fill-opacity:1;stroke:#000000;stroke-width:2;stroke-linecap:round;stroke-linejoin:round;stroke-miterlimit:4;stroke-opacity:1;stroke-dasharray:none;stroke-dashoffset:0" />
      <rect
         transform="matrix(0.70710678,0.70710678,-0.70710678,0.70710678,0,0)"
         y="-272.38559"
         x="319.86838"
         height="20"
         width="20"
         id="rect3955-1-5-6"
         style="fill:#0000ff;fill-opacity:1;stroke:#000000;stroke-width:2;stroke-linecap:round;stroke-linejoin:round;stroke-miterlimit:4;stroke-opacity:1;stroke-dasharray:none;stroke-dashoffset:0" />
      <path
         d="m 570,112.36218 c 0,22.09139 -17.90861,40 -40,40 -22.09139,0 -40,-17.90861 -40,-40 0,-22.091387 17.90861,-39.999997 40,-39.999997 22.09139,0 40,17.90861 40,39.999997 z"
         sodipodi:ry="40"
         sodipodi:rx="40"
         sodipodi:cy="112.36218"
         sodipodi:cx="530"
         id="path5747-1-1"
         style="fill:#00ff00;fill-opacity:1;stroke:#000000;stroke-width:2;stroke-linecap:round;stroke-linejoin:round;stroke-miterlimit:4;stroke-opacity:1;stroke-dasharray:none;stroke-dashoffset:0"
         sodipodi:type="arc"
         transform="matrix(-0.70710678,-0.70710678,0.70710678,-0.70710678,867.03027,494.86512)" />
      <rect
         transform="matrix(0.70710678,-0.70710678,0.70710678,0.70710678,0,0)"
         y="423.00543"
         x="355.52267"
         height="20"
         width="20"
         id="rect3953-3-3-2-7"
         style="fill:#ffffff;fill-opacity:1;stroke:#000000;stroke-width:2;stroke-linecap:round;stroke-linejoin:round;stroke-miterlimit:4;stroke-opacity:1;stroke-dasharray:none;stroke-dashoffset:0" />
      <rect
         transform="matrix(0.70710678,-0.70710678,0.70710678,0.70710678,0,0)"
         y="423.00543"
         x="375.52267"
         height="20"
         width="20"
         id="rect3955-1-5-8-0"
         style="fill:#0000ff;fill-opacity:1;stroke:#000000;stroke-width:2;stroke-linecap:round;stroke-linejoin:round;stroke-miterlimit:4;stroke-opacity:1;stroke-dasharray:none;stroke-dashoffset:0" />
      <path
         d="m 570,112.36218 c 0,22.09139 -17.90861,40 -40,40 -22.09139,0 -40,-17.90861 -40,-40 0,-22.091387 17.90861,-39.999997 40,-39.999997 22.09139,0 40,17.90861 40,39.999997 z"
         sodipodi:ry="40"
         sodipodi:rx="40"
         sodipodi:cy="112.36218"
         sodipodi:cx="530"
         id="path5747-8-5"
         style="fill:#ff0000;fill-opacity:1;stroke:#000000;stroke-width:2;stroke-linecap:round;stroke-linejoin:round;stroke-miterlimit:4;stroke-opacity:1;stroke-dasharray:none;stroke-dashoffset:0"
         sodipodi:type="arc"
         transform="matrix(-0.70710678,-0.70710678,0.70710678,-0.70710678,707.03026,654.86511)" />
      <rect
         transform="matrix(0.70710678,-0.70710678,0.70710678,0.70710678,0,0)"
         y="423.00543"
         x="129.2485"
         height="20"
         width="20"
         id="rect3953-3-3-7-7"
         style="fill:#ffff00;fill-opacity:1;stroke:#000000;stroke-width:2;stroke-linecap:round;stroke-linejoin:round;stroke-miterlimit:4;stroke-opacity:1;stroke-dasharray:none;stroke-dashoffset:0" />
      <rect
         transform="matrix(0.70710678,-0.70710678,0.70710678,0.70710678,0,0)"
         y="423.00543"
         x="149.2485"
         height="20"
         width="20"
         id="rect3955-1-5-5-0"
         style="fill:#00ff00;fill-opacity:1;stroke:#000000;stroke-width:2;stroke-linecap:round;stroke-linejoin:round;stroke-miterlimit:4;stroke-opacity:1;stroke-dasharray:none;stroke-dashoffset:0" />
      <path
         d="m 570,112.36218 c 0,22.09139 -17.90861,40 -40,40 -22.09139,0 -40,-17.90861 -40,-40 0,-22.091387 17.90861,-39.999997 40,-39.999997 22.09139,0 40,17.90861 40,39.999997 z"
         sodipodi:ry="40"
         sodipodi:rx="40"
         sodipodi:cy="112.36218"
         sodipodi:cx="530"
         id="path5747-2-8"
         style="fill:#0000ff;fill-opacity:1;stroke:#000000;stroke-width:2;stroke-linecap:round;stroke-linejoin:round;stroke-miterlimit:4;stroke-opacity:1;stroke-dasharray:none;stroke-dashoffset:0"
         sodipodi:type="arc"
         transform="matrix(0.70710678,-0.70710678,0.70710678,0.70710678,117.49706,495.961)" />
      <rect
         transform="matrix(0.70710678,0.70710678,-0.70710678,0.70710678,0,0)"
         y="-272.38559"
         x="526.14252"
         height="20"
         width="20"
         id="rect3953-3-3-8-5"
         style="fill:#00ff00;fill-opacity:1;stroke:#000000;stroke-width:2;stroke-linecap:round;stroke-linejoin:round;stroke-miterlimit:4;stroke-opacity:1;stroke-dasharray:none;stroke-dashoffset:0" />
      <rect
         transform="matrix(0.70710678,0.70710678,-0.70710678,0.70710678,0,0)"
         y="-272.38559"
         x="546.14252"
         height="20"
         width="20"
         id="rect3955-1-5-0-7"
         style="fill:#ffff00;fill-opacity:1;stroke:#000000;stroke-width:2;stroke-linecap:round;stroke-linejoin:round;stroke-miterlimit:4;stroke-opacity:1;stroke-dasharray:none;stroke-dashoffset:0" />
      <path
         transform="translate(379.08872,0.91027876)"
         d="m 110,122.36218 c 2.14879,0.71627 0.0946,3.24991 -1.19048,3.57143 -3.48255,0.87131 -5.99395,-2.89173 -5.95238,-5.95238 0.0744,-5.47479 5.66077,-8.90501 10.71429,-8.33333 7.41623,0.83896 11.87519,8.45756 10.71428,15.47619 -1.5473,9.35472 -11.26292,14.86893 -20.23809,13.09524 -11.294341,-2.23202 -17.874527,-14.07205 -15.476192,-25.00001 2.904706,-13.23521 16.883232,-20.886921 29.761902,-17.857138 15.17707,3.570498 23.90359,19.695698 20.2381,34.523808 -1.56167,6.31747 -5.19159,12.03011 -10.17876,16.19991"
         sodipodi:t0="0"
         sodipodi:argument="-18.527805"
         sodipodi:radius="31.622776"
         sodipodi:revolution="2.0999999"
         sodipodi:expansion="1"
         sodipodi:cy="122.36218"
         sodipodi:cx="110"
         id="path7291-0"
         style="fill:none;stroke:#000000;stroke-width:3;stroke-linecap:butt;stroke-linejoin:miter;stroke-miterlimit:4;stroke-opacity:1;stroke-dasharray:none;marker-end:url(#marker4630)"
         sodipodi:type="spiral" />
      <path
         inkscape:connector-curvature="0"
         id="path6095-3-0"
         d="M 439.32127,0.76616268 C 462.53509,-9.5393774 489.08364,-13.770887 514,-7.6378174 c 8.68549,1.97987 17.13973,4.89527 25.32125,8.40398008"
         style="fill:none;stroke:#000000;stroke-width:3;stroke-linecap:butt;stroke-linejoin:miter;stroke-miterlimit:4;stroke-opacity:1;stroke-dasharray:none;marker-end:url(#marker4630)" />
      <rect
         transform="scale(-1,-1)"
         y="17.637817"
         x="-500"
         height="20"
         width="20"
         id="rect3953-3-3-2-0-0"
         style="fill:#ff0000;fill-opacity:1;stroke:#000000;stroke-width:2;stroke-linecap:round;stroke-linejoin:round;stroke-miterlimit:4;stroke-opacity:1;stroke-dasharray:none;stroke-dashoffset:0" />
    </g>
    <g
       id="g8418"
       transform="translate(-201.71572,1.715712)">
      <path
         transform="translate(331.71572,-71.715712)"
         d="m 720,192.36218 c 0,60.75133 -49.24868,110 -110,110 -60.75132,0 -110,-49.24867 -110,-110 0,-60.75132 49.24868,-109.999997 110,-109.999997 60.75132,0 110,49.248677 110,109.999997 z"
         sodipodi:ry="110"
         sodipodi:rx="110"
         sodipodi:cy="192.36218"
         sodipodi:cx="610"
         id="path5830-8-8"
         style="fill:#ffffff;fill-opacity:1;stroke:#000000;stroke-width:2;stroke-linecap:round;stroke-linejoin:round;stroke-miterlimit:4;stroke-opacity:1;stroke-dasharray:2, 4;stroke-dashoffset:0"
         sodipodi:type="arc" />
      <path
         transform="matrix(0.70710678,-0.70710678,0.70710678,0.70710678,407.49707,335.96101)"
         d="m 570,112.36218 c 0,22.09139 -17.90861,40 -40,40 -22.09139,0 -40,-17.90861 -40,-40 0,-22.091387 17.90861,-39.999997 40,-39.999997 22.09139,0 40,17.90861 40,39.999997 z"
         sodipodi:ry="40"
         sodipodi:rx="40"
         sodipodi:cy="112.36218"
         sodipodi:cx="530"
         id="path5747-16-0"
         style="fill:#ffff00;fill-opacity:1;stroke:#000000;stroke-width:2;stroke-linecap:round;stroke-linejoin:round;stroke-miterlimit:4;stroke-opacity:1;stroke-dasharray:none;stroke-dashoffset:0"
         sodipodi:type="arc" />
      <rect
         transform="matrix(0.70710678,0.70710678,-0.70710678,0.70710678,0,0)"
         y="-590.58362"
         x="618.06641"
         height="20"
         width="20"
         id="rect3953-3-3-4-9"
         style="fill:#ffffff;fill-opacity:1;stroke:#000000;stroke-width:2;stroke-linecap:round;stroke-linejoin:round;stroke-miterlimit:4;stroke-opacity:1;stroke-dasharray:none;stroke-dashoffset:0" />
      <rect
         transform="matrix(0.70710678,0.70710678,-0.70710678,0.70710678,0,0)"
         y="-590.58362"
         x="638.06641"
         height="20"
         width="20"
         id="rect3955-1-5-6-6"
         style="fill:#0000ff;fill-opacity:1;stroke:#000000;stroke-width:2;stroke-linecap:round;stroke-linejoin:round;stroke-miterlimit:4;stroke-opacity:1;stroke-dasharray:none;stroke-dashoffset:0" />
      <path
         d="m 570,112.36218 c 0,22.09139 -17.90861,40 -40,40 -22.09139,0 -40,-17.90861 -40,-40 0,-22.091387 17.90861,-39.999997 40,-39.999997 22.09139,0 40,17.90861 40,39.999997 z"
         sodipodi:ry="40"
         sodipodi:rx="40"
         sodipodi:cy="112.36218"
         sodipodi:cx="530"
         id="path5747-1-1-2"
         style="fill:#00ff00;fill-opacity:1;stroke:#000000;stroke-width:2;stroke-linecap:round;stroke-linejoin:round;stroke-miterlimit:4;stroke-opacity:1;stroke-dasharray:none;stroke-dashoffset:0"
         sodipodi:type="arc"
         transform="matrix(-0.70710678,-0.70710678,0.70710678,-0.70710678,1317.0303,494.86512)" />
      <rect
         transform="matrix(0.70710678,-0.70710678,0.70710678,0.70710678,0,0)"
         y="741.20349"
         x="673.7207"
         height="20"
         width="20"
         id="rect3953-3-3-2-7-8"
         style="fill:#ff0000;fill-opacity:1;stroke:#000000;stroke-width:2;stroke-linecap:round;stroke-linejoin:round;stroke-miterlimit:4;stroke-opacity:1;stroke-dasharray:none;stroke-dashoffset:0" />
      <rect
         transform="matrix(0.70710678,-0.70710678,0.70710678,0.70710678,0,0)"
         y="741.20349"
         x="693.7207"
         height="20"
         width="20"
         id="rect3955-1-5-8-0-8"
         style="fill:#0000ff;fill-opacity:1;stroke:#000000;stroke-width:2;stroke-linecap:round;stroke-linejoin:round;stroke-miterlimit:4;stroke-opacity:1;stroke-dasharray:none;stroke-dashoffset:0" />
      <path
         d="m 570,112.36218 c 0,22.09139 -17.90861,40 -40,40 -22.09139,0 -40,-17.90861 -40,-40 0,-22.091387 17.90861,-39.999997 40,-39.999997 22.09139,0 40,17.90861 40,39.999997 z"
         sodipodi:ry="40"
         sodipodi:rx="40"
         sodipodi:cy="112.36218"
         sodipodi:cx="530"
         id="path5747-8-5-0"
         style="fill:#ff0000;fill-opacity:1;stroke:#000000;stroke-width:2;stroke-linecap:round;stroke-linejoin:round;stroke-miterlimit:4;stroke-opacity:1;stroke-dasharray:none;stroke-dashoffset:0"
         sodipodi:type="arc"
         transform="matrix(-0.70710678,-0.70710678,0.70710678,-0.70710678,1157.0303,654.86511)" />
      <rect
         transform="matrix(0.70710678,-0.70710678,0.70710678,0.70710678,0,0)"
         y="741.20349"
         x="447.44656"
         height="20"
         width="20"
         id="rect3953-3-3-7-7-8"
         style="fill:#ffff00;fill-opacity:1;stroke:#000000;stroke-width:2;stroke-linecap:round;stroke-linejoin:round;stroke-miterlimit:4;stroke-opacity:1;stroke-dasharray:none;stroke-dashoffset:0" />
      <rect
         transform="matrix(0.70710678,-0.70710678,0.70710678,0.70710678,0,0)"
         y="741.20349"
         x="467.44656"
         height="20"
         width="20"
         id="rect3955-1-5-5-0-4"
         style="fill:#00ff00;fill-opacity:1;stroke:#000000;stroke-width:2;stroke-linecap:round;stroke-linejoin:round;stroke-miterlimit:4;stroke-opacity:1;stroke-dasharray:none;stroke-dashoffset:0" />
      <path
         d="m 570,112.36218 c 0,22.09139 -17.90861,40 -40,40 -22.09139,0 -40,-17.90861 -40,-40 0,-22.091387 17.90861,-39.999997 40,-39.999997 22.09139,0 40,17.90861 40,39.999997 z"
         sodipodi:ry="40"
         sodipodi:rx="40"
         sodipodi:cy="112.36218"
         sodipodi:cx="530"
         id="path5747-2-8-1"
         style="fill:#0000ff;fill-opacity:1;stroke:#000000;stroke-width:2;stroke-linecap:round;stroke-linejoin:round;stroke-miterlimit:4;stroke-opacity:1;stroke-dasharray:none;stroke-dashoffset:0"
         sodipodi:type="arc"
         transform="matrix(0.70710678,-0.70710678,0.70710678,0.70710678,567.49706,495.961)" />
      <rect
         transform="matrix(0.70710678,0.70710678,-0.70710678,0.70710678,0,0)"
         y="-590.58362"
         x="844.34058"
         height="20"
         width="20"
         id="rect3953-3-3-8-5-9"
         style="fill:#00ff00;fill-opacity:1;stroke:#000000;stroke-width:2;stroke-linecap:round;stroke-linejoin:round;stroke-miterlimit:4;stroke-opacity:1;stroke-dasharray:none;stroke-dashoffset:0" />
      <rect
         transform="matrix(0.70710678,0.70710678,-0.70710678,0.70710678,0,0)"
         y="-590.58362"
         x="864.34058"
         height="20"
         width="20"
         id="rect3955-1-5-0-7-0"
         style="fill:#ffff00;fill-opacity:1;stroke:#000000;stroke-width:2;stroke-linecap:round;stroke-linejoin:round;stroke-miterlimit:4;stroke-opacity:1;stroke-dasharray:none;stroke-dashoffset:0" />
      <path
         transform="translate(829.08872,0.91027862)"
         d="m 110,122.36218 c 2.14879,0.71627 0.0946,3.24991 -1.19048,3.57143 -3.48255,0.87131 -5.99395,-2.89173 -5.95238,-5.95238 0.0744,-5.47479 5.66077,-8.90501 10.71429,-8.33333 7.41623,0.83896 11.87519,8.45756 10.71428,15.47619 -1.5473,9.35472 -11.26292,14.86893 -20.23809,13.09524 -11.294341,-2.23202 -17.874527,-14.07205 -15.476192,-25.00001 2.904706,-13.23521 16.883232,-20.886921 29.761902,-17.857138 15.17707,3.570498 23.90359,19.695698 20.2381,34.523808 -1.56167,6.31747 -5.19159,12.03011 -10.17876,16.19991"
         sodipodi:t0="0"
         sodipodi:argument="-18.527805"
         sodipodi:radius="31.622776"
         sodipodi:revolution="2.0999999"
         sodipodi:expansion="1"
         sodipodi:cy="122.36218"
         sodipodi:cx="110"
         id="path7291-0-9"
         style="fill:none;stroke:#000000;stroke-width:3;stroke-linecap:butt;stroke-linejoin:miter;stroke-miterlimit:4;stroke-opacity:1;stroke-dasharray:none;marker-end:url(#marker4630)"
         sodipodi:type="spiral" />
      <path
         inkscape:connector-curvature="0"
         id="path6095-3-0-6-2"
         d="M 818.40398,173.04091 C 808.09844,149.82709 803.86693,123.27854 810,98.36218 c 1.97987,-8.68549 4.89527,-17.13973 8.40398,-25.32125"
         style="fill:none;stroke:#000000;stroke-width:3;stroke-linecap:butt;stroke-linejoin:miter;stroke-miterlimit:4;stroke-opacity:1;stroke-dasharray:none;marker-end:url(#marker4630)" />
      <rect
         transform="matrix(0,1,-1,0,0,0)"
         y="-800"
         x="112.36218"
         height="20"
         width="20"
         id="rect3953-3-3-2-0-0-3-1"
         style="fill:#00ff00;fill-opacity:1;stroke:#000000;stroke-width:2;stroke-linecap:round;stroke-linejoin:round;stroke-miterlimit:4;stroke-opacity:1;stroke-dasharray:none;stroke-dashoffset:0" />
    </g>
    <g
       id="g8399"
       transform="translate(-402.92885,24.644624)">
      <path
         transform="translate(811.71572,-91.715691)"
         d="m 720,192.36218 c 0,60.75133 -49.24868,110 -110,110 -60.75132,0 -110,-49.24867 -110,-110 0,-60.75132 49.24868,-109.999997 110,-109.999997 60.75132,0 110,49.248677 110,109.999997 z"
         sodipodi:ry="110"
         sodipodi:rx="110"
         sodipodi:cy="192.36218"
         sodipodi:cx="610"
         id="path5830-8-8-7"
         style="fill:#ffffff;fill-opacity:1;stroke:#000000;stroke-width:2;stroke-linecap:round;stroke-linejoin:round;stroke-miterlimit:4;stroke-opacity:1;stroke-dasharray:2, 4;stroke-dashoffset:0"
         sodipodi:type="arc" />
      <path
         transform="matrix(0.70710678,-0.70710678,0.70710678,0.70710678,887.49707,315.96103)"
         d="m 570,112.36218 c 0,22.09139 -17.90861,40 -40,40 -22.09139,0 -40,-17.90861 -40,-40 0,-22.091387 17.90861,-39.999997 40,-39.999997 22.09139,0 40,17.90861 40,39.999997 z"
         sodipodi:ry="40"
         sodipodi:rx="40"
         sodipodi:cy="112.36218"
         sodipodi:cx="530"
         id="path5747-16-0-9"
         style="fill:#ffff00;fill-opacity:1;stroke:#000000;stroke-width:2;stroke-linecap:round;stroke-linejoin:round;stroke-miterlimit:4;stroke-opacity:1;stroke-dasharray:none;stroke-dashoffset:0"
         sodipodi:type="arc" />
      <rect
         transform="matrix(0.70710678,0.70710678,-0.70710678,0.70710678,0,0)"
         y="-944.13696"
         x="943.33551"
         height="20"
         width="20"
         id="rect3953-3-3-4-9-7"
         style="fill:#00ff00;fill-opacity:1;stroke:#000000;stroke-width:2;stroke-linecap:round;stroke-linejoin:round;stroke-miterlimit:4;stroke-opacity:1;stroke-dasharray:none;stroke-dashoffset:0" />
      <rect
         transform="matrix(0.70710678,0.70710678,-0.70710678,0.70710678,0,0)"
         y="-944.13696"
         x="963.33551"
         height="20"
         width="20"
         id="rect3955-1-5-6-6-3"
         style="fill:#0000ff;fill-opacity:1;stroke:#000000;stroke-width:2;stroke-linecap:round;stroke-linejoin:round;stroke-miterlimit:4;stroke-opacity:1;stroke-dasharray:none;stroke-dashoffset:0" />
      <path
         d="m 570,112.36218 c 0,22.09139 -17.90861,40 -40,40 -22.09139,0 -40,-17.90861 -40,-40 0,-22.091387 17.90861,-39.999997 40,-39.999997 22.09139,0 40,17.90861 40,39.999997 z"
         sodipodi:ry="40"
         sodipodi:rx="40"
         sodipodi:cy="112.36218"
         sodipodi:cx="530"
         id="path5747-1-1-2-0"
         style="fill:#00ff00;fill-opacity:1;stroke:#000000;stroke-width:2;stroke-linecap:round;stroke-linejoin:round;stroke-miterlimit:4;stroke-opacity:1;stroke-dasharray:none;stroke-dashoffset:0"
         sodipodi:type="arc"
         transform="matrix(-0.70710678,-0.70710678,0.70710678,-0.70710678,1797.0303,474.86514)" />
      <rect
         transform="matrix(0.70710678,-0.70710678,0.70710678,0.70710678,0,0)"
         y="1066.4727"
         x="1027.274"
         height="20"
         width="20"
         id="rect3953-3-3-2-7-8-6"
         style="fill:#ff0000;fill-opacity:1;stroke:#000000;stroke-width:2;stroke-linecap:round;stroke-linejoin:round;stroke-miterlimit:4;stroke-opacity:1;stroke-dasharray:none;stroke-dashoffset:0" />
      <rect
         transform="matrix(0.70710678,-0.70710678,0.70710678,0.70710678,0,0)"
         y="1066.4727"
         x="1047.274"
         height="20"
         width="20"
         id="rect3955-1-5-8-0-8-4"
         style="fill:#0000ff;fill-opacity:1;stroke:#000000;stroke-width:2;stroke-linecap:round;stroke-linejoin:round;stroke-miterlimit:4;stroke-opacity:1;stroke-dasharray:none;stroke-dashoffset:0" />
      <path
         d="m 570,112.36218 c 0,22.09139 -17.90861,40 -40,40 -22.09139,0 -40,-17.90861 -40,-40 0,-22.091387 17.90861,-39.999997 40,-39.999997 22.09139,0 40,17.90861 40,39.999997 z"
         sodipodi:ry="40"
         sodipodi:rx="40"
         sodipodi:cy="112.36218"
         sodipodi:cx="530"
         id="path5747-8-5-0-8"
         style="fill:#ff0000;fill-opacity:1;stroke:#000000;stroke-width:2;stroke-linecap:round;stroke-linejoin:round;stroke-miterlimit:4;stroke-opacity:1;stroke-dasharray:none;stroke-dashoffset:0"
         sodipodi:type="arc"
         transform="matrix(-0.70710678,-0.70710678,0.70710678,-0.70710678,1637.0303,634.86513)" />
      <rect
         transform="matrix(0.70710678,-0.70710678,0.70710678,0.70710678,0,0)"
         y="1066.4727"
         x="800.99994"
         height="20"
         width="20"
         id="rect3953-3-3-7-7-8-8"
         style="fill:#ffff00;fill-opacity:1;stroke:#000000;stroke-width:2;stroke-linecap:round;stroke-linejoin:round;stroke-miterlimit:4;stroke-opacity:1;stroke-dasharray:none;stroke-dashoffset:0" />
      <rect
         transform="matrix(0.70710678,-0.70710678,0.70710678,0.70710678,0,0)"
         y="1066.4727"
         x="820.99994"
         height="20"
         width="20"
         id="rect3955-1-5-5-0-4-3"
         style="fill:#ffffff;fill-opacity:1;stroke:#000000;stroke-width:2;stroke-linecap:round;stroke-linejoin:round;stroke-miterlimit:4;stroke-opacity:1;stroke-dasharray:none;stroke-dashoffset:0" />
      <path
         d="m 570,112.36218 c 0,22.09139 -17.90861,40 -40,40 -22.09139,0 -40,-17.90861 -40,-40 0,-22.091387 17.90861,-39.999997 40,-39.999997 22.09139,0 40,17.90861 40,39.999997 z"
         sodipodi:ry="40"
         sodipodi:rx="40"
         sodipodi:cy="112.36218"
         sodipodi:cx="530"
         id="path5747-2-8-1-7"
         style="fill:#0000ff;fill-opacity:1;stroke:#000000;stroke-width:2;stroke-linecap:round;stroke-linejoin:round;stroke-miterlimit:4;stroke-opacity:1;stroke-dasharray:none;stroke-dashoffset:0"
         sodipodi:type="arc"
         transform="matrix(0.70710678,-0.70710678,0.70710678,0.70710678,1047.4971,475.96102)" />
      <rect
         transform="matrix(0.70710678,0.70710678,-0.70710678,0.70710678,0,0)"
         y="-944.13696"
         x="1169.6097"
         height="20"
         width="20"
         id="rect3953-3-3-8-5-9-2"
         style="fill:#00ff00;fill-opacity:1;stroke:#000000;stroke-width:2;stroke-linecap:round;stroke-linejoin:round;stroke-miterlimit:4;stroke-opacity:1;stroke-dasharray:none;stroke-dashoffset:0" />
      <rect
         transform="matrix(0.70710678,0.70710678,-0.70710678,0.70710678,0,0)"
         y="-944.13696"
         x="1189.6097"
         height="20"
         width="20"
         id="rect3955-1-5-0-7-0-1"
         style="fill:#ffff00;fill-opacity:1;stroke:#000000;stroke-width:2;stroke-linecap:round;stroke-linejoin:round;stroke-miterlimit:4;stroke-opacity:1;stroke-dasharray:none;stroke-dashoffset:0" />
      <path
         transform="translate(1309.0887,-19.0897)"
         d="m 110,122.36218 c 2.14879,0.71627 0.0946,3.24991 -1.19048,3.57143 -3.48255,0.87131 -5.99395,-2.89173 -5.95238,-5.95238 0.0744,-5.47479 5.66077,-8.90501 10.71429,-8.33333 7.41623,0.83896 11.87519,8.45756 10.71428,15.47619 -1.5473,9.35472 -11.26292,14.86893 -20.23809,13.09524 -11.294341,-2.23202 -17.874527,-14.07205 -15.476192,-25.00001 2.904706,-13.23521 16.883232,-20.886921 29.761902,-17.857138 15.17707,3.570498 23.90359,19.695698 20.2381,34.523808 -1.56167,6.31747 -5.19159,12.03011 -10.17876,16.19991"
         sodipodi:t0="0"
         sodipodi:argument="-18.527805"
         sodipodi:radius="31.622776"
         sodipodi:revolution="2.0999999"
         sodipodi:expansion="1"
         sodipodi:cy="122.36218"
         sodipodi:cx="110"
         id="path7291-0-9-5"
         style="fill:none;stroke:#000000;stroke-width:3;stroke-linecap:butt;stroke-linejoin:miter;stroke-miterlimit:4;stroke-opacity:1;stroke-dasharray:none;marker-end:url(#marker4630)"
         sodipodi:type="spiral" />
      <g
         transform="matrix(0,-1,1,0,1317.6378,1522.3622)"
         id="g8395">
        <path
           style="fill:none;stroke:#000000;stroke-width:3;stroke-linecap:butt;stroke-linejoin:miter;stroke-miterlimit:4;stroke-opacity:1;stroke-dasharray:none;marker-end:url(#marker4630)"
           d="m 1298.404,153.04093 c -10.3056,-23.21382 -14.5371,-49.76237 -8.404,-74.678729 1.9799,-8.68549 4.8953,-17.13973 8.404,-25.32125"
           id="path6095-3-0-6-2-2"
           inkscape:connector-curvature="0" />
        <rect
           style="fill:#00ff00;fill-opacity:1;stroke:#000000;stroke-width:2;stroke-linecap:round;stroke-linejoin:round;stroke-miterlimit:4;stroke-opacity:1;stroke-dasharray:none;stroke-dashoffset:0"
           id="rect3953-3-3-2-0-0-3-1-2"
           width="20"
           height="20"
           x="92.362198"
           y="-1280"
           transform="matrix(0,1,-1,0,0,0)" />
      </g>
    </g>
  </g>
</svg>
