<?xml version="1.0" encoding="UTF-8" standalone="no"?>
<!-- Created with Inkscape (http://www.inkscape.org/) -->

<svg
   xmlns:dc="http://purl.org/dc/elements/1.1/"
   xmlns:cc="http://creativecommons.org/ns#"
   xmlns:rdf="http://www.w3.org/1999/02/22-rdf-syntax-ns#"
   xmlns:svg="http://www.w3.org/2000/svg"
   xmlns="http://www.w3.org/2000/svg"
   xmlns:sodipodi="http://sodipodi.sourceforge.net/DTD/sodipodi-0.dtd"
   xmlns:inkscape="http://www.inkscape.org/namespaces/inkscape"
   width="744.09448"
   height="1052.3622"
   id="svg3183"
   version="1.1"
   inkscape:version="0.48.3.1 r9886"
   sodipodi:docname="Nouveau document 3">
  <defs
     id="defs3185" />
  <sodipodi:namedview
     id="base"
     pagecolor="#ffffff"
     bordercolor="#666666"
     borderopacity="1.0"
     inkscape:pageopacity="0.0"
     inkscape:pageshadow="2"
     inkscape:zoom="0.49497475"
     inkscape:cx="176.49387"
     inkscape:cy="585.01866"
     inkscape:document-units="mm"
     inkscape:current-layer="layer1"
     showgrid="false"
     inkscape:snap-page="true"
     units="mm"
     inkscape:window-width="1280"
     inkscape:window-height="785"
     inkscape:window-x="0"
     inkscape:window-y="15"
     inkscape:window-maximized="0" />
  <metadata
     id="metadata3188">
    <rdf:RDF>
      <cc:Work
         rdf:about="">
        <dc:format>image/svg+xml</dc:format>
        <dc:type
           rdf:resource="http://purl.org/dc/dcmitype/StillImage" />
        <dc:title></dc:title>
      </cc:Work>
    </rdf:RDF>
  </metadata>
  <g
     inkscape:label="Calque 1"
     inkscape:groupmode="layer"
     id="layer1"
     transform="translate(0,-2.5390623e-6)">
    <path
       id="rect3191-7-1"
       transform="scale(-1,-1)"
       style="fill:none;stroke:#ff0000;stroke-width:1;stroke-linecap:butt;stroke-linejoin:miter;stroke-miterlimit:4;stroke-dashoffset:0;stroke-opacity:1"
       d="m -744.59259,-249.61806 584.64569,0 0,159.448825 -584.64569,0 z m 0,-160.44874 499.60629,0 0,159.44882 -499.60629,0 z m 0,-160.44882 414.56692,0 0,159.44882 -414.56692,0 z m 0,-160.44886 329.52756,0 0,159.44882 -329.52756,0 z m 0,-160.44891 244.48819,0 0,159.44882 -244.48819,0 z m 0,-160.44881 159.44882,0 0,159.44884 -159.44882,0 z M -0.5,-892.41339 l -584.64569,0 0,-159.44881 584.64569,0 z m 0,160.44873 -499.60629,0 0,-159.44882 499.60629,0 z m 0,160.44885 -414.56693,0 0,-159.44882 414.56693,0 z m 0,160.44888 -329.52756,0 0,-159.44882 329.52756,0 z m 0,160.44887 -244.48819,0 0,-159.44882 244.48819,0 z m 0,160.448794 -159.44882,0 0,-159.448824 159.44882,0 z" />
  </g>
</svg>
