<?xml version="1.0" encoding="UTF-8" standalone="no"?>
<!-- Created with Inkscape (http://www.inkscape.org/) -->

<svg
   xmlns:dc="http://purl.org/dc/elements/1.1/"
   xmlns:cc="http://creativecommons.org/ns#"
   xmlns:rdf="http://www.w3.org/1999/02/22-rdf-syntax-ns#"
   xmlns:svg="http://www.w3.org/2000/svg"
   xmlns="http://www.w3.org/2000/svg"
   xmlns:sodipodi="http://sodipodi.sourceforge.net/DTD/sodipodi-0.dtd"
   xmlns:inkscape="http://www.inkscape.org/namespaces/inkscape"
   width="210mm"
   height="297mm"
   id="svg2"
   version="1.1"
   inkscape:version="0.48.3.1 r9886"
   sodipodi:docname="nim4.svg">
  <defs
     id="defs4">
    <marker
       inkscape:stockid="Arrow1Mend"
       orient="auto"
       refY="0.0"
       refX="0.0"
       id="Arrow1Mend"
       style="overflow:visible;">
      <path
         id="path3997"
         d="M 0.0,0.0 L 5.0,-5.0 L -12.5,0.0 L 5.0,5.0 L 0.0,0.0 z "
         style="fill-rule:evenodd;stroke:#000000;stroke-width:1.0pt;"
         transform="scale(0.4) rotate(180) translate(10,0)" />
    </marker>
    <marker
       inkscape:stockid="Arrow1Lend"
       orient="auto"
       refY="0.0"
       refX="0.0"
       id="Arrow1Lend"
       style="overflow:visible;">
      <path
         id="path3991"
         d="M 0.0,0.0 L 5.0,-5.0 L -12.5,0.0 L 5.0,5.0 L 0.0,0.0 z "
         style="fill-rule:evenodd;stroke:#000000;stroke-width:1.0pt;"
         transform="scale(0.8) rotate(180) translate(12.5,0)" />
    </marker>
  </defs>
  <sodipodi:namedview
     id="base"
     pagecolor="#ffffff"
     bordercolor="#666666"
     borderopacity="1.0"
     inkscape:pageopacity="0.0"
     inkscape:pageshadow="2"
     inkscape:zoom="2.8"
     inkscape:cx="232.71818"
     inkscape:cy="945.05549"
     inkscape:document-units="px"
     inkscape:current-layer="layer1"
     showgrid="true"
     inkscape:window-width="1280"
     inkscape:window-height="785"
     inkscape:window-x="0"
     inkscape:window-y="15"
     inkscape:window-maximized="0">
    <inkscape:grid
       type="xygrid"
       id="grid2985" />
  </sodipodi:namedview>
  <metadata
     id="metadata7">
    <rdf:RDF>
      <cc:Work
         rdf:about="">
        <dc:format>image/svg+xml</dc:format>
        <dc:type
           rdf:resource="http://purl.org/dc/dcmitype/StillImage" />
        <dc:title></dc:title>
      </cc:Work>
    </rdf:RDF>
  </metadata>
  <g
     inkscape:label="Calque 1"
     inkscape:groupmode="layer"
     id="layer1">
    <g
       id="g3835">
      <path
         d="m 70,97.362183 a 5,5 0 1 1 -10,0 5,5 0 1 1 10,0 z"
         sodipodi:ry="5"
         sodipodi:rx="5"
         sodipodi:cy="97.362183"
         sodipodi:cx="65"
         id="path2987"
         style="opacity:1;fill:#000000;stroke:none;stroke-width:3.54330707000000000;stroke-linecap:round;stroke-linejoin:round;stroke-miterlimit:4;stroke-opacity:1;stroke-dasharray:none;fill-opacity:1"
         sodipodi:type="arc" />
      <path
         d="m 70,97.362183 a 5,5 0 1 1 -10,0 5,5 0 1 1 10,0 z"
         sodipodi:ry="5"
         sodipodi:rx="5"
         sodipodi:cy="97.362183"
         sodipodi:cx="65"
         id="path2987-8"
         style="fill:#000000;fill-opacity:1;stroke:none"
         sodipodi:type="arc"
         transform="translate(20,0)" />
      <path
         d="m 70,97.362183 a 5,5 0 1 1 -10,0 5,5 0 1 1 10,0 z"
         sodipodi:ry="5"
         sodipodi:rx="5"
         sodipodi:cy="97.362183"
         sodipodi:cx="65"
         id="path2987-6"
         style="fill:#000000;fill-opacity:1;stroke:none"
         sodipodi:type="arc"
         transform="translate(0,20)" />
      <path
         d="m 70,97.362183 a 5,5 0 1 1 -10,0 5,5 0 1 1 10,0 z"
         sodipodi:ry="5"
         sodipodi:rx="5"
         sodipodi:cy="97.362183"
         sodipodi:cx="65"
         id="path2987-5"
         style="fill:#000000;fill-opacity:1;stroke:none"
         sodipodi:type="arc"
         transform="translate(20,20)" />
      <path
         sodipodi:open="true"
         sodipodi:end="6.2697453"
         sodipodi:start="0"
         d="m 100,107.36218 a 25,25 0 1 1 -0.0023,-0.33599"
         sodipodi:ry="25"
         sodipodi:rx="25"
         sodipodi:cy="107.36218"
         sodipodi:cx="75"
         id="path3818"
         style="fill:none;stroke:#000000;stroke-width:1;stroke-linecap:round;stroke-linejoin:round;stroke-miterlimit:4;stroke-opacity:1;stroke-dasharray:none"
         sodipodi:type="arc" />
    </g>
    <g
       id="g5576">
      <path
         transform="translate(90,-60)"
         d="m 70,97.362183 a 5,5 0 1 1 -10,0 5,5 0 1 1 10,0 z"
         sodipodi:ry="5"
         sodipodi:rx="5"
         sodipodi:cy="97.362183"
         sodipodi:cx="65"
         id="path2987-53"
         style="fill:#ff0000;fill-opacity:1;stroke:none"
         sodipodi:type="arc" />
      <path
         d="m 70,97.362183 a 5,5 0 1 1 -10,0 5,5 0 1 1 10,0 z"
         sodipodi:ry="5"
         sodipodi:rx="5"
         sodipodi:cy="97.362183"
         sodipodi:cx="65"
         id="path2987-8-7"
         style="fill:#000000;fill-opacity:1;stroke:none"
         sodipodi:type="arc"
         transform="translate(110,-60)" />
      <path
         d="m 70,97.362183 a 5,5 0 1 1 -10,0 5,5 0 1 1 10,0 z"
         sodipodi:ry="5"
         sodipodi:rx="5"
         sodipodi:cy="97.362183"
         sodipodi:cx="65"
         id="path2987-6-6"
         style="fill:#000000;fill-opacity:1;stroke:none"
         sodipodi:type="arc"
         transform="translate(90,-40)" />
      <path
         d="m 70,97.362183 a 5,5 0 1 1 -10,0 5,5 0 1 1 10,0 z"
         sodipodi:ry="5"
         sodipodi:rx="5"
         sodipodi:cy="97.362183"
         sodipodi:cx="65"
         id="path2987-5-1"
         style="fill:#000000;fill-opacity:1;stroke:none"
         sodipodi:type="arc"
         transform="translate(110,-40)" />
      <path
         transform="translate(90,-60)"
         sodipodi:open="true"
         sodipodi:end="6.2697453"
         sodipodi:start="0"
         d="m 100,107.36218 a 25,25 0 1 1 -0.0023,-0.33599"
         sodipodi:ry="25"
         sodipodi:rx="25"
         sodipodi:cy="107.36218"
         sodipodi:cx="75"
         id="path3818-6"
         style="fill:none;stroke:#000000;stroke-width:1;stroke-linecap:round;stroke-linejoin:round;stroke-miterlimit:4;stroke-opacity:1;stroke-dasharray:none"
         sodipodi:type="arc" />
    </g>
    <g
       id="g5591">
      <path
         transform="translate(90,60)"
         d="m 70,97.362183 a 5,5 0 1 1 -10,0 5,5 0 1 1 10,0 z"
         sodipodi:ry="5"
         sodipodi:rx="5"
         sodipodi:cy="97.362183"
         sodipodi:cx="65"
         id="path2987-9"
         style="fill:#ff0000;fill-opacity:1;stroke:none"
         sodipodi:type="arc" />
      <path
         d="m 70,97.362183 a 5,5 0 1 1 -10,0 5,5 0 1 1 10,0 z"
         sodipodi:ry="5"
         sodipodi:rx="5"
         sodipodi:cy="97.362183"
         sodipodi:cx="65"
         id="path2987-8-6"
         style="fill:#ff0000;fill-opacity:1;stroke:none"
         sodipodi:type="arc"
         transform="translate(110,60)" />
      <path
         d="m 70,97.362183 a 5,5 0 1 1 -10,0 5,5 0 1 1 10,0 z"
         sodipodi:ry="5"
         sodipodi:rx="5"
         sodipodi:cy="97.362183"
         sodipodi:cx="65"
         id="path2987-6-56"
         style="fill:#ff0000;fill-opacity:1;stroke:none"
         sodipodi:type="arc"
         transform="translate(90,80)" />
      <path
         d="m 70,97.362183 a 5,5 0 1 1 -10,0 5,5 0 1 1 10,0 z"
         sodipodi:ry="5"
         sodipodi:rx="5"
         sodipodi:cy="97.362183"
         sodipodi:cx="65"
         id="path2987-5-3"
         style="fill:#000000;fill-opacity:1;stroke:none"
         sodipodi:type="arc"
         transform="translate(110,80)" />
      <path
         transform="translate(90,60)"
         sodipodi:open="true"
         sodipodi:end="6.2697453"
         sodipodi:start="0"
         d="m 100,107.36218 a 25,25 0 1 1 -0.0023,-0.33599"
         sodipodi:ry="25"
         sodipodi:rx="25"
         sodipodi:cy="107.36218"
         sodipodi:cx="75"
         id="path3818-60"
         style="fill:none;stroke:#000000;stroke-width:1;stroke-linecap:round;stroke-linejoin:round;stroke-miterlimit:4;stroke-opacity:1;stroke-dasharray:none"
         sodipodi:type="arc" />
    </g>
    <g
       id="g5055"
       transform="translate(60,0)">
      <text
         sodipodi:linespacing="125%"
         id="text4798"
         y="112.36218"
         x="265"
         style="font-size:32px;font-style:normal;font-weight:normal;text-align:center;line-height:125%;letter-spacing:0px;word-spacing:0px;text-anchor:middle;fill:#000000;fill-opacity:1;stroke:none;font-family:Gulim;-inkscape-font-specification:Gulim"
         xml:space="preserve"><tspan
           style="font-size:18px;fill:#0000ff;fill-opacity:1"
           y="112.36218"
           x="265"
           id="tspan4800"
           sodipodi:role="line">J2 gagne</tspan></text>
      <rect
         y="97.362175"
         x="225"
         height="20.000008"
         width="79.999985"
         id="rect4808"
         style="fill:none;stroke:#000000;stroke-width:1;stroke-linecap:round;stroke-linejoin:round;stroke-miterlimit:4;stroke-opacity:1;stroke-dasharray:none" />
    </g>
    <g
       id="g5583">
      <path
         transform="translate(90,0)"
         d="m 70,97.362183 a 5,5 0 1 1 -10,0 5,5 0 1 1 10,0 z"
         sodipodi:ry="5"
         sodipodi:rx="5"
         sodipodi:cy="97.362183"
         sodipodi:cx="65"
         id="path2987-3"
         style="fill:#ff0000;fill-opacity:1;stroke:none"
         sodipodi:type="arc" />
      <path
         d="m 70,97.362183 a 5,5 0 1 1 -10,0 5,5 0 1 1 10,0 z"
         sodipodi:ry="5"
         sodipodi:rx="5"
         sodipodi:cy="97.362183"
         sodipodi:cx="65"
         id="path2987-8-1"
         style="fill:#ff0000;fill-opacity:1;stroke:none"
         sodipodi:type="arc"
         transform="translate(110,0)" />
      <path
         d="m 70,97.362183 a 5,5 0 1 1 -10,0 5,5 0 1 1 10,0 z"
         sodipodi:ry="5"
         sodipodi:rx="5"
         sodipodi:cy="97.362183"
         sodipodi:cx="65"
         id="path2987-6-5"
         style="fill:#000000;fill-opacity:1;stroke:none"
         sodipodi:type="arc"
         transform="translate(90,20)" />
      <path
         d="m 70,97.362183 a 5,5 0 1 1 -10,0 5,5 0 1 1 10,0 z"
         sodipodi:ry="5"
         sodipodi:rx="5"
         sodipodi:cy="97.362183"
         sodipodi:cx="65"
         id="path2987-5-9"
         style="fill:#000000;fill-opacity:1;stroke:none"
         sodipodi:type="arc"
         transform="translate(110,20)" />
      <path
         transform="translate(90,0)"
         sodipodi:open="true"
         sodipodi:end="6.2697453"
         sodipodi:start="0"
         d="m 100,107.36218 a 25,25 0 1 1 -0.0023,-0.33599"
         sodipodi:ry="25"
         sodipodi:rx="25"
         sodipodi:cy="107.36218"
         sodipodi:cx="75"
         id="path3818-3"
         style="fill:none;stroke:#000000;stroke-width:1;stroke-linecap:round;stroke-linejoin:round;stroke-miterlimit:4;stroke-opacity:1;stroke-dasharray:none"
         sodipodi:type="arc" />
      <path
         inkscape:connector-curvature="0"
         inkscape:connector-type="polyline"
         id="path5024"
         d="m 165,107.36218 0,0"
         style="fill:none;stroke:#000000;stroke-width:1px;stroke-linecap:butt;stroke-linejoin:miter;stroke-opacity:1" />
    </g>
    <g
       id="g5614">
      <path
         transform="translate(160,-60)"
         d="m 70,97.362183 a 5,5 0 1 1 -10,0 5,5 0 1 1 10,0 z"
         sodipodi:ry="5"
         sodipodi:rx="5"
         sodipodi:cy="97.362183"
         sodipodi:cx="65"
         id="path2987-53-5"
         style="fill:none;fill-opacity:1;stroke:#000000;stroke-opacity:1;stroke-width:1;stroke-miterlimit:4;stroke-dasharray:1,1;stroke-dashoffset:0"
         sodipodi:type="arc" />
      <path
         d="m 70,97.362183 a 5,5 0 1 1 -10,0 5,5 0 1 1 10,0 z"
         sodipodi:ry="5"
         sodipodi:rx="5"
         sodipodi:cy="97.362183"
         sodipodi:cx="65"
         id="path2987-8-7-3"
         style="fill:#0000ff;fill-opacity:1;stroke:none"
         sodipodi:type="arc"
         transform="translate(180,-60)" />
      <path
         d="m 70,97.362183 a 5,5 0 1 1 -10,0 5,5 0 1 1 10,0 z"
         sodipodi:ry="5"
         sodipodi:rx="5"
         sodipodi:cy="97.362183"
         sodipodi:cx="65"
         id="path2987-6-6-8"
         style="fill:#0000ff;fill-opacity:1;stroke:none"
         sodipodi:type="arc"
         transform="translate(160,-40)" />
      <path
         d="m 70,97.362183 a 5,5 0 1 1 -10,0 5,5 0 1 1 10,0 z"
         sodipodi:ry="5"
         sodipodi:rx="5"
         sodipodi:cy="97.362183"
         sodipodi:cx="65"
         id="path2987-5-1-1"
         style="fill:#0000ff;fill-opacity:1;stroke:none"
         sodipodi:type="arc"
         transform="translate(180,-40)" />
      <path
         transform="translate(160,-60)"
         sodipodi:open="true"
         sodipodi:end="6.2697453"
         sodipodi:start="0"
         d="m 100,107.36218 a 25,25 0 1 1 -0.0023,-0.33599"
         sodipodi:ry="25"
         sodipodi:rx="25"
         sodipodi:cy="107.36218"
         sodipodi:cx="75"
         id="path3818-6-8"
         style="fill:none;stroke:#000000;stroke-width:1;stroke-linecap:round;stroke-linejoin:round;stroke-miterlimit:4;stroke-opacity:1;stroke-dasharray:none"
         sodipodi:type="arc" />
    </g>
    <g
       id="g5628">
      <path
         transform="translate(160,60)"
         d="m 70,97.362183 a 5,5 0 1 1 -10,0 5,5 0 1 1 10,0 z"
         sodipodi:ry="5"
         sodipodi:rx="5"
         sodipodi:cy="97.362183"
         sodipodi:cx="65"
         id="path2987-9-1"
         style="fill:none;fill-opacity:1;stroke:#000000;stroke-opacity:1;stroke-width:1;stroke-miterlimit:4;stroke-dasharray:1, 1;stroke-dashoffset:0"
         sodipodi:type="arc" />
      <path
         d="m 70,97.362183 a 5,5 0 1 1 -10,0 5,5 0 1 1 10,0 z"
         sodipodi:ry="5"
         sodipodi:rx="5"
         sodipodi:cy="97.362183"
         sodipodi:cx="65"
         id="path2987-8-6-6"
         style="fill:none;fill-opacity:1;stroke:#000000;stroke-opacity:1;stroke-width:1;stroke-miterlimit:4;stroke-dasharray:1, 1;stroke-dashoffset:0"
         sodipodi:type="arc"
         transform="translate(180,60)" />
      <path
         d="m 70,97.362183 a 5,5 0 1 1 -10,0 5,5 0 1 1 10,0 z"
         sodipodi:ry="5"
         sodipodi:rx="5"
         sodipodi:cy="97.362183"
         sodipodi:cx="65"
         id="path2987-6-56-8"
         style="fill:none;fill-opacity:1;stroke:#000000;stroke-opacity:1;stroke-width:1;stroke-miterlimit:4;stroke-dasharray:1, 1;stroke-dashoffset:0"
         sodipodi:type="arc"
         transform="translate(160,80)" />
      <path
         d="m 70,97.362183 a 5,5 0 1 1 -10,0 5,5 0 1 1 10,0 z"
         sodipodi:ry="5"
         sodipodi:rx="5"
         sodipodi:cy="97.362183"
         sodipodi:cx="65"
         id="path2987-5-3-6"
         style="fill:#0000ff;fill-opacity:1;stroke:none"
         sodipodi:type="arc"
         transform="translate(180,80)" />
      <path
         transform="translate(160,60)"
         sodipodi:open="true"
         sodipodi:end="6.2697453"
         sodipodi:start="0"
         d="m 100,107.36218 a 25,25 0 1 1 -0.0023,-0.33599"
         sodipodi:ry="25"
         sodipodi:rx="25"
         sodipodi:cy="107.36218"
         sodipodi:cx="75"
         id="path3818-60-3"
         style="fill:none;stroke:#000000;stroke-width:1;stroke-linecap:round;stroke-linejoin:round;stroke-miterlimit:4;stroke-opacity:1;stroke-dasharray:none"
         sodipodi:type="arc" />
    </g>
    <g
       id="g5621">
      <path
         transform="translate(160,0)"
         d="m 70,97.362183 a 5,5 0 1 1 -10,0 5,5 0 1 1 10,0 z"
         sodipodi:ry="5"
         sodipodi:rx="5"
         sodipodi:cy="97.362183"
         sodipodi:cx="65"
         id="path2987-3-4"
         style="fill:none;fill-opacity:1;stroke:#000000;stroke-opacity:1;stroke-width:1;stroke-miterlimit:4;stroke-dasharray:1, 1;stroke-dashoffset:0"
         sodipodi:type="arc" />
      <path
         d="m 70,97.362183 a 5,5 0 1 1 -10,0 5,5 0 1 1 10,0 z"
         sodipodi:ry="5"
         sodipodi:rx="5"
         sodipodi:cy="97.362183"
         sodipodi:cx="65"
         id="path2987-8-1-2"
         style="fill:none;fill-opacity:1;stroke:#000000;stroke-opacity:1;stroke-width:1;stroke-miterlimit:4;stroke-dasharray:1, 1;stroke-dashoffset:0"
         sodipodi:type="arc"
         transform="translate(180,0)" />
      <path
         d="m 70,97.362183 a 5,5 0 1 1 -10,0 5,5 0 1 1 10,0 z"
         sodipodi:ry="5"
         sodipodi:rx="5"
         sodipodi:cy="97.362183"
         sodipodi:cx="65"
         id="path2987-6-5-3"
         style="fill:#0000ff;fill-opacity:1;stroke:none"
         sodipodi:type="arc"
         transform="translate(160,20)" />
      <path
         d="m 70,97.362183 a 5,5 0 1 1 -10,0 5,5 0 1 1 10,0 z"
         sodipodi:ry="5"
         sodipodi:rx="5"
         sodipodi:cy="97.362183"
         sodipodi:cx="65"
         id="path2987-5-9-2"
         style="fill:#0000ff;fill-opacity:1;stroke:none"
         sodipodi:type="arc"
         transform="translate(180,20)" />
      <path
         transform="translate(160,0)"
         sodipodi:open="true"
         sodipodi:end="6.2697453"
         sodipodi:start="0"
         d="m 100,107.36218 a 25,25 0 1 1 -0.0023,-0.33599"
         sodipodi:ry="25"
         sodipodi:rx="25"
         sodipodi:cy="107.36218"
         sodipodi:cx="75"
         id="path3818-3-4"
         style="fill:none;stroke:#000000;stroke-width:1;stroke-linecap:round;stroke-linejoin:round;stroke-miterlimit:4;stroke-opacity:1;stroke-dasharray:none"
         sodipodi:type="arc" />
    </g>
    <path
       style="fill:none;stroke:#000000;stroke-width:1px;stroke-linecap:butt;stroke-linejoin:miter;stroke-opacity:1"
       d="m 25.5,85.499997 0,0"
       id="path5024-6"
       inkscape:connector-type="polyline"
       inkscape:connector-curvature="0" />
    <path
       style="fill:none;stroke:#000000;stroke-width:1px;stroke-linecap:butt;stroke-linejoin:miter;stroke-opacity:1;marker-end:url(#Arrow1Mend)"
       d="M 95.803502,93.493181 144.19654,61.231155"
       id="path5635"
       inkscape:connector-type="polyline"
       inkscape:connector-curvature="0"
       inkscape:connection-start="#g3835"
       inkscape:connection-start-point="d4"
       inkscape:connection-end="#g5576"
       inkscape:connection-end-point="d4" />
    <path
       style="fill:none;stroke:#000000;stroke-width:1px;stroke-linecap:butt;stroke-linejoin:miter;stroke-opacity:1;marker-end:url(#Arrow1Mend)"
       d="m 190,47.362183 20,0"
       id="path5637"
       inkscape:connector-type="polyline"
       inkscape:connector-curvature="0"
       inkscape:connection-start="#g5576"
       inkscape:connection-start-point="d4"
       inkscape:connection-end="#g5614"
       inkscape:connection-end-point="d4" />
    <path
       style="fill:none;stroke:#000000;stroke-width:1px;stroke-linecap:butt;stroke-linejoin:miter;stroke-opacity:1;marker-end:url(#Arrow1Mend)"
       d="m 255.80346,61.231156 54.19653,36.131019"
       id="path5639"
       inkscape:connector-type="polyline"
       inkscape:connector-curvature="0"
       inkscape:connection-start="#g5614"
       inkscape:connection-start-point="d4"
       inkscape:connection-end="#g5055"
       inkscape:connection-end-point="d4" />
    <path
       style="fill:none;stroke:#000000;stroke-width:1px;stroke-linecap:butt;stroke-linejoin:miter;stroke-opacity:1;marker-end:url(#Arrow1Mend)"
       d="m 100,107.36218 40,0"
       id="path5641"
       inkscape:connector-type="polyline"
       inkscape:connector-curvature="0"
       inkscape:connection-start="#g3835"
       inkscape:connection-start-point="d4"
       inkscape:connection-end="#g5583"
       inkscape:connection-end-point="d4" />
    <path
       style="fill:none;stroke:#000000;stroke-width:1px;stroke-linecap:butt;stroke-linejoin:miter;stroke-opacity:1;marker-end:url(#Arrow1Mend)"
       d="m 190,107.36218 20,0"
       id="path5643"
       inkscape:connector-type="polyline"
       inkscape:connector-curvature="0"
       inkscape:connection-start="#g5583"
       inkscape:connection-start-point="d4"
       inkscape:connection-end="#g5621"
       inkscape:connection-end-point="d4" />
    <path
       style="fill:none;stroke:#000000;stroke-width:1px;stroke-linecap:butt;stroke-linejoin:miter;stroke-opacity:1;marker-end:url(#Arrow1Mend)"
       d="m 95.803459,121.23116 48.393081,32.26205"
       id="path5647"
       inkscape:connector-type="polyline"
       inkscape:connector-curvature="0"
       inkscape:connection-start="#g3835"
       inkscape:connection-start-point="d4"
       inkscape:connection-end="#g5591"
       inkscape:connection-end-point="d4" />
    <path
       style="fill:none;stroke:#000000;stroke-width:1px;stroke-linecap:butt;stroke-linejoin:miter;stroke-opacity:1;marker-end:url(#Arrow1Mend)"
       d="m 190,167.36218 20,0"
       id="path5649"
       inkscape:connector-type="polyline"
       inkscape:connector-curvature="0"
       inkscape:connection-start="#g5591"
       inkscape:connection-start-point="d4"
       inkscape:connection-end="#g5628"
       inkscape:connection-end-point="d4" />
    <path
       style="fill:none;stroke:#000000;stroke-width:1px;stroke-linecap:butt;stroke-linejoin:miter;stroke-opacity:1;marker-end:url(#Arrow1Mend)"
       d="m 255.8035,153.49318 54.19649,-36.131"
       id="path5653"
       inkscape:connector-type="polyline"
       inkscape:connector-curvature="0"
       inkscape:connection-start="#g5628"
       inkscape:connection-start-point="d4"
       inkscape:connection-end="#g5055"
       inkscape:connection-end-point="d4" />
    <path
       style="fill:none;stroke:#000000;stroke-width:1px;stroke-linecap:butt;stroke-linejoin:miter;stroke-opacity:1;marker-end:url(#Arrow1Mend)"
       d="m 260,107.36218 25,0"
       id="path5659"
       inkscape:connector-type="polyline"
       inkscape:connector-curvature="0"
       inkscape:connection-start="#g5621"
       inkscape:connection-start-point="d4"
       inkscape:connection-end="#g5055"
       inkscape:connection-end-point="d4"
       sodipodi:nodetypes="cc" />
  </g>
</svg>
