<?xml version="1.0" encoding="UTF-8" standalone="no"?>
<!-- Created with Inkscape (http://www.inkscape.org/) -->

<svg
   xmlns:dc="http://purl.org/dc/elements/1.1/"
   xmlns:cc="http://creativecommons.org/ns#"
   xmlns:rdf="http://www.w3.org/1999/02/22-rdf-syntax-ns#"
   xmlns:svg="http://www.w3.org/2000/svg"
   xmlns="http://www.w3.org/2000/svg"
   xmlns:sodipodi="http://sodipodi.sourceforge.net/DTD/sodipodi-0.dtd"
   xmlns:inkscape="http://www.inkscape.org/namespaces/inkscape"
   width="210mm"
   height="297mm"
   id="svg3125"
   version="1.1"
   inkscape:version="0.48.3.1 r9886"
   sodipodi:docname="baseball_coup.svg">
  <defs
     id="defs3127">
    <marker
       inkscape:stockid="Arrow1Mend"
       orient="auto"
       refY="0.0"
       refX="0.0"
       id="Arrow1Mend"
       style="overflow:visible;">
      <path
         id="path4142"
         d="M 0.0,0.0 L 5.0,-5.0 L -12.5,0.0 L 5.0,5.0 L 0.0,0.0 z "
         style="fill-rule:evenodd;stroke:#000000;stroke-width:1.0pt;"
         transform="scale(0.4) rotate(180) translate(10,0)" />
    </marker>
    <marker
       inkscape:stockid="Arrow1Mend"
       orient="auto"
       refY="0"
       refX="0"
       id="Arrow1Mend-4"
       style="overflow:visible">
      <path
         inkscape:connector-curvature="0"
         id="path4142-3"
         d="M 0,0 5,-5 -12.5,0 5,5 0,0 z"
         style="fill-rule:evenodd;stroke:#000000;stroke-width:1pt"
         transform="matrix(-0.4,0,0,-0.4,-4,0)" />
    </marker>
    <marker
       inkscape:stockid="Arrow1Mend"
       orient="auto"
       refY="0"
       refX="0"
       id="Arrow1Mend-9"
       style="overflow:visible">
      <path
         inkscape:connector-curvature="0"
         id="path4142-4"
         d="M 0,0 5,-5 -12.5,0 5,5 0,0 z"
         style="fill-rule:evenodd;stroke:#000000;stroke-width:1pt"
         transform="matrix(-0.4,0,0,-0.4,-4,0)" />
    </marker>
    <marker
       inkscape:stockid="Arrow1Mend"
       orient="auto"
       refY="0"
       refX="0"
       id="marker4630"
       style="overflow:visible">
      <path
         inkscape:connector-curvature="0"
         id="path4632"
         d="M 0,0 5,-5 -12.5,0 5,5 0,0 z"
         style="fill-rule:evenodd;stroke:#000000;stroke-width:1pt"
         transform="matrix(-0.4,0,0,-0.4,-4,0)" />
    </marker>
    <marker
       inkscape:stockid="Arrow1Mend"
       orient="auto"
       refY="0"
       refX="0"
       id="marker4630-0"
       style="overflow:visible">
      <path
         inkscape:connector-curvature="0"
         id="path4632-6"
         d="M 0,0 5,-5 -12.5,0 5,5 0,0 z"
         style="fill-rule:evenodd;stroke:#000000;stroke-width:1pt"
         transform="matrix(-0.4,0,0,-0.4,-4,0)" />
    </marker>
  </defs>
  <sodipodi:namedview
     id="base"
     pagecolor="#ffffff"
     bordercolor="#666666"
     borderopacity="1.0"
     inkscape:pageopacity="0.0"
     inkscape:pageshadow="2"
     inkscape:zoom="1.979899"
     inkscape:cx="165.50261"
     inkscape:cy="900.80788"
     inkscape:document-units="px"
     inkscape:current-layer="layer1"
     showgrid="true"
     inkscape:window-width="1280"
     inkscape:window-height="785"
     inkscape:window-x="0"
     inkscape:window-y="15"
     inkscape:window-maximized="0">
    <inkscape:grid
       type="xygrid"
       id="grid3133" />
  </sodipodi:namedview>
  <metadata
     id="metadata3130">
    <rdf:RDF>
      <cc:Work
         rdf:about="">
        <dc:format>image/svg+xml</dc:format>
        <dc:type
           rdf:resource="http://purl.org/dc/dcmitype/StillImage" />
        <dc:title />
      </cc:Work>
    </rdf:RDF>
  </metadata>
  <g
     inkscape:label="Calque 1"
     inkscape:groupmode="layer"
     id="layer1">
    <g
       id="g7268">
      <path
         transform="translate(-489,-71.362176)"
         d="m 720,192.36218 a 110,110 0 1 1 -220,0 110,110 0 1 1 220,0 z"
         sodipodi:ry="110"
         sodipodi:rx="110"
         sodipodi:cy="192.36218"
         sodipodi:cx="610"
         id="path5830"
         style="fill:#ffffff;fill-opacity:1;stroke:#000000;stroke-width:2;stroke-linecap:round;stroke-linejoin:round;stroke-miterlimit:4;stroke-opacity:1;stroke-dasharray:2, 4;stroke-dashoffset:0"
         sodipodi:type="arc" />
      <path
         transform="matrix(0.70710678,-0.70710678,0.70710678,0.70710678,-413.21865,336.31454)"
         d="m 570,112.36218 a 40,40 0 1 1 -80,0 40,40 0 1 1 80,0 z"
         sodipodi:ry="40"
         sodipodi:rx="40"
         sodipodi:cy="112.36218"
         sodipodi:cx="530"
         id="path5747"
         style="fill:#ffff00;fill-opacity:1;stroke:#000000;stroke-width:2;stroke-linecap:round;stroke-linejoin:round;stroke-miterlimit:4;stroke-opacity:1;stroke-dasharray:none;stroke-dashoffset:0"
         sodipodi:type="arc" />
      <rect
         transform="matrix(0.70710678,0.70710678,-0.70710678,0.70710678,0,0)"
         y="-10.000007"
         x="37.982761"
         height="20"
         width="20"
         id="rect3953-3-3"
         style="fill:#ff0000;fill-opacity:1;stroke:#000000;stroke-width:2;stroke-linecap:round;stroke-linejoin:round;stroke-miterlimit:4;stroke-opacity:1;stroke-dasharray:none;stroke-dashoffset:0" />
      <rect
         transform="matrix(0.70710678,0.70710678,-0.70710678,0.70710678,0,0)"
         y="-10.000007"
         x="57.982761"
         height="20"
         width="20"
         id="rect3955-1-5"
         style="fill:#0000ff;fill-opacity:1;stroke:#000000;stroke-width:2;stroke-linecap:round;stroke-linejoin:round;stroke-miterlimit:4;stroke-opacity:1;stroke-dasharray:none;stroke-dashoffset:0" />
      <path
         d="m 570,112.36218 a 40,40 0 1 1 -80,0 40,40 0 1 1 80,0 z"
         sodipodi:ry="40"
         sodipodi:rx="40"
         sodipodi:cy="112.36218"
         sodipodi:cx="530"
         id="path5747-1"
         style="fill:#00ff00;fill-opacity:1;stroke:#000000;stroke-width:2;stroke-linecap:round;stroke-linejoin:round;stroke-miterlimit:4;stroke-opacity:1;stroke-dasharray:none;stroke-dashoffset:0"
         sodipodi:type="arc"
         transform="matrix(-0.70710678,-0.70710678,0.70710678,-0.70710678,496.31455,495.21865)" />
      <rect
         transform="matrix(0.70710678,-0.70710678,0.70710678,0.70710678,0,0)"
         y="161.11981"
         x="93.137093"
         height="20"
         width="20"
         id="rect3953-3-3-2"
         style="fill:#ffff00;fill-opacity:1;stroke:#000000;stroke-width:2;stroke-linecap:round;stroke-linejoin:round;stroke-miterlimit:4;stroke-opacity:1;stroke-dasharray:none;stroke-dashoffset:0" />
      <rect
         transform="matrix(0.70710678,-0.70710678,0.70710678,0.70710678,0,0)"
         y="161.11981"
         x="113.13709"
         height="20"
         width="20"
         id="rect3955-1-5-8"
         style="fill:#0000ff;fill-opacity:1;stroke:#000000;stroke-width:2;stroke-linecap:round;stroke-linejoin:round;stroke-miterlimit:4;stroke-opacity:1;stroke-dasharray:none;stroke-dashoffset:0" />
      <path
         d="m 570,112.36218 a 40,40 0 1 1 -80,0 40,40 0 1 1 80,0 z"
         sodipodi:ry="40"
         sodipodi:rx="40"
         sodipodi:cy="112.36218"
         sodipodi:cx="530"
         id="path5747-8"
         style="fill:#ff0000;fill-opacity:1;stroke:#000000;stroke-width:2;stroke-linecap:round;stroke-linejoin:round;stroke-miterlimit:4;stroke-opacity:1;stroke-dasharray:none;stroke-dashoffset:0"
         sodipodi:type="arc"
         transform="matrix(-0.70710678,-0.70710678,0.70710678,-0.70710678,336.31454,655.21864)" />
      <rect
         transform="matrix(0.70710678,-0.70710678,0.70710678,0.70710678,0,0)"
         y="161.11981"
         x="-133.13708"
         height="20"
         width="20"
         id="rect3953-3-3-7"
         style="fill:#ffff00;fill-opacity:1;stroke:#000000;stroke-width:2;stroke-linecap:round;stroke-linejoin:round;stroke-miterlimit:4;stroke-opacity:1;stroke-dasharray:none;stroke-dashoffset:0" />
      <rect
         transform="matrix(0.70710678,-0.70710678,0.70710678,0.70710678,0,0)"
         y="161.11981"
         x="-113.13708"
         height="20"
         width="20"
         id="rect3955-1-5-5"
         style="fill:#00ff00;fill-opacity:1;stroke:#000000;stroke-width:2;stroke-linecap:round;stroke-linejoin:round;stroke-miterlimit:4;stroke-opacity:1;stroke-dasharray:none;stroke-dashoffset:0" />
      <path
         d="m 570,112.36218 a 40,40 0 1 1 -80,0 40,40 0 1 1 80,0 z"
         sodipodi:ry="40"
         sodipodi:rx="40"
         sodipodi:cy="112.36218"
         sodipodi:cx="530"
         id="path5747-2"
         style="fill:#0000ff;fill-opacity:1;stroke:#000000;stroke-width:2;stroke-linecap:round;stroke-linejoin:round;stroke-miterlimit:4;stroke-opacity:1;stroke-dasharray:none;stroke-dashoffset:0"
         sodipodi:type="arc"
         transform="matrix(0.70710678,-0.70710678,0.70710678,0.70710678,-253.21866,496.31453)" />
      <rect
         transform="matrix(0.70710678,0.70710678,-0.70710678,0.70710678,0,0)"
         y="-10.000007"
         x="264.2569"
         height="20"
         width="20"
         id="rect3953-3-3-8"
         style="fill:#00ff00;fill-opacity:1;stroke:#000000;stroke-width:2;stroke-linecap:round;stroke-linejoin:round;stroke-miterlimit:4;stroke-opacity:1;stroke-dasharray:none;stroke-dashoffset:0" />
      <rect
         transform="matrix(0.70710678,0.70710678,-0.70710678,0.70710678,0,0)"
         y="-10.000007"
         x="284.2569"
         height="20"
         width="20"
         id="rect3955-1-5-0"
         style="fill:#ffffff;fill-opacity:1;stroke:#000000;stroke-width:2;stroke-linecap:round;stroke-linejoin:round;stroke-miterlimit:4;stroke-opacity:1;stroke-dasharray:none;stroke-dashoffset:0" />
      <path
         inkscape:connector-curvature="0"
         id="path6095"
         d="m 70,242.36218 c 23.213826,10.30554 49.76238,14.53705 74.67875,8.40398 8.68549,-1.97987 17.13973,-4.89527 25.32125,-8.40398"
         style="fill:none;stroke:#000000;stroke-width:3;stroke-linecap:butt;stroke-linejoin:miter;stroke-miterlimit:4;stroke-opacity:1;stroke-dasharray:none;marker-end:url(#marker4630)" />
      <path
         inkscape:connector-curvature="0"
         id="path6095-3"
         d="m 241.59602,67.683439 c 10.30554,23.213827 14.53705,49.762371 8.40398,74.678741 -1.97987,8.68549 -4.89527,17.13973 -8.40398,25.32125"
         style="fill:none;stroke:#000000;stroke-width:3;stroke-linecap:butt;stroke-linejoin:miter;stroke-miterlimit:4;stroke-opacity:1;stroke-dasharray:none;marker-end:url(#marker4630)" />
      <g
         transform="matrix(-0.70710678,-0.70710678,0.70710678,-0.70710678,-7.2792202,535.40588)"
         id="g6879">
        <rect
           style="fill:#ffff00;fill-opacity:1;stroke:#000000;stroke-width:2;stroke-linecap:round;stroke-linejoin:round;stroke-miterlimit:4;stroke-opacity:1;stroke-dasharray:none;stroke-dashoffset:0"
           id="rect3953-3-3-7-2"
           width="20"
           height="20"
           x="-147.27922"
           y="253.0437"
           transform="matrix(0.70710678,-0.70710678,0.70710678,0.70710678,0,0)" />
        <rect
           style="fill:#00ff00;fill-opacity:1;stroke:#000000;stroke-width:2;stroke-linecap:round;stroke-linejoin:round;stroke-miterlimit:4;stroke-opacity:1;stroke-dasharray:none;stroke-dashoffset:0"
           id="rect3955-1-5-5-4"
           width="20"
           height="20"
           x="-127.27921"
           y="253.0437"
           transform="matrix(0.70710678,-0.70710678,0.70710678,0.70710678,0,0)" />
      </g>
      <g
         transform="matrix(0.70710678,-0.70710678,0.70710678,0.70710678,-2.1858206,223.4282)"
         id="g6904">
        <rect
           style="fill:#ffff00;fill-opacity:1;stroke:#000000;stroke-width:2;stroke-linecap:round;stroke-linejoin:round;stroke-miterlimit:4;stroke-opacity:1;stroke-dasharray:none;stroke-dashoffset:0"
           id="rect3953-3-3-2-3"
           width="20"
           height="20"
           x="86.066017"
           y="267.18582"
           transform="matrix(0.70710678,-0.70710678,0.70710678,0.70710678,0,0)" />
        <rect
           style="fill:#0000ff;fill-opacity:1;stroke:#000000;stroke-width:2;stroke-linecap:round;stroke-linejoin:round;stroke-miterlimit:4;stroke-opacity:1;stroke-dasharray:none;stroke-dashoffset:0"
           id="rect3955-1-5-8-8"
           width="20"
           height="20"
           x="106.06602"
           y="267.18582"
           transform="matrix(0.70710678,-0.70710678,0.70710678,0.70710678,0,0)" />
      </g>
    </g>
  </g>
</svg>
