<?xml version="1.0" encoding="UTF-8" standalone="no"?>
<!-- Created with Inkscape (http://www.inkscape.org/) -->

<svg
   xmlns:dc="http://purl.org/dc/elements/1.1/"
   xmlns:cc="http://creativecommons.org/ns#"
   xmlns:rdf="http://www.w3.org/1999/02/22-rdf-syntax-ns#"
   xmlns:svg="http://www.w3.org/2000/svg"
   xmlns="http://www.w3.org/2000/svg"
   xmlns:xlink="http://www.w3.org/1999/xlink"
   xmlns:sodipodi="http://sodipodi.sourceforge.net/DTD/sodipodi-0.dtd"
   xmlns:inkscape="http://www.inkscape.org/namespaces/inkscape"
   width="524.40942"
   height="744.09448"
   id="svg2"
   version="1.1"
   inkscape:version="0.48.3.1 r9886"
   sodipodi:docname="couverture.svg">
  <defs
     id="defs4">
    <linearGradient
       inkscape:collect="always"
       id="linearGradient4943">
      <stop
         style="stop-color:#000000;stop-opacity:1;"
         offset="0"
         id="stop4945" />
      <stop
         style="stop-color:#000000;stop-opacity:0;"
         offset="1"
         id="stop4947" />
    </linearGradient>
    <linearGradient
       inkscape:collect="always"
       xlink:href="#linearGradient4943"
       id="linearGradient4949"
       x1="-239.09869"
       y1="50.289883"
       x2="1388.88"
       y2="50.289883"
       gradientUnits="userSpaceOnUse" />
    <linearGradient
       inkscape:collect="always"
       xlink:href="#linearGradient4943"
       id="linearGradient5143"
       gradientUnits="userSpaceOnUse"
       x1="-239.09869"
       y1="50.289883"
       x2="1388.88"
       y2="50.289883" />
    <linearGradient
       inkscape:collect="always"
       xlink:href="#linearGradient4943"
       id="linearGradient5337"
       gradientUnits="userSpaceOnUse"
       x1="-239.09869"
       y1="50.289883"
       x2="1388.88"
       y2="50.289883" />
    <linearGradient
       inkscape:collect="always"
       xlink:href="#linearGradient4943"
       id="linearGradient5531"
       gradientUnits="userSpaceOnUse"
       x1="-239.09869"
       y1="50.289883"
       x2="1388.88"
       y2="50.289883" />
    <linearGradient
       inkscape:collect="always"
       xlink:href="#linearGradient4943"
       id="linearGradient5725"
       gradientUnits="userSpaceOnUse"
       x1="-239.09869"
       y1="50.289883"
       x2="1388.88"
       y2="50.289883" />
    <linearGradient
       inkscape:collect="always"
       xlink:href="#linearGradient4943"
       id="linearGradient6307"
       gradientUnits="userSpaceOnUse"
       x1="-239.09869"
       y1="50.289883"
       x2="1388.88"
       y2="50.289883" />
    <linearGradient
       inkscape:collect="always"
       xlink:href="#linearGradient4943"
       id="linearGradient6551"
       gradientUnits="userSpaceOnUse"
       x1="-239.09869"
       y1="50.289883"
       x2="1388.88"
       y2="50.289883" />
    <linearGradient
       inkscape:collect="always"
       xlink:href="#linearGradient4943"
       id="linearGradient6841"
       gradientUnits="userSpaceOnUse"
       x1="-239.09869"
       y1="50.289883"
       x2="1388.88"
       y2="50.289883" />
    <linearGradient
       inkscape:collect="always"
       xlink:href="#linearGradient4943"
       id="linearGradient7131"
       gradientUnits="userSpaceOnUse"
       x1="-239.09869"
       y1="50.289883"
       x2="1388.88"
       y2="50.289883" />
    <linearGradient
       inkscape:collect="always"
       xlink:href="#linearGradient4943"
       id="linearGradient7422"
       gradientUnits="userSpaceOnUse"
       gradientTransform="translate(-147.38363,328.07824)"
       x1="411.92175"
       y1="19.197445"
       x2="410.91162"
       y2="82.837059" />
  </defs>
  <sodipodi:namedview
     id="base"
     pagecolor="#ffffff"
     bordercolor="#666666"
     borderopacity="1.0"
     inkscape:pageopacity="0.0"
     inkscape:pageshadow="2"
     inkscape:zoom="0.7"
     inkscape:cx="354.38389"
     inkscape:cy="380.97738"
     inkscape:document-units="mm"
     inkscape:current-layer="layer1"
     showgrid="false"
     units="mm"
     showguides="true"
     inkscape:guide-bbox="true"
     inkscape:window-width="1280"
     inkscape:window-height="785"
     inkscape:window-x="0"
     inkscape:window-y="15"
     inkscape:window-maximized="0"
     inkscape:snap-grids="false"
     inkscape:snap-to-guides="true" />
  <metadata
     id="metadata7">
    <rdf:RDF>
      <cc:Work
         rdf:about="">
        <dc:format>image/svg+xml</dc:format>
        <dc:type
           rdf:resource="http://purl.org/dc/dcmitype/StillImage" />
        <dc:title />
      </cc:Work>
    </rdf:RDF>
  </metadata>
  <g
     inkscape:label="Calque 1"
     inkscape:groupmode="layer"
     id="layer1"
     transform="translate(0,-308.26768)">
    <g
       transform="translate(-227.13683,354.75521)"
       id="layer1-2"
       inkscape:label="Calque 1">
      <g
         transform="matrix(0.95463445,0,0,0.95463445,11.750883,20.223435)"
         id="g3039">
        <path
           style="fill:#000000"
           d="m 343.36884,666.33639 c 0.13933,-3.6387 0.30475,-18.4174 0.36758,-32.84154 l 0.11426,-26.22572 -40.45221,-10.58023 c -22.24872,-5.81914 -40.38993,-10.64252 -40.3138,-10.71865 0.0761,-0.0761 9.54672,-2.7763 21.04578,-6.00039 l 20.90737,-5.86198 0.11931,8.70616 0.1193,8.70616 2.3065,0.65889 c 1.26857,0.36239 9.002,2.39065 17.1854,4.50723 l 14.8789,3.84835 0.87667,-1.11451 c 0.48217,-0.61298 6.94716,-8.62995 14.36666,-17.8155 l 13.48998,-16.70099 -13.99528,-3.49592 -13.99528,-3.49593 -2.23915,2.5986 c -1.23153,1.42923 -2.84091,3.26728 -3.5764,4.08456 l -1.33725,1.48596 -1.97066,-3.8129 c -1.79912,-3.48099 -2.06665,-3.79293 -3.0733,-3.58357 -0.60645,0.12613 -16.3852,4.58499 -35.06389,9.90858 -18.67869,5.32358 -34.02468,9.61582 -34.10222,9.53831 -0.0775,-0.0775 8.47078,-9.64025 18.99625,-21.25053 l 19.13723,-21.1096 34.32718,-10.31671 c 33.08785,-9.94424 34.34999,-10.28637 34.95879,-9.47627 0.34738,0.46224 1.29359,2.14252 2.10269,3.73396 l 1.47109,2.89352 -12.96195,15.40083 c -7.12907,8.47046 -12.81877,15.52632 -12.64378,15.67968 0.175,0.15336 8.20755,2.20805 17.85012,4.56597 l 17.53194,4.28713 0,1.86756 c 0,1.02716 -0.4022,15.51917 -0.89377,32.20446 l -0.89377,30.33691 -16.79899,22.34039 c -9.23945,12.28722 -17.09051,22.63811 -17.44682,23.00198 -0.57011,0.58222 -0.61743,-0.13199 -0.39448,-5.95425 z"
           id="path3821"
           inkscape:connector-curvature="0" />
        <g
           id="g3033"
           transform="translate(-10,0)">
          <text
             sodipodi:linespacing="125%"
             id="text2991"
             y="585.50592"
             x="397.07767"
             style="font-size:31.75597191px;font-style:normal;font-variant:normal;font-weight:normal;font-stretch:normal;text-align:start;line-height:125%;letter-spacing:0px;word-spacing:0px;text-anchor:start;fill:#000000;fill-opacity:1;stroke:none;font-family:Bebas Neue;-inkscape-font-specification:Bebas Neue"
             xml:space="preserve"><tspan
               id="tspan2995"
               y="585.50592"
               x="397.07767"
               sodipodi:role="line">sciences manuelles du numerique</tspan></text>
          <text
             transform="scale(0.98785338,1.012296)"
             sodipodi:linespacing="125%"
             id="text2993"
             y="594.86456"
             x="401.74588"
             style="font-size:13.94233131px;font-style:normal;font-variant:normal;font-weight:500;font-stretch:normal;text-align:start;line-height:125%;letter-spacing:0px;word-spacing:0px;text-anchor:start;fill:#000000;fill-opacity:1;stroke:none;font-family:GeosansLight;-inkscape-font-specification:GeosansLight Medium"
             xml:space="preserve"><tspan
               y="594.86456"
               x="401.74588"
               id="tspan2996"
               sodipodi:role="line">DÉCONSTRUIRE L'INFORMATIQUE POUR MIEUX LA COMPRENDRE</tspan></text>
        </g>
      </g>
    </g>
    <g
       id="g3265"
       transform="translate(0,35.43307)">
      <g
         transform="matrix(0.8,0,0,0.8,-37.09883,174.28689)"
         id="layer1-4">
        <g
           transform="translate(6.9975142,7.4999195)"
           id="g4532">
          <path
             inkscape:connector-curvature="0"
             d="m 460.59115,661.15963 -93.45927,0 -93.45928,10e-6 -28.88048,-88.88505 -28.88048,-88.88505 75.61013,-54.93398 75.61012,-54.93399 75.61014,54.93399 75.61015,54.93399 -28.88051,88.88504 -28.88052,88.88504 z"
             style="color:#000000;fill:none;stroke:#000000;stroke-width:4;stroke-linecap:butt;stroke-linejoin:miter;stroke-miterlimit:4;stroke-opacity:1;stroke-dasharray:4, 8;stroke-dashoffset:0;marker:none;visibility:visible;display:inline;overflow:visible"
             id="path4409" />
          <path
             inkscape:connector-curvature="0"
             d="M 502.52919,718.70017 231.73461,718.70016 148.05449,461.15915 367.1319,301.99014 586.20933,461.15918 502.52919,718.70017 z"
             style="color:#000000;fill:none;stroke:#000000;stroke-width:4;stroke-linecap:butt;stroke-linejoin:miter;stroke-miterlimit:4;stroke-opacity:1;stroke-dasharray:4, 8;stroke-dashoffset:0;marker:none;visibility:visible;display:inline;overflow:visible"
             id="path4432" />
          <path
             inkscape:connector-curvature="0"
             d="m 450.49334,559.28514 -83.36139,60.5656 -83.36146,-60.56563 31.84126,-97.99722 103.04037,2e-5 31.84122,97.99723 z"
             style="color:#000000;fill:none;stroke:#000000;stroke-width:4;stroke-linecap:butt;stroke-linejoin:miter;stroke-miterlimit:4;stroke-opacity:1;stroke-dasharray:4, 8;stroke-dashoffset:0;marker:none;visibility:visible;display:inline;overflow:visible"
             id="path4434" />
          <path
             inkscape:connector-curvature="0"
             d="m 367.1319,301.99014 -10e-6,71.53143"
             style="fill:none;stroke:#000000;stroke-width:4;stroke-linecap:butt;stroke-linejoin:miter;stroke-miterlimit:4;stroke-opacity:1;stroke-dasharray:4, 8;stroke-dashoffset:0"
             id="path4444" />
          <path
             inkscape:connector-curvature="0"
             d="m 586.20933,461.15918 -67.85715,22.23037"
             style="fill:none;stroke:#000000;stroke-width:4;stroke-linecap:butt;stroke-linejoin:miter;stroke-miterlimit:4;stroke-opacity:1;stroke-dasharray:4, 8;stroke-dashoffset:0"
             id="path4446" />
          <path
             inkscape:connector-curvature="0"
             d="m 460.59115,661.15963 41.93804,57.54054"
             style="fill:none;stroke:#000000;stroke-width:4;stroke-linecap:butt;stroke-linejoin:miter;stroke-miterlimit:4;stroke-opacity:1;stroke-dasharray:4, 8;stroke-dashoffset:0"
             id="path4448" />
          <path
             inkscape:connector-curvature="0"
             d="M 231.73461,718.70016 273.6726,661.15964"
             style="fill:none;stroke:#000000;stroke-width:4;stroke-linecap:butt;stroke-linejoin:miter;stroke-miterlimit:4;stroke-opacity:1;stroke-dasharray:4, 8;stroke-dashoffset:0"
             id="path4450" />
          <path
             inkscape:connector-curvature="0"
             d="m 148.05449,461.15915 67.85715,22.23039"
             style="fill:none;stroke:#000000;stroke-width:4;stroke-linecap:butt;stroke-linejoin:miter;stroke-miterlimit:4;stroke-opacity:1;stroke-dasharray:4, 8;stroke-dashoffset:0"
             id="path4452" />
          <path
             inkscape:connector-curvature="0"
             d="m 283.77049,559.28511 -38.97837,12.98948"
             style="fill:none;stroke:#000000;stroke-width:4;stroke-linecap:butt;stroke-linejoin:miter;stroke-miterlimit:4;stroke-opacity:1;stroke-dasharray:4, 8;stroke-dashoffset:0"
             id="path4454" />
          <path
             inkscape:connector-curvature="0"
             d="M 315.61175,461.28789 291.52177,428.45556"
             style="fill:none;stroke:#000000;stroke-width:4;stroke-linecap:butt;stroke-linejoin:miter;stroke-miterlimit:4;stroke-opacity:1;stroke-dasharray:4, 8;stroke-dashoffset:0"
             id="path4456" />
          <path
             inkscape:connector-curvature="0"
             d="m 418.65212,461.28791 24.08991,-32.83235"
             style="fill:none;stroke:#000000;stroke-width:4;stroke-linecap:butt;stroke-linejoin:miter;stroke-miterlimit:4;stroke-opacity:1;stroke-dasharray:4, 8;stroke-dashoffset:0"
             id="path4458" />
          <path
             inkscape:connector-curvature="0"
             d="m 450.49334,559.28514 38.97833,12.98945"
             style="fill:none;stroke:#000000;stroke-width:4;stroke-linecap:butt;stroke-linejoin:miter;stroke-miterlimit:4;stroke-opacity:1;stroke-dasharray:4, 8;stroke-dashoffset:0"
             id="path4460" />
          <path
             inkscape:connector-curvature="0"
             d="m 367.13195,619.85074 -7e-5,41.30889"
             style="fill:none;stroke:#000000;stroke-width:4;stroke-linecap:butt;stroke-linejoin:miter;stroke-miterlimit:4;stroke-opacity:1;stroke-dasharray:4, 8;stroke-dashoffset:0"
             id="path4462" />
          <path
             inkscape:connector-curvature="0"
             d="m 273.6726,661.15964 -57.76096,-177.7701 151.22025,-109.86797 151.22029,109.86798 -28.88051,88.88504 -38.97833,-12.98945 -31.84122,-97.99723 -103.04037,-2e-5 -31.84126,97.99722 83.36146,60.56563 -7e-5,41.30889 93.45927,0 41.93804,57.54054 L 586.20933,461.15918 367.1319,301.99014 148.05449,461.15915 231.73461,718.70016 273.6726,661.15964"
             style="fill:none;stroke:#ff0000;stroke-width:8;stroke-linecap:butt;stroke-linejoin:bevel;stroke-miterlimit:4;stroke-opacity:1;stroke-dasharray:none;stroke-dashoffset:0"
             id="path4490" />
          <path
             inkscape:connector-curvature="0"
             d="m 409.6468,301.99014 a 42.5149,42.5149 0 1 1 -85.0298,0 42.5149,42.5149 0 1 1 85.0298,0 z"
             transform="matrix(0.2149849,0,0,0.2149849,288.20409,237.06682)"
             style="color:#000000;fill:#000000;fill-opacity:1;fill-rule:nonzero;stroke:none;stroke-width:8;marker:none;visibility:visible;display:inline;overflow:visible"
             id="path4492" />
          <path
             inkscape:connector-curvature="0"
             d="m 409.6468,301.99014 a 42.5149,42.5149 0 1 1 -85.0298,0 42.5149,42.5149 0 1 1 85.0298,0 z"
             transform="matrix(0.2149849,0,0,0.2149849,507.28152,396.23586)"
             style="color:#000000;fill:#000000;fill-opacity:1;fill-rule:nonzero;stroke:none;stroke-width:8;marker:none;visibility:visible;display:inline;overflow:visible"
             id="path4494" />
          <path
             inkscape:connector-curvature="0"
             d="m 409.6468,301.99014 a 42.5149,42.5149 0 1 1 -85.0298,0 42.5149,42.5149 0 1 1 85.0298,0 z"
             transform="matrix(0.2149849,0,0,0.2149849,423.60138,653.77685)"
             style="color:#000000;fill:#000000;fill-opacity:1;fill-rule:nonzero;stroke:none;stroke-width:8;marker:none;visibility:visible;display:inline;overflow:visible"
             id="path4496" />
          <path
             inkscape:connector-curvature="0"
             d="m 409.6468,301.99014 a 42.5149,42.5149 0 1 1 -85.0298,0 42.5149,42.5149 0 1 1 85.0298,0 z"
             transform="matrix(0.2149849,0,0,0.2149849,152.8068,653.77684)"
             style="color:#000000;fill:#000000;fill-opacity:1;fill-rule:nonzero;stroke:none;stroke-width:8;marker:none;visibility:visible;display:inline;overflow:visible"
             id="path4498" />
          <path
             inkscape:connector-curvature="0"
             d="m 409.6468,301.99014 a 42.5149,42.5149 0 1 1 -85.0298,0 42.5149,42.5149 0 1 1 85.0298,0 z"
             transform="matrix(0.2149849,0,0,0.2149849,69.126676,396.23583)"
             style="color:#000000;fill:#000000;fill-opacity:1;fill-rule:nonzero;stroke:none;stroke-width:8;marker:none;visibility:visible;display:inline;overflow:visible"
             id="path4500" />
          <path
             inkscape:connector-curvature="0"
             d="m 409.6468,301.99014 a 42.5149,42.5149 0 1 1 -85.0298,0 42.5149,42.5149 0 1 1 85.0298,0 z"
             transform="matrix(0.2149849,0,0,0.2149849,136.98383,418.46622)"
             style="color:#000000;fill:#000000;fill-opacity:1;fill-rule:nonzero;stroke:none;stroke-width:8;marker:none;visibility:visible;display:inline;overflow:visible"
             id="path4502" />
          <path
             inkscape:connector-curvature="0"
             d="m 409.6468,301.99014 a 42.5149,42.5149 0 1 1 -85.0298,0 42.5149,42.5149 0 1 1 85.0298,0 z"
             transform="matrix(0.2149849,0,0,0.2149849,288.20408,308.59825)"
             style="color:#000000;fill:#000000;fill-opacity:1;fill-rule:nonzero;stroke:none;stroke-width:8;marker:none;visibility:visible;display:inline;overflow:visible"
             id="path4504" />
          <path
             inkscape:connector-curvature="0"
             d="m 409.6468,301.99014 a 42.5149,42.5149 0 1 1 -85.0298,0 42.5149,42.5149 0 1 1 85.0298,0 z"
             transform="matrix(0.2149849,0,0,0.2149849,439.42437,418.46623)"
             style="color:#000000;fill:#000000;fill-opacity:1;fill-rule:nonzero;stroke:none;stroke-width:8;marker:none;visibility:visible;display:inline;overflow:visible"
             id="path4506" />
          <path
             inkscape:connector-curvature="0"
             d="m 409.6468,301.99014 a 42.5149,42.5149 0 1 1 -85.0298,0 42.5149,42.5149 0 1 1 85.0298,0 z"
             transform="matrix(0.2149849,0,0,0.2149849,381.66334,596.23631)"
             style="color:#000000;fill:#000000;fill-opacity:1;fill-rule:nonzero;stroke:none;stroke-width:8;marker:none;visibility:visible;display:inline;overflow:visible"
             id="path4508" />
          <path
             inkscape:connector-curvature="0"
             d="m 409.6468,301.99014 a 42.5149,42.5149 0 1 1 -85.0298,0 42.5149,42.5149 0 1 1 85.0298,0 z"
             transform="matrix(0.2149849,0,0,0.2149849,194.74479,596.23632)"
             style="color:#000000;fill:#000000;fill-opacity:1;fill-rule:nonzero;stroke:none;stroke-width:8;marker:none;visibility:visible;display:inline;overflow:visible"
             id="path4510" />
          <path
             inkscape:connector-curvature="0"
             d="m 409.6468,301.99014 a 42.5149,42.5149 0 1 1 -85.0298,0 42.5149,42.5149 0 1 1 85.0298,0 z"
             transform="matrix(0.2149849,0,0,0.2149849,288.20414,554.92742)"
             style="color:#000000;fill:#000000;fill-opacity:1;fill-rule:nonzero;stroke:none;stroke-width:8;marker:none;visibility:visible;display:inline;overflow:visible"
             id="path4512" />
          <path
             inkscape:connector-curvature="0"
             d="m 409.6468,301.99014 a 42.5149,42.5149 0 1 1 -85.0298,0 42.5149,42.5149 0 1 1 85.0298,0 z"
             transform="matrix(0.2149849,0,0,0.2149849,204.84268,494.36179)"
             style="color:#000000;fill:#000000;fill-opacity:1;fill-rule:nonzero;stroke:none;stroke-width:8;marker:none;visibility:visible;display:inline;overflow:visible"
             id="path4514" />
          <path
             inkscape:connector-curvature="0"
             d="m 409.6468,301.99014 a 42.5149,42.5149 0 1 1 -85.0298,0 42.5149,42.5149 0 1 1 85.0298,0 z"
             transform="matrix(0.2149849,0,0,0.2149849,236.68394,396.36457)"
             style="color:#000000;fill:#000000;fill-opacity:1;fill-rule:nonzero;stroke:none;stroke-width:8;marker:none;visibility:visible;display:inline;overflow:visible"
             id="path4516" />
          <path
             inkscape:connector-curvature="0"
             d="m 409.6468,301.99014 a 42.5149,42.5149 0 1 1 -85.0298,0 42.5149,42.5149 0 1 1 85.0298,0 z"
             transform="matrix(0.2149849,0,0,0.2149849,339.72431,396.36459)"
             style="color:#000000;fill:#000000;fill-opacity:1;fill-rule:nonzero;stroke:none;stroke-width:8;marker:none;visibility:visible;display:inline;overflow:visible"
             id="path4518" />
          <path
             inkscape:connector-curvature="0"
             d="m 409.6468,301.99014 a 42.5149,42.5149 0 1 1 -85.0298,0 42.5149,42.5149 0 1 1 85.0298,0 z"
             transform="matrix(0.2149849,0,0,0.2149849,371.56553,494.36182)"
             style="color:#000000;fill:#000000;fill-opacity:1;fill-rule:nonzero;stroke:none;stroke-width:8;marker:none;visibility:visible;display:inline;overflow:visible"
             id="path4520" />
          <path
             inkscape:connector-curvature="0"
             d="m 409.6468,301.99014 a 42.5149,42.5149 0 1 1 -85.0298,0 42.5149,42.5149 0 1 1 85.0298,0 z"
             transform="matrix(0.2149849,0,0,0.2149849,410.54386,507.35127)"
             style="color:#000000;fill:#000000;fill-opacity:1;fill-rule:nonzero;stroke:none;stroke-width:8;marker:none;visibility:visible;display:inline;overflow:visible"
             id="path4522" />
          <path
             inkscape:connector-curvature="0"
             d="m 409.6468,301.99014 a 42.5149,42.5149 0 1 1 -85.0298,0 42.5149,42.5149 0 1 1 85.0298,0 z"
             transform="matrix(0.2149849,0,0,0.2149849,363.81422,363.53224)"
             style="color:#000000;fill:#000000;fill-opacity:1;fill-rule:nonzero;stroke:none;stroke-width:8;marker:none;visibility:visible;display:inline;overflow:visible"
             id="path4524" />
          <path
             inkscape:connector-curvature="0"
             d="m 409.6468,301.99014 a 42.5149,42.5149 0 1 1 -85.0298,0 42.5149,42.5149 0 1 1 85.0298,0 z"
             transform="matrix(0.2149849,0,0,0.2149849,212.59396,363.53224)"
             style="color:#000000;fill:#000000;fill-opacity:1;fill-rule:nonzero;stroke:none;stroke-width:8;marker:none;visibility:visible;display:inline;overflow:visible"
             id="path4526" />
          <path
             inkscape:connector-curvature="0"
             d="m 409.6468,301.99014 a 42.5149,42.5149 0 1 1 -85.0298,0 42.5149,42.5149 0 1 1 85.0298,0 z"
             transform="matrix(0.2149849,0,0,0.2149849,165.86431,507.35127)"
             style="color:#000000;fill:#000000;fill-opacity:1;fill-rule:nonzero;stroke:none;stroke-width:8;marker:none;visibility:visible;display:inline;overflow:visible"
             id="path4528" />
          <path
             inkscape:connector-curvature="0"
             d="m 409.6468,301.99014 a 42.5149,42.5149 0 1 1 -85.0298,0 42.5149,42.5149 0 1 1 85.0298,0 z"
             transform="matrix(0.2149849,0,0,0.2149849,288.20407,596.23631)"
             style="color:#000000;fill:#000000;fill-opacity:1;fill-rule:nonzero;stroke:none;stroke-width:8;marker:none;visibility:visible;display:inline;overflow:visible"
             id="path4530" />
        </g>
      </g>
      <text
         sodipodi:linespacing="125%"
         id="text3221"
         y="372.02075"
         x="261.84564"
         style="font-size:40px;font-style:normal;font-variant:normal;font-weight:normal;font-stretch:normal;text-align:center;line-height:125%;letter-spacing:0px;word-spacing:0px;text-anchor:middle;fill:#000000;fill-opacity:1;stroke:none;font-family:Bebas Neue;-inkscape-font-specification:Bebas Neue"
         xml:space="preserve"><tspan
           y="372.02075"
           x="261.84564"
           id="tspan3223"
           sodipodi:role="line">les algorithmes</tspan></text>
    </g>
    <g
       id="g3351"
       transform="translate(-35.43307,-35.43307)">
      <path
         inkscape:connector-curvature="0"
         id="path3146"
         d="m 419.89346,1026.2508 c -0.92032,-0.233 -1.72531,-0.8063 -2.10076,-1.4961 -0.24304,-0.4466 -0.39708,-1.1352 -0.39708,-1.7752 0,-3.1387 3.15712,-8.2303 9.22277,-14.874 1.75705,-1.9244 4.5966,-4.8323 4.95013,-5.0691 1.14518,-0.7673 4.03164,-1.3103 4.9424,-0.9297 0.22732,0.095 0.34312,0.2838 0.2865,0.4672 -0.0226,0.073 -0.8549,0.9561 -1.8497,1.9623 -5.65362,5.719 -10.99379,12.4575 -12.76026,16.1016 -0.62271,1.2846 -0.69357,2.1107 -0.22668,2.6424 0.2779,0.3165 0.63061,0.4233 1.37365,0.4159 2.00765,-0.02 5.40021,-1.6512 8.33834,-4.009 1.62911,-1.3073 2.77082,-2.477 3.96636,-4.0634 0.38969,-0.5171 0.79743,-1.008 0.90611,-1.0909 1.02352,-0.7807 3.66472,-1.2775 4.22575,-0.795 0.14043,0.1208 0.14836,0.1489 0.0791,0.2804 -0.0849,0.161 -1.27606,1.6582 -2.35792,2.9636 -0.38193,0.4609 -0.6851,0.8472 -0.67371,0.8586 0.0113,0.011 0.39951,-0.2511 0.86251,-0.5834 2.74303,-1.9687 4.99261,-3.0955 7.08613,-3.5493 0.71012,-0.1539 2.16535,-0.2185 2.65092,-0.1177 0.53574,0.1112 0.94978,0.3933 1.15127,0.7842 0.15118,0.2934 0.16657,0.3743 0.13891,0.7296 -0.0792,1.017 -0.69557,1.9665 -3.30389,5.0893 -2.32338,2.7816 -2.53176,3.42 -1.06816,3.2723 0.95821,-0.097 2.02918,-0.4484 3.11686,-1.0234 1.08574,-0.574 2.42177,-1.5208 3.32236,-2.3546 0.20487,-0.1896 0.39256,-0.3155 0.45324,-0.3038 0.33751,0.065 0.51684,1.2526 0.27254,1.8049 -0.1386,0.3134 -0.86609,1.0999 -1.4822,1.6025 -2.58628,2.1099 -6.69664,3.4614 -9.03262,2.97 -1.72497,-0.3629 -2.21682,-1.7229 -1.28808,-3.5618 0.46724,-0.925 1.21304,-1.9224 2.78619,-3.7259 0.98718,-1.1316 1.39421,-1.6616 1.53496,-1.9985 0.081,-0.1937 0.0799,-0.2233 -0.0112,-0.3143 -0.0792,-0.079 -0.16616,-0.093 -0.40976,-0.064 -1.61171,0.1894 -5.60533,2.5714 -8.87646,5.2942 -0.95211,0.7926 -2.52251,2.3206 -3.13612,3.0516 -0.55452,0.6606 -0.774,0.8275 -1.37894,1.0483 -0.67298,0.2456 -1.2997,0.3609 -1.99154,0.3665 -0.67445,0.01 -1.03686,-0.1098 -1.06977,-0.3402 -0.0118,-0.082 0.21337,-0.4403 0.66054,-1.0497 0.37313,-0.5086 0.78025,-1.0645 0.90471,-1.2354 l 0.22629,-0.3107 -0.54667,0.3296 c -1.9708,1.1881 -4.23317,2.1248 -6.08602,2.5199 -1.01901,0.2173 -2.71288,0.2572 -3.41098,0.081 z m 49.54178,-0.032 c -0.066,-0.015 -0.26845,-0.058 -0.44991,-0.095 -0.65641,-0.1324 -1.13737,-0.4863 -1.37501,-1.0119 -0.0924,-0.2044 -0.12238,-0.3976 -0.12338,-0.7949 -6e-4,-0.2887 -0.0139,-0.5249 -0.0294,-0.5249 -0.0155,0 -0.21117,0.1179 -0.4349,0.262 -1.06637,0.6867 -2.09029,1.1827 -3.31005,1.6033 -2.43181,0.8385 -4.67521,0.6959 -5.76605,-0.3666 -0.78763,-0.7672 -0.90853,-1.8881 -0.33408,-3.0977 0.27029,-0.5692 0.55055,-0.9724 1.30696,-1.8803 1.13257,-1.3594 2.01479,-2.2526 3.55624,-3.6005 0.62174,-0.5437 0.64262,-0.5696 0.47562,-0.5895 -0.0961,-0.011 -0.95751,-0.01 -1.91433,0.01 -1.88608,0.032 -2.28637,0.084 -3.0294,0.3953 -0.78194,0.3275 -1.51298,0.8975 -3.03853,2.3693 -1.04486,1.0081 -1.14574,1.0549 -1.3422,0.6221 -0.1543,-0.34 -0.15674,-0.9626 -0.005,-1.361 0.12772,-0.3361 0.8359,-1.1838 1.92529,-2.3044 1.40682,-1.4473 2.38074,-1.9748 4.10604,-2.224 0.95558,-0.138 1.53578,-0.1673 3.37855,-0.1703 1.87147,0 2.52487,0.064 3.26917,0.3337 1.1787,0.4279 1.36821,1.2429 0.56898,2.447 -0.31742,0.4782 -0.64053,0.8377 -2.50195,2.7841 -2.64469,2.7653 -3.2445,3.4791 -3.33677,3.9709 -0.19895,1.0606 1.86681,0.8462 4.66848,-0.4844 0.69552,-0.3303 1.96449,-1.0532 2.62356,-1.4944 0.44344,-0.2969 0.51048,-0.3718 1.03263,-1.1545 1.04801,-1.5708 2.75462,-3.6416 3.93483,-4.7744 0.48956,-0.4699 0.69664,-0.6216 1.15992,-0.8498 1.24595,-0.6138 3.04324,-0.9088 3.74666,-0.6148 0.37365,0.1561 0.30549,0.2952 -0.6124,1.25 -2.83793,2.9521 -5.04047,5.6814 -5.72217,7.0908 -0.53189,1.0996 -0.32463,1.4982 0.70322,1.3524 1.96439,-0.2786 4.59282,-1.9443 8.89737,-5.6384 1.2365,-1.0612 1.37839,-1.1723 2.18416,-1.7104 2.25299,-1.5045 4.78152,-2.3651 7.26395,-2.4722 2.61343,-0.1128 4.26175,0.6486 4.83742,2.2346 0.097,0.2673 0.12956,0.4973 0.13163,0.93 0.003,0.5376 -0.011,0.6039 -0.2099,1.0199 -0.11695,0.2446 -0.60382,1.0657 -1.08192,1.8246 -1.06443,1.6894 -1.56819,2.5846 -1.75935,3.1264 -0.1887,0.5347 -0.18494,0.6553 0.0272,0.8674 0.16731,0.1673 0.19958,0.1754 0.70485,0.1754 1.13647,-1e-4 2.86083,-0.3725 8.058,-1.7402 7.97085,-2.0977 11.55644,-2.7769 15.027,-2.8464 2.28593,-0.046 3.81322,0.2102 5.16331,0.8656 0.94359,0.4581 1.47082,1.0581 1.75957,2.0026 0.20339,0.6653 0.15612,1.2737 -0.11006,1.4162 -0.099,0.053 -0.19946,0.025 -0.5415,-0.1465 -0.98524,-0.4961 -1.95934,-0.7768 -3.36189,-0.9687 -0.81231,-0.1111 -3.44652,-0.148 -4.46911,-0.062 -2.55661,0.2136 -5.04513,0.5842 -8.30834,1.2374 -1.71472,0.3432 -2.43634,0.5 -7.28855,1.584 -4.16713,0.9309 -5.67454,1.1873 -7.04859,1.199 -0.97219,0.01 -1.36296,-0.067 -2.01722,-0.3892 -0.44675,-0.22 -1.01468,-0.783 -1.2417,-1.231 -0.17752,-0.3503 -0.30825,-0.8441 -0.33543,-1.2671 -0.003,-0.042 -0.28163,0.1365 -0.61981,0.3972 -1.63327,1.2588 -3.13932,1.9916 -4.84404,2.3568 -0.83275,0.1785 -2.4418,0.196 -3.08551,0.034 -0.64632,-0.163 -1.13338,-0.4319 -1.50062,-0.8285 -0.45603,-0.4926 -0.59259,-0.8709 -0.59834,-1.6574 -0.002,-0.3381 -0.0104,-0.6148 -0.0175,-0.6148 -0.008,-10e-5 -0.25013,0.1575 -0.53989,0.3501 -2.10137,1.3971 -4.12588,2.3277 -5.89578,2.7104 -0.54281,0.1173 -2.02764,0.2107 -2.30954,0.1453 z m 14.74821,-2.6695 c 1.82706,-0.6102 4.52208,-2.7118 6.4448,-5.0255 0.95363,-1.1476 1.52174,-2.3334 1.28659,-2.6856 -0.14762,-0.2211 -0.61208,-0.2596 -1.37291,-0.1141 -1.36543,0.2613 -3.03341,1.1265 -4.63998,2.4068 -0.76702,0.6112 -2.14324,2.0135 -2.65821,2.7084 -0.51997,0.7017 -0.91173,1.4509 -1.01161,1.9345 -0.0587,0.2841 -0.0536,0.3619 0.0353,0.5494 0.14183,0.299 0.38566,0.4064 0.92616,0.408 0.33476,6e-4 0.57332,-0.043 0.9898,-0.1819 z m -7.15973,-11.7329 c -0.16483,-0.068 -0.29994,-0.2186 -0.29994,-0.3347 0,-0.26 4.03976,-4.1586 4.72659,-4.5613 0.3559,-0.2087 1.02266,-0.4226 1.85477,-0.5948 0.86494,-0.1791 2.30252,-0.1977 2.55421,-0.033 0.0894,0.059 0.16258,0.1563 0.16258,0.2175 0,0.2241 -1.88281,1.8998 -3.5093,3.1234 -2.35439,1.7712 -3.15303,2.146 -4.67907,2.1963 -0.39592,0.013 -0.76035,0.01 -0.80984,-0.014 z m -41.97143,-11.599 c -0.26498,-0.039 -0.44011,-0.1462 -0.44011,-0.2694 0,-0.095 1.13798,-1.3422 1.83614,-2.0122 0.29336,-0.2815 0.87878,-0.8131 1.30092,-1.1814 0.66951,-0.5841 0.83038,-0.6938 1.25974,-0.8595 1.27672,-0.4925 3.26562,-0.7171 3.92654,-0.4434 0.34303,0.1419 0.27355,0.2951 -0.45185,0.996 -1.06943,1.0332 -2.42569,2.0935 -3.62428,2.8335 -0.98866,0.6103 -2.8728,1.0737 -3.8071,0.9364 z"
         style="fill:#000000" />
      <path
         inkscape:connector-curvature="0"
         id="path3047"
         d="m 507.88731,1051.629 c -2.64465,-1.0334 -5.00558,-3.0946 -6.37361,-5.5646 -1.05356,-1.9021 -1.16662,-2.4512 -1.16172,-5.6426 0.006,-3.8521 0.56901,-5.8278 1.55333,-5.4501 0.50035,0.192 0.60183,1.1457 0.60183,5.6565 l 0,5.4255 1.32306,0.8177 c 0.72769,0.4498 1.43479,0.8178 1.57134,0.8178 0.47247,0 0.246,-2.1854 -0.30854,-2.9771 -0.81124,-1.1583 -1.15778,-3.4851 -0.65808,-4.4188 1.51201,-2.8251 5.92388,0.2316 5.92739,4.1069 7.5e-4,0.9636 -0.2376,1.8198 -0.58778,2.1104 -0.33564,0.2786 -0.58924,1.1351 -0.58924,1.9901 0,1.2513 0.19613,1.6169 1.17849,2.1972 0.64817,0.3829 1.1785,0.9232 1.1785,1.2007 0,0.7046 -1.43213,0.599 -3.65497,-0.2696 z m 4.83346,0.3165 c 0,-0.3086 2.11906,-1.7903 4.70901,-3.2927 l 4.70901,-2.7314 0.005,-1.866 c 0.003,-1.0262 -0.1276,-1.8603 -0.28964,-1.8534 -0.59377,0.025 -1.56475,1.0005 -2.17834,2.1879 -1.33312,2.5801 -4.2345,3.275 -5.34852,1.2811 -1.54415,-2.7638 2.55256,-7.8956 5.05531,-6.3326 0.46309,0.2891 0.92741,0.2591 1.61024,-0.1043 0.75476,-0.4017 1.00142,-0.9097 1.15593,-2.3808 0.27879,-2.6545 1.0123,-2.6238 1.79693,0.075 1.61159,5.5436 -1.08591,11.5643 -6.40681,14.2997 -2.15336,1.107 -4.81811,1.5036 -4.81811,0.7172 z m -50.66154,-4.2305 c -0.23573,-0.4405 -0.40664,-3.6399 -0.40664,-7.6121 0,-7.6788 0.0661,-7.872 2.62419,-7.6613 l 1.50054,0.1235 0.11178,7.071 c 0.0615,3.889 0.0139,7.4687 -0.10569,7.9549 -0.17974,0.7305 -0.48639,0.8839 -1.7675,0.8839 -1.13041,0 -1.6601,-0.2058 -1.95668,-0.7599 z m 9.31499,-0.053 c -4.49903,-2.3751 -5.2207,-10.2054 -1.26098,-13.6821 1.28304,-1.1265 3.47774,-1.9971 5.04648,-2.0017 1.38617,0 3.80379,0.9142 4.77394,1.8133 1.94386,1.8015 0.57134,3.9192 -1.75906,2.7141 -0.6394,-0.3307 -1.95398,-0.6012 -2.92129,-0.6012 -2.49281,0 -3.38709,1.1952 -3.38709,4.5269 0,4.1443 1.24242,4.8465 6.9268,3.9148 1.80847,-0.2964 2.31785,0.098 1.96134,1.5184 -0.59078,2.3539 -6.26616,3.4414 -9.38014,1.7975 z m 15.22408,0.194 c -2.93134,-1.5284 -4.24115,-3.9145 -4.24115,-7.7261 0,-2.2402 0.17607,-2.9337 1.13806,-4.4826 2.43904,-3.9271 7.65927,-4.785 11.16526,-1.8348 1.44751,1.218 1.51329,2.373 0.16436,2.8859 -0.73633,0.28 -1.3074,0.225 -2.14107,-0.2061 -1.86039,-0.9621 -4.11953,-0.7685 -5.06541,0.434 -1.07645,1.3685 -1.3754,3.2174 -0.84107,5.2018 0.56483,2.0976 1.84172,2.982 3.84383,2.6623 4.78421,-0.7641 4.79077,-0.7641 5.06701,-0.044 0.34257,0.8927 -0.20097,1.7424 -1.82004,2.845 -1.59116,1.0835 -5.43143,1.2235 -7.26978,0.2649 z m -68.36532,-0.2518 c -0.11197,-0.2918 -0.15517,-3.7066 -0.096,-7.5884 l 0.10762,-7.0577 1.65453,-0.12 c 2.26461,-0.1644 2.89517,0.2695 4.97117,3.4207 0.98826,1.5001 1.95883,2.8275 2.15684,2.9499 0.71811,0.4438 1.1975,-0.8402 1.31308,-3.5171 l 0.11802,-2.7335 1.1785,0 1.1785,0 0,7.4637 0,7.4639 -1.42859,0.1193 c -1.36308,0.1138 -1.56757,-0.044 -4.45896,-3.4525 -3.62572,-4.2736 -4.0389,-4.2418 -4.21199,0.3237 -0.11224,2.9604 -0.13176,3.0115 -1.19663,3.134 -0.6434,0.074 -1.1651,-0.091 -1.28611,-0.406 z m 19.92824,0.01 c -0.29034,-0.2904 -0.4714,-1.7143 -0.4714,-3.7071 0,-3.2039 -0.0179,-3.262 -1.82481,-5.9121 -1.00365,-1.472 -2.15268,-3.098 -2.55341,-3.6133 -1.17743,-1.514 -0.94139,-2.0094 0.95735,-2.0094 1.47926,0 1.89866,0.2167 3.42087,1.7678 0.9542,0.9722 1.94197,1.7677 2.19504,1.7677 0.25308,0 1.11198,-0.7955 1.90868,-1.7677 1.32043,-1.6115 1.60252,-1.7678 3.18998,-1.7678 1.20058,0 1.74144,0.1648 1.74144,0.5307 0,0.2918 -0.95382,1.86 -2.11959,3.4847 -2.9509,4.1126 -2.98723,4.2058 -2.98723,7.6651 0,3.3598 -0.32776,4.0328 -1.96416,4.0328 -0.56175,0 -1.23349,-0.2121 -1.49276,-0.4714 z m 9.52408,-0.033 c -0.10642,-0.2774 -0.14507,-3.6803 -0.0859,-7.5621 l 0.10762,-7.0577 3.92832,-0.1184 c 4.85603,-0.1465 6.30862,0.106 7.5077,1.3051 1.2319,1.2319 1.21499,2.9417 -0.0439,4.4377 -1.2493,1.4847 -1.23383,1.7019 0.19641,2.7593 1.00374,0.7421 1.1785,1.1318 1.1785,2.6273 0,3.1772 -1.93587,4.1072 -8.55643,4.1108 -2.92676,0 -4.09214,-0.1366 -4.23235,-0.502 z m 61.388,-11.1198 c -0.69065,-0.3745 -1.18201,-1.033 -1.33259,-1.7859 -0.35701,-1.7851 -1.67859,-2.2314 -3.47279,-1.1728 -1.35626,0.8002 -2.15362,0.8164 -2.15362,0.043 0,-0.6657 2.95173,-3.2225 4.81072,-4.167 4.9153,-2.4973 11.72848,-0.9713 14.77677,3.3096 1.4489,2.0348 0.10747,1.7166 -4.81016,-1.141 l -4.64286,-2.698 -1.76767,1.0359 c -2.10914,1.2361 -1.72477,1.6713 1.64793,1.8659 5.54964,0.3204 5.29079,5.3705 -0.27263,5.3187 -0.92897,-0.01 -2.18137,-0.2827 -2.7831,-0.609 z"
         style="fill:#000000" />
    </g>
  </g>
</svg>
