<?xml version="1.0" encoding="UTF-8" standalone="no"?>
<!-- Created with Inkscape (http://www.inkscape.org/) -->

<svg
   xmlns:dc="http://purl.org/dc/elements/1.1/"
   xmlns:cc="http://creativecommons.org/ns#"
   xmlns:rdf="http://www.w3.org/1999/02/22-rdf-syntax-ns#"
   xmlns:svg="http://www.w3.org/2000/svg"
   xmlns="http://www.w3.org/2000/svg"
   xmlns:xlink="http://www.w3.org/1999/xlink"
   xmlns:sodipodi="http://sodipodi.sourceforge.net/DTD/sodipodi-0.dtd"
   xmlns:inkscape="http://www.inkscape.org/namespaces/inkscape"
   width="524.40942"
   height="744.09448"
   id="svg2"
   version="1.1"
   inkscape:version="0.48.3.1 r9886"
   sodipodi:docname="couverture2.svg">
  <defs
     id="defs4">
    <linearGradient
       inkscape:collect="always"
       id="linearGradient4943">
      <stop
         style="stop-color:#000000;stop-opacity:1;"
         offset="0"
         id="stop4945" />
      <stop
         style="stop-color:#000000;stop-opacity:0;"
         offset="1"
         id="stop4947" />
    </linearGradient>
    <linearGradient
       inkscape:collect="always"
       xlink:href="#linearGradient4943"
       id="linearGradient4949"
       x1="-239.09869"
       y1="50.289883"
       x2="1388.88"
       y2="50.289883"
       gradientUnits="userSpaceOnUse" />
    <linearGradient
       inkscape:collect="always"
       xlink:href="#linearGradient4943"
       id="linearGradient5143"
       gradientUnits="userSpaceOnUse"
       x1="-239.09869"
       y1="50.289883"
       x2="1388.88"
       y2="50.289883" />
    <linearGradient
       inkscape:collect="always"
       xlink:href="#linearGradient4943"
       id="linearGradient5337"
       gradientUnits="userSpaceOnUse"
       x1="-239.09869"
       y1="50.289883"
       x2="1388.88"
       y2="50.289883" />
    <linearGradient
       inkscape:collect="always"
       xlink:href="#linearGradient4943"
       id="linearGradient5531"
       gradientUnits="userSpaceOnUse"
       x1="-239.09869"
       y1="50.289883"
       x2="1388.88"
       y2="50.289883" />
    <linearGradient
       inkscape:collect="always"
       xlink:href="#linearGradient4943"
       id="linearGradient5725"
       gradientUnits="userSpaceOnUse"
       x1="-239.09869"
       y1="50.289883"
       x2="1388.88"
       y2="50.289883" />
    <linearGradient
       inkscape:collect="always"
       xlink:href="#linearGradient4943"
       id="linearGradient6307"
       gradientUnits="userSpaceOnUse"
       x1="-239.09869"
       y1="50.289883"
       x2="1388.88"
       y2="50.289883" />
    <linearGradient
       inkscape:collect="always"
       xlink:href="#linearGradient4943"
       id="linearGradient6551"
       gradientUnits="userSpaceOnUse"
       x1="-239.09869"
       y1="50.289883"
       x2="1388.88"
       y2="50.289883" />
    <linearGradient
       inkscape:collect="always"
       xlink:href="#linearGradient4943"
       id="linearGradient6841"
       gradientUnits="userSpaceOnUse"
       x1="-239.09869"
       y1="50.289883"
       x2="1388.88"
       y2="50.289883" />
    <linearGradient
       inkscape:collect="always"
       xlink:href="#linearGradient4943"
       id="linearGradient7131"
       gradientUnits="userSpaceOnUse"
       x1="-239.09869"
       y1="50.289883"
       x2="1388.88"
       y2="50.289883" />
    <linearGradient
       inkscape:collect="always"
       xlink:href="#linearGradient4943"
       id="linearGradient7422"
       gradientUnits="userSpaceOnUse"
       gradientTransform="translate(-147.38363,328.07824)"
       x1="411.92175"
       y1="19.197445"
       x2="410.91162"
       y2="82.837059" />
  </defs>
  <sodipodi:namedview
     id="base"
     pagecolor="#ffffff"
     bordercolor="#666666"
     borderopacity="1.0"
     inkscape:pageopacity="0.0"
     inkscape:pageshadow="2"
     inkscape:zoom="0.7"
     inkscape:cx="150.67974"
     inkscape:cy="356.72039"
     inkscape:document-units="mm"
     inkscape:current-layer="layer1"
     showgrid="false"
     units="mm"
     showguides="true"
     inkscape:guide-bbox="true"
     inkscape:window-width="1280"
     inkscape:window-height="785"
     inkscape:window-x="0"
     inkscape:window-y="15"
     inkscape:window-maximized="0"
     inkscape:snap-grids="false"
     inkscape:snap-to-guides="true" />
  <metadata
     id="metadata7">
    <rdf:RDF>
      <cc:Work
         rdf:about="">
        <dc:format>image/svg+xml</dc:format>
        <dc:type
           rdf:resource="http://purl.org/dc/dcmitype/StillImage" />
        <dc:title />
      </cc:Work>
    </rdf:RDF>
  </metadata>
  <g
     inkscape:label="Calque 1"
     inkscape:groupmode="layer"
     id="layer1"
     transform="translate(0,-308.26768)">
    <g
       transform="translate(-227.13683,354.75521)"
       id="layer1-2"
       inkscape:label="Calque 1">
      <g
         transform="matrix(0.95463445,0,0,0.95463445,11.750883,20.223435)"
         id="g3039">
        <path
           style="fill:#000000"
           d="m 343.36884,666.33639 c 0.13933,-3.6387 0.30475,-18.4174 0.36758,-32.84154 l 0.11426,-26.22572 -40.45221,-10.58023 c -22.24872,-5.81914 -40.38993,-10.64252 -40.3138,-10.71865 0.0761,-0.0761 9.54672,-2.7763 21.04578,-6.00039 l 20.90737,-5.86198 0.11931,8.70616 0.1193,8.70616 2.3065,0.65889 c 1.26857,0.36239 9.002,2.39065 17.1854,4.50723 l 14.8789,3.84835 0.87667,-1.11451 c 0.48217,-0.61298 6.94716,-8.62995 14.36666,-17.8155 l 13.48998,-16.70099 -13.99528,-3.49592 -13.99528,-3.49593 -2.23915,2.5986 c -1.23153,1.42923 -2.84091,3.26728 -3.5764,4.08456 l -1.33725,1.48596 -1.97066,-3.8129 c -1.79912,-3.48099 -2.06665,-3.79293 -3.0733,-3.58357 -0.60645,0.12613 -16.3852,4.58499 -35.06389,9.90858 -18.67869,5.32358 -34.02468,9.61582 -34.10222,9.53831 -0.0775,-0.0775 8.47078,-9.64025 18.99625,-21.25053 l 19.13723,-21.1096 34.32718,-10.31671 c 33.08785,-9.94424 34.34999,-10.28637 34.95879,-9.47627 0.34738,0.46224 1.29359,2.14252 2.10269,3.73396 l 1.47109,2.89352 -12.96195,15.40083 c -7.12907,8.47046 -12.81877,15.52632 -12.64378,15.67968 0.175,0.15336 8.20755,2.20805 17.85012,4.56597 l 17.53194,4.28713 0,1.86756 c 0,1.02716 -0.4022,15.51917 -0.89377,32.20446 l -0.89377,30.33691 -16.79899,22.34039 c -9.23945,12.28722 -17.09051,22.63811 -17.44682,23.00198 -0.57011,0.58222 -0.61743,-0.13199 -0.39448,-5.95425 z"
           id="path3821"
           inkscape:connector-curvature="0" />
        <g
           id="g3033"
           transform="translate(-10,0)">
          <text
             sodipodi:linespacing="125%"
             id="text2991"
             y="585.50592"
             x="397.07767"
             style="font-size:31.75597191px;font-style:normal;font-variant:normal;font-weight:normal;font-stretch:normal;text-align:start;line-height:125%;letter-spacing:0px;word-spacing:0px;text-anchor:start;fill:#000000;fill-opacity:1;stroke:none;font-family:Bebas Neue;-inkscape-font-specification:Bebas Neue"
             xml:space="preserve"><tspan
               id="tspan2995"
               y="585.50592"
               x="397.07767"
               sodipodi:role="line">sciences manuelles du numerique</tspan></text>
          <text
             transform="scale(0.98785338,1.012296)"
             sodipodi:linespacing="125%"
             id="text2993"
             y="594.86456"
             x="401.74588"
             style="font-size:13.94233131px;font-style:normal;font-variant:normal;font-weight:500;font-stretch:normal;text-align:start;line-height:125%;letter-spacing:0px;word-spacing:0px;text-anchor:start;fill:#000000;fill-opacity:1;stroke:none;font-family:GeosansLight;-inkscape-font-specification:GeosansLight Medium"
             xml:space="preserve"><tspan
               y="594.86456"
               x="401.74588"
               id="tspan2996"
               sodipodi:role="line">DÉCONSTRUIRE L'INFORMATIQUE POUR MIEUX LA COMPRENDRE</tspan></text>
        </g>
      </g>
    </g>
    <g
       id="g3265"
       transform="translate(0,35.43307)">
      <g
         transform="matrix(0.8,0,0,0.8,-37.09883,174.28689)"
         id="layer1-4">
        <g
           transform="translate(6.9975142,7.4999195)"
           id="g4532">
          <path
             inkscape:connector-curvature="0"
             d="m 460.59115,661.15963 -93.45927,0 -93.45928,10e-6 -28.88048,-88.88505 -28.88048,-88.88505 75.61013,-54.93398 75.61012,-54.93399 75.61014,54.93399 75.61015,54.93399 -28.88051,88.88504 -28.88052,88.88504 z"
             style="color:#000000;fill:none;stroke:#000000;stroke-width:4;stroke-linecap:butt;stroke-linejoin:miter;stroke-miterlimit:4;stroke-opacity:1;stroke-dasharray:4, 8;stroke-dashoffset:0;marker:none;visibility:visible;display:inline;overflow:visible"
             id="path4409" />
          <path
             inkscape:connector-curvature="0"
             d="M 502.52919,718.70017 231.73461,718.70016 148.05449,461.15915 367.1319,301.99014 586.20933,461.15918 502.52919,718.70017 z"
             style="color:#000000;fill:none;stroke:#000000;stroke-width:4;stroke-linecap:butt;stroke-linejoin:miter;stroke-miterlimit:4;stroke-opacity:1;stroke-dasharray:4, 8;stroke-dashoffset:0;marker:none;visibility:visible;display:inline;overflow:visible"
             id="path4432" />
          <path
             inkscape:connector-curvature="0"
             d="m 450.49334,559.28514 -83.36139,60.5656 -83.36146,-60.56563 31.84126,-97.99722 103.04037,2e-5 31.84122,97.99723 z"
             style="color:#000000;fill:none;stroke:#000000;stroke-width:4;stroke-linecap:butt;stroke-linejoin:miter;stroke-miterlimit:4;stroke-opacity:1;stroke-dasharray:4, 8;stroke-dashoffset:0;marker:none;visibility:visible;display:inline;overflow:visible"
             id="path4434" />
          <path
             inkscape:connector-curvature="0"
             d="m 367.1319,301.99014 -10e-6,71.53143"
             style="fill:none;stroke:#000000;stroke-width:4;stroke-linecap:butt;stroke-linejoin:miter;stroke-miterlimit:4;stroke-opacity:1;stroke-dasharray:4, 8;stroke-dashoffset:0"
             id="path4444" />
          <path
             inkscape:connector-curvature="0"
             d="m 586.20933,461.15918 -67.85715,22.23037"
             style="fill:none;stroke:#000000;stroke-width:4;stroke-linecap:butt;stroke-linejoin:miter;stroke-miterlimit:4;stroke-opacity:1;stroke-dasharray:4, 8;stroke-dashoffset:0"
             id="path4446" />
          <path
             inkscape:connector-curvature="0"
             d="m 460.59115,661.15963 41.93804,57.54054"
             style="fill:none;stroke:#000000;stroke-width:4;stroke-linecap:butt;stroke-linejoin:miter;stroke-miterlimit:4;stroke-opacity:1;stroke-dasharray:4, 8;stroke-dashoffset:0"
             id="path4448" />
          <path
             inkscape:connector-curvature="0"
             d="M 231.73461,718.70016 273.6726,661.15964"
             style="fill:none;stroke:#000000;stroke-width:4;stroke-linecap:butt;stroke-linejoin:miter;stroke-miterlimit:4;stroke-opacity:1;stroke-dasharray:4, 8;stroke-dashoffset:0"
             id="path4450" />
          <path
             inkscape:connector-curvature="0"
             d="m 148.05449,461.15915 67.85715,22.23039"
             style="fill:none;stroke:#000000;stroke-width:4;stroke-linecap:butt;stroke-linejoin:miter;stroke-miterlimit:4;stroke-opacity:1;stroke-dasharray:4, 8;stroke-dashoffset:0"
             id="path4452" />
          <path
             inkscape:connector-curvature="0"
             d="m 283.77049,559.28511 -38.97837,12.98948"
             style="fill:none;stroke:#000000;stroke-width:4;stroke-linecap:butt;stroke-linejoin:miter;stroke-miterlimit:4;stroke-opacity:1;stroke-dasharray:4, 8;stroke-dashoffset:0"
             id="path4454" />
          <path
             inkscape:connector-curvature="0"
             d="M 315.61175,461.28789 291.52177,428.45556"
             style="fill:none;stroke:#000000;stroke-width:4;stroke-linecap:butt;stroke-linejoin:miter;stroke-miterlimit:4;stroke-opacity:1;stroke-dasharray:4, 8;stroke-dashoffset:0"
             id="path4456" />
          <path
             inkscape:connector-curvature="0"
             d="m 418.65212,461.28791 24.08991,-32.83235"
             style="fill:none;stroke:#000000;stroke-width:4;stroke-linecap:butt;stroke-linejoin:miter;stroke-miterlimit:4;stroke-opacity:1;stroke-dasharray:4, 8;stroke-dashoffset:0"
             id="path4458" />
          <path
             inkscape:connector-curvature="0"
             d="m 450.49334,559.28514 38.97833,12.98945"
             style="fill:none;stroke:#000000;stroke-width:4;stroke-linecap:butt;stroke-linejoin:miter;stroke-miterlimit:4;stroke-opacity:1;stroke-dasharray:4, 8;stroke-dashoffset:0"
             id="path4460" />
          <path
             inkscape:connector-curvature="0"
             d="m 367.13195,619.85074 -7e-5,41.30889"
             style="fill:none;stroke:#000000;stroke-width:4;stroke-linecap:butt;stroke-linejoin:miter;stroke-miterlimit:4;stroke-opacity:1;stroke-dasharray:4, 8;stroke-dashoffset:0"
             id="path4462" />
          <path
             inkscape:connector-curvature="0"
             d="m 273.6726,661.15964 -57.76096,-177.7701 151.22025,-109.86797 151.22029,109.86798 -28.88051,88.88504 -38.97833,-12.98945 -31.84122,-97.99723 -103.04037,-2e-5 -31.84126,97.99722 83.36146,60.56563 -7e-5,41.30889 93.45927,0 41.93804,57.54054 L 586.20933,461.15918 367.1319,301.99014 148.05449,461.15915 231.73461,718.70016 273.6726,661.15964"
             style="fill:none;stroke:#ff0000;stroke-width:8;stroke-linecap:butt;stroke-linejoin:bevel;stroke-miterlimit:4;stroke-opacity:1;stroke-dasharray:none;stroke-dashoffset:0"
             id="path4490" />
          <path
             inkscape:connector-curvature="0"
             d="m 409.6468,301.99014 a 42.5149,42.5149 0 1 1 -85.0298,0 42.5149,42.5149 0 1 1 85.0298,0 z"
             transform="matrix(0.2149849,0,0,0.2149849,288.20409,237.06682)"
             style="color:#000000;fill:#000000;fill-opacity:1;fill-rule:nonzero;stroke:none;stroke-width:8;marker:none;visibility:visible;display:inline;overflow:visible"
             id="path4492" />
          <path
             inkscape:connector-curvature="0"
             d="m 409.6468,301.99014 a 42.5149,42.5149 0 1 1 -85.0298,0 42.5149,42.5149 0 1 1 85.0298,0 z"
             transform="matrix(0.2149849,0,0,0.2149849,507.28152,396.23586)"
             style="color:#000000;fill:#000000;fill-opacity:1;fill-rule:nonzero;stroke:none;stroke-width:8;marker:none;visibility:visible;display:inline;overflow:visible"
             id="path4494" />
          <path
             inkscape:connector-curvature="0"
             d="m 409.6468,301.99014 a 42.5149,42.5149 0 1 1 -85.0298,0 42.5149,42.5149 0 1 1 85.0298,0 z"
             transform="matrix(0.2149849,0,0,0.2149849,423.60138,653.77685)"
             style="color:#000000;fill:#000000;fill-opacity:1;fill-rule:nonzero;stroke:none;stroke-width:8;marker:none;visibility:visible;display:inline;overflow:visible"
             id="path4496" />
          <path
             inkscape:connector-curvature="0"
             d="m 409.6468,301.99014 a 42.5149,42.5149 0 1 1 -85.0298,0 42.5149,42.5149 0 1 1 85.0298,0 z"
             transform="matrix(0.2149849,0,0,0.2149849,152.8068,653.77684)"
             style="color:#000000;fill:#000000;fill-opacity:1;fill-rule:nonzero;stroke:none;stroke-width:8;marker:none;visibility:visible;display:inline;overflow:visible"
             id="path4498" />
          <path
             inkscape:connector-curvature="0"
             d="m 409.6468,301.99014 a 42.5149,42.5149 0 1 1 -85.0298,0 42.5149,42.5149 0 1 1 85.0298,0 z"
             transform="matrix(0.2149849,0,0,0.2149849,69.126676,396.23583)"
             style="color:#000000;fill:#000000;fill-opacity:1;fill-rule:nonzero;stroke:none;stroke-width:8;marker:none;visibility:visible;display:inline;overflow:visible"
             id="path4500" />
          <path
             inkscape:connector-curvature="0"
             d="m 409.6468,301.99014 a 42.5149,42.5149 0 1 1 -85.0298,0 42.5149,42.5149 0 1 1 85.0298,0 z"
             transform="matrix(0.2149849,0,0,0.2149849,136.98383,418.46622)"
             style="color:#000000;fill:#000000;fill-opacity:1;fill-rule:nonzero;stroke:none;stroke-width:8;marker:none;visibility:visible;display:inline;overflow:visible"
             id="path4502" />
          <path
             inkscape:connector-curvature="0"
             d="m 409.6468,301.99014 a 42.5149,42.5149 0 1 1 -85.0298,0 42.5149,42.5149 0 1 1 85.0298,0 z"
             transform="matrix(0.2149849,0,0,0.2149849,288.20408,308.59825)"
             style="color:#000000;fill:#000000;fill-opacity:1;fill-rule:nonzero;stroke:none;stroke-width:8;marker:none;visibility:visible;display:inline;overflow:visible"
             id="path4504" />
          <path
             inkscape:connector-curvature="0"
             d="m 409.6468,301.99014 a 42.5149,42.5149 0 1 1 -85.0298,0 42.5149,42.5149 0 1 1 85.0298,0 z"
             transform="matrix(0.2149849,0,0,0.2149849,439.42437,418.46623)"
             style="color:#000000;fill:#000000;fill-opacity:1;fill-rule:nonzero;stroke:none;stroke-width:8;marker:none;visibility:visible;display:inline;overflow:visible"
             id="path4506" />
          <path
             inkscape:connector-curvature="0"
             d="m 409.6468,301.99014 a 42.5149,42.5149 0 1 1 -85.0298,0 42.5149,42.5149 0 1 1 85.0298,0 z"
             transform="matrix(0.2149849,0,0,0.2149849,381.66334,596.23631)"
             style="color:#000000;fill:#000000;fill-opacity:1;fill-rule:nonzero;stroke:none;stroke-width:8;marker:none;visibility:visible;display:inline;overflow:visible"
             id="path4508" />
          <path
             inkscape:connector-curvature="0"
             d="m 409.6468,301.99014 a 42.5149,42.5149 0 1 1 -85.0298,0 42.5149,42.5149 0 1 1 85.0298,0 z"
             transform="matrix(0.2149849,0,0,0.2149849,194.74479,596.23632)"
             style="color:#000000;fill:#000000;fill-opacity:1;fill-rule:nonzero;stroke:none;stroke-width:8;marker:none;visibility:visible;display:inline;overflow:visible"
             id="path4510" />
          <path
             inkscape:connector-curvature="0"
             d="m 409.6468,301.99014 a 42.5149,42.5149 0 1 1 -85.0298,0 42.5149,42.5149 0 1 1 85.0298,0 z"
             transform="matrix(0.2149849,0,0,0.2149849,288.20414,554.92742)"
             style="color:#000000;fill:#000000;fill-opacity:1;fill-rule:nonzero;stroke:none;stroke-width:8;marker:none;visibility:visible;display:inline;overflow:visible"
             id="path4512" />
          <path
             inkscape:connector-curvature="0"
             d="m 409.6468,301.99014 a 42.5149,42.5149 0 1 1 -85.0298,0 42.5149,42.5149 0 1 1 85.0298,0 z"
             transform="matrix(0.2149849,0,0,0.2149849,204.84268,494.36179)"
             style="color:#000000;fill:#000000;fill-opacity:1;fill-rule:nonzero;stroke:none;stroke-width:8;marker:none;visibility:visible;display:inline;overflow:visible"
             id="path4514" />
          <path
             inkscape:connector-curvature="0"
             d="m 409.6468,301.99014 a 42.5149,42.5149 0 1 1 -85.0298,0 42.5149,42.5149 0 1 1 85.0298,0 z"
             transform="matrix(0.2149849,0,0,0.2149849,236.68394,396.36457)"
             style="color:#000000;fill:#000000;fill-opacity:1;fill-rule:nonzero;stroke:none;stroke-width:8;marker:none;visibility:visible;display:inline;overflow:visible"
             id="path4516" />
          <path
             inkscape:connector-curvature="0"
             d="m 409.6468,301.99014 a 42.5149,42.5149 0 1 1 -85.0298,0 42.5149,42.5149 0 1 1 85.0298,0 z"
             transform="matrix(0.2149849,0,0,0.2149849,339.72431,396.36459)"
             style="color:#000000;fill:#000000;fill-opacity:1;fill-rule:nonzero;stroke:none;stroke-width:8;marker:none;visibility:visible;display:inline;overflow:visible"
             id="path4518" />
          <path
             inkscape:connector-curvature="0"
             d="m 409.6468,301.99014 a 42.5149,42.5149 0 1 1 -85.0298,0 42.5149,42.5149 0 1 1 85.0298,0 z"
             transform="matrix(0.2149849,0,0,0.2149849,371.56553,494.36182)"
             style="color:#000000;fill:#000000;fill-opacity:1;fill-rule:nonzero;stroke:none;stroke-width:8;marker:none;visibility:visible;display:inline;overflow:visible"
             id="path4520" />
          <path
             inkscape:connector-curvature="0"
             d="m 409.6468,301.99014 a 42.5149,42.5149 0 1 1 -85.0298,0 42.5149,42.5149 0 1 1 85.0298,0 z"
             transform="matrix(0.2149849,0,0,0.2149849,410.54386,507.35127)"
             style="color:#000000;fill:#000000;fill-opacity:1;fill-rule:nonzero;stroke:none;stroke-width:8;marker:none;visibility:visible;display:inline;overflow:visible"
             id="path4522" />
          <path
             inkscape:connector-curvature="0"
             d="m 409.6468,301.99014 a 42.5149,42.5149 0 1 1 -85.0298,0 42.5149,42.5149 0 1 1 85.0298,0 z"
             transform="matrix(0.2149849,0,0,0.2149849,363.81422,363.53224)"
             style="color:#000000;fill:#000000;fill-opacity:1;fill-rule:nonzero;stroke:none;stroke-width:8;marker:none;visibility:visible;display:inline;overflow:visible"
             id="path4524" />
          <path
             inkscape:connector-curvature="0"
             d="m 409.6468,301.99014 a 42.5149,42.5149 0 1 1 -85.0298,0 42.5149,42.5149 0 1 1 85.0298,0 z"
             transform="matrix(0.2149849,0,0,0.2149849,212.59396,363.53224)"
             style="color:#000000;fill:#000000;fill-opacity:1;fill-rule:nonzero;stroke:none;stroke-width:8;marker:none;visibility:visible;display:inline;overflow:visible"
             id="path4526" />
          <path
             inkscape:connector-curvature="0"
             d="m 409.6468,301.99014 a 42.5149,42.5149 0 1 1 -85.0298,0 42.5149,42.5149 0 1 1 85.0298,0 z"
             transform="matrix(0.2149849,0,0,0.2149849,165.86431,507.35127)"
             style="color:#000000;fill:#000000;fill-opacity:1;fill-rule:nonzero;stroke:none;stroke-width:8;marker:none;visibility:visible;display:inline;overflow:visible"
             id="path4528" />
          <path
             inkscape:connector-curvature="0"
             d="m 409.6468,301.99014 a 42.5149,42.5149 0 1 1 -85.0298,0 42.5149,42.5149 0 1 1 85.0298,0 z"
             transform="matrix(0.2149849,0,0,0.2149849,288.20407,596.23631)"
             style="color:#000000;fill:#000000;fill-opacity:1;fill-rule:nonzero;stroke:none;stroke-width:8;marker:none;visibility:visible;display:inline;overflow:visible"
             id="path4530" />
        </g>
      </g>
      <text
         sodipodi:linespacing="125%"
         id="text3221"
         y="372.02075"
         x="261.84564"
         style="font-size:40px;font-style:normal;font-variant:normal;font-weight:normal;font-stretch:normal;text-align:center;line-height:125%;letter-spacing:0px;word-spacing:0px;text-anchor:middle;fill:#000000;fill-opacity:1;stroke:none;font-family:Bebas Neue;-inkscape-font-specification:Bebas Neue"
         xml:space="preserve"><tspan
           y="372.02075"
           x="261.84564"
           id="tspan3223"
           sodipodi:role="line">les algorithmes</tspan></text>
    </g>
  </g>
</svg>
