<?xml version="1.0" encoding="UTF-8" standalone="no"?>
<!-- Created with Inkscape (http://www.inkscape.org/) -->
<svg
   xmlns:svg="http://www.w3.org/2000/svg"
   xmlns="http://www.w3.org/2000/svg"
   version="1.0"
   width="470.42999"
   height="449.98999"
   id="svg3303">
  <defs
     id="defs3305" />
  <g
     transform="translate(-138.91443,-292.85008)"
     id="layer1">
    <g
       transform="translate(6.9975142,7.4999195)"
       id="g4532">
      <path
         d="M 460.59115,661.15963 L 367.13188,661.15963 L 273.6726,661.15964 L 244.79212,572.27459 L 215.91164,483.38954 L 291.52177,428.45556 L 367.13189,373.52157 L 442.74203,428.45556 L 518.35218,483.38955 L 489.47167,572.27459 L 460.59115,661.15963 z "
         style="color:#000000;fill:none;fill-opacity:1;fill-rule:nonzero;stroke:#000000;stroke-width:4;stroke-linecap:butt;stroke-linejoin:miter;marker:none;marker-start:none;marker-mid:none;marker-end:none;stroke-miterlimit:4;stroke-dasharray:4, 8;stroke-dashoffset:0;stroke-opacity:1;visibility:visible;display:inline;overflow:visible"
         id="path4409" />
      <path
         d="M 502.52919,718.70017 L 231.73461,718.70016 L 148.05449,461.15915 L 367.1319,301.99014 L 586.20933,461.15918 L 502.52919,718.70017 z "
         style="color:#000000;fill:none;fill-opacity:1;fill-rule:nonzero;stroke:#000000;stroke-width:4;stroke-linecap:butt;stroke-linejoin:miter;marker:none;marker-start:none;marker-mid:none;marker-end:none;stroke-miterlimit:4;stroke-dasharray:4, 8;stroke-dashoffset:0;stroke-opacity:1;visibility:visible;display:inline;overflow:visible"
         id="path4432" />
      <path
         d="M 450.49334,559.28514 L 367.13195,619.85074 L 283.77049,559.28511 L 315.61175,461.28789 L 418.65212,461.28791 L 450.49334,559.28514 z "
         style="color:#000000;fill:none;fill-opacity:1;fill-rule:nonzero;stroke:#000000;stroke-width:4;stroke-linecap:butt;stroke-linejoin:miter;marker:none;marker-start:none;marker-mid:none;marker-end:none;stroke-miterlimit:4;stroke-dasharray:4, 8;stroke-dashoffset:0;stroke-opacity:1;visibility:visible;display:inline;overflow:visible"
         id="path4434" />
      <path
         d="M 367.1319,301.99014 L 367.13189,373.52157"
         style="fill:none;fill-opacity:0.75;fill-rule:evenodd;stroke:#000000;stroke-width:4;stroke-linecap:butt;stroke-linejoin:miter;stroke-miterlimit:4;stroke-dasharray:4, 8;stroke-dashoffset:0;stroke-opacity:1"
         id="path4444" />
      <path
         d="M 586.20933,461.15918 L 518.35218,483.38955"
         style="fill:none;fill-opacity:0.75;fill-rule:evenodd;stroke:#000000;stroke-width:4;stroke-linecap:butt;stroke-linejoin:miter;stroke-miterlimit:4;stroke-dasharray:4, 8;stroke-dashoffset:0;stroke-opacity:1"
         id="path4446" />
      <path
         d="M 460.59115,661.15963 L 502.52919,718.70017"
         style="fill:none;fill-opacity:0.75;fill-rule:evenodd;stroke:#000000;stroke-width:4;stroke-linecap:butt;stroke-linejoin:miter;stroke-miterlimit:4;stroke-dasharray:4, 8;stroke-dashoffset:0;stroke-opacity:1"
         id="path4448" />
      <path
         d="M 231.73461,718.70016 L 273.6726,661.15964"
         style="fill:none;fill-opacity:0.75;fill-rule:evenodd;stroke:#000000;stroke-width:4;stroke-linecap:butt;stroke-linejoin:miter;stroke-miterlimit:4;stroke-dasharray:4, 8;stroke-dashoffset:0;stroke-opacity:1"
         id="path4450" />
      <path
         d="M 148.05449,461.15915 L 215.91164,483.38954"
         style="fill:none;fill-opacity:0.75;fill-rule:evenodd;stroke:#000000;stroke-width:4;stroke-linecap:butt;stroke-linejoin:miter;stroke-miterlimit:4;stroke-dasharray:4, 8;stroke-dashoffset:0;stroke-opacity:1"
         id="path4452" />
      <path
         d="M 283.77049,559.28511 L 244.79212,572.27459"
         style="fill:none;fill-opacity:0.75;fill-rule:evenodd;stroke:#000000;stroke-width:4;stroke-linecap:butt;stroke-linejoin:miter;stroke-miterlimit:4;stroke-dasharray:4, 8;stroke-dashoffset:0;stroke-opacity:1"
         id="path4454" />
      <path
         d="M 315.61175,461.28789 L 291.52177,428.45556"
         style="fill:none;fill-opacity:0.75;fill-rule:evenodd;stroke:#000000;stroke-width:4;stroke-linecap:butt;stroke-linejoin:miter;stroke-miterlimit:4;stroke-dasharray:4, 8;stroke-dashoffset:0;stroke-opacity:1"
         id="path4456" />
      <path
         d="M 418.65212,461.28791 L 442.74203,428.45556"
         style="fill:none;fill-opacity:0.75;fill-rule:evenodd;stroke:#000000;stroke-width:4;stroke-linecap:butt;stroke-linejoin:miter;stroke-miterlimit:4;stroke-dasharray:4, 8;stroke-dashoffset:0;stroke-opacity:1"
         id="path4458" />
      <path
         d="M 450.49334,559.28514 L 489.47167,572.27459"
         style="fill:none;fill-opacity:0.75;fill-rule:evenodd;stroke:#000000;stroke-width:4;stroke-linecap:butt;stroke-linejoin:miter;stroke-miterlimit:4;stroke-dasharray:4, 8;stroke-dashoffset:0;stroke-opacity:1"
         id="path4460" />
      <path
         d="M 367.13195,619.85074 L 367.13188,661.15963"
         style="fill:none;fill-opacity:0.75;fill-rule:evenodd;stroke:#000000;stroke-width:4;stroke-linecap:butt;stroke-linejoin:miter;stroke-miterlimit:4;stroke-dasharray:4, 8;stroke-dashoffset:0;stroke-opacity:1"
         id="path4462" />
      <path
         d="M 273.6726,661.15964 L 215.91164,483.38954 L 367.13189,373.52157 L 518.35218,483.38955 L 489.47167,572.27459 L 450.49334,559.28514 L 418.65212,461.28791 L 315.61175,461.28789 L 283.77049,559.28511 L 367.13195,619.85074 L 367.13188,661.15963 L 460.59115,661.15963 L 502.52919,718.70017 L 586.20933,461.15918 L 367.1319,301.99014 L 148.05449,461.15915 L 231.73461,718.70016 L 273.6726,661.15964"
         style="fill:none;fill-opacity:0.75;fill-rule:evenodd;stroke:#ff0000;stroke-width:8;stroke-linecap:butt;stroke-linejoin:bevel;stroke-miterlimit:4;stroke-dasharray:none;stroke-dashoffset:0;stroke-opacity:1"
         id="path4490" />
      <path
         d="M 409.6468 301.99014 A 42.5149 42.5149 0 1 1  324.617,301.99014 A 42.5149 42.5149 0 1 1  409.6468 301.99014 z"
         transform="matrix(0.2149849,0,0,0.2149849,288.20409,237.06682)"
         style="opacity:1;color:#000000;fill:#000000;fill-opacity:1;fill-rule:nonzero;stroke:none;stroke-width:8;stroke-linecap:butt;stroke-linejoin:bevel;marker:none;marker-start:none;marker-mid:none;marker-end:none;stroke-miterlimit:4;stroke-dasharray:none;stroke-dashoffset:0;stroke-opacity:1;visibility:visible;display:inline;overflow:visible"
         id="path4492" />
      <path
         d="M 409.6468 301.99014 A 42.5149 42.5149 0 1 1  324.617,301.99014 A 42.5149 42.5149 0 1 1  409.6468 301.99014 z"
         transform="matrix(0.2149849,0,0,0.2149849,507.28152,396.23586)"
         style="opacity:1;color:#000000;fill:#000000;fill-opacity:1;fill-rule:nonzero;stroke:none;stroke-width:8;stroke-linecap:butt;stroke-linejoin:bevel;marker:none;marker-start:none;marker-mid:none;marker-end:none;stroke-miterlimit:4;stroke-dasharray:none;stroke-dashoffset:0;stroke-opacity:1;visibility:visible;display:inline;overflow:visible"
         id="path4494" />
      <path
         d="M 409.6468 301.99014 A 42.5149 42.5149 0 1 1  324.617,301.99014 A 42.5149 42.5149 0 1 1  409.6468 301.99014 z"
         transform="matrix(0.2149849,0,0,0.2149849,423.60138,653.77685)"
         style="opacity:1;color:#000000;fill:#000000;fill-opacity:1;fill-rule:nonzero;stroke:none;stroke-width:8;stroke-linecap:butt;stroke-linejoin:bevel;marker:none;marker-start:none;marker-mid:none;marker-end:none;stroke-miterlimit:4;stroke-dasharray:none;stroke-dashoffset:0;stroke-opacity:1;visibility:visible;display:inline;overflow:visible"
         id="path4496" />
      <path
         d="M 409.6468 301.99014 A 42.5149 42.5149 0 1 1  324.617,301.99014 A 42.5149 42.5149 0 1 1  409.6468 301.99014 z"
         transform="matrix(0.2149849,0,0,0.2149849,152.8068,653.77684)"
         style="opacity:1;color:#000000;fill:#000000;fill-opacity:1;fill-rule:nonzero;stroke:none;stroke-width:8;stroke-linecap:butt;stroke-linejoin:bevel;marker:none;marker-start:none;marker-mid:none;marker-end:none;stroke-miterlimit:4;stroke-dasharray:none;stroke-dashoffset:0;stroke-opacity:1;visibility:visible;display:inline;overflow:visible"
         id="path4498" />
      <path
         d="M 409.6468 301.99014 A 42.5149 42.5149 0 1 1  324.617,301.99014 A 42.5149 42.5149 0 1 1  409.6468 301.99014 z"
         transform="matrix(0.2149849,0,0,0.2149849,69.126676,396.23583)"
         style="opacity:1;color:#000000;fill:#000000;fill-opacity:1;fill-rule:nonzero;stroke:none;stroke-width:8;stroke-linecap:butt;stroke-linejoin:bevel;marker:none;marker-start:none;marker-mid:none;marker-end:none;stroke-miterlimit:4;stroke-dasharray:none;stroke-dashoffset:0;stroke-opacity:1;visibility:visible;display:inline;overflow:visible"
         id="path4500" />
      <path
         d="M 409.6468 301.99014 A 42.5149 42.5149 0 1 1  324.617,301.99014 A 42.5149 42.5149 0 1 1  409.6468 301.99014 z"
         transform="matrix(0.2149849,0,0,0.2149849,136.98383,418.46622)"
         style="opacity:1;color:#000000;fill:#000000;fill-opacity:1;fill-rule:nonzero;stroke:none;stroke-width:8;stroke-linecap:butt;stroke-linejoin:bevel;marker:none;marker-start:none;marker-mid:none;marker-end:none;stroke-miterlimit:4;stroke-dasharray:none;stroke-dashoffset:0;stroke-opacity:1;visibility:visible;display:inline;overflow:visible"
         id="path4502" />
      <path
         d="M 409.6468 301.99014 A 42.5149 42.5149 0 1 1  324.617,301.99014 A 42.5149 42.5149 0 1 1  409.6468 301.99014 z"
         transform="matrix(0.2149849,0,0,0.2149849,288.20408,308.59825)"
         style="opacity:1;color:#000000;fill:#000000;fill-opacity:1;fill-rule:nonzero;stroke:none;stroke-width:8;stroke-linecap:butt;stroke-linejoin:bevel;marker:none;marker-start:none;marker-mid:none;marker-end:none;stroke-miterlimit:4;stroke-dasharray:none;stroke-dashoffset:0;stroke-opacity:1;visibility:visible;display:inline;overflow:visible"
         id="path4504" />
      <path
         d="M 409.6468 301.99014 A 42.5149 42.5149 0 1 1  324.617,301.99014 A 42.5149 42.5149 0 1 1  409.6468 301.99014 z"
         transform="matrix(0.2149849,0,0,0.2149849,439.42437,418.46623)"
         style="opacity:1;color:#000000;fill:#000000;fill-opacity:1;fill-rule:nonzero;stroke:none;stroke-width:8;stroke-linecap:butt;stroke-linejoin:bevel;marker:none;marker-start:none;marker-mid:none;marker-end:none;stroke-miterlimit:4;stroke-dasharray:none;stroke-dashoffset:0;stroke-opacity:1;visibility:visible;display:inline;overflow:visible"
         id="path4506" />
      <path
         d="M 409.6468 301.99014 A 42.5149 42.5149 0 1 1  324.617,301.99014 A 42.5149 42.5149 0 1 1  409.6468 301.99014 z"
         transform="matrix(0.2149849,0,0,0.2149849,381.66334,596.23631)"
         style="opacity:1;color:#000000;fill:#000000;fill-opacity:1;fill-rule:nonzero;stroke:none;stroke-width:8;stroke-linecap:butt;stroke-linejoin:bevel;marker:none;marker-start:none;marker-mid:none;marker-end:none;stroke-miterlimit:4;stroke-dasharray:none;stroke-dashoffset:0;stroke-opacity:1;visibility:visible;display:inline;overflow:visible"
         id="path4508" />
      <path
         d="M 409.6468 301.99014 A 42.5149 42.5149 0 1 1  324.617,301.99014 A 42.5149 42.5149 0 1 1  409.6468 301.99014 z"
         transform="matrix(0.2149849,0,0,0.2149849,194.74479,596.23632)"
         style="opacity:1;color:#000000;fill:#000000;fill-opacity:1;fill-rule:nonzero;stroke:none;stroke-width:8;stroke-linecap:butt;stroke-linejoin:bevel;marker:none;marker-start:none;marker-mid:none;marker-end:none;stroke-miterlimit:4;stroke-dasharray:none;stroke-dashoffset:0;stroke-opacity:1;visibility:visible;display:inline;overflow:visible"
         id="path4510" />
      <path
         d="M 409.6468 301.99014 A 42.5149 42.5149 0 1 1  324.617,301.99014 A 42.5149 42.5149 0 1 1  409.6468 301.99014 z"
         transform="matrix(0.2149849,0,0,0.2149849,288.20414,554.92742)"
         style="opacity:1;color:#000000;fill:#000000;fill-opacity:1;fill-rule:nonzero;stroke:none;stroke-width:8;stroke-linecap:butt;stroke-linejoin:bevel;marker:none;marker-start:none;marker-mid:none;marker-end:none;stroke-miterlimit:4;stroke-dasharray:none;stroke-dashoffset:0;stroke-opacity:1;visibility:visible;display:inline;overflow:visible"
         id="path4512" />
      <path
         d="M 409.6468 301.99014 A 42.5149 42.5149 0 1 1  324.617,301.99014 A 42.5149 42.5149 0 1 1  409.6468 301.99014 z"
         transform="matrix(0.2149849,0,0,0.2149849,204.84268,494.36179)"
         style="opacity:1;color:#000000;fill:#000000;fill-opacity:1;fill-rule:nonzero;stroke:none;stroke-width:8;stroke-linecap:butt;stroke-linejoin:bevel;marker:none;marker-start:none;marker-mid:none;marker-end:none;stroke-miterlimit:4;stroke-dasharray:none;stroke-dashoffset:0;stroke-opacity:1;visibility:visible;display:inline;overflow:visible"
         id="path4514" />
      <path
         d="M 409.6468 301.99014 A 42.5149 42.5149 0 1 1  324.617,301.99014 A 42.5149 42.5149 0 1 1  409.6468 301.99014 z"
         transform="matrix(0.2149849,0,0,0.2149849,236.68394,396.36457)"
         style="opacity:1;color:#000000;fill:#000000;fill-opacity:1;fill-rule:nonzero;stroke:none;stroke-width:8;stroke-linecap:butt;stroke-linejoin:bevel;marker:none;marker-start:none;marker-mid:none;marker-end:none;stroke-miterlimit:4;stroke-dasharray:none;stroke-dashoffset:0;stroke-opacity:1;visibility:visible;display:inline;overflow:visible"
         id="path4516" />
      <path
         d="M 409.6468 301.99014 A 42.5149 42.5149 0 1 1  324.617,301.99014 A 42.5149 42.5149 0 1 1  409.6468 301.99014 z"
         transform="matrix(0.2149849,0,0,0.2149849,339.72431,396.36459)"
         style="opacity:1;color:#000000;fill:#000000;fill-opacity:1;fill-rule:nonzero;stroke:none;stroke-width:8;stroke-linecap:butt;stroke-linejoin:bevel;marker:none;marker-start:none;marker-mid:none;marker-end:none;stroke-miterlimit:4;stroke-dasharray:none;stroke-dashoffset:0;stroke-opacity:1;visibility:visible;display:inline;overflow:visible"
         id="path4518" />
      <path
         d="M 409.6468 301.99014 A 42.5149 42.5149 0 1 1  324.617,301.99014 A 42.5149 42.5149 0 1 1  409.6468 301.99014 z"
         transform="matrix(0.2149849,0,0,0.2149849,371.56553,494.36182)"
         style="opacity:1;color:#000000;fill:#000000;fill-opacity:1;fill-rule:nonzero;stroke:none;stroke-width:8;stroke-linecap:butt;stroke-linejoin:bevel;marker:none;marker-start:none;marker-mid:none;marker-end:none;stroke-miterlimit:4;stroke-dasharray:none;stroke-dashoffset:0;stroke-opacity:1;visibility:visible;display:inline;overflow:visible"
         id="path4520" />
      <path
         d="M 409.6468 301.99014 A 42.5149 42.5149 0 1 1  324.617,301.99014 A 42.5149 42.5149 0 1 1  409.6468 301.99014 z"
         transform="matrix(0.2149849,0,0,0.2149849,410.54386,507.35127)"
         style="opacity:1;color:#000000;fill:#000000;fill-opacity:1;fill-rule:nonzero;stroke:none;stroke-width:8;stroke-linecap:butt;stroke-linejoin:bevel;marker:none;marker-start:none;marker-mid:none;marker-end:none;stroke-miterlimit:4;stroke-dasharray:none;stroke-dashoffset:0;stroke-opacity:1;visibility:visible;display:inline;overflow:visible"
         id="path4522" />
      <path
         d="M 409.6468 301.99014 A 42.5149 42.5149 0 1 1  324.617,301.99014 A 42.5149 42.5149 0 1 1  409.6468 301.99014 z"
         transform="matrix(0.2149849,0,0,0.2149849,363.81422,363.53224)"
         style="opacity:1;color:#000000;fill:#000000;fill-opacity:1;fill-rule:nonzero;stroke:none;stroke-width:8;stroke-linecap:butt;stroke-linejoin:bevel;marker:none;marker-start:none;marker-mid:none;marker-end:none;stroke-miterlimit:4;stroke-dasharray:none;stroke-dashoffset:0;stroke-opacity:1;visibility:visible;display:inline;overflow:visible"
         id="path4524" />
      <path
         d="M 409.6468 301.99014 A 42.5149 42.5149 0 1 1  324.617,301.99014 A 42.5149 42.5149 0 1 1  409.6468 301.99014 z"
         transform="matrix(0.2149849,0,0,0.2149849,212.59396,363.53224)"
         style="opacity:1;color:#000000;fill:#000000;fill-opacity:1;fill-rule:nonzero;stroke:none;stroke-width:8;stroke-linecap:butt;stroke-linejoin:bevel;marker:none;marker-start:none;marker-mid:none;marker-end:none;stroke-miterlimit:4;stroke-dasharray:none;stroke-dashoffset:0;stroke-opacity:1;visibility:visible;display:inline;overflow:visible"
         id="path4526" />
      <path
         d="M 409.6468 301.99014 A 42.5149 42.5149 0 1 1  324.617,301.99014 A 42.5149 42.5149 0 1 1  409.6468 301.99014 z"
         transform="matrix(0.2149849,0,0,0.2149849,165.86431,507.35127)"
         style="opacity:1;color:#000000;fill:#000000;fill-opacity:1;fill-rule:nonzero;stroke:none;stroke-width:8;stroke-linecap:butt;stroke-linejoin:bevel;marker:none;marker-start:none;marker-mid:none;marker-end:none;stroke-miterlimit:4;stroke-dasharray:none;stroke-dashoffset:0;stroke-opacity:1;visibility:visible;display:inline;overflow:visible"
         id="path4528" />
      <path
         d="M 409.6468 301.99014 A 42.5149 42.5149 0 1 1  324.617,301.99014 A 42.5149 42.5149 0 1 1  409.6468 301.99014 z"
         transform="matrix(0.2149849,0,0,0.2149849,288.20407,596.23631)"
         style="opacity:1;color:#000000;fill:#000000;fill-opacity:1;fill-rule:nonzero;stroke:none;stroke-width:8;stroke-linecap:butt;stroke-linejoin:bevel;marker:none;marker-start:none;marker-mid:none;marker-end:none;stroke-miterlimit:4;stroke-dasharray:none;stroke-dashoffset:0;stroke-opacity:1;visibility:visible;display:inline;overflow:visible"
         id="path4530" />
    </g>
  </g>
</svg>
