<?xml version="1.0" encoding="UTF-8" standalone="no"?>
<!-- Created with Inkscape (http://www.inkscape.org/) -->

<svg
   xmlns:dc="http://purl.org/dc/elements/1.1/"
   xmlns:cc="http://creativecommons.org/ns#"
   xmlns:rdf="http://www.w3.org/1999/02/22-rdf-syntax-ns#"
   xmlns:svg="http://www.w3.org/2000/svg"
   xmlns="http://www.w3.org/2000/svg"
   xmlns:sodipodi="http://sodipodi.sourceforge.net/DTD/sodipodi-0.dtd"
   xmlns:inkscape="http://www.inkscape.org/namespaces/inkscape"
   width="460.62991"
   height="149.64735"
   id="svg3148"
   version="1.1"
   inkscape:version="0.48.3.1 r9886"
   sodipodi:docname="logo + texte.svg">
  <defs
     id="defs3150" />
  <sodipodi:namedview
     id="base"
     pagecolor="#ffffff"
     bordercolor="#666666"
     borderopacity="1.0"
     inkscape:pageopacity="0.0"
     inkscape:pageshadow="2"
     inkscape:zoom="0.70710678"
     inkscape:cx="408.01096"
     inkscape:cy="313.17597"
     inkscape:document-units="mm"
     inkscape:current-layer="layer1"
     showgrid="false"
     inkscape:window-width="1280"
     inkscape:window-height="785"
     inkscape:window-x="0"
     inkscape:window-y="15"
     inkscape:window-maximized="0"
     fit-margin-top="0"
     fit-margin-left="0"
     fit-margin-right="0"
     fit-margin-bottom="0"
     units="mm"
     showborder="true"
     showguides="true"
     inkscape:guide-bbox="true"
     inkscape:snap-page="true" />
  <metadata
     id="metadata3153">
    <rdf:RDF>
      <cc:Work
         rdf:about="">
        <dc:format>image/svg+xml</dc:format>
        <dc:type
           rdf:resource="http://purl.org/dc/dcmitype/StillImage" />
        <dc:title></dc:title>
      </cc:Work>
    </rdf:RDF>
  </metadata>
  <g
     inkscape:label="Calque 1"
     inkscape:groupmode="layer"
     id="layer1"
     transform="translate(-259.02659,-512.52653)">
    <g
       id="g3039"
       transform="matrix(0.95463445,0,0,0.95463445,11.750883,20.223435)">
      <path
         inkscape:connector-curvature="0"
         id="path3821"
         d="m 343.36884,666.33639 c 0.13933,-3.6387 0.30475,-18.4174 0.36758,-32.84154 l 0.11426,-26.22572 -40.45221,-10.58023 c -22.24872,-5.81914 -40.38993,-10.64252 -40.3138,-10.71865 0.0761,-0.0761 9.54672,-2.7763 21.04578,-6.00039 l 20.90737,-5.86198 0.11931,8.70616 0.1193,8.70616 2.3065,0.65889 c 1.26857,0.36239 9.002,2.39065 17.1854,4.50723 l 14.8789,3.84835 0.87667,-1.11451 c 0.48217,-0.61298 6.94716,-8.62995 14.36666,-17.8155 l 13.48998,-16.70099 -13.99528,-3.49592 -13.99528,-3.49593 -2.23915,2.5986 c -1.23153,1.42923 -2.84091,3.26728 -3.5764,4.08456 l -1.33725,1.48596 -1.97066,-3.8129 c -1.79912,-3.48099 -2.06665,-3.79293 -3.0733,-3.58357 -0.60645,0.12613 -16.3852,4.58499 -35.06389,9.90858 -18.67869,5.32358 -34.02468,9.61582 -34.10222,9.53831 -0.0775,-0.0775 8.47078,-9.64025 18.99625,-21.25053 l 19.13723,-21.1096 34.32718,-10.31671 c 33.08785,-9.94424 34.34999,-10.28637 34.95879,-9.47627 0.34738,0.46224 1.29359,2.14252 2.10269,3.73396 l 1.47109,2.89352 -12.96195,15.40083 c -7.12907,8.47046 -12.81877,15.52632 -12.64378,15.67968 0.175,0.15336 8.20755,2.20805 17.85012,4.56597 l 17.53194,4.28713 0,1.86756 c 0,1.02716 -0.4022,15.51917 -0.89377,32.20446 l -0.89377,30.33691 -16.79899,22.34039 c -9.23945,12.28722 -17.09051,22.63811 -17.44682,23.00198 -0.57011,0.58222 -0.61743,-0.13199 -0.39448,-5.95425 z"
         style="fill:#000000" />
      <g
         transform="translate(-10,0)"
         id="g3033">
        <text
           xml:space="preserve"
           style="font-size:31.75597191px;font-style:normal;font-variant:normal;font-weight:normal;font-stretch:normal;text-align:start;line-height:125%;letter-spacing:0px;word-spacing:0px;text-anchor:start;fill:#000000;fill-opacity:1;stroke:none;font-family:Bebas Neue;-inkscape-font-specification:Bebas Neue"
           x="397.07767"
           y="585.50592"
           id="text2991"
           sodipodi:linespacing="125%"><tspan
             sodipodi:role="line"
             x="397.07767"
             y="585.50592"
             id="tspan2995">sciences manuelles du numerique</tspan></text>
        <text
           xml:space="preserve"
           style="font-size:13.94233131px;font-style:normal;font-variant:normal;font-weight:500;font-stretch:normal;text-align:start;line-height:125%;letter-spacing:0px;word-spacing:0px;text-anchor:start;fill:#000000;fill-opacity:1;stroke:none;font-family:GeosansLight;-inkscape-font-specification:GeosansLight Medium"
           x="401.74588"
           y="594.86456"
           id="text2993"
           sodipodi:linespacing="125%"
           transform="scale(0.98785338,1.012296)"><tspan
             sodipodi:role="line"
             id="tspan2996"
             x="401.74588"
             y="594.86456">DÉCONSTRUIRE L'INFORMATIQUE POUR MIEUX LA COMPRENDRE</tspan></text>
      </g>
    </g>
  </g>
</svg>
