<?xml version="1.0" encoding="UTF-8" standalone="no"?>
<!-- Created with Inkscape (http://www.inkscape.org/) -->

<svg
   xmlns:dc="http://purl.org/dc/elements/1.1/"
   xmlns:cc="http://creativecommons.org/ns#"
   xmlns:rdf="http://www.w3.org/1999/02/22-rdf-syntax-ns#"
   xmlns:svg="http://www.w3.org/2000/svg"
   xmlns="http://www.w3.org/2000/svg"
   xmlns:sodipodi="http://sodipodi.sourceforge.net/DTD/sodipodi-0.dtd"
   xmlns:inkscape="http://www.inkscape.org/namespaces/inkscape"
   width="106.29898"
   height="24.18701"
   id="svg3287"
   version="1.1"
   inkscape:version="0.48.3.1 r9886"
   sodipodi:docname="logo_nybicc.svg">
  <defs
     id="defs3289" />
  <sodipodi:namedview
     id="base"
     pagecolor="#ffffff"
     bordercolor="#666666"
     borderopacity="1.0"
     inkscape:pageopacity="0.0"
     inkscape:pageshadow="2"
     inkscape:zoom="0.35"
     inkscape:cx="213.86378"
     inkscape:cy="-133.62078"
     inkscape:document-units="px"
     inkscape:current-layer="layer1"
     showgrid="false"
     inkscape:window-width="1280"
     inkscape:window-height="785"
     inkscape:window-x="0"
     inkscape:window-y="15"
     inkscape:window-maximized="0"
     fit-margin-top="0"
     fit-margin-left="0"
     fit-margin-right="0"
     fit-margin-bottom="0" />
  <metadata
     id="metadata3292">
    <rdf:RDF>
      <cc:Work
         rdf:about="">
        <dc:format>image/svg+xml</dc:format>
        <dc:type
           rdf:resource="http://purl.org/dc/dcmitype/StillImage" />
        <dc:title></dc:title>
      </cc:Work>
    </rdf:RDF>
  </metadata>
  <g
     inkscape:label="Calque 1"
     inkscape:groupmode="layer"
     id="layer1"
     transform="translate(-161.13622,-374.55439)">
    <path
       style="fill:#000000"
       d="m 250.91308,398.00827 c -2.64465,-1.0334 -5.00558,-3.0946 -6.37361,-5.5646 -1.05356,-1.9021 -1.16662,-2.4512 -1.16172,-5.6426 0.006,-3.8521 0.56901,-5.8278 1.55333,-5.4501 0.50035,0.192 0.60183,1.1457 0.60183,5.6565 l 0,5.4255 1.32306,0.8177 c 0.72769,0.4498 1.43479,0.8178 1.57134,0.8178 0.47247,0 0.246,-2.1854 -0.30854,-2.9771 -0.81124,-1.1583 -1.15778,-3.4851 -0.65808,-4.4188 1.51201,-2.8251 5.92388,0.2316 5.92739,4.1069 7.5e-4,0.9636 -0.2376,1.8198 -0.58778,2.1104 -0.33564,0.2786 -0.58924,1.1351 -0.58924,1.9901 0,1.2513 0.19613,1.6169 1.17849,2.1972 0.64817,0.3829 1.1785,0.9232 1.1785,1.2007 0,0.7046 -1.43213,0.599 -3.65497,-0.2696 z m 4.83346,0.3165 c 0,-0.3086 2.11906,-1.7903 4.70901,-3.2927 l 4.70902,-2.7314 0.005,-1.866 c 0.003,-1.0262 -0.1276,-1.8603 -0.28964,-1.8534 -0.59377,0.025 -1.56475,1.0005 -2.17834,2.1879 -1.33312,2.5801 -4.23451,3.275 -5.34853,1.2811 -1.54415,-2.7638 2.55256,-7.8956 5.05532,-6.3326 0.46309,0.2891 0.92741,0.2591 1.61024,-0.1043 0.75476,-0.4017 1.00142,-0.9097 1.15593,-2.3808 0.27879,-2.6545 1.0123,-2.6238 1.79693,0.075 1.61159,5.5436 -1.08591,11.5643 -6.40682,14.2997 -2.15336,1.107 -4.81811,1.5036 -4.81811,0.7172 z m -50.66154,-4.2305 c -0.23573,-0.4405 -0.40664,-3.6399 -0.40664,-7.6121 0,-7.6788 0.0661,-7.872 2.62419,-7.6613 l 1.50054,0.1235 0.11178,7.071 c 0.0615,3.889 0.0139,7.4687 -0.10569,7.9549 -0.17974,0.7305 -0.48639,0.8839 -1.7675,0.8839 -1.13041,0 -1.6601,-0.2058 -1.95668,-0.7599 z m 9.31499,-0.053 c -4.49903,-2.3751 -5.2207,-10.2054 -1.26098,-13.6821 1.28304,-1.1265 3.47774,-1.9971 5.04648,-2.0017 1.38617,0 3.80379,0.9142 4.77394,1.8133 1.94386,1.8015 0.57134,3.9192 -1.75906,2.7141 -0.6394,-0.3307 -1.95398,-0.6012 -2.92129,-0.6012 -2.49281,0 -3.38709,1.1952 -3.38709,4.5269 0,4.1443 1.24242,4.8465 6.9268,3.9148 1.80847,-0.2964 2.31785,0.098 1.96134,1.5184 -0.59078,2.3539 -6.26616,3.4414 -9.38014,1.7975 z m 15.22408,0.194 c -2.93134,-1.5284 -4.24115,-3.9145 -4.24115,-7.7261 0,-2.2402 0.17607,-2.9337 1.13806,-4.4826 2.43904,-3.9271 7.65927,-4.785 11.16526,-1.8348 1.44751,1.218 1.51329,2.373 0.16436,2.8859 -0.73633,0.28 -1.3074,0.225 -2.14107,-0.2061 -1.86039,-0.9621 -4.11953,-0.7685 -5.06541,0.434 -1.07645,1.3685 -1.3754,3.2174 -0.84107,5.2018 0.56483,2.0976 1.84172,2.982 3.84383,2.6623 4.78421,-0.7641 4.79077,-0.7641 5.06701,-0.044 0.34257,0.8927 -0.20097,1.7424 -1.82004,2.845 -1.59116,1.0835 -5.43143,1.2235 -7.26978,0.2649 z m -68.36532,-0.2518 c -0.11197,-0.2918 -0.15517,-3.7066 -0.096,-7.5884 l 0.10762,-7.0577 1.65453,-0.12 c 2.26461,-0.1644 2.89517,0.2695 4.97117,3.4207 0.98826,1.5001 1.95883,2.8275 2.15684,2.9499 0.71811,0.4438 1.1975,-0.8402 1.31308,-3.5171 l 0.11802,-2.7335 1.1785,0 1.1785,0 0,7.4637 0,7.4639 -1.42859,0.1193 c -1.36308,0.1138 -1.56757,-0.044 -4.45896,-3.4525 -3.62572,-4.2736 -4.0389,-4.2418 -4.21199,0.3237 -0.11224,2.9604 -0.13176,3.0115 -1.19663,3.134 -0.6434,0.074 -1.1651,-0.091 -1.28611,-0.406 z m 19.92824,0.01 c -0.29034,-0.2904 -0.4714,-1.7143 -0.4714,-3.7071 0,-3.2039 -0.0179,-3.262 -1.82481,-5.9121 -1.00365,-1.472 -2.15268,-3.098 -2.55341,-3.6133 -1.17743,-1.514 -0.94139,-2.0094 0.95735,-2.0094 1.47926,0 1.89866,0.2167 3.42087,1.7678 0.9542,0.9722 1.94197,1.7677 2.19504,1.7677 0.25308,0 1.11198,-0.7955 1.90868,-1.7677 1.32043,-1.6115 1.60252,-1.7678 3.18998,-1.7678 1.20058,0 1.74144,0.1648 1.74144,0.5307 0,0.2918 -0.95382,1.86 -2.11959,3.4847 -2.9509,4.1126 -2.98723,4.2058 -2.98723,7.6651 0,3.3598 -0.32776,4.0328 -1.96416,4.0328 -0.56175,0 -1.23349,-0.2121 -1.49276,-0.4714 z m 9.52408,-0.033 c -0.10642,-0.2774 -0.14507,-3.6803 -0.0859,-7.5621 l 0.10762,-7.0577 3.92832,-0.1184 c 4.85603,-0.1465 6.30862,0.106 7.5077,1.3051 1.2319,1.2319 1.21499,2.9417 -0.0439,4.4377 -1.2493,1.4847 -1.23383,1.7019 0.19641,2.7593 1.00374,0.7421 1.1785,1.1318 1.1785,2.6273 0,3.1772 -1.93587,4.1072 -8.55643,4.1108 -2.92676,0 -4.09214,-0.1366 -4.23235,-0.502 z m 61.388,-11.1198 c -0.69065,-0.3745 -1.18201,-1.033 -1.33259,-1.7859 -0.35701,-1.7851 -1.67859,-2.2314 -3.47279,-1.1728 -1.35626,0.8002 -2.15362,0.8164 -2.15362,0.043 0,-0.6657 2.95173,-3.2225 4.81072,-4.167 4.9153,-2.4973 11.72849,-0.9713 14.77678,3.3096 1.4489,2.0348 0.10747,1.7166 -4.81017,-1.141 l -4.64286,-2.698 -1.76767,1.0359 c -2.10914,1.2361 -1.72477,1.6713 1.64793,1.8659 5.54964,0.3204 5.29079,5.3705 -0.27263,5.3187 -0.92897,-0.01 -2.18137,-0.2827 -2.7831,-0.609 z"
       id="path3047"
       inkscape:connector-curvature="0" />
  </g>
</svg>
