<?xml version="1.0" encoding="UTF-8" standalone="no"?>
<!-- Created with Inkscape (http://www.inkscape.org/) -->

<svg
   xmlns:dc="http://purl.org/dc/elements/1.1/"
   xmlns:cc="http://creativecommons.org/ns#"
   xmlns:rdf="http://www.w3.org/1999/02/22-rdf-syntax-ns#"
   xmlns:svg="http://www.w3.org/2000/svg"
   xmlns="http://www.w3.org/2000/svg"
   xmlns:sodipodi="http://sodipodi.sourceforge.net/DTD/sodipodi-0.dtd"
   xmlns:inkscape="http://www.inkscape.org/namespaces/inkscape"
   width="210mm"
   height="297mm"
   id="svg2"
   version="1.1"
   inkscape:version="0.48.3.1 r9886"
   sodipodi:docname="nim.svg">
  <defs
     id="defs4">
    <marker
       inkscape:stockid="Arrow1Mend"
       orient="auto"
       refY="0.0"
       refX="0.0"
       id="Arrow1Mend"
       style="overflow:visible;">
      <path
         id="path3997"
         d="M 0.0,0.0 L 5.0,-5.0 L -12.5,0.0 L 5.0,5.0 L 0.0,0.0 z "
         style="fill-rule:evenodd;stroke:#000000;stroke-width:1.0pt;"
         transform="scale(0.4) rotate(180) translate(10,0)" />
    </marker>
    <marker
       inkscape:stockid="Arrow1Lend"
       orient="auto"
       refY="0.0"
       refX="0.0"
       id="Arrow1Lend"
       style="overflow:visible;">
      <path
         id="path3991"
         d="M 0.0,0.0 L 5.0,-5.0 L -12.5,0.0 L 5.0,5.0 L 0.0,0.0 z "
         style="fill-rule:evenodd;stroke:#000000;stroke-width:1.0pt;"
         transform="scale(0.8) rotate(180) translate(12.5,0)" />
    </marker>
  </defs>
  <sodipodi:namedview
     id="base"
     pagecolor="#ffffff"
     bordercolor="#666666"
     borderopacity="1.0"
     inkscape:pageopacity="0.0"
     inkscape:pageshadow="2"
     inkscape:zoom="2.8"
     inkscape:cx="163.61104"
     inkscape:cy="1011.6532"
     inkscape:document-units="px"
     inkscape:current-layer="layer1"
     showgrid="true"
     inkscape:window-width="1280"
     inkscape:window-height="785"
     inkscape:window-x="0"
     inkscape:window-y="15"
     inkscape:window-maximized="0">
    <inkscape:grid
       type="xygrid"
       id="grid2985" />
  </sodipodi:namedview>
  <metadata
     id="metadata7">
    <rdf:RDF>
      <cc:Work
         rdf:about="">
        <dc:format>image/svg+xml</dc:format>
        <dc:type
           rdf:resource="http://purl.org/dc/dcmitype/StillImage" />
        <dc:title />
      </cc:Work>
    </rdf:RDF>
  </metadata>
  <g
     inkscape:label="Calque 1"
     inkscape:groupmode="layer"
     id="layer1">
    <path
       style="fill:#000000;stroke:#000000;stroke-width:1px;stroke-linecap:butt;stroke-linejoin:miter;stroke-opacity:1;fill-opacity:1"
       d="m 25.5,85.499997 0,0"
       id="path5024-6"
       inkscape:connector-type="polyline"
       inkscape:connector-curvature="0" />
    <g
       id="g4054">
      <path
         transform="translate(40,-70)"
         d="m 70,97.362183 a 5,5 0 1 1 -10,0 5,5 0 1 1 10,0 z"
         sodipodi:ry="5"
         sodipodi:rx="5"
         sodipodi:cy="97.362183"
         sodipodi:cx="65"
         id="path2987"
         style="fill:#0000ff;fill-opacity:1;stroke:none"
         sodipodi:type="arc" />
      <path
         d="m 70,97.362183 a 5,5 0 1 1 -10,0 5,5 0 1 1 10,0 z"
         sodipodi:ry="5"
         sodipodi:rx="5"
         sodipodi:cy="97.362183"
         sodipodi:cx="65"
         id="path2987-8"
         style="fill:#ff0000;fill-opacity:1;stroke:none"
         sodipodi:type="arc"
         transform="translate(40,-30)" />
      <path
         d="m 70,97.362183 a 5,5 0 1 1 -10,0 5,5 0 1 1 10,0 z"
         sodipodi:ry="5"
         sodipodi:rx="5"
         sodipodi:cy="97.362183"
         sodipodi:cx="65"
         id="path2987-6"
         style="fill:#ff0000;fill-opacity:1;stroke:none"
         sodipodi:type="arc"
         transform="translate(15,-30)" />
      <path
         transform="translate(15,-70)"
         d="m 70,97.362183 a 5,5 0 1 1 -10,0 5,5 0 1 1 10,0 z"
         sodipodi:ry="5"
         sodipodi:rx="5"
         sodipodi:cy="97.362183"
         sodipodi:cx="65"
         id="path2987-7"
         style="fill:#ff0000;fill-opacity:1;stroke:none"
         sodipodi:type="arc" />
      <path
         transform="translate(90,-70)"
         d="m 70,97.362183 a 5,5 0 1 1 -10,0 5,5 0 1 1 10,0 z"
         sodipodi:ry="5"
         sodipodi:rx="5"
         sodipodi:cy="97.362183"
         sodipodi:cx="65"
         id="path2987-1"
         style="fill:#ff0000;fill-opacity:1;stroke:none"
         sodipodi:type="arc" />
      <path
         d="m 70,97.362183 a 5,5 0 1 1 -10,0 5,5 0 1 1 10,0 z"
         sodipodi:ry="5"
         sodipodi:rx="5"
         sodipodi:cy="97.362183"
         sodipodi:cx="65"
         id="path2987-8-5"
         style="fill:#0000ff;fill-opacity:1;stroke:none"
         sodipodi:type="arc"
         transform="translate(90,-30)" />
      <path
         d="m 70,97.362183 a 5,5 0 1 1 -10,0 5,5 0 1 1 10,0 z"
         sodipodi:ry="5"
         sodipodi:rx="5"
         sodipodi:cy="97.362183"
         sodipodi:cx="65"
         id="path2987-6-7"
         style="fill:#0000ff;fill-opacity:1;stroke:none"
         sodipodi:type="arc"
         transform="translate(65,-30)" />
      <path
         transform="translate(65,-70)"
         d="m 70,97.362183 a 5,5 0 1 1 -10,0 5,5 0 1 1 10,0 z"
         sodipodi:ry="5"
         sodipodi:rx="5"
         sodipodi:cy="97.362183"
         sodipodi:cx="65"
         id="path2987-7-4"
         style="fill:#0000ff;fill-opacity:1;stroke:none"
         sodipodi:type="arc" />
      <path
         transform="translate(140,-70)"
         d="m 70,97.362183 a 5,5 0 1 1 -10,0 5,5 0 1 1 10,0 z"
         sodipodi:ry="5"
         sodipodi:rx="5"
         sodipodi:cy="97.362183"
         sodipodi:cx="65"
         id="path2987-5"
         style="fill:#0000ff;fill-opacity:1;stroke:none"
         sodipodi:type="arc" />
      <path
         d="m 70,97.362183 a 5,5 0 1 1 -10,0 5,5 0 1 1 10,0 z"
         sodipodi:ry="5"
         sodipodi:rx="5"
         sodipodi:cy="97.362183"
         sodipodi:cx="65"
         id="path2987-8-4"
         style="fill:#ff0000;fill-opacity:1;stroke:none"
         sodipodi:type="arc"
         transform="translate(140,-30)" />
      <path
         d="m 70,97.362183 a 5,5 0 1 1 -10,0 5,5 0 1 1 10,0 z"
         sodipodi:ry="5"
         sodipodi:rx="5"
         sodipodi:cy="97.362183"
         sodipodi:cx="65"
         id="path2987-6-70"
         style="fill:#ff0000;fill-opacity:1;stroke:none"
         sodipodi:type="arc"
         transform="translate(115,-30)" />
      <path
         transform="translate(115,-70)"
         d="m 70,97.362183 a 5,5 0 1 1 -10,0 5,5 0 1 1 10,0 z"
         sodipodi:ry="5"
         sodipodi:rx="5"
         sodipodi:cy="97.362183"
         sodipodi:cx="65"
         id="path2987-7-3"
         style="fill:#ff0000;fill-opacity:1;stroke:none"
         sodipodi:type="arc" />
      <path
         transform="translate(190,-70)"
         d="m 70,97.362183 a 5,5 0 1 1 -10,0 5,5 0 1 1 10,0 z"
         sodipodi:ry="5"
         sodipodi:rx="5"
         sodipodi:cy="97.362183"
         sodipodi:cx="65"
         id="path2987-83"
         style="fill:#0000ff;fill-opacity:1;stroke:none"
         sodipodi:type="arc" />
      <path
         d="m 70,97.362183 a 5,5 0 1 1 -10,0 5,5 0 1 1 10,0 z"
         sodipodi:ry="5"
         sodipodi:rx="5"
         sodipodi:cy="97.362183"
         sodipodi:cx="65"
         id="path2987-8-0"
         style="fill:#0000ff;fill-opacity:1;stroke:none"
         sodipodi:type="arc"
         transform="translate(190,-30)" />
      <path
         d="m 70,97.362183 a 5,5 0 1 1 -10,0 5,5 0 1 1 10,0 z"
         sodipodi:ry="5"
         sodipodi:rx="5"
         sodipodi:cy="97.362183"
         sodipodi:cx="65"
         id="path2987-6-2"
         style="fill:#ff0000;fill-opacity:1;stroke:none"
         sodipodi:type="arc"
         transform="translate(165,-30)" />
      <path
         transform="translate(165,-70)"
         d="m 70,97.362183 a 5,5 0 1 1 -10,0 5,5 0 1 1 10,0 z"
         sodipodi:ry="5"
         sodipodi:rx="5"
         sodipodi:cy="97.362183"
         sodipodi:cx="65"
         id="path2987-7-1"
         style="fill:#0000ff;fill-opacity:1;stroke:none"
         sodipodi:type="arc" />
      <rect
         y="17.362183"
         x="70"
         height="20"
         width="20"
         id="rect4002"
         style="fill:none;fill-opacity:1;stroke:#000000;stroke-width:1;stroke-linecap:round;stroke-linejoin:round;stroke-miterlimit:4;stroke-opacity:1;stroke-dasharray:1, 1;stroke-dashoffset:0" />
      <rect
         y="17.362183"
         x="95"
         height="20"
         width="45"
         id="rect4004"
         style="fill:none;stroke:#000000;stroke-width:1;stroke-linecap:round;stroke-linejoin:round;stroke-miterlimit:4;stroke-opacity:1;stroke-dasharray:1, 1;stroke-dashoffset:0" />
      <rect
         y="17.362183"
         x="145"
         height="20"
         width="45"
         id="rect4006"
         style="fill:none;stroke:#000000;stroke-width:1;stroke-linecap:round;stroke-linejoin:round;stroke-miterlimit:4;stroke-opacity:1;stroke-dasharray:1, 1;stroke-dashoffset:0" />
      <rect
         y="17.362183"
         x="195"
         height="20"
         width="70"
         id="rect4008"
         style="fill:none;stroke:#000000;stroke-width:1;stroke-linecap:round;stroke-linejoin:round;stroke-miterlimit:4;stroke-opacity:1;stroke-dasharray:1, 1;stroke-dashoffset:0" />
      <rect
         y="57.362183"
         x="70"
         height="20"
         width="45"
         id="rect4010"
         style="fill:none;stroke:#000000;stroke-width:1;stroke-linecap:round;stroke-linejoin:round;stroke-miterlimit:4;stroke-opacity:1;stroke-dasharray:1, 1;stroke-dashoffset:0" />
      <rect
         y="57.362183"
         x="120"
         height="20"
         width="45"
         id="rect4012"
         style="fill:none;stroke:#000000;stroke-width:1;stroke-linecap:round;stroke-linejoin:round;stroke-miterlimit:4;stroke-opacity:1;stroke-dasharray:1, 1;stroke-dashoffset:0" />
      <rect
         y="57.362183"
         x="170"
         height="20"
         width="70"
         id="rect4014"
         style="fill:none;stroke:#000000;stroke-width:1;stroke-linecap:round;stroke-linejoin:round;stroke-miterlimit:4;stroke-opacity:1;stroke-dasharray:1, 1;stroke-dashoffset:0" />
      <rect
         y="57.362183"
         x="245"
         height="20"
         width="20"
         id="rect4016"
         style="fill:none;stroke:#000000;stroke-width:1;stroke-linecap:round;stroke-linejoin:round;stroke-miterlimit:4;stroke-opacity:1;stroke-dasharray:1, 1;stroke-dashoffset:0" />
      <text
         sodipodi:linespacing="125%"
         id="text4018"
         y="12.362183"
         x="70"
         style="font-size:12px;font-style:normal;font-weight:normal;text-align:start;line-height:125%;letter-spacing:0px;word-spacing:0px;text-anchor:start;fill:#000000;fill-opacity:1;stroke:none;font-family:Gulim;-inkscape-font-specification:Gulim"
         xml:space="preserve"><tspan
           y="12.362183"
           x="70"
           id="tspan4020"
           sodipodi:role="line">1</tspan></text>
      <text
         sodipodi:linespacing="125%"
         id="text4022"
         y="12.362183"
         x="95.35714"
         style="font-size:12px;font-style:normal;font-weight:normal;text-align:start;line-height:125%;letter-spacing:0px;word-spacing:0px;text-anchor:start;fill:#000000;fill-opacity:1;stroke:none;font-family:Gulim;-inkscape-font-specification:Gulim"
         xml:space="preserve"><tspan
           y="12.362183"
           x="95.35714"
           id="tspan4024"
           sodipodi:role="line">2</tspan></text>
      <text
         sodipodi:linespacing="125%"
         id="text4026"
         y="12.719325"
         x="145.35715"
         style="font-size:12px;font-style:normal;font-weight:normal;text-align:start;line-height:125%;letter-spacing:0px;word-spacing:0px;text-anchor:start;fill:#000000;fill-opacity:1;stroke:none;font-family:Gulim;-inkscape-font-specification:Gulim"
         xml:space="preserve"><tspan
           y="12.719325"
           x="145.35715"
           id="tspan4028"
           sodipodi:role="line">3</tspan></text>
      <text
         sodipodi:linespacing="125%"
         id="text4030"
         y="12.719325"
         x="195.35715"
         style="font-size:12px;font-style:normal;font-weight:normal;text-align:start;line-height:125%;letter-spacing:0px;word-spacing:0px;text-anchor:start;fill:#000000;fill-opacity:1;stroke:none;font-family:Gulim;-inkscape-font-specification:Gulim"
         xml:space="preserve"><tspan
           y="12.719325"
           x="195.35715"
           id="tspan4032"
           sodipodi:role="line">4</tspan></text>
      <text
         sodipodi:linespacing="125%"
         id="text4034"
         y="52.719322"
         x="70.35714"
         style="font-size:12px;font-style:normal;font-weight:normal;text-align:start;line-height:125%;letter-spacing:0px;word-spacing:0px;text-anchor:start;fill:#000000;fill-opacity:1;stroke:none;font-family:Gulim;-inkscape-font-specification:Gulim"
         xml:space="preserve"><tspan
           y="52.719322"
           x="70.35714"
           id="tspan4036"
           sodipodi:role="line">5</tspan></text>
      <text
         sodipodi:linespacing="125%"
         id="text4038"
         y="52.362183"
         x="120"
         style="font-size:12px;font-style:normal;font-weight:normal;text-align:start;line-height:125%;letter-spacing:0px;word-spacing:0px;text-anchor:start;fill:#000000;fill-opacity:1;stroke:none;font-family:Gulim;-inkscape-font-specification:Gulim"
         xml:space="preserve"><tspan
           y="52.362183"
           x="120"
           id="tspan4040"
           sodipodi:role="line">6</tspan></text>
      <text
         sodipodi:linespacing="125%"
         id="text4042"
         y="52.362183"
         x="170"
         style="font-size:12px;font-style:normal;font-weight:normal;text-align:start;line-height:125%;letter-spacing:0px;word-spacing:0px;text-anchor:start;fill:#000000;fill-opacity:1;stroke:none;font-family:Gulim;-inkscape-font-specification:Gulim"
         xml:space="preserve"><tspan
           y="52.362183"
           x="170"
           id="tspan4044"
           sodipodi:role="line">7</tspan></text>
      <text
         sodipodi:linespacing="125%"
         id="text4046"
         y="52.362183"
         x="245"
         style="font-size:12px;font-style:normal;font-weight:normal;text-align:start;line-height:125%;letter-spacing:0px;word-spacing:0px;text-anchor:start;fill:#000000;fill-opacity:1;stroke:none;font-family:Gulim;-inkscape-font-specification:Gulim"
         xml:space="preserve"><tspan
           y="52.362183"
           x="245"
           id="tspan4048"
           sodipodi:role="line">8</tspan></text>
    </g>
    <text
       xml:space="preserve"
       style="font-size:12px;font-style:normal;font-weight:normal;text-align:center;line-height:125%;letter-spacing:0px;word-spacing:0px;text-anchor:middle;fill:#000000;fill-opacity:1;stroke:none;font-family:Gulim;-inkscape-font-specification:Gulim"
       x="167.37109"
       y="92.362183"
       id="text4050"
       sodipodi:linespacing="125%"><tspan
         sodipodi:role="line"
         id="tspan4052"
         x="167.37109"
         y="92.362183">bleu gagne</tspan></text>
  </g>
</svg>
