<?xml version="1.0" encoding="UTF-8" standalone="no"?>
<!-- Created with Inkscape (http://www.inkscape.org/) -->

<svg
   xmlns:dc="http://purl.org/dc/elements/1.1/"
   xmlns:cc="http://creativecommons.org/ns#"
   xmlns:rdf="http://www.w3.org/1999/02/22-rdf-syntax-ns#"
   xmlns:svg="http://www.w3.org/2000/svg"
   xmlns="http://www.w3.org/2000/svg"
   xmlns:sodipodi="http://sodipodi.sourceforge.net/DTD/sodipodi-0.dtd"
   xmlns:inkscape="http://www.inkscape.org/namespaces/inkscape"
   width="16px"
   height="16px"
   id="svg2985"
   version="1.1"
   inkscape:version="0.48.1 r9760"
   sodipodi:docname="Nouveau document 1">
  <defs
     id="defs2987" />
  <sodipodi:namedview
     id="base"
     pagecolor="#ffffff"
     bordercolor="#666666"
     borderopacity="1.0"
     inkscape:pageopacity="0.0"
     inkscape:pageshadow="2"
     inkscape:zoom="22.197802"
     inkscape:cx="8"
     inkscape:cy="8"
     inkscape:current-layer="layer1"
     showgrid="true"
     inkscape:grid-bbox="true"
     inkscape:document-units="px"
     inkscape:window-width="1920"
     inkscape:window-height="1022"
     inkscape:window-x="0"
     inkscape:window-y="26"
     inkscape:window-maximized="1" />
  <metadata
     id="metadata2990">
    <rdf:RDF>
      <cc:Work
         rdf:about="">
        <dc:format>image/svg+xml</dc:format>
        <dc:type
           rdf:resource="http://purl.org/dc/dcmitype/StillImage" />
        <dc:title></dc:title>
      </cc:Work>
    </rdf:RDF>
  </metadata>
  <g
     id="layer1"
     inkscape:label="Layer 1"
     inkscape:groupmode="layer">
    <g
       transform="matrix(0.05,0,0,0.05,0.6664075,-2.265625)"
       id="g5">
      <g
         id="g7">
        <path
           style="stroke:none"
           inkscape:connector-curvature="0"
           d="m 281.8125,172.4062 q 0,41.3438 -30.5859,72 -30.586,30.6563 -71.9297,30.6563 -34.875,0 -63.9844,-22.7813 -4.6406,3.7969 -10.8281,9.9844 6.1875,6.75 6.1875,9.1406 0,2.8126 -9.2813,11.9532 -13.6406,13.7812 -40.9218,41.3437 -4.7813,5.0625 -14.7657,14.7657 -1.125,0.9843 -3.9375,0.9843 -2.5312,0 -3.7968,-0.9843 -3.6563,-2.8126 -13.2188,-12.3047 -9.5625,-9.4922 -12.2344,-13.0079 -0.9844,-1.2656 -0.9844,-4.0781 0,-3.375 3.0938,-6.75 2.9531,-2.6719 5.7656,-5.3437 12.7969,-13.0782 38.6719,-38.9532 5.9063,-6.1874 17.0156,-16.5937 1.4063,-1.125 4.5,-1.125 4.2188,0 8.0157,4.9219 10.2656,-8.8594 10.2656,-9.9844 0,0.7031 -7.7344,-11.25 Q 76.5,202.2188 76.5,172.9688 q 0,-41.4844 30.5859,-72.1407 30.586,-30.6562 72.0703,-30.6562 41.2032,0 71.9297,30.5156 30.7266,30.5156 30.7266,71.7187 z M 270,170.2969 q 0,-37.6875 -26.7891,-64.6875 -26.789,-27 -64.4765,-27 -37.5469,0 -64.6172,27.0703 -27.0703,27.0703 -27.0703,64.6172 0,37.6875 27,64.4765 27,26.7891 64.6875,26.7891 37.9687,0 64.6172,-26.6484 Q 270,208.2656 270,170.2969 z m -157.9219,79.1719 -5.625,-5.0626 q -3.375,3.0938 -9.8437,9.8438 l 5.4844,5.4844 q 3.375,-3.375 9.9843,-10.2656 z m -8.4375,-7.875 q -0.9844,-0.9844 -2.5312,-1.9688 l -9.7032,9.4219 q 0.8438,0.9843 2.9532,2.3906 5.9062,-5.9063 9.2812,-9.8437 z m -2.5312,29.8124 q 0,-1.4062 -1.125,-3.2343 -1.5469,-2.5313 -9.5625,-9.8438 -8.4375,-7.7343 -10.2657,-7.7343 -1.8281,0 -3.2343,1.125 -2.6719,2.1093 -22.0781,22.2187 -34.0313,35.2969 -34.0313,36.1406 0,1.8281 2.3906,4.0781 l 57.375,-57.5156 18.9844,18.4219 q 1.5469,-2.25 1.5469,-3.6563 z M 258.0469,169.875 q 0,33.1875 -22.9219,56.3203 -22.9219,23.1328 -56.3906,23.5547 l -2.8125,0 q -3.6563,0.1406 -15.4688,-1.9688 -17.5781,-3.0937 -34.0312,-17.2968 -15.8907,-13.9219 -22.6407,-30.9375 -5.2031,-13.3594 -5.2031,-23.2031 0,-0.1407 0,-0.1407 l 0,-2.3906 q 4.7813,25.5937 24.961,42.1875 20.1797,16.5938 46.3359,16.5938 29.6719,0 50.625,-20.9532 20.9531,-20.9531 20.9531,-50.625 0,-24.6094 -15.4687,-44.6484 -15.4688,-20.0391 -39.375,-25.8047 l 1.4062,0 q 7.3125,0 19.125,4.6406 24.0469,9.5625 37.4766,29.1797 13.4297,19.6172 13.4297,45.4922 z m -94.6407,-35.1562 q 0,10.6874 -7.875,18.4921 -7.875,7.8047 -18.5624,7.8047 -8.1563,0 -15.3985,-5.2031 -7.2422,-5.2031 -9.4922,-12.9375 9,10.6875 20.3907,10.6875 9.9843,0 16.7343,-6.6094 6.75,-6.6093 6.75,-16.5937 0,-13.5 -11.9531,-20.5313 19.4062,7.1719 19.4062,24.8907 z"
           id="path9" />
      </g>
    </g>
  </g>
</svg>
