<?xml version="1.0" encoding="UTF-8" standalone="no"?>
<!-- Created with Inkscape (http://www.inkscape.org/) -->

<svg
   xmlns:dc="http://purl.org/dc/elements/1.1/"
   xmlns:cc="http://creativecommons.org/ns#"
   xmlns:rdf="http://www.w3.org/1999/02/22-rdf-syntax-ns#"
   xmlns:svg="http://www.w3.org/2000/svg"
   xmlns="http://www.w3.org/2000/svg"
   xmlns:sodipodi="http://sodipodi.sourceforge.net/DTD/sodipodi-0.dtd"
   xmlns:inkscape="http://www.inkscape.org/namespaces/inkscape"
   id="svg2"
   version="1.1"
   inkscape:version="0.91 r13725"
   xml:space="preserve"
   width="765"
   height="1052.4"
   viewBox="0 0 765 1052.4"
   sodipodi:docname="petit-livre-pliages.svg"><metadata
     id="metadata8"><rdf:RDF><cc:Work
         rdf:about=""><dc:format>image/svg+xml</dc:format><dc:type
           rdf:resource="http://purl.org/dc/dcmitype/StillImage" /><dc:title></dc:title></cc:Work></rdf:RDF></metadata><defs
     id="defs6"><marker
       inkscape:stockid="Arrow1Lend"
       orient="auto"
       refY="0.0"
       refX="0.0"
       id="Arrow1Lend"
       style="overflow:visible;"
       inkscape:isstock="true"><path
         id="path10268"
         d="M 0.0,0.0 L 5.0,-5.0 L -12.5,0.0 L 5.0,5.0 L 0.0,0.0 z "
         style="fill-rule:evenodd;stroke:#000000;stroke-width:1pt;stroke-opacity:1;fill:#000000;fill-opacity:1"
         transform="scale(0.8) rotate(180) translate(12.5,0)" /></marker><marker
       inkscape:stockid="Arrow2Lstart"
       orient="auto"
       refY="0.0"
       refX="0.0"
       id="Arrow2Lstart"
       style="overflow:visible"
       inkscape:isstock="true"><path
         id="path10283"
         style="fill-rule:evenodd;stroke-width:0.625;stroke-linejoin:round;stroke:#000000;stroke-opacity:1;fill:#000000;fill-opacity:1"
         d="M 8.7185878,4.0337352 L -2.2072895,0.016013256 L 8.7185884,-4.0017078 C 6.9730900,-1.6296469 6.9831476,1.6157441 8.7185878,4.0337352 z "
         transform="scale(1.1) translate(1,0)" /></marker><marker
       inkscape:stockid="Arrow1Lend"
       orient="auto"
       refY="0"
       refX="0"
       id="Arrow1Lend-9"
       style="overflow:visible"
       inkscape:isstock="true"><path
         inkscape:connector-curvature="0"
         id="path10268-7"
         d="M 0,0 5,-5 -12.5,0 5,5 0,0 Z"
         style="fill:#000000;fill-opacity:1;fill-rule:evenodd;stroke:#000000;stroke-width:1pt;stroke-opacity:1"
         transform="matrix(-0.8,0,0,-0.8,-10,0)" /></marker><marker
       inkscape:stockid="Arrow1Lend"
       orient="auto"
       refY="0"
       refX="0"
       id="Arrow1Lend-9-6"
       style="overflow:visible"
       inkscape:isstock="true"><path
         inkscape:connector-curvature="0"
         id="path10268-7-1"
         d="M 0,0 5,-5 -12.5,0 5,5 0,0 Z"
         style="fill:#000000;fill-opacity:1;fill-rule:evenodd;stroke:#000000;stroke-width:1pt;stroke-opacity:1"
         transform="matrix(-0.8,0,0,-0.8,-10,0)" /></marker></defs><sodipodi:namedview
     pagecolor="#ffffff"
     bordercolor="#666666"
     borderopacity="1"
     objecttolerance="10"
     gridtolerance="10"
     guidetolerance="10"
     inkscape:pageopacity="0"
     inkscape:pageshadow="2"
     inkscape:window-width="1920"
     inkscape:window-height="1019"
     id="namedview4"
     showgrid="true"
     inkscape:zoom="0.5194693"
     inkscape:cx="-200.13037"
     inkscape:cy="363.33507"
     inkscape:window-x="0"
     inkscape:window-y="32"
     inkscape:window-maximized="1"
     inkscape:current-layer="g10"><inkscape:grid
       type="xygrid"
       id="grid8076"
       spacingx="5"
       spacingy="4.9999999" /></sodipodi:namedview><g
     id="g10"
     inkscape:groupmode="layer"
     inkscape:label="petit-livre-pliages"
     transform="matrix(1.25,0,0,-1.25,0,1052.4)"><rect
       style="opacity:1;fill:#ffffff;fill-opacity:1;stroke:#000000;stroke-width:0.77103817;stroke-linecap:round;stroke-linejoin:round;stroke-miterlimit:4;stroke-dasharray:none;stroke-dashoffset:0;stroke-opacity:1"
       id="rect10164-2-9-9-2"
       width="37.132236"
       height="60.03878"
       x="170.103"
       y="-249.72276"
       transform="matrix(0.95914374,0.28291922,0,-1,0,0)" /><rect
       style="opacity:1;fill:#ffffff;fill-opacity:1;stroke:#000000;stroke-width:0.78162879;stroke-linecap:round;stroke-linejoin:round;stroke-miterlimit:4;stroke-dasharray:none;stroke-dashoffset:0;stroke-opacity:1"
       id="rect10164-2-9-9"
       width="38.169605"
       height="60.022575"
       x="165.61314"
       y="-267.03436"
       transform="matrix(0.98303143,0.18343721,0,-1,0,0)" /><rect
       style="opacity:1;fill:#ffffff;fill-opacity:1;stroke:#000000;stroke-width:0.66380322;stroke-linecap:round;stroke-linejoin:round;stroke-miterlimit:4;stroke-dasharray:none;stroke-dashoffset:0;stroke-opacity:1"
       id="rect10164-5-8-23"
       width="27.470835"
       height="60.150379"
       x="186.51076"
       y="-502.52634"
       transform="matrix(0.8735636,-0.48671002,0,-1,0,0)" /><rect
       style="opacity:1;fill:#ffffff;fill-opacity:1;stroke:#000000;stroke-width:0.6031149;stroke-linecap:round;stroke-linejoin:round;stroke-miterlimit:4;stroke-dasharray:none;stroke-dashoffset:0;stroke-opacity:1"
       id="rect10164-5-8-0"
       width="22.655346"
       height="60.208927"
       x="193.75621"
       y="-516.30518"
       transform="matrix(0.84076062,-0.54140703,0,-1,0,0)" /><rect
       style="opacity:1;fill:none;fill-opacity:1;stroke:#000000;stroke-width:0.77599019;stroke-linecap:round;stroke-linejoin:round;stroke-miterlimit:4;stroke-dasharray:none;stroke-dashoffset:0;stroke-opacity:1"
       id="rect10164-6"
       width="40.022758"
       height="56.420475"
       x="111.68556"
       y="-541.11542"
       transform="matrix(1,0,-0.0930922,-0.99565749,0,0)" /><rect
       style="opacity:1;fill:#ffffff;fill-opacity:1;stroke:#000000;stroke-width:0.84329027;stroke-linecap:round;stroke-linejoin:round;stroke-miterlimit:4;stroke-dasharray:none;stroke-dashoffset:0;stroke-opacity:1"
       id="rect10164-5-5"
       width="44.471508"
       height="59.965801"
       x="241.4037"
       y="-583.94812"
       transform="matrix(0.9873578,-0.15850732,0,-1,0,0)" /><rect
       style="opacity:1;fill:none;fill-opacity:1;stroke:#000000;stroke-width:0.96000004;stroke-linecap:round;stroke-linejoin:round;stroke-miterlimit:10;stroke-dasharray:none;stroke-dashoffset:0;stroke-opacity:1"
       id="rect8074"
       width="160"
       height="120.00002"
       x="161.98955"
       y="-718.54169"
       transform="scale(1,-1)" /><path
       style="fill:none;fill-rule:evenodd;stroke:#000000;stroke-width:0.80000001;stroke-linecap:butt;stroke-linejoin:miter;stroke-miterlimit:4;stroke-dasharray:3.2, 1.6, 0.8, 1.6;stroke-dashoffset:0.80000001;stroke-opacity:1"
       d="m 161.98955,658.54167 160,0"
       id="path8078"
       inkscape:connector-curvature="0" /><path
       style="fill:none;fill-rule:evenodd;stroke:#000000;stroke-width:0.80000001;stroke-linecap:butt;stroke-linejoin:miter;stroke-miterlimit:4;stroke-dasharray:3.2, 1.6, 0.8, 1.6;stroke-dashoffset:0;stroke-opacity:1"
       d="m 241.98955,718.54167 0,-120"
       id="path8095"
       inkscape:connector-curvature="0" /><path
       style="fill:none;fill-rule:evenodd;stroke:#000000;stroke-width:0.80000001;stroke-linecap:butt;stroke-linejoin:miter;stroke-miterlimit:4;stroke-dasharray:3.2, 3.2;stroke-dashoffset:0;stroke-opacity:1"
       d="m 201.98955,718.54167 0,-120"
       id="path8097"
       inkscape:connector-curvature="0" /><path
       style="fill:none;fill-rule:evenodd;stroke:#000000;stroke-width:0.80000001;stroke-linecap:butt;stroke-linejoin:miter;stroke-miterlimit:4;stroke-dasharray:3.2, 3.2;stroke-dashoffset:0;stroke-opacity:1"
       d="m 281.98955,718.54167 0,-120"
       id="path8114"
       inkscape:connector-curvature="0" /><path
       style="fill:none;fill-rule:evenodd;stroke:#000000;stroke-width:0.80000001px;stroke-linecap:butt;stroke-linejoin:miter;stroke-opacity:1"
       d="m 281.98955,658.54167 -80,0"
       id="path8118"
       inkscape:connector-curvature="0" /><g
       id="layer1-2"
       style="display:inline;fill:#000000;fill-opacity:1;enable-background:new"
       transform="matrix(-0.022,0,0,-0.022,284.47234,670.45064)"><g
         id="g5923"
         style="fill:#000000;fill-opacity:1"
         transform="matrix(2.4048,0,0,2.4048,-560.81,151.28)"><path
           id="path4756"
           d="m 351.28,94.479 c -9.89,-0.085 -20.03,4.256 -23,12.361 -4.42,9.77 2.67,21.2 14.76,24.71 0.04,0.01 0.1,0 0.14,0 13.19,4.77 29.61,7.1 43.9,21.89 l 5.36,5.56 -4.83,4.92 c -14.34,14.77 -30.71,17.04 -43.91,21.78 -0.03,0.02 -0.1,-0.01 -0.13,0 -12.07,3.49 -19.06,14.85 -14.77,24.62 0.01,0.02 -0.02,0.07 0,0.1 3.67,9.88 18.08,14.25 29.66,11.63 0.04,-0.01 0.1,0 0.13,0 11.86,-2.07 21.57,-11.72 18.82,-21.47 -1.36,-4.82 -3.09,-7.05 -4.7,-8.38 -0.81,-0.67 -1.51,-1.09 -1.96,-1.47 -0.46,-0.38 -2.36,-1.45 -2.36,-1.45 1.18,-0.86 1.87,-1.27 2.88,-1.9 1.52,-0.99 4.16,-2.2 7.58,-3.67 6.78,-2.9 16.76,-7.01 28.23,-13.61 20.74,11.79 47.69,27.06 62.59,35.5 14.9,8.44 30.15,4.19 36.46,0.32 l -79.9,-46.9 80.36,-47.35 c -12.46,-7.68 -26.67,-4.43 -36.14,0.19 -21.04,11.94 -42.16,23.82 -63.24,35.72 -9.62,-5.26 -19.94,-10.08 -28.88,-13.93 -3.43,-1.47 -6.07,-2.67 -7.58,-3.67 -0.76,-0.49 -2.68,-1.57 -2.68,-1.57 1.75,-1.02 3.61,-2.91 4.96,-4.34 1.35,-1.44 2.94,-3.57 3.86,-7.28 2.41,-9.81 -6.97,-19.49 -18.82,-21.578 -2.3,-0.507 -4.77,-0.582 -6.8,-0.733 z m -1.31,8.271 c 4.41,-0.2 8.96,1 11.89,3.35 4.39,3.53 5.22,8.38 3.53,12.36 -1.69,3.98 -5.75,6.93 -11.5,6.92 l -0.13,0 c -5.27,0.24 -10.4,-2.19 -13.46,-5.77 -3.06,-3.57 -3.93,-8.01 -0.91,-11.83 l 0,-0.11 c 2.08,-3.17 6.17,-4.71 10.58,-4.92 z m 3.4,89.13 c 0.39,0 0.79,-0.01 1.04,0 5.75,0 9.82,2.94 11.5,6.92 1.69,3.98 0.87,8.84 -3.52,12.35 -2.94,2.35 -7.61,3.67 -12.03,3.46 -4.41,-0.21 -8.38,-1.85 -10.45,-5.03 l -0.13,-0.1 c -2.91,-3.71 -2.07,-7.9 0.78,-11.42 2.85,-3.51 7.73,-6.1 12.81,-6.18 z"
           style="color:#000000;text-indent:0;text-transform:none;block-progression:tb;fill:#000000;fill-opacity:1"
           inkscape:connector-curvature="0" /></g></g><rect
       style="opacity:1;fill:#ffffff;fill-opacity:1;stroke:#000000;stroke-width:0.80000001;stroke-linecap:round;stroke-linejoin:round;stroke-miterlimit:4;stroke-dasharray:none;stroke-dashoffset:0;stroke-opacity:1"
       id="rect10164"
       width="40"
       height="60"
       x="161.98955"
       y="-538.54163"
       transform="scale(1,-1)" /><rect
       style="opacity:1;fill:none;fill-opacity:1;stroke:#000000;stroke-width:0.76867187;stroke-linecap:round;stroke-linejoin:round;stroke-miterlimit:4;stroke-dasharray:none;stroke-dashoffset:0;stroke-opacity:1"
       id="rect10164-7"
       width="36.907207"
       height="60.034657"
       x="205.76747"
       y="-499.39789"
       transform="matrix(0.98154848,0.19121342,0,-1,0,0)" /><rect
       style="opacity:1;fill:#ffffff;fill-opacity:1;stroke:#000000;stroke-width:0.80614704;stroke-linecap:round;stroke-linejoin:round;stroke-miterlimit:4;stroke-dasharray:none;stroke-dashoffset:0;stroke-opacity:1"
       id="rect10164-5"
       width="40.617065"
       height="60"
       x="205.29709"
       y="-574.34583"
       transform="matrix(0.98480775,-0.17364818,0,-1,0,0)" /><rect
       style="opacity:1;fill:#ffffff;fill-opacity:1;stroke:#000000;stroke-width:0.80614698;stroke-linecap:round;stroke-linejoin:round;stroke-miterlimit:4;stroke-dasharray:none;stroke-dashoffset:0;stroke-opacity:1"
       id="rect10164-7-3"
       width="40.617065"
       height="60"
       x="245.91972"
       y="-489.06003"
       transform="matrix(0.98480775,0.17364818,0,-1,0,0)" /><rect
       style="opacity:1;fill:#ffffff;fill-opacity:1;stroke:#000000;stroke-width:0.80000001;stroke-linecap:round;stroke-linejoin:round;stroke-miterlimit:4;stroke-dasharray:none;stroke-dashoffset:0;stroke-opacity:1"
       id="rect10164-2"
       width="40"
       height="60"
       x="281.81921"
       y="-538.32697"
       transform="scale(1,-1)" /><path
       style="fill:none;fill-rule:evenodd;stroke:#000000;stroke-width:0.80000001px;stroke-linecap:butt;stroke-linejoin:miter;stroke-opacity:1;marker-end:url(#Arrow1Lend)"
       d="m 163.96677,689.99718 c -5.98932,-11.45551 -22.878,-25.36364 1.08897,-52.27046"
       id="path10259"
       inkscape:connector-curvature="0"
       sodipodi:nodetypes="cc" /><rect
       style="opacity:1;fill:none;fill-opacity:1;stroke:#000000;stroke-width:0.77599019;stroke-linecap:round;stroke-linejoin:round;stroke-miterlimit:4;stroke-dasharray:none;stroke-dashoffset:0;stroke-opacity:1"
       id="rect10164-6-0"
       width="40.022758"
       height="56.420479"
       x="104.77531"
       y="-400.50485"
       transform="matrix(1,0,-0.0930922,-0.99565749,0,0)" /><rect
       style="opacity:1;fill:#ffffff;fill-opacity:1;stroke:#000000;stroke-width:0.80000001;stroke-linecap:round;stroke-linejoin:round;stroke-miterlimit:4;stroke-dasharray:none;stroke-dashoffset:0;stroke-opacity:1"
       id="rect10164-26"
       width="40"
       height="60"
       x="141.98955"
       y="-398.54169"
       transform="scale(1,-1)" /><rect
       style="opacity:1;fill:#ffffff;fill-opacity:1;stroke:#000000;stroke-width:0.80000001;stroke-linecap:round;stroke-linejoin:round;stroke-miterlimit:4;stroke-dasharray:none;stroke-dashoffset:0;stroke-opacity:1"
       id="rect10164-2-9"
       width="40"
       height="60"
       x="187.12758"
       y="-398.32703"
       transform="scale(1,-1)" /><rect
       style="opacity:1;fill:#ffffff;fill-opacity:1;stroke:#000000;stroke-width:0.60567135;stroke-linecap:round;stroke-linejoin:round;stroke-miterlimit:4;stroke-dasharray:none;stroke-dashoffset:0;stroke-opacity:1"
       id="rect10164-5-8-2"
       width="22.847818"
       height="60.20892"
       x="224.09125"
       y="-522.22089"
       transform="matrix(0.83366197,-0.55227504,0,-1,0,0)"
       ry="0" /><rect
       style="opacity:1;fill:#ffffff;fill-opacity:1;stroke:#000000;stroke-width:0.66380322;stroke-linecap:round;stroke-linejoin:round;stroke-miterlimit:4;stroke-dasharray:none;stroke-dashoffset:0;stroke-opacity:1"
       id="rect10164-5-8"
       width="27.470833"
       height="60.150375"
       x="208.44991"
       y="-500.11234"
       transform="matrix(0.8735636,-0.48671002,0,-1,0,0)" /><rect
       style="opacity:1;fill:#ffffff;fill-opacity:1;stroke:#000000;stroke-width:0.78823411;stroke-linecap:round;stroke-linejoin:round;stroke-miterlimit:4;stroke-dasharray:none;stroke-dashoffset:0;stroke-opacity:1"
       id="rect10164-2-9-9-28"
       width="38.823875"
       height="60.012657"
       x="163.28847"
       y="-282.64551"
       transform="matrix(0.99592747,0.09015804,0,-1,0,0)" /><rect
       style="opacity:1;fill:#ffffff;fill-opacity:1;stroke:#000000;stroke-width:0.80000001;stroke-linecap:round;stroke-linejoin:round;stroke-miterlimit:4;stroke-dasharray:none;stroke-dashoffset:0;stroke-opacity:1"
       id="rect10164-2-9-7"
       width="40"
       height="60"
       x="162.62581"
       y="-297.09213"
       transform="scale(1,-1)" /><path
       style="fill:none;fill-rule:evenodd;stroke:#000000;stroke-width:0.51199996px;stroke-linecap:butt;stroke-linejoin:miter;stroke-opacity:1;marker-end:url(#Arrow1Lend-9)"
       d="m 142.69974,398.57202 c 3.41099,-7.53722 3.75882,-21.53506 26.77345,-20.06934"
       id="path10259-3"
       inkscape:connector-curvature="0"
       sodipodi:nodetypes="cc" /><path
       style="fill:none;fill-rule:evenodd;stroke:#000000;stroke-width:0.51199996px;stroke-linecap:butt;stroke-linejoin:miter;stroke-opacity:1;marker-end:url(#Arrow1Lend-9-6)"
       d="m 162.58714,411.95085 c 7.49209,3.50903 16.85727,13.91834 33.39067,-2.15862"
       id="path10259-3-2"
       inkscape:connector-curvature="0"
       sodipodi:nodetypes="cc" /></g></svg>