<?xml version="1.0" encoding="UTF-8" standalone="no"?>
<!-- Created with Inkscape (http://www.inkscape.org/) -->

<svg
   xmlns:dc="http://purl.org/dc/elements/1.1/"
   xmlns:cc="http://creativecommons.org/ns#"
   xmlns:rdf="http://www.w3.org/1999/02/22-rdf-syntax-ns#"
   xmlns:svg="http://www.w3.org/2000/svg"
   xmlns="http://www.w3.org/2000/svg"
   xmlns:xlink="http://www.w3.org/1999/xlink"
   xmlns:sodipodi="http://sodipodi.sourceforge.net/DTD/sodipodi-0.dtd"
   xmlns:inkscape="http://www.inkscape.org/namespaces/inkscape"
   width="524.40942"
   height="744.09448"
   id="svg2"
   version="1.1"
   inkscape:version="0.91 r13725"
   sodipodi:docname="couverture.svg">
  <defs
     id="defs4">
    <inkscape:path-effect
       effect="spiro"
       id="path-effect3388"
       is_visible="true" />
    <inkscape:path-effect
       effect="spiro"
       id="path-effect3382"
       is_visible="true" />
    <linearGradient
       inkscape:collect="always"
       id="linearGradient4943">
      <stop
         style="stop-color:#000000;stop-opacity:1;"
         offset="0"
         id="stop4945" />
      <stop
         style="stop-color:#000000;stop-opacity:0;"
         offset="1"
         id="stop4947" />
    </linearGradient>
    <linearGradient
       inkscape:collect="always"
       xlink:href="#linearGradient4943"
       id="linearGradient4949"
       x1="-239.09869"
       y1="50.289883"
       x2="1388.88"
       y2="50.289883"
       gradientUnits="userSpaceOnUse" />
    <linearGradient
       inkscape:collect="always"
       xlink:href="#linearGradient4943"
       id="linearGradient5143"
       gradientUnits="userSpaceOnUse"
       x1="-239.09869"
       y1="50.289883"
       x2="1388.88"
       y2="50.289883" />
    <linearGradient
       inkscape:collect="always"
       xlink:href="#linearGradient4943"
       id="linearGradient5337"
       gradientUnits="userSpaceOnUse"
       x1="-239.09869"
       y1="50.289883"
       x2="1388.88"
       y2="50.289883" />
    <linearGradient
       inkscape:collect="always"
       xlink:href="#linearGradient4943"
       id="linearGradient5531"
       gradientUnits="userSpaceOnUse"
       x1="-239.09869"
       y1="50.289883"
       x2="1388.88"
       y2="50.289883" />
    <linearGradient
       inkscape:collect="always"
       xlink:href="#linearGradient4943"
       id="linearGradient5725"
       gradientUnits="userSpaceOnUse"
       x1="-239.09869"
       y1="50.289883"
       x2="1388.88"
       y2="50.289883" />
    <linearGradient
       inkscape:collect="always"
       xlink:href="#linearGradient4943"
       id="linearGradient6307"
       gradientUnits="userSpaceOnUse"
       x1="-239.09869"
       y1="50.289883"
       x2="1388.88"
       y2="50.289883" />
    <linearGradient
       inkscape:collect="always"
       xlink:href="#linearGradient4943"
       id="linearGradient6551"
       gradientUnits="userSpaceOnUse"
       x1="-239.09869"
       y1="50.289883"
       x2="1388.88"
       y2="50.289883" />
    <linearGradient
       inkscape:collect="always"
       xlink:href="#linearGradient4943"
       id="linearGradient6841"
       gradientUnits="userSpaceOnUse"
       x1="-239.09869"
       y1="50.289883"
       x2="1388.88"
       y2="50.289883" />
    <linearGradient
       inkscape:collect="always"
       xlink:href="#linearGradient4943"
       id="linearGradient7131"
       gradientUnits="userSpaceOnUse"
       x1="-239.09869"
       y1="50.289883"
       x2="1388.88"
       y2="50.289883" />
    <linearGradient
       inkscape:collect="always"
       xlink:href="#linearGradient4943"
       id="linearGradient7422"
       gradientUnits="userSpaceOnUse"
       gradientTransform="translate(-147.38363,328.07824)"
       x1="411.92175"
       y1="19.197445"
       x2="410.91162"
       y2="82.837059" />
    <inkscape:path-effect
       effect="spiro"
       id="path-effect3388-6"
       is_visible="true" />
  </defs>
  <sodipodi:namedview
     id="base"
     pagecolor="#ffffff"
     bordercolor="#666666"
     borderopacity="1.0"
     inkscape:pageopacity="0.0"
     inkscape:pageshadow="2"
     inkscape:zoom="0.98994949"
     inkscape:cx="157.77096"
     inkscape:cy="431.64625"
     inkscape:document-units="mm"
     inkscape:current-layer="g3265"
     showgrid="false"
     units="mm"
     showguides="true"
     inkscape:guide-bbox="true"
     inkscape:window-width="1276"
     inkscape:window-height="781"
     inkscape:window-x="2"
     inkscape:window-y="32"
     inkscape:window-maximized="0"
     inkscape:snap-grids="false"
     inkscape:snap-to-guides="true"
     inkscape:snap-page="true" />
  <metadata
     id="metadata7">
    <rdf:RDF>
      <cc:Work
         rdf:about="">
        <dc:format>image/svg+xml</dc:format>
        <dc:type
           rdf:resource="http://purl.org/dc/dcmitype/StillImage" />
        <dc:title></dc:title>
      </cc:Work>
    </rdf:RDF>
  </metadata>
  <g
     inkscape:label="Calque 1"
     inkscape:groupmode="layer"
     id="layer1"
     transform="translate(0,-308.26768)">
    <g
       id="g3265"
       transform="translate(0,35.43307)">
      <g
         transform="matrix(0.8,0,0,0.8,-37.09883,174.28689)"
         id="layer1-4">
        <g
           transform="translate(6.9975142,7.4999195)"
           id="g4532">
          <path
             inkscape:connector-curvature="0"
             d="m 460.59115,661.15963 -93.45927,0 -93.45928,10e-6 -28.88048,-88.88505 -28.88048,-88.88505 75.61013,-54.93398 75.61012,-54.93399 75.61014,54.93399 75.61015,54.93399 -28.88051,88.88504 -28.88052,88.88504 z"
             style="color:#000000;fill:none;stroke:#000000;stroke-width:4;stroke-linecap:butt;stroke-linejoin:miter;stroke-miterlimit:4;stroke-opacity:1;stroke-dasharray:4, 8;stroke-dashoffset:0;marker:none;visibility:visible;display:inline;overflow:visible"
             id="path4409" />
          <path
             inkscape:connector-curvature="0"
             d="M 502.52919,718.70017 231.73461,718.70016 148.05449,461.15915 367.1319,301.99014 586.20933,461.15918 502.52919,718.70017 z"
             style="color:#000000;fill:none;stroke:#000000;stroke-width:4;stroke-linecap:butt;stroke-linejoin:miter;stroke-miterlimit:4;stroke-opacity:1;stroke-dasharray:4, 8;stroke-dashoffset:0;marker:none;visibility:visible;display:inline;overflow:visible"
             id="path4432" />
          <path
             inkscape:connector-curvature="0"
             d="m 450.49334,559.28514 -83.36139,60.5656 -83.36146,-60.56563 31.84126,-97.99722 103.04037,2e-5 31.84122,97.99723 z"
             style="color:#000000;fill:none;stroke:#000000;stroke-width:4;stroke-linecap:butt;stroke-linejoin:miter;stroke-miterlimit:4;stroke-opacity:1;stroke-dasharray:4, 8;stroke-dashoffset:0;marker:none;visibility:visible;display:inline;overflow:visible"
             id="path4434" />
          <path
             inkscape:connector-curvature="0"
             d="m 367.1319,301.99014 -10e-6,71.53143"
             style="fill:none;stroke:#000000;stroke-width:4;stroke-linecap:butt;stroke-linejoin:miter;stroke-miterlimit:4;stroke-opacity:1;stroke-dasharray:4, 8;stroke-dashoffset:0"
             id="path4444" />
          <path
             inkscape:connector-curvature="0"
             d="m 586.20933,461.15918 -67.85715,22.23037"
             style="fill:none;stroke:#000000;stroke-width:4;stroke-linecap:butt;stroke-linejoin:miter;stroke-miterlimit:4;stroke-opacity:1;stroke-dasharray:4, 8;stroke-dashoffset:0"
             id="path4446" />
          <path
             inkscape:connector-curvature="0"
             d="m 460.59115,661.15963 41.93804,57.54054"
             style="fill:none;stroke:#000000;stroke-width:4;stroke-linecap:butt;stroke-linejoin:miter;stroke-miterlimit:4;stroke-opacity:1;stroke-dasharray:4, 8;stroke-dashoffset:0"
             id="path4448" />
          <path
             inkscape:connector-curvature="0"
             d="M 231.73461,718.70016 273.6726,661.15964"
             style="fill:none;stroke:#000000;stroke-width:4;stroke-linecap:butt;stroke-linejoin:miter;stroke-miterlimit:4;stroke-opacity:1;stroke-dasharray:4, 8;stroke-dashoffset:0"
             id="path4450" />
          <path
             inkscape:connector-curvature="0"
             d="m 148.05449,461.15915 67.85715,22.23039"
             style="fill:none;stroke:#000000;stroke-width:4;stroke-linecap:butt;stroke-linejoin:miter;stroke-miterlimit:4;stroke-opacity:1;stroke-dasharray:4, 8;stroke-dashoffset:0"
             id="path4452" />
          <path
             inkscape:connector-curvature="0"
             d="m 283.77049,559.28511 -38.97837,12.98948"
             style="fill:none;stroke:#000000;stroke-width:4;stroke-linecap:butt;stroke-linejoin:miter;stroke-miterlimit:4;stroke-opacity:1;stroke-dasharray:4, 8;stroke-dashoffset:0"
             id="path4454" />
          <path
             inkscape:connector-curvature="0"
             d="M 315.61175,461.28789 291.52177,428.45556"
             style="fill:none;stroke:#000000;stroke-width:4;stroke-linecap:butt;stroke-linejoin:miter;stroke-miterlimit:4;stroke-opacity:1;stroke-dasharray:4, 8;stroke-dashoffset:0"
             id="path4456" />
          <path
             inkscape:connector-curvature="0"
             d="m 418.65212,461.28791 24.08991,-32.83235"
             style="fill:none;stroke:#000000;stroke-width:4;stroke-linecap:butt;stroke-linejoin:miter;stroke-miterlimit:4;stroke-opacity:1;stroke-dasharray:4, 8;stroke-dashoffset:0"
             id="path4458" />
          <path
             inkscape:connector-curvature="0"
             d="m 450.49334,559.28514 38.97833,12.98945"
             style="fill:none;stroke:#000000;stroke-width:4;stroke-linecap:butt;stroke-linejoin:miter;stroke-miterlimit:4;stroke-opacity:1;stroke-dasharray:4, 8;stroke-dashoffset:0"
             id="path4460" />
          <path
             inkscape:connector-curvature="0"
             d="m 367.13195,619.85074 -7e-5,41.30889"
             style="fill:none;stroke:#000000;stroke-width:4;stroke-linecap:butt;stroke-linejoin:miter;stroke-miterlimit:4;stroke-opacity:1;stroke-dasharray:4, 8;stroke-dashoffset:0"
             id="path4462" />
          <path
             inkscape:connector-curvature="0"
             d="m 273.6726,661.15964 -57.76096,-177.7701 151.22025,-109.86797 151.22029,109.86798 -28.88051,88.88504 -38.97833,-12.98945 -31.84122,-97.99723 -103.04037,-2e-5 -31.84126,97.99722 83.36146,60.56563 -7e-5,41.30889 93.45927,0 41.93804,57.54054 L 586.20933,461.15918 367.1319,301.99014 148.05449,461.15915 231.73461,718.70016 273.6726,661.15964"
             style="fill:none;stroke:#ff0000;stroke-width:8;stroke-linecap:butt;stroke-linejoin:bevel;stroke-miterlimit:4;stroke-opacity:1;stroke-dasharray:none;stroke-dashoffset:0"
             id="path4490" />
          <path
             inkscape:connector-curvature="0"
             d="m 409.6468,301.99014 a 42.5149,42.5149 0 1 1 -85.0298,0 42.5149,42.5149 0 1 1 85.0298,0 z"
             transform="matrix(0.2149849,0,0,0.2149849,288.20409,237.06682)"
             style="color:#000000;fill:#000000;fill-opacity:1;fill-rule:nonzero;stroke:none;stroke-width:8;marker:none;visibility:visible;display:inline;overflow:visible"
             id="path4492" />
          <path
             inkscape:connector-curvature="0"
             d="m 409.6468,301.99014 a 42.5149,42.5149 0 1 1 -85.0298,0 42.5149,42.5149 0 1 1 85.0298,0 z"
             transform="matrix(0.2149849,0,0,0.2149849,507.28152,396.23586)"
             style="color:#000000;fill:#000000;fill-opacity:1;fill-rule:nonzero;stroke:none;stroke-width:8;marker:none;visibility:visible;display:inline;overflow:visible"
             id="path4494" />
          <path
             inkscape:connector-curvature="0"
             d="m 409.6468,301.99014 a 42.5149,42.5149 0 1 1 -85.0298,0 42.5149,42.5149 0 1 1 85.0298,0 z"
             transform="matrix(0.2149849,0,0,0.2149849,423.60138,653.77685)"
             style="color:#000000;fill:#000000;fill-opacity:1;fill-rule:nonzero;stroke:none;stroke-width:8;marker:none;visibility:visible;display:inline;overflow:visible"
             id="path4496" />
          <path
             inkscape:connector-curvature="0"
             d="m 409.6468,301.99014 a 42.5149,42.5149 0 1 1 -85.0298,0 42.5149,42.5149 0 1 1 85.0298,0 z"
             transform="matrix(0.2149849,0,0,0.2149849,152.8068,653.77684)"
             style="color:#000000;fill:#000000;fill-opacity:1;fill-rule:nonzero;stroke:none;stroke-width:8;marker:none;visibility:visible;display:inline;overflow:visible"
             id="path4498" />
          <path
             inkscape:connector-curvature="0"
             d="m 409.6468,301.99014 a 42.5149,42.5149 0 1 1 -85.0298,0 42.5149,42.5149 0 1 1 85.0298,0 z"
             transform="matrix(0.2149849,0,0,0.2149849,69.126676,396.23583)"
             style="color:#000000;fill:#000000;fill-opacity:1;fill-rule:nonzero;stroke:none;stroke-width:8;marker:none;visibility:visible;display:inline;overflow:visible"
             id="path4500" />
          <path
             inkscape:connector-curvature="0"
             d="m 409.6468,301.99014 a 42.5149,42.5149 0 1 1 -85.0298,0 42.5149,42.5149 0 1 1 85.0298,0 z"
             transform="matrix(0.2149849,0,0,0.2149849,136.98383,418.46622)"
             style="color:#000000;fill:#000000;fill-opacity:1;fill-rule:nonzero;stroke:none;stroke-width:8;marker:none;visibility:visible;display:inline;overflow:visible"
             id="path4502" />
          <path
             inkscape:connector-curvature="0"
             d="m 409.6468,301.99014 a 42.5149,42.5149 0 1 1 -85.0298,0 42.5149,42.5149 0 1 1 85.0298,0 z"
             transform="matrix(0.2149849,0,0,0.2149849,288.20408,308.59825)"
             style="color:#000000;fill:#000000;fill-opacity:1;fill-rule:nonzero;stroke:none;stroke-width:8;marker:none;visibility:visible;display:inline;overflow:visible"
             id="path4504" />
          <path
             inkscape:connector-curvature="0"
             d="m 409.6468,301.99014 a 42.5149,42.5149 0 1 1 -85.0298,0 42.5149,42.5149 0 1 1 85.0298,0 z"
             transform="matrix(0.2149849,0,0,0.2149849,439.42437,418.46623)"
             style="color:#000000;fill:#000000;fill-opacity:1;fill-rule:nonzero;stroke:none;stroke-width:8;marker:none;visibility:visible;display:inline;overflow:visible"
             id="path4506" />
          <path
             inkscape:connector-curvature="0"
             d="m 409.6468,301.99014 a 42.5149,42.5149 0 1 1 -85.0298,0 42.5149,42.5149 0 1 1 85.0298,0 z"
             transform="matrix(0.2149849,0,0,0.2149849,381.66334,596.23631)"
             style="color:#000000;fill:#000000;fill-opacity:1;fill-rule:nonzero;stroke:none;stroke-width:8;marker:none;visibility:visible;display:inline;overflow:visible"
             id="path4508" />
          <path
             inkscape:connector-curvature="0"
             d="m 409.6468,301.99014 a 42.5149,42.5149 0 1 1 -85.0298,0 42.5149,42.5149 0 1 1 85.0298,0 z"
             transform="matrix(0.2149849,0,0,0.2149849,194.74479,596.23632)"
             style="color:#000000;fill:#000000;fill-opacity:1;fill-rule:nonzero;stroke:none;stroke-width:8;marker:none;visibility:visible;display:inline;overflow:visible"
             id="path4510" />
          <path
             inkscape:connector-curvature="0"
             d="m 409.6468,301.99014 a 42.5149,42.5149 0 1 1 -85.0298,0 42.5149,42.5149 0 1 1 85.0298,0 z"
             transform="matrix(0.2149849,0,0,0.2149849,288.20414,554.92742)"
             style="color:#000000;fill:#000000;fill-opacity:1;fill-rule:nonzero;stroke:none;stroke-width:8;marker:none;visibility:visible;display:inline;overflow:visible"
             id="path4512" />
          <path
             inkscape:connector-curvature="0"
             d="m 409.6468,301.99014 a 42.5149,42.5149 0 1 1 -85.0298,0 42.5149,42.5149 0 1 1 85.0298,0 z"
             transform="matrix(0.2149849,0,0,0.2149849,204.84268,494.36179)"
             style="color:#000000;fill:#000000;fill-opacity:1;fill-rule:nonzero;stroke:none;stroke-width:8;marker:none;visibility:visible;display:inline;overflow:visible"
             id="path4514" />
          <path
             inkscape:connector-curvature="0"
             d="m 409.6468,301.99014 a 42.5149,42.5149 0 1 1 -85.0298,0 42.5149,42.5149 0 1 1 85.0298,0 z"
             transform="matrix(0.2149849,0,0,0.2149849,236.68394,396.36457)"
             style="color:#000000;fill:#000000;fill-opacity:1;fill-rule:nonzero;stroke:none;stroke-width:8;marker:none;visibility:visible;display:inline;overflow:visible"
             id="path4516" />
          <path
             inkscape:connector-curvature="0"
             d="m 409.6468,301.99014 a 42.5149,42.5149 0 1 1 -85.0298,0 42.5149,42.5149 0 1 1 85.0298,0 z"
             transform="matrix(0.2149849,0,0,0.2149849,339.72431,396.36459)"
             style="color:#000000;fill:#000000;fill-opacity:1;fill-rule:nonzero;stroke:none;stroke-width:8;marker:none;visibility:visible;display:inline;overflow:visible"
             id="path4518" />
          <path
             inkscape:connector-curvature="0"
             d="m 409.6468,301.99014 a 42.5149,42.5149 0 1 1 -85.0298,0 42.5149,42.5149 0 1 1 85.0298,0 z"
             transform="matrix(0.2149849,0,0,0.2149849,371.56553,494.36182)"
             style="color:#000000;fill:#000000;fill-opacity:1;fill-rule:nonzero;stroke:none;stroke-width:8;marker:none;visibility:visible;display:inline;overflow:visible"
             id="path4520" />
          <path
             inkscape:connector-curvature="0"
             d="m 409.6468,301.99014 a 42.5149,42.5149 0 1 1 -85.0298,0 42.5149,42.5149 0 1 1 85.0298,0 z"
             transform="matrix(0.2149849,0,0,0.2149849,410.54386,507.35127)"
             style="color:#000000;fill:#000000;fill-opacity:1;fill-rule:nonzero;stroke:none;stroke-width:8;marker:none;visibility:visible;display:inline;overflow:visible"
             id="path4522" />
          <path
             inkscape:connector-curvature="0"
             d="m 409.6468,301.99014 a 42.5149,42.5149 0 1 1 -85.0298,0 42.5149,42.5149 0 1 1 85.0298,0 z"
             transform="matrix(0.2149849,0,0,0.2149849,363.81422,363.53224)"
             style="color:#000000;fill:#000000;fill-opacity:1;fill-rule:nonzero;stroke:none;stroke-width:8;marker:none;visibility:visible;display:inline;overflow:visible"
             id="path4524" />
          <path
             inkscape:connector-curvature="0"
             d="m 409.6468,301.99014 a 42.5149,42.5149 0 1 1 -85.0298,0 42.5149,42.5149 0 1 1 85.0298,0 z"
             transform="matrix(0.2149849,0,0,0.2149849,212.59396,363.53224)"
             style="color:#000000;fill:#000000;fill-opacity:1;fill-rule:nonzero;stroke:none;stroke-width:8;marker:none;visibility:visible;display:inline;overflow:visible"
             id="path4526" />
          <path
             inkscape:connector-curvature="0"
             d="m 409.6468,301.99014 a 42.5149,42.5149 0 1 1 -85.0298,0 42.5149,42.5149 0 1 1 85.0298,0 z"
             transform="matrix(0.2149849,0,0,0.2149849,165.86431,507.35127)"
             style="color:#000000;fill:#000000;fill-opacity:1;fill-rule:nonzero;stroke:none;stroke-width:8;marker:none;visibility:visible;display:inline;overflow:visible"
             id="path4528" />
          <path
             inkscape:connector-curvature="0"
             d="m 409.6468,301.99014 a 42.5149,42.5149 0 1 1 -85.0298,0 42.5149,42.5149 0 1 1 85.0298,0 z"
             transform="matrix(0.2149849,0,0,0.2149849,288.20407,596.23631)"
             style="color:#000000;fill:#000000;fill-opacity:1;fill-rule:nonzero;stroke:none;stroke-width:8;marker:none;visibility:visible;display:inline;overflow:visible"
             id="path4530" />
        </g>
      </g>
      <text
         sodipodi:linespacing="125%"
         id="text3221"
         y="372.02075"
         x="261.84564"
         style="font-size:40px;font-style:normal;font-variant:normal;font-weight:normal;font-stretch:normal;text-align:center;line-height:125%;letter-spacing:0px;word-spacing:0px;text-anchor:middle;fill:#000000;fill-opacity:1;stroke:none;font-family:Bebas Neue;-inkscape-font-specification:Bebas Neue"
         xml:space="preserve"><tspan
           y="372.02075"
           x="261.84564"
           id="tspan3223"
           sodipodi:role="line">les algorithmes</tspan></text>
      <text
         xml:space="preserve"
         style="font-style:normal;font-variant:normal;font-weight:normal;font-stretch:normal;font-size:14px;line-height:100%;font-family:'Source Sans Pro';-inkscape-font-specification:'Source Sans Pro, Normal';text-align:start;letter-spacing:0px;word-spacing:0px;writing-mode:lr-tb;text-anchor:start;fill:#000000;fill-opacity:1;stroke:none;stroke-width:1px;stroke-linecap:butt;stroke-linejoin:miter;stroke-opacity:1;"
         x="-815.21423"
         y="34.974983"
         id="text3398"
         sodipodi:linespacing="100%"
         transform="matrix(0,-1,1,0,0,0)"><tspan
           sodipodi:role="line"
           id="tspan3400"
           x="-815.21423"
           y="34.974983"
           style="font-size:35px;fill:#ff0000;fill-opacity:1;line-height:100%;">Petit manuel en cours de réécriture</tspan><tspan
           sodipodi:role="line"
           x="-815.21423"
           y="78.724983"
           id="tspan3402"
           style="font-size:35px;fill:#ff0000;fill-opacity:1;line-height:100%;">Utilisez-le avec prudence</tspan></text>
    </g>
    <g
       transform="translate(-227.27514,354.75521)"
       id="layer1-3"
       inkscape:label="Calque 1">
      <g
         id="g3262">
        <path
           style="fill:#000000"
           d="m 339.54261,656.33111 c 0.13301,-3.47363 0.29092,-17.58189 0.3509,-31.35167 l 0.10908,-25.03597 -38.61708,-10.10026 c -21.23939,-5.55515 -38.55761,-10.15971 -38.48494,-10.23239 0.0727,-0.0726 9.11363,-2.65035 20.09103,-5.72818 l 19.95889,-5.59604 0.1139,8.3112 0.11389,8.3112 2.20186,0.62899 c 1.21102,0.34595 8.59362,2.2822 16.40578,4.30276 l 14.20391,3.67377 0.8369,-1.06395 c 0.4603,-0.58517 6.632,-8.23845 13.71491,-17.00729 l 12.878,-15.94334 -13.36038,-3.33733 -13.36038,-3.33733 -2.13757,2.48071 c -1.17566,1.36439 -2.71203,3.11906 -3.41415,3.89926 l -1.27658,1.41855 -1.88126,-3.63992 c -1.71751,-3.32308 -1.9729,-3.62087 -2.93388,-3.421 -0.57894,0.1204 -15.64188,4.37699 -33.4732,9.45907 -17.83132,5.08207 -32.48113,9.17959 -32.55515,9.1056 -0.074,-0.074 8.08649,-9.20292 18.13447,-20.28649 l 18.26906,-20.15195 32.76991,-9.84869 c 31.5868,-9.49311 32.79168,-9.81972 33.37286,-9.04637 0.33162,0.44127 1.23491,2.04532 2.0073,3.56456 l 1.40436,2.76226 -12.37393,14.70216 c -6.80565,8.08619 -12.23724,14.82196 -12.07019,14.96836 0.16707,0.14641 7.83521,2.10788 17.04034,4.35884 l 16.7366,4.09264 0,1.78284 c 0,0.98056 -0.38396,14.81513 -0.85323,30.74348 l -0.85322,28.96066 -16.03689,21.32691 c -8.8203,11.7298 -16.31519,21.61112 -16.65534,21.95848 -0.54425,0.55581 -0.58942,-0.126 -0.37658,-5.68413 z"
           id="path3821"
           inkscape:connector-curvature="0" />
        <g
           id="g3256">
          <text
             sodipodi:linespacing="125%"
             id="text2991"
             y="579.16754"
             x="381.26855"
             style="font-size:30.31534386px;font-style:normal;font-variant:normal;font-weight:normal;font-stretch:normal;text-align:start;line-height:125%;letter-spacing:0px;word-spacing:0px;text-anchor:start;fill:#000000;fill-opacity:1;stroke:none;font-family:Bebas Neue;-inkscape-font-specification:Bebas Neue"
             xml:space="preserve"><tspan
               id="tspan2995"
               y="579.16754"
               x="381.26855"
               sodipodi:role="line">sciences manuelles du numerique</tspan></text>
          <text
             transform="scale(0.98822043,1.01192)"
             sodipodi:linespacing="125%"
             id="text2993"
             y="588.07452"
             x="385.60806"
             style="font-size:13.31477547px;font-style:normal;font-variant:normal;font-weight:500;font-stretch:normal;text-align:start;line-height:125%;letter-spacing:0px;word-spacing:0px;text-anchor:start;fill:#000000;fill-opacity:1;stroke:none;font-family:GeosansLight;-inkscape-font-specification:GeosansLight Medium"
             xml:space="preserve"><tspan
               y="588.07452"
               x="385.60806"
               id="tspan2996"
               sodipodi:role="line">DECONSTRUIRE L'INFORMATIQUE POUR MIEUX LA COMPRENDRE</tspan></text>
        </g>
      </g>
    </g>
    <path
       style="fill:none;stroke:#000000;stroke-width:3.54330709;stroke-linecap:butt;stroke-linejoin:miter;stroke-opacity:1;stroke-miterlimit:4;stroke-dasharray:none"
       d="M 0,910.62989 0,875.19681"
       id="path3386"
       inkscape:path-effect="#path-effect3388"
       inkscape:original-d="M 0,910.62989 0,875.19681"
       inkscape:connector-curvature="0"
       sodipodi:nodetypes="cc" />
    <path
       style="fill:none;stroke:#000000;stroke-width:3.54330709;stroke-linecap:butt;stroke-linejoin:miter;stroke-opacity:1;stroke-miterlimit:4;stroke-dasharray:none"
       d="M 0,485.43304 0,449.99996"
       id="path3386-5"
       inkscape:path-effect="#path-effect3388-6"
       inkscape:original-d="M 0,485.43304 0,449.99996"
       inkscape:connector-curvature="0"
       sodipodi:nodetypes="cc" />
  </g>
</svg>
