<?xml version="1.0" encoding="UTF-8" standalone="no"?>
<!-- Created with Inkscape (http://www.inkscape.org/) -->

<svg
   xmlns:dc="http://purl.org/dc/elements/1.1/"
   xmlns:cc="http://creativecommons.org/ns#"
   xmlns:rdf="http://www.w3.org/1999/02/22-rdf-syntax-ns#"
   xmlns:svg="http://www.w3.org/2000/svg"
   xmlns="http://www.w3.org/2000/svg"
   xmlns:sodipodi="http://sodipodi.sourceforge.net/DTD/sodipodi-0.dtd"
   xmlns:inkscape="http://www.inkscape.org/namespaces/inkscape"
   width="106.29951"
   height="31.028673"
   id="svg3236"
   version="1.1"
   inkscape:version="0.48.3.1 r9886"
   sodipodi:docname="logo_inria.svg">
  <defs
     id="defs3238" />
  <sodipodi:namedview
     id="base"
     pagecolor="#ffffff"
     bordercolor="#666666"
     borderopacity="1.0"
     inkscape:pageopacity="0.0"
     inkscape:pageshadow="2"
     inkscape:zoom="0.98994949"
     inkscape:cx="291.36404"
     inkscape:cy="-43.199955"
     inkscape:document-units="px"
     inkscape:current-layer="layer1"
     showgrid="false"
     inkscape:window-width="1280"
     inkscape:window-height="785"
     inkscape:window-x="0"
     inkscape:window-y="15"
     inkscape:window-maximized="0"
     fit-margin-top="0"
     fit-margin-left="0"
     fit-margin-right="0"
     fit-margin-bottom="0" />
  <metadata
     id="metadata3241">
    <rdf:RDF>
      <cc:Work
         rdf:about="">
        <dc:format>image/svg+xml</dc:format>
        <dc:type
           rdf:resource="http://purl.org/dc/dcmitype/StillImage" />
        <dc:title></dc:title>
      </cc:Work>
    </rdf:RDF>
  </metadata>
  <g
     inkscape:label="Calque 1"
     inkscape:groupmode="layer"
     id="layer1"
     transform="translate(-83.63596,-458.13355)">
    <path
       style="fill:#000000"
       d="m 86.1338,489.0509 c -0.92032,-0.233 -1.72531,-0.8063 -2.10076,-1.4961 -0.24304,-0.4466 -0.39708,-1.1352 -0.39708,-1.7752 0,-3.1387 3.15712,-8.2303 9.22277,-14.874 1.75705,-1.9244 4.5966,-4.8323 4.95013,-5.0691 1.14518,-0.7673 4.03164,-1.3103 4.9424,-0.9297 0.22732,0.095 0.34312,0.2838 0.2865,0.4672 -0.0226,0.073 -0.8549,0.9561 -1.8497,1.9623 -5.65362,5.719 -10.99379,12.4575 -12.76026,16.1016 -0.62271,1.2846 -0.69357,2.1107 -0.22668,2.6424 0.2779,0.3165 0.63061,0.4233 1.37365,0.4159 2.00765,-0.02 5.40021,-1.6512 8.33834,-4.009 1.62911,-1.3073 2.77082,-2.477 3.96636,-4.0634 0.38969,-0.5171 0.79743,-1.008 0.90611,-1.0909 1.02352,-0.7807 3.66472,-1.2775 4.22575,-0.795 0.14043,0.1208 0.14836,0.1489 0.0791,0.2804 -0.0849,0.161 -1.27606,1.6582 -2.35792,2.9636 -0.38193,0.4609 -0.6851,0.8472 -0.67371,0.8586 0.0113,0.011 0.39951,-0.2511 0.86251,-0.5834 2.74303,-1.9687 4.99261,-3.0955 7.08613,-3.5493 0.71012,-0.1539 2.16535,-0.2185 2.65092,-0.1177 0.53574,0.1112 0.94978,0.3933 1.15127,0.7842 0.15118,0.2934 0.16657,0.3743 0.13891,0.7296 -0.0792,1.017 -0.69557,1.9665 -3.30389,5.0893 -2.32338,2.7816 -2.53176,3.42 -1.06816,3.2723 0.95821,-0.097 2.02918,-0.4484 3.11686,-1.0234 1.08574,-0.574 2.42177,-1.5208 3.32236,-2.3546 0.20487,-0.1896 0.39256,-0.3155 0.45324,-0.3038 0.33751,0.065 0.51684,1.2526 0.27254,1.8049 -0.1386,0.3134 -0.86609,1.0999 -1.4822,1.6025 -2.58628,2.1099 -6.69664,3.4614 -9.03262,2.97 -1.72497,-0.3629 -2.21682,-1.7229 -1.28808,-3.5618 0.46724,-0.925 1.21304,-1.9224 2.78619,-3.7259 0.98718,-1.1316 1.39421,-1.6616 1.53496,-1.9985 0.081,-0.1937 0.0799,-0.2233 -0.0112,-0.3143 -0.0792,-0.079 -0.16616,-0.093 -0.40976,-0.064 -1.61171,0.1894 -5.60533,2.5714 -8.87646,5.2942 -0.95211,0.7926 -2.52251,2.3206 -3.13612,3.0516 -0.55452,0.6606 -0.774,0.8275 -1.37894,1.0483 -0.67298,0.2456 -1.2997,0.3609 -1.99154,0.3665 -0.67445,0.01 -1.03686,-0.1098 -1.06977,-0.3402 -0.0118,-0.082 0.21337,-0.4403 0.66054,-1.0497 0.37313,-0.5086 0.78025,-1.0645 0.90471,-1.2354 l 0.22629,-0.3107 -0.54667,0.3296 c -1.9708,1.1881 -4.23317,2.1248 -6.08602,2.5199 -1.01901,0.2173 -2.71288,0.2572 -3.41098,0.081 z m 49.54178,-0.032 c -0.066,-0.015 -0.26845,-0.058 -0.44991,-0.095 -0.65641,-0.1324 -1.13737,-0.4863 -1.37501,-1.0119 -0.0924,-0.2044 -0.12238,-0.3976 -0.12338,-0.7949 -6e-4,-0.2887 -0.0139,-0.5249 -0.0294,-0.5249 -0.0155,0 -0.21117,0.1179 -0.4349,0.262 -1.06637,0.6867 -2.09029,1.1827 -3.31005,1.6033 -2.43181,0.8385 -4.67521,0.6959 -5.76605,-0.3666 -0.78763,-0.7672 -0.90853,-1.8881 -0.33408,-3.0977 0.27029,-0.5692 0.55055,-0.9724 1.30696,-1.8803 1.13257,-1.3594 2.01479,-2.2526 3.55624,-3.6005 0.62174,-0.5437 0.64262,-0.5696 0.47562,-0.5895 -0.0961,-0.011 -0.95751,-0.01 -1.91433,0.01 -1.88608,0.032 -2.28637,0.084 -3.0294,0.3953 -0.78194,0.3275 -1.51298,0.8975 -3.03853,2.3693 -1.04486,1.0081 -1.14574,1.0549 -1.3422,0.6221 -0.1543,-0.34 -0.15674,-0.9626 -0.005,-1.361 0.12772,-0.3361 0.8359,-1.1838 1.92529,-2.3044 1.40682,-1.4473 2.38074,-1.9748 4.10604,-2.224 0.95558,-0.138 1.53578,-0.1673 3.37855,-0.1703 1.87147,0 2.52487,0.064 3.26917,0.3337 1.1787,0.4279 1.36821,1.2429 0.56898,2.447 -0.31742,0.4782 -0.64053,0.8377 -2.50195,2.7841 -2.64469,2.7653 -3.2445,3.4791 -3.33677,3.9709 -0.19895,1.0606 1.86681,0.8462 4.66848,-0.4844 0.69552,-0.3303 1.96449,-1.0532 2.62356,-1.4944 0.44344,-0.2969 0.51048,-0.3718 1.03263,-1.1545 1.04801,-1.5708 2.75462,-3.6416 3.93483,-4.7744 0.48956,-0.4699 0.69664,-0.6216 1.15992,-0.8498 1.24595,-0.6138 3.04324,-0.9088 3.74666,-0.6148 0.37365,0.1561 0.30549,0.2952 -0.6124,1.25 -2.83793,2.9521 -5.04047,5.6814 -5.72217,7.0908 -0.53189,1.0996 -0.32463,1.4982 0.70322,1.3524 1.96439,-0.2786 4.59282,-1.9443 8.89737,-5.6384 1.2365,-1.0612 1.37839,-1.1723 2.18416,-1.7104 2.25299,-1.5045 4.78152,-2.3651 7.26395,-2.4722 2.61343,-0.1128 4.26175,0.6486 4.83742,2.2346 0.097,0.2673 0.12956,0.4973 0.13163,0.93 0.003,0.5376 -0.011,0.6039 -0.2099,1.0199 -0.11695,0.2446 -0.60382,1.0657 -1.08192,1.8246 -1.06443,1.6894 -1.56819,2.5846 -1.75935,3.1264 -0.1887,0.5347 -0.18494,0.6553 0.0272,0.8674 0.16731,0.1673 0.19958,0.1754 0.70485,0.1754 1.13647,-10e-5 2.86083,-0.3725 8.058,-1.7402 7.97085,-2.0977 11.55644,-2.7769 15.027,-2.8464 2.28593,-0.046 3.81322,0.2102 5.16331,0.8656 0.94359,0.4581 1.47082,1.0581 1.75957,2.0026 0.20339,0.6653 0.15612,1.2737 -0.11006,1.4162 -0.099,0.053 -0.19946,0.025 -0.5415,-0.1465 -0.98524,-0.4961 -1.95934,-0.7768 -3.36189,-0.9687 -0.81231,-0.1111 -3.44652,-0.148 -4.46911,-0.062 -2.55661,0.2136 -5.04513,0.5842 -8.30834,1.2374 -1.71472,0.3432 -2.43634,0.5 -7.28855,1.584 -4.16713,0.9309 -5.67454,1.1873 -7.04859,1.199 -0.97219,0.01 -1.36296,-0.067 -2.01722,-0.3892 -0.44675,-0.22 -1.01468,-0.783 -1.2417,-1.231 -0.17752,-0.3503 -0.30825,-0.8441 -0.33543,-1.2671 -0.003,-0.042 -0.28163,0.1365 -0.61981,0.3972 -1.63327,1.2588 -3.13932,1.9916 -4.84404,2.3568 -0.83275,0.1785 -2.4418,0.196 -3.08551,0.034 -0.64632,-0.163 -1.13338,-0.4319 -1.50062,-0.8285 -0.45603,-0.4926 -0.59259,-0.8709 -0.59834,-1.6574 -0.002,-0.3381 -0.0104,-0.6148 -0.0175,-0.6148 -0.008,-10e-5 -0.25013,0.1575 -0.53989,0.3501 -2.10137,1.3971 -4.12588,2.3277 -5.89578,2.7104 -0.54281,0.1173 -2.02764,0.2107 -2.30954,0.1453 z m 14.74821,-2.6695 c 1.82706,-0.6102 4.52208,-2.7118 6.4448,-5.0255 0.95363,-1.1476 1.52174,-2.3334 1.28659,-2.6856 -0.14762,-0.2211 -0.61208,-0.2596 -1.37291,-0.1141 -1.36543,0.2613 -3.03341,1.1265 -4.63998,2.4068 -0.76702,0.6112 -2.14324,2.0135 -2.65821,2.7084 -0.51997,0.7017 -0.91173,1.4509 -1.01161,1.9345 -0.0587,0.2841 -0.0536,0.3619 0.0353,0.5494 0.14183,0.299 0.38566,0.4064 0.92616,0.408 0.33476,6e-4 0.57332,-0.043 0.9898,-0.1819 z m -7.15973,-11.7329 c -0.16483,-0.068 -0.29994,-0.2186 -0.29994,-0.3347 0,-0.26 4.03976,-4.1586 4.72659,-4.5613 0.3559,-0.2087 1.02266,-0.4226 1.85477,-0.5948 0.86494,-0.1791 2.30252,-0.1977 2.55421,-0.033 0.0894,0.059 0.16258,0.1563 0.16258,0.2175 0,0.2241 -1.88281,1.8998 -3.5093,3.1234 -2.35439,1.7712 -3.15303,2.146 -4.67907,2.1963 -0.39592,0.013 -0.76035,0.01 -0.80984,-0.014 z m -41.97143,-11.599 c -0.26498,-0.039 -0.44011,-0.1462 -0.44011,-0.2694 0,-0.095 1.13798,-1.3422 1.83614,-2.0122 0.29336,-0.2815 0.87878,-0.8131 1.30092,-1.1814 0.66951,-0.5841 0.83038,-0.6938 1.25974,-0.8595 1.27672,-0.4925 3.26562,-0.7171 3.92654,-0.4434 0.34303,0.1419 0.27355,0.2951 -0.45185,0.996 -1.06943,1.0332 -2.42569,2.0935 -3.62428,2.8335 -0.98866,0.6103 -2.8728,1.0737 -3.8071,0.9364 z"
       id="path3146"
       inkscape:connector-curvature="0" />
  </g>
</svg>
